<svg xmlns="http://www.w3.org/2000/svg" xmlns:xlink="http://www.w3.org/1999/xlink" width="1024" zoomAndPan="magnify" viewBox="0 0 768 767.999994" height="1024" preserveAspectRatio="xMidYMid meet" version="1.0"><path fill="#71d171" d="M 269.121094 650.40625 C 246.175781 670.425781 224.890625 692.082031 205.273438 715.375 C 182.296875 742.675781 178.878906 755.980469 168.4375 763.597656 C 163.125 767.476562 149.761719 767.675781 142.882812 759.613281 C 127.621094 741.726562 231.03125 647.71875 269.121094 650.40625 Z M 269.121094 650.40625 " fill-opacity="1" fill-rule="nonzero"/><path fill="#71d171" d="M 185.648438 526.625 C 175.269531 553 163.09375 578.515625 149.121094 603.175781 C 132.746094 632.050781 122.691406 639.472656 119.195312 650.972656 C 117.414062 656.824219 120.8125 668.3125 129.296875 671.464844 C 148.109375 678.460938 198.019531 558.269531 185.648438 526.625 Z M 185.648438 526.625 " fill-opacity="1" fill-rule="nonzero"/><path fill="#00844f" d="M 174.128906 557.429688 C 128.136719 549.699219 77.796875 402.097656 115.738281 374.976562 C 151.363281 349.511719 158.027344 404.160156 168.59375 386.824219 C 188.257812 354.566406 102.074219 280.121094 121.824219 247.917969 C 129.699219 235.078125 166.695312 258.65625 174.128906 245.554688 C 188.902344 219.519531 95.832031 195.9375 120.644531 145.140625 C 125.570312 135.054688 159.421875 154.550781 165.539062 145.140625 C 180.898438 121.511719 109.132812 47.085938 149.742188 24.640625 C 193.683594 0.351562 223.230469 127.417969 232.882812 141.59375 C 237.941406 149.019531 244.699219 110.878906 257.699219 115.605469 C 291.015625 127.714844 244.699219 219.5625 251.789062 232.558594 C 258.53125 244.921875 298.066406 212.492188 307.316406 223.109375 C 334.382812 254.164062 233.554688 346.851562 257.699219 380.226562 C 266.703125 392.671875 306.136719 360.144531 319.132812 381.410156 C 348.863281 430.054688 230.359375 566.882812 174.128906 557.429688 Z M 174.128906 557.429688 " fill-opacity="1" fill-rule="nonzero"/><path fill="#1b1464" d="M 180.238281 555.300781 C 179.914062 555.300781 179.59375 555.261719 179.277344 555.179688 C 178.964844 555.097656 178.664062 554.980469 178.378906 554.828125 C 178.09375 554.671875 177.832031 554.484375 177.59375 554.261719 C 177.355469 554.042969 177.144531 553.792969 176.96875 553.523438 C 176.792969 553.25 176.652344 552.960938 176.546875 552.652344 C 176.441406 552.34375 176.378906 552.027344 176.351562 551.703125 C 176.328125 551.378906 176.34375 551.058594 176.398438 550.738281 C 176.453125 550.417969 176.546875 550.109375 176.679688 549.8125 C 200.261719 496.921875 214.125 436.707031 217.886719 370.835938 C 220.902344 318.042969 217.472656 261.519531 207.695312 202.84375 C 191.019531 102.808594 161.257812 30.273438 160.960938 29.554688 C 160.761719 29.078125 160.660156 28.578125 160.660156 28.0625 C 160.660156 27.542969 160.757812 27.046875 160.957031 26.566406 C 161.15625 26.089844 161.4375 25.667969 161.800781 25.300781 C 162.167969 24.9375 162.589844 24.652344 163.066406 24.457031 C 163.546875 24.257812 164.042969 24.160156 164.5625 24.160156 C 165.078125 24.160156 165.578125 24.257812 166.054688 24.457031 C 166.535156 24.652344 166.957031 24.9375 167.320312 25.300781 C 167.6875 25.667969 167.96875 26.089844 168.167969 26.570312 C 168.46875 27.296875 198.523438 100.503906 215.359375 201.375 C 225.25 260.644531 228.722656 317.773438 225.683594 371.171875 C 221.875 438.027344 207.785156 499.203125 183.804688 552.988281 C 183.648438 553.332031 183.449219 553.648438 183.207031 553.933594 C 182.960938 554.222656 182.679688 554.46875 182.363281 554.671875 C 182.046875 554.878906 181.707031 555.035156 181.347656 555.140625 C 180.984375 555.246094 180.617188 555.300781 180.238281 555.300781 Z M 180.238281 555.300781 " fill-opacity="1" fill-rule="nonzero"/><path fill="#00844f" d="M 233.144531 687.539062 C 181.59375 665.609375 269.351562 457.597656 323.84375 470.601562 C 339.847656 474.421875 299.898438 549.007812 316.179688 551.398438 C 350.550781 556.453125 370.285156 401.410156 421.921875 418.621094 C 437.871094 423.9375 417.847656 466.976562 427.828125 469.421875 C 457.945312 476.789062 488.988281 359.847656 528.847656 378.621094 C 544.796875 386.132812 514.230469 423.589844 525.894531 429.84375 C 554.847656 445.378906 629.546875 351.875 649.949219 382.589844 C 691.300781 444.84375 489.855469 502.496094 495.175781 540.890625 C 498.09375 561.96875 554.25 526.625 557.792969 563.335938 C 562.777344 614.949219 384.113281 593.460938 371.707031 640.714844 C 367.121094 658.195312 426.058594 648.984375 420.148438 682.0625 C 410.6875 735.054688 277.191406 706.28125 233.144531 687.539062 Z M 233.144531 687.539062 " fill-opacity="1" fill-rule="nonzero"/><path fill="#1b1464" d="M 229.929688 675.660156 C 229.550781 675.660156 229.179688 675.605469 228.816406 675.496094 C 228.453125 675.390625 228.113281 675.230469 227.796875 675.023438 C 227.480469 674.816406 227.199219 674.570312 226.953125 674.28125 C 226.707031 673.992188 226.511719 673.671875 226.359375 673.324219 C 226.207031 672.980469 226.105469 672.617188 226.058594 672.242188 C 226.011719 671.867188 226.019531 671.492188 226.082031 671.117188 C 226.144531 670.742188 226.257812 670.386719 226.425781 670.046875 C 226.59375 669.707031 226.804688 669.394531 227.058594 669.117188 C 227.324219 668.832031 253.914062 640.066406 295.804688 604.34375 C 334.488281 571.359375 394.554688 525.484375 461.023438 494.242188 C 604.511719 426.800781 643.882812 389.039062 644.261719 388.667969 C 644.632812 388.304688 645.058594 388.023438 645.539062 387.828125 C 646.015625 387.636719 646.515625 387.539062 647.035156 387.542969 C 647.554688 387.546875 648.050781 387.652344 648.527344 387.855469 C 649.003906 388.058594 649.425781 388.34375 649.785156 388.714844 C 650.148438 389.082031 650.425781 389.507812 650.621094 389.988281 C 650.8125 390.46875 650.90625 390.96875 650.902344 391.488281 C 650.898438 392.003906 650.792969 392.503906 650.589844 392.976562 C 650.382812 393.453125 650.097656 393.875 649.726562 394.234375 C 648.132812 395.796875 609.027344 433.296875 464.34375 501.300781 C 398.65625 532.175781 339.1875 577.605469 300.867188 610.28125 C 259.328125 645.699219 233.058594 674.117188 232.800781 674.402344 C 232.429688 674.804688 231.996094 675.113281 231.496094 675.332031 C 230.996094 675.550781 230.476562 675.660156 229.929688 675.660156 Z M 229.929688 675.660156 " fill-opacity="1" fill-rule="nonzero"/><path fill="#ffffff" d="M 383.460938 611.015625 C 380.851562 602.101562 418.40625 588.339844 426.25 586.816406 C 435.359375 585.050781 460.726562 580.914062 462.175781 589.0625 C 463.898438 598.765625 447.367188 591.953125 413.246094 601.976562 C 392.414062 608.097656 384.949219 616.085938 383.460938 611.015625 Z M 383.460938 611.015625 " fill-opacity="1" fill-rule="nonzero"/><path fill="#ffffff" d="M 487.785156 588.375 C 487.785156 588.652344 487.722656 588.929688 487.605469 589.203125 C 487.484375 589.480469 487.304688 589.746094 487.070312 590.003906 C 486.835938 590.261719 486.546875 590.507812 486.207031 590.738281 C 485.863281 590.972656 485.476562 591.1875 485.042969 591.382812 C 484.605469 591.582031 484.132812 591.757812 483.625 591.914062 C 483.113281 592.066406 482.574219 592.199219 482.003906 592.304688 C 481.4375 592.414062 480.851562 592.492188 480.25 592.546875 C 479.644531 592.601562 479.035156 592.628906 478.421875 592.628906 C 477.808594 592.628906 477.199219 592.601562 476.59375 592.546875 C 475.992188 592.492188 475.40625 592.414062 474.839844 592.304688 C 474.273438 592.199219 473.730469 592.066406 473.222656 591.914062 C 472.710938 591.757812 472.238281 591.582031 471.800781 591.382812 C 471.367188 591.1875 470.980469 590.972656 470.636719 590.738281 C 470.296875 590.507812 470.007812 590.261719 469.773438 590.003906 C 469.539062 589.746094 469.359375 589.480469 469.242188 589.203125 C 469.121094 588.929688 469.058594 588.652344 469.058594 588.375 C 469.058594 588.09375 469.121094 587.820312 469.242188 587.542969 C 469.359375 587.269531 469.539062 587.003906 469.773438 586.746094 C 470.007812 586.488281 470.296875 586.242188 470.636719 586.011719 C 470.980469 585.777344 471.367188 585.5625 471.800781 585.367188 C 472.238281 585.167969 472.710938 584.992188 473.222656 584.835938 C 473.730469 584.679688 474.273438 584.550781 474.839844 584.445312 C 475.40625 584.335938 475.992188 584.257812 476.597656 584.203125 C 477.199219 584.148438 477.808594 584.121094 478.421875 584.121094 C 479.035156 584.121094 479.644531 584.148438 480.25 584.203125 C 480.851562 584.257812 481.4375 584.335938 482.003906 584.445312 C 482.574219 584.550781 483.113281 584.679688 483.625 584.835938 C 484.132812 584.992188 484.605469 585.167969 485.042969 585.367188 C 485.476562 585.5625 485.863281 585.777344 486.207031 586.011719 C 486.546875 586.242188 486.835938 586.488281 487.070312 586.746094 C 487.304688 587.003906 487.484375 587.269531 487.605469 587.542969 C 487.722656 587.820312 487.785156 588.09375 487.785156 588.375 Z M 487.785156 588.375 " fill-opacity="1" fill-rule="nonzero"/><path fill="#ffffff" d="M 133.648438 474.394531 C 124.5 475.996094 115.003906 437.144531 114.367188 429.183594 C 113.625 419.933594 112.339844 394.265625 120.597656 393.738281 C 130.4375 393.105469 121.820312 408.769531 127.984375 443.792969 C 131.746094 465.175781 138.855469 473.484375 133.648438 474.394531 Z M 133.648438 474.394531 " fill-opacity="1" fill-rule="nonzero"/><path fill="#ffffff" d="M 264.125 309.957031 C 255.890625 305.6875 270.273438 283.863281 273.828125 278.128906 C 277.953125 271.46875 294.75 253.015625 297.546875 256.683594 C 299.359375 259.066406 287.613281 268.429688 278.765625 289.730469 C 271.714844 306.695312 268.8125 312.382812 264.125 309.957031 Z M 264.125 309.957031 " fill-opacity="1" fill-rule="nonzero"/></svg>
