<svg xmlns="http://www.w3.org/2000/svg" xmlns:xlink="http://www.w3.org/1999/xlink" width="1024" zoomAndPan="magnify" viewBox="0 0 768 767.999994" height="1024" preserveAspectRatio="xMidYMid meet" version="1.0"><path fill="#0be881" d="M 727.929688 381.472656 C 707.597656 357.941406 638.824219 318.03125 551.804688 333.828125 C 561.027344 224.808594 490.632812 131.644531 531.65625 53.1875 C 543.207031 31.097656 525.464844 5.007812 500.59375 6.890625 C 434.351562 11.914062 326.476562 64.113281 263.269531 191.898438 C 233.753906 251.558594 223.152344 301.992188 225.710938 343.433594 C 126.570312 309.144531 38.09375 341.808594 9.179688 365.371094 C -0.0625 372.894531 2.789062 387.664062 14.097656 391.402344 C 104.535156 421.292969 76.21875 557.382812 183.832031 623.015625 C 270.285156 675.746094 382.070312 585.496094 371.175781 487.691406 C 387.035156 489.175781 403.09375 488.671875 418.707031 486.1875 C 434.277344 542.566406 492.410156 587.132812 550.503906 564.367188 C 646.59375 526.726562 643.085938 412.988281 720.253906 401.726562 C 729.921875 400.363281 734.304688 388.859375 727.929688 381.472656 Z M 727.929688 381.472656 " fill-opacity="1" fill-rule="nonzero"/><path fill="#000000" d="M 761.886719 380.691406 C 743.222656 360.46875 673.609375 321.832031 586.144531 335.621094 C 587.03125 289.703125 574.925781 247.191406 563.757812 208.03125 C 548.527344 154.671875 535.378906 108.601562 556.019531 65.78125 C 562.011719 53.355469 560.800781 39.15625 552.785156 27.816406 C 544.601562 16.25 531.332031 10.246094 517.28125 11.777344 C 499.476562 13.707031 479.648438 19.007812 459.941406 27.082031 C 456.816406 28.371094 455.3125 31.9375 456.601562 35.078125 C 457.886719 38.207031 461.457031 39.707031 464.601562 38.417969 C 483.265625 30.773438 501.941406 25.78125 518.613281 23.957031 C 528.175781 22.914062 537.21875 27.007812 542.777344 34.878906 C 548.1875 42.539062 549 52.085938 544.96875 60.449219 C 522.308594 107.46875 536.710938 157.933594 551.957031 211.371094 C 568.8125 270.460938 587.921875 337.425781 558.730469 410.949219 C 540.664062 456.4375 496.179688 487.980469 439.761719 495.320312 C 433.1875 496.175781 426.644531 496.667969 420.179688 496.835938 C 416.53125 451.519531 414.554688 406.339844 415.074219 363.335938 C 437.386719 358.832031 459.097656 344.183594 478.191406 320.652344 C 493.484375 301.808594 501.714844 284.066406 502.050781 283.316406 C 503.460938 280.238281 502.113281 276.605469 499.046875 275.195312 C 495.96875 273.785156 492.335938 275.136719 490.910156 278.199219 C 490.617188 278.84375 462.210938 339.34375 415.304688 350.757812 C 415.980469 322.902344 417.726562 296.046875 420.851562 270.828125 C 429.496094 201.320312 446.273438 165.976562 453.933594 156.984375 C 456.140625 154.441406 455.898438 150.59375 453.367188 148.359375 C 450.824219 146.121094 446.949219 146.367188 444.710938 148.910156 C 443.730469 150.027344 420.546875 177.207031 409.039062 266.433594 C 408.714844 268.898438 408.441406 271.441406 408.148438 273.941406 C 383.785156 239.621094 373.410156 187.503906 373.304688 186.921875 C 372.660156 183.59375 369.441406 181.421875 366.117188 182.078125 C 362.792969 182.722656 360.632812 185.941406 361.277344 189.265625 C 361.414062 189.96875 364.675781 206.605469 372.03125 227.75 C 381.546875 255.125 393.085938 276.484375 406.339844 291.328125 C 404.394531 312.546875 403.292969 334.671875 402.894531 357.453125 C 402.847656 357.851562 402.847656 358.261719 402.878906 358.675781 C 402.496094 382.699219 402.878906 407.394531 403.921875 432.445312 C 366.425781 411.378906 347.378906 384.445312 337.90625 364.988281 C 326.980469 342.542969 326.0625 324.894531 326.046875 324.589844 C 325.910156 321.21875 323.027344 318.582031 319.6875 318.722656 C 316.300781 318.859375 313.667969 321.707031 313.804688 325.078125 C 313.925781 328.21875 317.835938 401.972656 404.59375 446.691406 C 405.4375 463.285156 406.539062 480 407.875 496.730469 C 375.558594 495.457031 345.339844 485.746094 320.824219 468.984375 C 320.683594 468.875 320.546875 468.785156 320.394531 468.691406 C 307.78125 460.007812 296.6875 449.449219 287.632812 437.210938 C 269.488281 412.667969 260.003906 382.5 259.453125 347.507812 C 258.824219 307.660156 269.902344 262.402344 292.351562 213.011719 C 318.078125 156.417969 355.957031 108.402344 401.898438 74.175781 C 404.609375 72.15625 405.175781 68.308594 403.152344 65.597656 C 401.132812 62.886719 397.285156 62.320312 394.574219 64.34375 C 346.980469 99.808594 307.78125 149.460938 281.195312 207.925781 C 257.980469 258.988281 246.535156 306.003906 247.195312 347.691406 C 247.226562 350.066406 247.316406 352.441406 247.425781 354.769531 C 193.730469 340 147.027344 344.492188 116.902344 351.046875 C 77.015625 359.71875 48.160156 375.574219 34.460938 387.511719 C 28.5625 392.65625 26.035156 400.289062 27.703125 407.960938 C 29.359375 415.578125 35.042969 421.675781 42.523438 423.878906 C 84.9375 436.382812 101.058594 474.546875 119.734375 518.730469 C 139.164062 564.734375 161.199219 616.871094 218.449219 649.289062 C 235.5625 658.988281 254.335938 663.78125 273.414062 663.78125 C 297.46875 663.78125 322.0625 656.152344 344.496094 641.0625 C 356.527344 632.972656 367.328125 623.199219 376.628906 612.121094 C 395.246094 637.019531 414.15625 665.222656 432.820312 697.164062 C 436.253906 718.230469 439.761719 738.546875 443.269531 757.773438 C 443.808594 760.730469 446.394531 762.796875 449.292969 762.796875 C 449.660156 762.796875 450.027344 762.765625 450.394531 762.691406 C 453.722656 762.078125 455.925781 758.890625 455.328125 755.566406 C 445.046875 699.171875 434.597656 633.570312 426.90625 565.855469 C 438.382812 554.132812 449.460938 543.410156 460.09375 533.636719 C 472.03125 552.910156 489.070312 568.566406 508.839844 577.804688 C 522.015625 583.964844 535.945312 587.042969 549.90625 587.042969 C 562.914062 587.042969 575.953125 584.363281 588.425781 579 C 638.242188 557.582031 660.921875 516.9375 680.933594 481.070312 C 699.933594 447.015625 716.332031 417.613281 751.449219 411.316406 C 758.132812 410.121094 763.617188 405.375 765.777344 398.953125 C 767.96875 392.566406 766.511719 385.703125 761.886719 380.691406 Z M 483.371094 497.15625 C 476.964844 502.429688 470.363281 508.066406 463.558594 514.085938 C 462.117188 510.871094 460.847656 507.589844 459.710938 504.234375 C 467.894531 502.367188 475.800781 499.992188 483.371094 497.15625 Z M 376.523438 591.851562 C 362.378906 573.714844 348.449219 557.457031 334.980469 542.90625 C 335.886719 535.351562 337.234375 514.4375 329.21875 488.441406 C 350.074219 499.546875 373.78125 506.441406 398.816406 508.539062 C 401.636719 537.050781 393.269531 566.773438 376.523438 591.851562 Z M 337.679688 630.964844 C 300.824219 655.738281 259.574219 658.558594 224.5 638.703125 C 170.882812 608.351562 150.628906 560.414062 131.042969 514.039062 C 111.996094 468.9375 93.992188 426.347656 46.015625 412.207031 C 42.78125 411.257812 40.4375 408.730469 39.71875 405.433594 C 39.011719 402.21875 40.070312 399 42.550781 396.839844 C 67.667969 374.960938 150.917969 339.265625 248.542969 367.914062 C 251.914062 397.101562 261.71875 422.808594 277.808594 444.578125 C 287.433594 457.585938 299.125 468.832031 312.394531 478.128906 C 321.558594 499.472656 323.398438 518.652344 323.382812 530.679688 C 296.257812 502.78125 271.3125 481.867188 250.550781 466.578125 C 248.3125 456.621094 238.414062 418.960938 213.667969 400.960938 C 210.925781 398.96875 207.09375 399.582031 205.101562 402.308594 C 203.109375 405.050781 203.722656 408.882812 206.449219 410.875 C 221.054688 421.492188 229.878906 441.269531 234.582031 455.300781 C 188.84375 424.324219 158.410156 415.300781 157.015625 414.886719 C 153.769531 413.953125 150.382812 415.820312 149.433594 419.070312 C 148.480469 422.316406 150.367188 425.71875 153.601562 426.667969 C 153.96875 426.777344 190.789062 437.777344 243.425781 476.550781 C 256.050781 485.867188 270.316406 497.339844 285.6875 511.269531 C 276.292969 513.246094 255.316406 515.558594 213.390625 511.910156 C 210.003906 511.636719 207.046875 514.117188 206.757812 517.488281 C 206.464844 520.859375 208.960938 523.832031 212.332031 524.121094 C 228.683594 525.546875 242.0625 526.097656 252.988281 526.097656 C 279.527344 526.097656 291.507812 522.851562 296.183594 520.996094 C 318.84375 542.523438 343.59375 569.242188 369.027344 602.164062 C 360.171875 613.117188 349.644531 622.921875 337.679688 630.964844 Z M 384.414062 602.117188 C 388.886719 595.804688 392.917969 589.140625 396.425781 582.203125 C 404.519531 566.144531 409.421875 549.277344 411.046875 532.363281 C 412.058594 542.75 413.144531 553.136719 414.308594 563.464844 C 414.261719 564.199219 414.339844 564.921875 414.554688 565.625 C 418.402344 599.667969 422.9375 633.1875 427.808594 665.300781 C 413.34375 642.195312 398.800781 621.175781 384.414062 602.117188 Z M 425.203125 550.273438 C 423.75 536.59375 422.414062 522.867188 421.21875 509.125 C 427.886719 508.925781 434.613281 508.402344 441.355469 507.515625 C 443.453125 507.238281 445.523438 506.933594 447.589844 506.59375 C 449.367188 512.109375 451.5 517.488281 454.011719 522.667969 C 444.742188 531.152344 435.132812 540.332031 425.203125 550.273438 Z M 754.179688 395.140625 C 753.425781 397.359375 751.605469 398.9375 749.304688 399.351562 C 708.46875 406.675781 689.914062 439.96875 670.253906 475.203125 C 650.273438 511.023438 629.601562 548.066406 583.617188 567.847656 C 560.675781 577.710938 536.632812 577.34375 514.0625 566.804688 C 495.78125 558.269531 480.121094 543.515625 469.382812 525.378906 C 490.773438 506.335938 510.261719 491.152344 527.515625 479.066406 C 535.777344 484.425781 556.476562 495.703125 584.75 495.703125 C 588.824219 495.703125 593.070312 495.472656 597.453125 494.953125 C 600.808594 494.554688 603.214844 491.503906 602.816406 488.148438 C 602.417969 484.792969 599.367188 482.375 595.996094 482.789062 C 569.871094 485.898438 549.183594 477.242188 538.703125 471.464844 C 586.007812 440.195312 613.816406 433.824219 614.277344 433.714844 C 617.585938 433.011719 619.703125 429.761719 618.996094 426.46875 C 618.308594 423.160156 615.058594 421.03125 611.734375 421.734375 C 610.0625 422.089844 588.152344 427.007812 550.59375 449.296875 C 558.667969 439.078125 565.257812 427.789062 570.117188 415.546875 C 579.339844 392.335938 583.984375 369.890625 585.5625 348.167969 C 664.753906 334.808594 733.476562 368.023438 752.859375 389.042969 C 755.097656 391.417969 754.53125 394.097656 754.179688 395.140625 Z M 754.179688 395.140625 " fill-opacity="1" fill-rule="nonzero"/></svg>
