<svg xmlns="http://www.w3.org/2000/svg" xmlns:xlink="http://www.w3.org/1999/xlink" width="1024" zoomAndPan="magnify" viewBox="0 0 768 767.999994" height="1024" preserveAspectRatio="xMidYMid meet" version="1.0"><path fill="#71d171" d="M 232.757812 480.980469 C 232.757812 480.980469 285.597656 564.667969 293.875 628.097656 C 302.15625 691.53125 266.292969 712.53125 293.875 736.523438 C 321.457031 760.511719 425.066406 767.699219 427.050781 736.523438 C 429.035156 705.34375 400.804688 578.753906 472.84375 511.023438 L 427.050781 420.511719 L 389.820312 420.511719 L 333.53125 572.214844 L 281.382812 444.542969 Z M 232.757812 480.980469 " fill-opacity="1" fill-rule="nonzero"/><path fill="#00844f" d="M 201.851562 454.792969 C 201.851562 454.792969 143.539062 511.007812 61.894531 454.792969 C -0.0429688 412.132812 15.207031 297.210938 64.023438 272.804688 C 50.238281 256.53125 21.171875 189.695312 126.046875 184.792969 C 63.847656 109.933594 184.214844 59.410156 214.488281 101.308594 C 242.273438 45.59375 307.589844 34.140625 405.632812 61.335938 C 405.632812 61.335938 602.28125 3.035156 621.714844 184.792969 C 683.914062 184.792969 719.15625 246.816406 669.96875 317.535156 C 669.96875 317.535156 767.957031 408.539062 702.699219 480.96875 C 637.441406 553.398438 580.507812 474.382812 580.507812 474.382812 C 515.792969 527.640625 445.808594 523.730469 370.617188 463.703125 C 311.8125 502.054688 254.691406 513.023438 201.851562 454.792969 Z M 201.851562 454.792969 " fill-opacity="1" fill-rule="nonzero"/><path fill="#000000" d="M 717.203125 368.808594 C 704.496094 344.070312 687.246094 324.839844 679.242188 316.601562 C 702.023438 281.269531 706.667969 245.191406 691.875 216.875 C 679.917969 193.992188 656.371094 179.675781 628.113281 177.808594 C 621.601562 128.71875 601.449219 92.613281 568.160156 70.40625 C 540.519531 51.976562 503.261719 43.382812 460.367188 45.566406 C 433.246094 46.945312 412.101562 52.121094 405.617188 53.859375 C 308.550781 27.355469 243.796875 39.285156 212.921875 89.351562 C 202.3125 80.898438 186.992188 77.375 169.3125 79.589844 C 135.316406 83.84375 112.476562 105.03125 104.914062 124.148438 C 99.984375 136.609375 97.902344 155.570312 112.589844 178.597656 C 77.261719 182.347656 54.980469 194.378906 46.253906 214.417969 C 37.6875 234.082031 45.046875 256.820312 53.644531 270.664062 C 32.082031 285.828125 16.960938 317.722656 14.375 354.777344 C 11.199219 400.1875 27.453125 439.785156 57.828125 460.699219 C 102.300781 491.332031 140.363281 489.605469 164.453125 482.777344 C 181.800781 477.863281 194.464844 469.726562 201.234375 464.609375 C 209.644531 473.207031 218.398438 480.320312 227.425781 486.011719 C 233.835938 496.417969 279.285156 571.941406 286.730469 629.019531 C 290.398438 657.121094 284.992188 676.339844 280.652344 691.777344 C 275.460938 710.21875 270.976562 726.128906 289.144531 741.941406 C 305.128906 755.839844 342.863281 764.507812 375.578125 764.507812 C 391.246094 764.507812 405.761719 762.523438 416.183594 758.167969 C 430.355469 752.246094 433.804688 743.378906 434.222656 736.980469 C 434.640625 730.472656 433.878906 720.738281 432.929688 708.4375 C 429.207031 660.238281 422.304688 571.136719 475.460938 518.484375 C 479.082031 518.769531 482.691406 518.914062 486.285156 518.914062 C 518.453125 518.914062 549.558594 507.429688 579.414062 484.445312 C 588.828125 495.199219 611.511719 517.003906 641.582031 518.640625 C 664.882812 519.921875 687.246094 508.867188 708.03125 485.796875 C 736.894531 453.757812 740.058594 413.308594 717.203125 368.808594 Z M 418.597656 709.527344 C 419.503906 721.273438 420.222656 730.558594 419.878906 736.0625 C 419.660156 739.453125 416.558594 742.429688 410.648438 744.902344 C 383.929688 756.054688 317.953125 747.933594 298.589844 731.101562 C 287.839844 721.761719 289.144531 714.703125 294.492188 695.6875 C 298.949219 679.859375 305.042969 658.199219 300.992188 627.179688 C 295.011719 581.3125 267.039062 526.304688 250.710938 497.28125 C 261.492188 500.960938 272.617188 502.773438 284.058594 502.65625 C 288.3125 502.613281 292.625 502.296875 296.980469 501.753906 L 326.878906 574.945312 C 328 577.691406 330.6875 579.472656 333.648438 579.414062 C 336.609375 579.371094 339.238281 577.503906 340.273438 574.730469 L 376.4375 477.246094 C 404.265625 497.726562 431.519531 510.664062 458.097656 516.054688 C 408.105469 573.695312 414.859375 661.21875 418.597656 709.527344 Z M 311.410156 499.035156 C 326.949219 495.210938 343.308594 488.285156 360.757812 478.195312 L 333.21875 552.40625 Z M 697.351562 476.167969 C 679.644531 495.816406 661.160156 505.304688 642.445312 504.28125 C 610.175781 502.570312 586.558594 470.503906 586.328125 470.1875 C 585.164062 468.578125 583.394531 467.515625 581.425781 467.253906 C 579.457031 466.996094 577.472656 467.570312 575.933594 468.835938 C 545.21875 494.121094 512.917969 506.066406 479.859375 504.355469 C 446.628906 502.613281 411.382812 487.046875 375.101562 458.085938 C 373.792969 457.035156 372.214844 456.519531 370.617188 456.519531 C 369.253906 456.519531 367.886719 456.90625 366.695312 457.683594 C 300.429688 500.890625 251.242188 498.519531 207.171875 449.964844 C 205.863281 448.527344 204.039062 447.691406 202.097656 447.621094 C 200.171875 447.5625 198.273438 448.265625 196.867188 449.605469 C 196.722656 449.734375 182.851562 462.800781 159.882812 469.136719 C 129.335938 477.574219 97.742188 470.761719 65.960938 448.871094 C 39.816406 430.859375 25.886719 396.0625 28.691406 355.785156 C 31.164062 320.28125 46.65625 289.519531 67.210938 279.230469 C 69.183594 278.238281 70.589844 276.414062 71.035156 274.242188 C 71.480469 272.085938 70.90625 269.84375 69.484375 268.148438 C 63.074219 260.585938 51.644531 238.003906 59.421875 220.136719 C 68.621094 198.992188 100.90625 193.144531 126.363281 191.949219 C 129.078125 191.820312 131.507812 190.167969 132.601562 187.667969 C 133.707031 185.167969 133.289062 182.277344 131.550781 180.179688 C 116.757812 162.382812 112.175781 144.832031 118.269531 129.410156 C 125.355469 111.472656 147.074219 96.839844 171.078125 93.835938 C 187.808594 91.734375 201.851562 96.089844 208.652344 105.492188 C 210.117188 107.53125 212.5625 108.652344 215.0625 108.453125 C 217.5625 108.25 219.792969 106.742188 220.914062 104.5 C 233.71875 78.8125 254.722656 63.363281 285.121094 57.265625 C 315.535156 51.171875 355.4375 54.867188 403.707031 68.25 C 405 68.609375 406.378906 68.59375 407.675781 68.21875 C 408.578125 67.945312 499.25 41.742188 560.195312 82.378906 C 591.171875 103.019531 609.46875 137.746094 614.574219 185.554688 C 614.960938 189.207031 618.050781 191.980469 621.714844 191.980469 C 647.71875 191.980469 668.660156 203.480469 679.140625 223.542969 C 692.078125 248.296875 686.585938 281.070312 664.0625 313.441406 C 662.019531 316.371094 662.453125 320.367188 665.066406 322.8125 C 665.296875 323.027344 688.8125 345.046875 704.394531 375.390625 C 724.589844 414.660156 722.21875 448.570312 697.351562 476.167969 Z M 697.351562 476.167969 " fill-opacity="1" fill-rule="nonzero"/><path fill="#000000" d="M 287.765625 197.140625 C 289.015625 193.375 286.976562 189.304688 283.210938 188.054688 C 259.320312 180.136719 238.738281 180.753906 222.035156 189.910156 C 198.433594 202.832031 191.820312 228.015625 191.5625 229.078125 C 190.585938 232.917969 192.914062 236.8125 196.734375 237.789062 C 197.339844 237.949219 197.929688 238.019531 198.519531 238.019531 C 201.710938 238.019531 204.628906 235.863281 205.476562 232.628906 C 205.53125 232.429688 210.964844 212.261719 229.0625 202.445312 C 242.101562 195.359375 258.789062 195.113281 278.667969 201.710938 C 282.460938 202.945312 286.515625 200.90625 287.765625 197.140625 Z M 287.765625 197.140625 " fill-opacity="1" fill-rule="nonzero"/><path fill="#000000" d="M 523.628906 203.738281 C 518.136719 189.175781 508.9375 179.171875 496.203125 173.941406 C 465.257812 161.234375 425.066406 182.507812 423.371094 183.425781 C 419.878906 185.308594 418.570312 189.652344 420.4375 193.160156 C 422.304688 196.652344 426.660156 197.972656 430.167969 196.089844 C 430.527344 195.902344 466.148438 177.117188 490.785156 187.25 C 500.714844 191.347656 507.472656 199.570312 511.410156 212.40625 C 512.273438 215.195312 514.730469 217.191406 517.648438 217.449219 C 518.023438 217.480469 554.933594 221.03125 568.144531 241.855469 C 573.964844 251.042969 574.339844 262.253906 569.265625 276.140625 C 567.898438 279.863281 569.8125 283.988281 573.550781 285.351562 C 574.367188 285.65625 575.203125 285.796875 576.023438 285.796875 C 578.953125 285.796875 581.699219 283.988281 582.777344 281.082031 C 589.402344 262.957031 588.570312 247.160156 580.277344 234.125 C 566.347656 212.246094 535.5 205.546875 523.628906 203.738281 Z M 523.628906 203.738281 " fill-opacity="1" fill-rule="nonzero"/><path fill="#000000" d="M 406.078125 349.445312 C 394.335938 352.105469 384.789062 356.519531 379.714844 359.175781 C 357.496094 346.15625 336.808594 342.660156 318.167969 348.785156 C 287.707031 358.789062 274.785156 390.84375 274.242188 392.207031 C 272.789062 395.902344 274.601562 400.058594 278.28125 401.507812 C 279.140625 401.855469 280.046875 402.011719 280.925781 402.011719 C 283.785156 402.011719 286.488281 400.300781 287.609375 397.484375 C 287.722656 397.210938 298.71875 370.230469 322.738281 362.410156 C 338.117188 357.394531 355.941406 361.160156 375.734375 373.59375 C 378.0625 375.0625 381.023438 375.0625 383.367188 373.609375 C 383.46875 373.535156 394.304688 366.851562 409.242188 363.476562 C 428.589844 359.105469 445.03125 362.324219 458.125 373.0625 C 461.203125 375.578125 465.730469 375.132812 468.246094 372.054688 C 470.761719 368.980469 470.316406 364.453125 467.238281 361.9375 C 450.796875 348.441406 429.636719 344.128906 406.078125 349.445312 Z M 406.078125 349.445312 " fill-opacity="1" fill-rule="nonzero"/></svg>