<svg xmlns="http://www.w3.org/2000/svg" xmlns:xlink="http://www.w3.org/1999/xlink" width="1024" zoomAndPan="magnify" viewBox="0 0 768 767.999994" height="1024" preserveAspectRatio="xMidYMid meet" version="1.0"><defs><clipPath id="ecab417418"><path d="M 590 19.09375 L 660 19.09375 L 660 215 L 590 215 Z M 590 19.09375 " clip-rule="nonzero"/></clipPath><clipPath id="63a10f23fd"><path d="M 618 160 L 767.773438 160 L 767.773438 232 L 618 232 Z M 618 160 " clip-rule="nonzero"/></clipPath></defs><path fill="#88a80d" d="M 558.890625 207.050781 L 577.992188 187.640625 C 578.519531 187.128906 579.09375 186.671875 579.710938 186.273438 C 580.328125 185.875 580.980469 185.542969 581.664062 185.273438 C 582.347656 185.003906 583.050781 184.800781 583.773438 184.671875 C 584.496094 184.542969 585.226562 184.484375 585.960938 184.496094 C 586.695312 184.507812 587.421875 184.59375 588.140625 184.75 C 588.855469 184.90625 589.550781 185.132812 590.226562 185.425781 C 590.898438 185.722656 591.539062 186.078125 592.140625 186.5 C 592.742188 186.921875 593.300781 187.394531 593.808594 187.925781 L 630.414062 228.300781 C 634.164062 232.4375 633.273438 238.546875 628.46875 241.679688 L 614.757812 250.621094 C 614.242188 250.953125 613.703125 251.238281 613.136719 251.484375 C 612.574219 251.726562 611.996094 251.921875 611.398438 252.070312 C 610.804688 252.21875 610.203125 252.316406 609.589844 252.367188 C 608.980469 252.414062 608.367188 252.414062 607.753906 252.363281 C 607.144531 252.3125 606.542969 252.214844 605.945312 252.0625 C 605.351562 251.914062 604.773438 251.71875 604.210938 251.472656 C 603.644531 251.230469 603.105469 250.941406 602.589844 250.609375 C 602.074219 250.277344 601.589844 249.90625 601.136719 249.496094 L 558.890625 209.492188 " fill-opacity="1" fill-rule="nonzero"/><g clip-path="url(#ecab417418)"><path fill="#88a80d" d="M 590.394531 201.835938 C 590.394531 201.835938 609.691406 149.921875 610.738281 110.117188 C 611.402344 84.917969 603.558594 48.898438 599.011719 30.347656 C 598.929688 30.007812 598.867188 29.660156 598.824219 29.308594 C 598.78125 28.957031 598.757812 28.605469 598.757812 28.253906 C 598.757812 27.898438 598.777344 27.546875 598.816406 27.195312 C 598.859375 26.84375 598.917969 26.5 599 26.15625 C 599.082031 25.8125 599.183594 25.472656 599.304688 25.140625 C 599.429688 24.808594 599.570312 24.488281 599.730469 24.171875 C 599.890625 23.855469 600.066406 23.550781 600.261719 23.257812 C 600.457031 22.964844 600.671875 22.683594 600.902344 22.414062 C 601.128906 22.144531 601.375 21.890625 601.632812 21.652344 C 601.894531 21.410156 602.164062 21.1875 602.453125 20.980469 C 602.738281 20.773438 603.035156 20.582031 603.34375 20.410156 C 603.652344 20.238281 603.96875 20.085938 604.292969 19.949219 C 604.621094 19.816406 604.953125 19.699219 605.292969 19.605469 C 605.632812 19.511719 605.980469 19.433594 606.328125 19.378906 C 606.675781 19.324219 607.027344 19.292969 607.382812 19.28125 C 607.734375 19.265625 608.085938 19.273438 608.4375 19.304688 L 651.628906 22.816406 C 652.210938 22.863281 652.78125 22.964844 653.34375 23.125 C 653.90625 23.285156 654.449219 23.496094 654.96875 23.761719 C 655.488281 24.027344 655.976562 24.339844 656.4375 24.699219 C 656.898438 25.058594 657.316406 25.460938 657.699219 25.90625 C 658.078125 26.347656 658.410156 26.824219 658.699219 27.332031 C 658.988281 27.839844 659.222656 28.371094 659.40625 28.925781 C 659.589844 29.480469 659.714844 30.050781 659.789062 30.628906 C 659.859375 31.207031 659.875 31.789062 659.835938 32.371094 C 658.78125 47.242188 655.464844 78.933594 645.296875 112.558594 C 636.222656 142.589844 602.359375 214.976562 602.359375 214.976562 Z M 590.394531 201.835938 " fill-opacity="1" fill-rule="nonzero"/></g><path fill="#88a80d" d="M 600.714844 211.238281 C 600.714844 211.238281 654.117188 141.761719 668.265625 116.4375 C 674.453125 105.371094 687.730469 78.40625 695.480469 62.523438 C 695.65625 62.164062 695.851562 61.816406 696.066406 61.480469 C 696.28125 61.140625 696.515625 60.820312 696.765625 60.507812 C 697.019531 60.199219 697.289062 59.902344 697.574219 59.625 C 697.859375 59.34375 698.160156 59.082031 698.476562 58.835938 C 698.792969 58.59375 699.121094 58.367188 699.464844 58.160156 C 699.804688 57.953125 700.160156 57.765625 700.523438 57.597656 C 700.886719 57.433594 701.257812 57.285156 701.636719 57.164062 C 702.015625 57.039062 702.402344 56.9375 702.792969 56.855469 C 703.1875 56.777344 703.582031 56.71875 703.980469 56.683594 C 704.378906 56.648438 704.777344 56.636719 705.175781 56.648438 C 705.574219 56.660156 705.972656 56.695312 706.371094 56.75 C 706.765625 56.804688 707.15625 56.886719 707.542969 56.988281 C 707.929688 57.089844 708.308594 57.210938 708.683594 57.355469 C 709.054688 57.5 709.417969 57.667969 709.769531 57.851562 C 710.125 58.039062 710.46875 58.246094 710.796875 58.472656 C 711.128906 58.695312 711.441406 58.941406 711.746094 59.203125 L 743.519531 86.714844 C 743.8125 86.972656 744.09375 87.242188 744.359375 87.53125 C 744.625 87.820312 744.875 88.121094 745.105469 88.4375 C 745.335938 88.753906 745.550781 89.078125 745.746094 89.417969 C 745.941406 89.757812 746.117188 90.109375 746.273438 90.46875 C 746.425781 90.828125 746.5625 91.195312 746.675781 91.566406 C 746.792969 91.941406 746.886719 92.324219 746.957031 92.707031 C 747.03125 93.09375 747.078125 93.480469 747.109375 93.871094 C 747.136719 94.261719 747.144531 94.652344 747.128906 95.042969 C 747.113281 95.433594 747.078125 95.824219 747.015625 96.210938 C 746.957031 96.597656 746.878906 96.980469 746.777344 97.359375 C 746.675781 97.738281 746.550781 98.109375 746.410156 98.472656 C 746.265625 98.835938 746.101562 99.191406 745.917969 99.539062 C 745.734375 99.882812 745.53125 100.21875 745.3125 100.542969 C 745.089844 100.867188 744.851562 101.175781 744.597656 101.472656 C 744.34375 101.769531 744.070312 102.050781 743.785156 102.316406 C 743.496094 102.582031 743.195312 102.832031 742.878906 103.066406 C 730.355469 112.300781 709.445312 126.988281 694.101562 140.707031 C 672.382812 160.125 614.378906 226.023438 614.378906 226.023438 Z M 600.714844 211.238281 " fill-opacity="1" fill-rule="nonzero"/><g clip-path="url(#63a10f23fd)"><path fill="#88a80d" d="M 618.15625 218.253906 C 618.15625 218.253906 667.195312 181.3125 685.484375 172.339844 C 711.828125 159.414062 742.769531 160.289062 758.414062 161.867188 C 759.074219 161.9375 759.726562 162.070312 760.363281 162.269531 C 761 162.46875 761.609375 162.726562 762.191406 163.050781 C 762.777344 163.371094 763.324219 163.746094 763.832031 164.179688 C 764.339844 164.609375 764.800781 165.085938 765.214844 165.609375 C 765.625 166.136719 765.980469 166.695312 766.28125 167.289062 C 766.582031 167.886719 766.820312 168.503906 766.996094 169.148438 C 767.171875 169.792969 767.28125 170.445312 767.324219 171.113281 C 767.371094 171.777344 767.347656 172.441406 767.257812 173.101562 L 764.464844 194.0625 C 764.371094 194.742188 764.210938 195.410156 763.984375 196.058594 C 763.753906 196.707031 763.460938 197.324219 763.105469 197.910156 C 762.746094 198.5 762.335938 199.042969 761.863281 199.546875 C 761.394531 200.050781 760.878906 200.5 760.316406 200.894531 C 759.753906 201.289062 759.15625 201.625 758.527344 201.894531 C 757.894531 202.167969 757.242188 202.371094 756.566406 202.511719 C 755.894531 202.648438 755.214844 202.714844 754.527344 202.710938 C 753.835938 202.707031 753.15625 202.632812 752.484375 202.488281 C 739.183594 199.664062 714.859375 196.304688 688.976562 201.671875 C 672.425781 205.101562 628.398438 231.699219 628.398438 231.699219 Z M 618.15625 218.253906 " fill-opacity="1" fill-rule="nonzero"/></g><path fill="#1b1464" d="M 630.949219 235.679688 C 630.394531 235.679688 629.859375 235.570312 629.351562 235.34375 C 628.839844 235.121094 628.398438 234.804688 628.023438 234.394531 L 587.46875 190.390625 C 587.289062 190.199219 587.132812 189.988281 586.996094 189.765625 C 586.863281 189.542969 586.75 189.308594 586.660156 189.066406 C 586.566406 188.820312 586.503906 188.566406 586.460938 188.308594 C 586.421875 188.050781 586.40625 187.792969 586.417969 187.53125 C 586.429688 187.269531 586.464844 187.011719 586.527344 186.757812 C 586.585938 186.503906 586.671875 186.257812 586.78125 186.019531 C 586.890625 185.785156 587.023438 185.558594 587.175781 185.347656 C 587.332031 185.136719 587.503906 184.945312 587.695312 184.765625 C 587.886719 184.589844 588.097656 184.433594 588.320312 184.296875 C 588.542969 184.160156 588.777344 184.046875 589.019531 183.957031 C 589.265625 183.867188 589.519531 183.800781 589.777344 183.761719 C 590.035156 183.71875 590.292969 183.707031 590.554688 183.714844 C 590.816406 183.726562 591.074219 183.761719 591.328125 183.824219 C 591.582031 183.886719 591.828125 183.972656 592.0625 184.082031 C 592.300781 184.191406 592.523438 184.324219 592.738281 184.476562 C 592.949219 184.628906 593.140625 184.804688 593.320312 184.996094 L 633.875 229 C 634.136719 229.285156 634.351562 229.601562 634.519531 229.949219 C 634.691406 230.296875 634.808594 230.660156 634.871094 231.042969 C 634.9375 231.421875 634.945312 231.804688 634.894531 232.1875 C 634.847656 232.574219 634.746094 232.941406 634.59375 233.296875 C 634.4375 233.648438 634.234375 233.976562 633.984375 234.269531 C 633.734375 234.566406 633.449219 234.816406 633.125 235.03125 C 632.800781 235.242188 632.453125 235.402344 632.085938 235.511719 C 631.714844 235.625 631.335938 235.679688 630.949219 235.679688 Z M 630.949219 235.679688 " fill-opacity="1" fill-rule="nonzero"/><path fill="#1b1464" d="M 600.714844 202.875 C 600.371094 202.875 600.03125 202.828125 599.699219 202.742188 C 599.367188 202.652344 599.050781 202.523438 598.75 202.351562 C 598.453125 202.183594 598.179688 201.976562 597.933594 201.738281 C 597.6875 201.496094 597.476562 201.226562 597.300781 200.929688 C 597.125 200.636719 596.988281 200.324219 596.894531 199.992188 C 596.796875 199.660156 596.746094 199.324219 596.738281 198.980469 C 596.730469 198.632812 596.769531 198.296875 596.847656 197.960938 C 596.929688 197.625 597.050781 197.308594 597.214844 197.003906 C 597.621094 196.25 637.71875 120.78125 627.734375 41.476562 C 627.703125 41.21875 627.695312 40.957031 627.714844 40.695312 C 627.734375 40.4375 627.777344 40.179688 627.847656 39.929688 C 627.914062 39.675781 628.007812 39.433594 628.125 39.199219 C 628.242188 38.964844 628.378906 38.746094 628.539062 38.539062 C 628.699219 38.332031 628.878906 38.144531 629.078125 37.972656 C 629.273438 37.800781 629.488281 37.652344 629.714844 37.523438 C 629.941406 37.394531 630.179688 37.285156 630.425781 37.203125 C 630.675781 37.121094 630.925781 37.0625 631.1875 37.03125 C 631.445312 37 631.707031 36.992188 631.964844 37.011719 C 632.226562 37.027344 632.484375 37.074219 632.734375 37.140625 C 632.988281 37.210938 633.230469 37.304688 633.464844 37.421875 C 633.699219 37.539062 633.917969 37.675781 634.125 37.835938 C 634.332031 37.996094 634.519531 38.175781 634.691406 38.371094 C 634.863281 38.570312 635.011719 38.78125 635.140625 39.007812 C 635.269531 39.238281 635.375 39.472656 635.457031 39.722656 C 635.542969 39.96875 635.597656 40.222656 635.632812 40.484375 C 641.023438 83.324219 632.203125 124.609375 623.851562 151.699219 C 614.816406 181.019531 604.644531 199.992188 604.21875 200.785156 C 603.871094 201.429688 603.382812 201.9375 602.753906 202.3125 C 602.125 202.6875 601.445312 202.875 600.714844 202.875 Z M 600.714844 202.875 " fill-opacity="1" fill-rule="nonzero"/><path fill="#1b1464" d="M 615.617188 213.246094 C 614.847656 213.246094 614.136719 213.039062 613.484375 212.625 C 612.835938 212.210938 612.347656 211.652344 612.019531 210.957031 C 611.691406 210.257812 611.574219 209.527344 611.671875 208.761719 C 611.769531 207.996094 612.066406 207.316406 612.558594 206.722656 L 713.398438 85.210938 C 713.566406 85.011719 713.75 84.828125 713.953125 84.664062 C 714.15625 84.5 714.375 84.355469 714.605469 84.234375 C 714.835938 84.113281 715.078125 84.011719 715.328125 83.9375 C 715.578125 83.863281 715.832031 83.816406 716.09375 83.792969 C 716.355469 83.765625 716.613281 83.769531 716.875 83.796875 C 717.132812 83.824219 717.386719 83.875 717.636719 83.953125 C 717.886719 84.027344 718.125 84.128906 718.355469 84.253906 C 718.585938 84.378906 718.800781 84.523438 719.003906 84.691406 C 719.203125 84.859375 719.386719 85.042969 719.550781 85.246094 C 719.714844 85.449219 719.859375 85.667969 719.980469 85.898438 C 720.101562 86.128906 720.199219 86.371094 720.273438 86.621094 C 720.351562 86.871094 720.398438 87.125 720.421875 87.386719 C 720.449219 87.644531 720.445312 87.90625 720.417969 88.164062 C 720.390625 88.425781 720.339844 88.679688 720.261719 88.929688 C 720.183594 89.179688 720.085938 89.417969 719.960938 89.648438 C 719.835938 89.878906 719.691406 90.09375 719.523438 90.296875 L 618.683594 211.808594 C 618.304688 212.265625 617.847656 212.617188 617.3125 212.871094 C 616.773438 213.121094 616.210938 213.246094 615.617188 213.246094 Z M 615.617188 213.246094 " fill-opacity="1" fill-rule="nonzero"/><path fill="#1b1464" d="M 630.101562 224.851562 C 629.703125 224.851562 629.3125 224.792969 628.933594 224.679688 C 628.550781 224.5625 628.195312 224.390625 627.867188 224.167969 C 627.539062 223.941406 627.246094 223.675781 627 223.367188 C 626.75 223.054688 626.550781 222.714844 626.402344 222.34375 C 626.257812 221.972656 626.167969 221.589844 626.132812 221.195312 C 626.101562 220.796875 626.128906 220.402344 626.214844 220.015625 C 626.300781 219.625 626.441406 219.257812 626.640625 218.910156 C 626.835938 218.5625 627.078125 218.253906 627.367188 217.980469 C 627.96875 217.414062 642.359375 203.945312 665.902344 192.410156 C 687.71875 181.722656 721.757812 170.84375 760.042969 179.722656 C 760.296875 179.78125 760.542969 179.863281 760.78125 179.972656 C 761.019531 180.078125 761.246094 180.210938 761.457031 180.363281 C 761.671875 180.511719 761.867188 180.683594 762.046875 180.875 C 762.222656 181.066406 762.382812 181.273438 762.519531 181.492188 C 762.660156 181.714844 762.773438 181.949219 762.867188 182.191406 C 762.957031 182.4375 763.027344 182.6875 763.070312 182.945312 C 763.113281 183.203125 763.128906 183.464844 763.121094 183.722656 C 763.113281 183.984375 763.078125 184.242188 763.019531 184.496094 C 762.960938 184.753906 762.878906 185 762.769531 185.238281 C 762.664062 185.476562 762.535156 185.699219 762.382812 185.914062 C 762.230469 186.125 762.058594 186.320312 761.867188 186.5 C 761.679688 186.679688 761.472656 186.835938 761.25 186.976562 C 761.027344 187.113281 760.796875 187.230469 760.550781 187.320312 C 760.308594 187.414062 760.054688 187.480469 759.796875 187.523438 C 759.539062 187.566406 759.28125 187.585938 759.019531 187.578125 C 758.757812 187.570312 758.5 187.535156 758.246094 187.476562 C 722.332031 179.148438 690.234375 189.390625 669.632812 199.445312 C 647.105469 210.441406 632.96875 223.636719 632.828125 223.769531 C 632.0625 224.492188 631.15625 224.855469 630.101562 224.851562 Z M 630.101562 224.851562 " fill-opacity="1" fill-rule="nonzero"/><path fill="#ef5323" d="M 39.070312 678.703125 C -0.046875 631.617188 133.5625 520.402344 173.648438 474.140625 C 267.601562 365.714844 358.644531 261.328125 429.382812 214.171875 C 475.617188 183.351562 549.15625 152.789062 615.730469 232.285156 C 666.023438 292.339844 613.46875 363.101562 556.085938 420.898438 C 509.617188 467.710938 390.980469 538.589844 332.582031 569.246094 C 256.113281 609.394531 97.292969 748.789062 39.070312 678.703125 Z M 39.070312 678.703125 " fill-opacity="1" fill-rule="nonzero"/><path fill="#1b1464" d="M 484.4375 258.9375 C 483.753906 258.941406 483.109375 258.773438 482.511719 258.441406 C 481.910156 258.109375 481.429688 257.65625 481.0625 257.074219 C 469.421875 238.515625 457.773438 229.566406 450.046875 225.328125 C 441.769531 220.789062 436.132812 220.554688 436.078125 220.550781 C 435.550781 220.535156 435.050781 220.421875 434.570312 220.207031 C 434.089844 219.996094 433.671875 219.699219 433.308594 219.316406 C 432.945312 218.9375 432.671875 218.503906 432.480469 218.015625 C 432.292969 217.523438 432.203125 217.019531 432.210938 216.492188 C 432.222656 215.96875 432.332031 215.464844 432.542969 214.984375 C 432.753906 214.503906 433.046875 214.078125 433.421875 213.714844 C 433.800781 213.347656 434.230469 213.070312 434.71875 212.875 C 435.207031 212.683594 435.714844 212.585938 436.238281 212.59375 C 437.324219 212.613281 463.113281 213.476562 487.804688 252.84375 C 488.1875 253.457031 488.390625 254.125 488.410156 254.847656 C 488.433594 255.570312 488.265625 256.25 487.917969 256.882812 C 487.566406 257.515625 487.082031 258.019531 486.457031 258.386719 C 485.835938 258.753906 485.160156 258.9375 484.4375 258.9375 Z M 484.4375 258.9375 " fill-opacity="1" fill-rule="nonzero"/><path fill="#1b1464" d="M 545.867188 428.167969 C 545.414062 428.167969 544.972656 428.089844 544.546875 427.941406 C 544.117188 427.789062 543.730469 427.574219 543.375 427.289062 C 543.023438 427.003906 542.726562 426.671875 542.488281 426.285156 C 542.25 425.902344 542.082031 425.488281 541.984375 425.046875 C 534.621094 391.679688 514.21875 370.949219 514.011719 370.742188 C 513.828125 370.558594 513.664062 370.355469 513.519531 370.140625 C 513.371094 369.921875 513.25 369.691406 513.152344 369.453125 C 513.050781 369.210938 512.976562 368.960938 512.925781 368.703125 C 512.875 368.449219 512.847656 368.191406 512.847656 367.929688 C 512.847656 367.667969 512.875 367.40625 512.925781 367.152344 C 512.976562 366.894531 513.050781 366.648438 513.152344 366.40625 C 513.253906 366.164062 513.375 365.933594 513.519531 365.71875 C 513.664062 365.5 513.832031 365.300781 514.015625 365.113281 C 514.199219 364.929688 514.402344 364.765625 514.617188 364.621094 C 514.835938 364.476562 515.066406 364.351562 515.308594 364.253906 C 515.546875 364.152344 515.796875 364.078125 516.054688 364.027344 C 516.308594 363.976562 516.570312 363.949219 516.828125 363.949219 C 517.089844 363.949219 517.351562 363.976562 517.605469 364.027344 C 517.863281 364.078125 518.109375 364.152344 518.351562 364.253906 C 518.59375 364.355469 518.824219 364.476562 519.039062 364.621094 C 519.257812 364.769531 519.457031 364.933594 519.644531 365.117188 C 520.546875 366.023438 541.898438 387.722656 549.753906 423.328125 C 549.820312 423.621094 549.851562 423.914062 549.847656 424.210938 C 549.84375 424.511719 549.808594 424.804688 549.742188 425.09375 C 549.675781 425.382812 549.574219 425.664062 549.445312 425.929688 C 549.3125 426.199219 549.15625 426.449219 548.96875 426.679688 C 548.78125 426.914062 548.574219 427.121094 548.339844 427.304688 C 548.105469 427.492188 547.855469 427.648438 547.585938 427.777344 C 547.316406 427.90625 547.039062 428.003906 546.746094 428.070312 C 546.457031 428.136719 546.164062 428.167969 545.867188 428.167969 Z M 545.867188 428.167969 " fill-opacity="1" fill-rule="nonzero"/><path fill="#1b1464" d="M 377.007812 338.921875 C 376.34375 338.921875 375.71875 338.765625 375.128906 338.453125 C 374.542969 338.140625 374.066406 337.707031 373.695312 337.15625 C 364.003906 322.667969 354.296875 314.792969 347.855469 310.742188 C 340.917969 306.371094 336.191406 305.382812 336.144531 305.375 C 335.628906 305.269531 335.152344 305.074219 334.714844 304.78125 C 334.277344 304.492188 333.910156 304.128906 333.617188 303.691406 C 333.324219 303.257812 333.125 302.78125 333.019531 302.265625 C 332.914062 301.75 332.914062 301.234375 333.011719 300.71875 C 333.109375 300.203125 333.304688 299.726562 333.59375 299.289062 C 333.878906 298.847656 334.242188 298.480469 334.675781 298.183594 C 335.109375 297.886719 335.582031 297.683594 336.097656 297.574219 C 336.609375 297.46875 337.125 297.460938 337.640625 297.554688 C 338.535156 297.726562 359.777344 302.039062 380.308594 332.726562 C 380.71875 333.335938 380.941406 334.007812 380.976562 334.742188 C 381.015625 335.476562 380.859375 336.167969 380.515625 336.8125 C 380.167969 337.460938 379.679688 337.976562 379.050781 338.351562 C 378.421875 338.730469 377.742188 338.921875 377.007812 338.921875 Z M 377.007812 338.921875 " fill-opacity="1" fill-rule="nonzero"/><path fill="#1b1464" d="M 437.417969 489.363281 C 436.964844 489.363281 436.523438 489.285156 436.097656 489.136719 C 435.671875 488.984375 435.28125 488.765625 434.925781 488.484375 C 434.574219 488.199219 434.277344 487.863281 434.039062 487.480469 C 433.800781 487.09375 433.632812 486.679688 433.535156 486.238281 C 424.972656 447.324219 392.257812 430.945312 391.929688 430.785156 C 391.695312 430.667969 391.472656 430.53125 391.265625 430.375 C 391.058594 430.21875 390.867188 430.039062 390.695312 429.84375 C 390.523438 429.648438 390.371094 429.441406 390.238281 429.214844 C 390.105469 428.988281 389.996094 428.753906 389.910156 428.507812 C 389.828125 428.257812 389.765625 428.007812 389.730469 427.75 C 389.695312 427.488281 389.683594 427.230469 389.699219 426.96875 C 389.714844 426.707031 389.757812 426.453125 389.824219 426.199219 C 389.890625 425.945312 389.980469 425.703125 390.09375 425.46875 C 390.207031 425.234375 390.34375 425.011719 390.5 424.804688 C 390.65625 424.59375 390.832031 424.40625 391.027344 424.230469 C 391.222656 424.058594 391.433594 423.90625 391.660156 423.773438 C 391.882812 423.640625 392.121094 423.53125 392.367188 423.445312 C 392.613281 423.359375 392.867188 423.300781 393.125 423.265625 C 393.382812 423.226562 393.640625 423.21875 393.902344 423.234375 C 394.164062 423.246094 394.421875 423.289062 394.671875 423.355469 C 394.925781 423.417969 395.167969 423.507812 395.402344 423.621094 C 396.890625 424.34375 431.894531 441.738281 441.308594 484.527344 C 441.371094 484.816406 441.402344 485.113281 441.398438 485.410156 C 441.398438 485.707031 441.363281 486 441.292969 486.292969 C 441.226562 486.582031 441.128906 486.859375 440.996094 487.128906 C 440.867188 487.394531 440.707031 487.644531 440.519531 487.875 C 440.335938 488.109375 440.125 488.316406 439.890625 488.503906 C 439.65625 488.6875 439.40625 488.84375 439.136719 488.972656 C 438.871094 489.101562 438.589844 489.199219 438.300781 489.265625 C 438.007812 489.328125 437.714844 489.363281 437.417969 489.363281 Z M 437.417969 489.363281 " fill-opacity="1" fill-rule="nonzero"/><path fill="#1b1464" d="M 277.449219 447.730469 C 277.050781 447.730469 276.660156 447.671875 276.277344 447.554688 C 275.894531 447.4375 275.539062 447.265625 275.207031 447.039062 C 274.875 446.8125 274.585938 446.546875 274.335938 446.230469 C 274.089844 445.917969 273.890625 445.578125 273.746094 445.203125 C 263.972656 420.277344 236.695312 414.617188 236.421875 414.5625 C 236.164062 414.511719 235.914062 414.4375 235.675781 414.339844 C 235.433594 414.238281 235.203125 414.117188 234.988281 413.972656 C 234.769531 413.828125 234.566406 413.664062 234.382812 413.480469 C 234.199219 413.296875 234.03125 413.097656 233.886719 412.878906 C 233.742188 412.664062 233.617188 412.433594 233.515625 412.195312 C 233.417969 411.953125 233.339844 411.703125 233.289062 411.449219 C 233.238281 411.191406 233.210938 410.933594 233.210938 410.671875 C 233.207031 410.414062 233.234375 410.152344 233.28125 409.898438 C 233.332031 409.640625 233.40625 409.394531 233.507812 409.152344 C 233.605469 408.910156 233.726562 408.679688 233.871094 408.460938 C 234.015625 408.246094 234.179688 408.042969 234.363281 407.859375 C 234.546875 407.671875 234.746094 407.507812 234.960938 407.359375 C 235.175781 407.214844 235.40625 407.089844 235.648438 406.988281 C 235.886719 406.886719 236.136719 406.8125 236.390625 406.757812 C 236.648438 406.707031 236.90625 406.679688 237.164062 406.679688 C 237.425781 406.675781 237.683594 406.703125 237.941406 406.75 C 239.234375 407 269.753906 413.222656 281.152344 442.296875 C 281.269531 442.601562 281.351562 442.910156 281.394531 443.234375 C 281.433594 443.554688 281.4375 443.875 281.402344 444.195312 C 281.363281 444.519531 281.289062 444.832031 281.175781 445.136719 C 281.066406 445.4375 280.917969 445.726562 280.734375 445.992188 C 280.550781 446.261719 280.339844 446.5 280.097656 446.71875 C 279.859375 446.933594 279.59375 447.117188 279.308594 447.269531 C 279.023438 447.421875 278.722656 447.535156 278.40625 447.613281 C 278.09375 447.691406 277.773438 447.730469 277.449219 447.730469 Z M 277.449219 447.730469 " fill-opacity="1" fill-rule="nonzero"/><path fill="#1b1464" d="M 332.707031 565.199219 C 332.210938 565.199219 331.734375 565.105469 331.269531 564.925781 C 330.808594 564.75 330.394531 564.492188 330.027344 564.15625 C 329.664062 563.824219 329.371094 563.433594 329.148438 562.988281 C 328.929688 562.546875 328.796875 562.078125 328.75 561.582031 C 326.648438 538.8125 311.996094 524.09375 311.847656 523.945312 C 311.472656 523.574219 311.183594 523.148438 310.980469 522.660156 C 310.777344 522.175781 310.671875 521.667969 310.671875 521.140625 C 310.667969 520.613281 310.765625 520.105469 310.964844 519.617188 C 311.164062 519.128906 311.449219 518.699219 311.820312 518.324219 C 312.1875 517.949219 312.617188 517.660156 313.101562 517.453125 C 313.589844 517.25 314.09375 517.144531 314.621094 517.140625 C 315.148438 517.136719 315.65625 517.234375 316.144531 517.433594 C 316.632812 517.628906 317.066406 517.914062 317.441406 518.285156 C 318.128906 518.964844 334.308594 535.21875 336.675781 560.851562 C 336.699219 561.113281 336.695312 561.371094 336.667969 561.632812 C 336.640625 561.890625 336.589844 562.148438 336.511719 562.398438 C 336.433594 562.644531 336.332031 562.886719 336.210938 563.117188 C 336.085938 563.34375 335.9375 563.558594 335.773438 563.761719 C 335.605469 563.960938 335.417969 564.144531 335.21875 564.308594 C 335.015625 564.472656 334.796875 564.617188 334.566406 564.738281 C 334.335938 564.859375 334.09375 564.957031 333.84375 565.035156 C 333.59375 565.109375 333.335938 565.15625 333.078125 565.179688 C 332.953125 565.191406 332.828125 565.199219 332.707031 565.199219 Z M 332.707031 565.199219 " fill-opacity="1" fill-rule="nonzero"/><path fill="#1b1464" d="M 234.171875 582.464844 C 233.726562 582.464844 233.289062 582.390625 232.867188 582.242188 C 232.445312 582.097656 232.058594 581.882812 231.707031 581.605469 C 231.355469 581.328125 231.058594 581 230.820312 580.621094 C 230.578125 580.242188 230.40625 579.835938 230.304688 579.402344 C 223.664062 551.320312 196.117188 534.691406 195.839844 534.527344 C 195.617188 534.394531 195.40625 534.242188 195.214844 534.066406 C 195.019531 533.890625 194.84375 533.699219 194.6875 533.492188 C 194.53125 533.28125 194.394531 533.058594 194.28125 532.824219 C 194.167969 532.589844 194.082031 532.34375 194.015625 532.09375 C 193.949219 531.839844 193.910156 531.582031 193.898438 531.320312 C 193.882812 531.0625 193.894531 530.800781 193.929688 530.542969 C 193.96875 530.285156 194.027344 530.03125 194.117188 529.785156 C 194.203125 529.539062 194.3125 529.304688 194.445312 529.078125 C 194.578125 528.855469 194.730469 528.644531 194.90625 528.449219 C 195.078125 528.253906 195.269531 528.078125 195.480469 527.921875 C 195.6875 527.765625 195.910156 527.628906 196.144531 527.515625 C 196.382812 527.402344 196.625 527.316406 196.878906 527.25 C 197.128906 527.183594 197.386719 527.144531 197.648438 527.128906 C 197.910156 527.117188 198.167969 527.125 198.425781 527.164062 C 198.6875 527.199219 198.9375 527.261719 199.183594 527.347656 C 199.429688 527.433594 199.667969 527.542969 199.890625 527.675781 C 201.140625 528.414062 230.613281 546.132812 238.046875 577.566406 C 238.117188 577.859375 238.152344 578.15625 238.15625 578.457031 C 238.15625 578.757812 238.125 579.054688 238.058594 579.347656 C 237.996094 579.640625 237.898438 579.921875 237.769531 580.195312 C 237.640625 580.464844 237.480469 580.71875 237.296875 580.953125 C 237.109375 581.191406 236.898438 581.402344 236.664062 581.589844 C 236.429688 581.777344 236.175781 581.9375 235.90625 582.066406 C 235.636719 582.199219 235.355469 582.296875 235.0625 582.363281 C 234.769531 582.429688 234.472656 582.464844 234.171875 582.464844 Z M 234.171875 582.464844 " fill-opacity="1" fill-rule="nonzero"/><path fill="#1b1464" d="M 187.726562 655.800781 C 187.316406 655.800781 186.921875 655.742188 186.53125 655.617188 C 186.144531 655.496094 185.785156 655.320312 185.449219 655.085938 C 185.117188 654.855469 184.824219 654.578125 184.578125 654.253906 C 184.328125 653.933594 184.132812 653.582031 183.992188 653.199219 C 173.808594 625.59375 163.460938 620.125 163.359375 620.074219 L 163.4375 620.113281 L 166.699219 612.851562 C 168.035156 613.453125 180.082031 619.605469 191.457031 650.445312 C 191.570312 650.746094 191.640625 651.054688 191.679688 651.371094 C 191.714844 651.691406 191.710938 652.007812 191.671875 652.328125 C 191.628906 652.644531 191.550781 652.953125 191.4375 653.253906 C 191.320312 653.550781 191.171875 653.832031 190.988281 654.097656 C 190.804688 654.359375 190.59375 654.597656 190.351562 654.808594 C 190.113281 655.019531 189.851562 655.199219 189.566406 655.347656 C 189.28125 655.496094 188.984375 655.609375 188.671875 655.6875 C 188.363281 655.761719 188.046875 655.800781 187.726562 655.800781 Z M 187.726562 655.800781 " fill-opacity="1" fill-rule="nonzero"/><path fill="#1b1464" d="M 95.617188 640.359375 C 95.039062 640.359375 94.488281 640.238281 93.964844 640 C 93.441406 639.761719 92.988281 639.425781 92.613281 638.988281 C 75.042969 618.753906 57.332031 613.023438 57.15625 612.96875 C 56.90625 612.890625 56.667969 612.785156 56.4375 612.660156 C 56.210938 612.535156 55.996094 612.390625 55.792969 612.222656 C 55.59375 612.054688 55.414062 611.867188 55.25 611.664062 C 55.085938 611.460938 54.941406 611.242188 54.824219 611.011719 C 54.703125 610.78125 54.605469 610.539062 54.53125 610.289062 C 54.457031 610.039062 54.410156 609.78125 54.386719 609.523438 C 54.363281 609.261719 54.367188 609.003906 54.394531 608.742188 C 54.421875 608.484375 54.476562 608.230469 54.554688 607.980469 C 54.632812 607.730469 54.734375 607.492188 54.859375 607.261719 C 54.984375 607.03125 55.132812 606.816406 55.296875 606.617188 C 55.464844 606.417969 55.652344 606.234375 55.855469 606.070312 C 56.058594 605.90625 56.277344 605.765625 56.507812 605.644531 C 56.738281 605.523438 56.980469 605.425781 57.230469 605.351562 C 57.480469 605.28125 57.734375 605.230469 57.996094 605.207031 C 58.253906 605.183594 58.515625 605.1875 58.773438 605.214844 C 59.035156 605.242188 59.289062 605.296875 59.539062 605.375 C 60.347656 605.628906 79.589844 611.851562 98.621094 633.769531 C 99.128906 634.359375 99.441406 635.039062 99.554688 635.808594 C 99.664062 636.578125 99.558594 637.320312 99.234375 638.027344 C 98.914062 638.738281 98.421875 639.304688 97.769531 639.726562 C 97.113281 640.148438 96.394531 640.359375 95.617188 640.359375 Z M 95.617188 640.359375 " fill-opacity="1" fill-rule="nonzero"/><path fill="#ffffff" d="M 613.859375 308.941406 C 622.199219 313.695312 606.296875 340.328125 593.792969 356.03125 C 585.074219 366.980469 568.550781 380.789062 563.953125 376.082031 C 559.863281 371.890625 573.625 360.191406 587.214844 340.324219 C 599.007812 323.085938 605.460938 304.15625 613.859375 308.941406 Z M 613.859375 308.941406 " fill-opacity="1" fill-rule="nonzero"/><path fill="#ffffff" d="M 624.550781 297.941406 C 623.46875 302.316406 621.765625 305.660156 616.347656 304.316406 C 610.933594 302.96875 610.984375 299.226562 612.066406 294.855469 C 613.148438 290.480469 617.152344 287.78125 620.265625 288.480469 C 623.378906 289.183594 625.632812 293.570312 624.550781 297.941406 Z M 624.550781 297.941406 " fill-opacity="1" fill-rule="nonzero"/></svg>
