<svg xmlns="http://www.w3.org/2000/svg" xmlns:xlink="http://www.w3.org/1999/xlink" width="1024" zoomAndPan="magnify" viewBox="0 0 768 767.999994" height="1024" preserveAspectRatio="xMidYMid meet" version="1.0"><defs><clipPath id="28f6691a15"><path d="M 3 28 L 768 28 L 768 767.671875 L 3 767.671875 Z M 3 28 " clip-rule="nonzero"/></clipPath></defs><path fill="#f9f2e4" d="M 37.03125 318.617188 C 37.03125 318.617188 0.585938 198.941406 81.007812 172.78125 C 81.007812 172.78125 110.605469 70.792969 198.058594 86.890625 C 198.058594 86.890625 277.105469 1.875 378.953125 52.429688 C 378.953125 52.429688 514.398438 8.765625 572.285156 84.589844 C 572.285156 84.589844 655.441406 89.1875 641.65625 162.714844 C 641.65625 162.714844 703.699219 194.878906 692.210938 254.621094 C 692.210938 254.621094 739.941406 267.75 733.3125 318.617188 L 385.171875 710.863281 Z M 37.03125 318.617188 " fill-opacity="1" fill-rule="nonzero"/><path fill="#3eb57b" d="M 385.171875 760.121094 C 413.066406 759.933594 429.289062 728.867188 454.605469 697.125 C 479.9375 665.386719 300.84375 676.230469 300.84375 676.230469 C 300.84375 676.230469 325.582031 760.527344 385.171875 760.121094 Z M 385.171875 760.121094 " fill-opacity="1" fill-rule="nonzero"/><path fill="#3eb57b" d="M 385.171875 710.863281 C 385.171875 710.863281 386.953125 589.011719 475.0625 565.351562 C 585.113281 535.816406 529.589844 466.894531 584.113281 450.378906 C 662.347656 426.667969 629.359375 369.207031 650.484375 350.328125 C 696.777344 308.976562 733.3125 337.792969 759.414062 296.957031 C 759.398438 296.957031 737.988281 702.6875 385.171875 710.863281 Z M 385.171875 710.863281 " fill-opacity="1" fill-rule="nonzero"/><path fill="#3eb57b" d="M 385.171875 710.863281 C 385.171875 710.863281 383.390625 589.011719 295.28125 565.351562 C 185.230469 535.816406 240.753906 466.894531 186.230469 450.378906 C 107.996094 426.667969 140.988281 369.207031 119.859375 350.328125 C 73.566406 308.976562 37.03125 337.792969 10.929688 296.957031 C 10.945312 296.957031 32.355469 702.6875 385.171875 710.863281 Z M 385.171875 710.863281 " fill-opacity="1" fill-rule="nonzero"/><path fill="#000000" d="M 180.164062 219.429688 C 180.820312 219.601562 181.460938 219.679688 182.121094 219.679688 C 185.589844 219.679688 188.761719 217.335938 189.683594 213.816406 C 189.746094 213.597656 195.652344 191.671875 215.328125 181 C 229.519531 173.296875 247.664062 173.03125 269.261719 180.203125 C 273.355469 181.5625 277.777344 179.34375 279.136719 175.25 C 280.496094 171.152344 278.277344 166.730469 274.183594 165.371094 C 248.210938 156.761719 225.832031 157.433594 207.671875 167.386719 C 182.011719 181.4375 174.820312 208.816406 174.539062 209.972656 C 173.476562 214.132812 176.007812 218.351562 180.164062 219.429688 Z M 180.164062 219.429688 " fill-opacity="1" fill-rule="nonzero"/><g clip-path="url(#28f6691a15)"><path fill="#000000" d="M 761.789062 289.519531 C 758.398438 288.425781 754.722656 289.769531 752.816406 292.753906 C 749.269531 298.300781 745.566406 302.335938 741.613281 305.367188 C 739.894531 273.84375 717.625 256.308594 700.902344 249.371094 C 703.652344 224.851562 695.480469 201.332031 677.023438 181 C 666.972656 169.917969 656.285156 162.433594 650.203125 158.652344 C 652.894531 138.398438 648.8125 121.191406 638.03125 107.453125 C 619.589844 83.933594 587.226562 78.339844 576.347656 77.105469 C 550.8125 45.835938 508.429688 30.332031 453.652344 32.253906 C 418.585938 33.472656 389 41.316406 379.625 44.054688 C 325.394531 18.3125 277.714844 29.503906 247.054688 43.597656 C 220.546875 55.789062 202.277344 71.871094 195.371094 78.527344 C 158.253906 73.058594 125.5625 87.015625 100.589844 119.003906 C 85.648438 138.148438 77.679688 158.355469 74.785156 166.699219 C 40.90625 179.40625 22.355469 209.941406 21.058594 255.308594 C 20.542969 273.28125 22.839844 290.144531 25.167969 302.304688 C 22.527344 299.742188 19.996094 296.628906 17.542969 292.785156 C 15.636719 289.800781 11.949219 288.472656 8.570312 289.550781 C 5.195312 290.628906 2.976562 293.863281 3.164062 297.394531 C 3.382812 301.601562 9.164062 401.570312 58.738281 504.261719 C 87.992188 564.867188 126.484375 613.5625 173.148438 648.976562 C 212.09375 678.527344 256.742188 698.796875 306.5 709.597656 C 308.734375 713.816406 311.269531 718.191406 314.128906 722.597656 C 333.382812 752.277344 357.792969 767.953125 384.765625 767.953125 C 384.921875 767.953125 385.09375 767.953125 385.25 767.953125 C 411.488281 767.761719 427.820312 745.820312 446.714844 720.425781 C 448.839844 717.582031 450.996094 714.675781 453.199219 711.769531 C 507.273438 701.640625 555.53125 680.636719 597.242188 648.992188 C 643.90625 613.5625 682.398438 564.882812 711.652344 504.277344 C 761.226562 401.585938 767.007812 301.617188 767.226562 297.410156 C 767.382812 293.832031 765.164062 290.597656 761.789062 289.519531 Z M 36.6875 255.386719 C 37.921875 215.195312 53.640625 189.890625 83.429688 180.203125 C 85.882812 179.40625 87.789062 177.4375 88.507812 174.953125 C 88.570312 174.703125 95.851562 150.277344 113.167969 128.253906 C 135.515625 99.828125 163.601562 88.484375 196.636719 94.5625 C 199.261719 95.046875 201.949219 94.15625 203.765625 92.203125 C 203.96875 92 223.21875 71.621094 254.070312 57.554688 C 294.78125 39.003906 335.632812 39.628906 375.484375 59.398438 C 377.3125 60.304688 379.421875 60.460938 381.34375 59.835938 C 382.640625 59.414062 512.242188 18.796875 566.066406 89.3125 C 567.457031 91.125 569.566406 92.25 571.847656 92.375 C 572.207031 92.390625 608.121094 94.625 625.746094 117.097656 C 634.59375 128.363281 637.359375 143.226562 633.96875 161.246094 C 633.328125 164.621094 635 168.027344 638.046875 169.621094 C 638.1875 169.699219 652.800781 177.421875 665.753906 191.84375 C 682.460938 210.425781 688.773438 231.039062 684.523438 253.136719 C 683.757812 257.140625 686.195312 261.0625 690.117188 262.15625 C 691.726562 262.59375 728.234375 273.140625 725.96875 312.757812 C 721.109375 314.085938 715.84375 314.976562 710.058594 315.960938 C 692.023438 318.992188 669.597656 322.777344 645.25 344.53125 C 635.875 352.90625 634.6875 365.535156 633.4375 378.910156 C 631.25 402.242188 628.777344 428.6875 581.800781 442.921875 C 555.046875 451.035156 550.375 470.460938 545.84375 489.257812 C 539.636719 515.03125 533.214844 541.660156 473 557.835938 C 434.351562 568.210938 405.519531 598.171875 389.65625 644.476562 C 387.921875 649.554688 386.421875 654.539062 385.140625 659.382812 C 383.859375 654.539062 382.375 649.554688 380.625 644.476562 C 364.746094 598.171875 335.929688 568.210938 297.28125 557.835938 C 237.050781 541.660156 230.644531 515.03125 224.4375 489.257812 C 219.90625 470.460938 215.234375 451.035156 188.480469 442.921875 C 141.519531 428.6875 139.03125 402.242188 136.84375 378.910156 C 135.59375 365.535156 134.40625 352.90625 125.03125 344.53125 C 100.683594 322.777344 78.242188 319.007812 60.222656 315.960938 C 54.09375 314.929688 48.53125 313.992188 43.421875 312.507812 C 41.15625 303.554688 35.9375 280.238281 36.6875 255.386719 Z M 72.988281 497.871094 C 38.34375 426.261719 25.511719 354.375 21.011719 319.039062 C 32.574219 327.136719 45.25 329.277344 57.660156 331.355469 C 75.363281 334.339844 93.664062 337.417969 114.652344 356.15625 C 119.453125 360.4375 120.3125 369.660156 121.3125 380.347656 C 123.6875 405.761719 126.953125 440.578125 183.964844 457.863281 C 202.136719 463.378906 204.984375 475.117188 209.265625 492.902344 C 215.515625 518.828125 224.0625 554.332031 293.25 572.898438 C 361.746094 591.292969 374.515625 675.902344 376.84375 702.765625 C 301.734375 699.578125 236.472656 677.371094 182.777344 636.675781 C 138.125 602.828125 101.183594 556.132812 72.988281 497.871094 Z M 385.125 752.308594 C 385 752.308594 384.875 752.308594 384.75 752.308594 C 358.386719 752.308594 339.351562 732.914062 326.863281 713.425781 C 345.570312 716.441406 364.949219 718.191406 384.984375 718.660156 C 385.046875 718.660156 385.109375 718.660156 385.171875 718.660156 C 385.234375 718.660156 385.296875 718.660156 385.359375 718.660156 C 400.988281 718.300781 416.226562 717.144531 431.054688 715.238281 C 415.394531 736.195312 402.441406 752.183594 385.125 752.308594 Z M 697.355469 497.871094 C 669.160156 556.132812 632.21875 602.828125 587.554688 636.675781 C 533.855469 677.371094 468.59375 699.578125 393.484375 702.765625 C 395.785156 675.902344 408.441406 591.324219 477.078125 572.898438 C 546.265625 554.316406 554.828125 518.828125 561.0625 492.902344 C 565.34375 475.117188 568.175781 463.378906 586.363281 457.863281 C 643.375 440.59375 646.640625 405.777344 649.015625 380.347656 C 650.015625 369.675781 650.878906 360.4375 655.675781 356.15625 C 676.664062 337.417969 694.964844 334.324219 712.667969 331.355469 C 725.078125 329.261719 737.753906 327.136719 749.316406 319.039062 C 744.816406 354.375 732 426.261719 697.355469 497.871094 Z M 697.355469 497.871094 " fill-opacity="1" fill-rule="nonzero"/></g><path fill="#000000" d="M 433.960938 174.078125 C 434.351562 173.875 473.0625 153.449219 499.863281 164.464844 C 510.664062 168.917969 518.007812 177.859375 522.289062 191.8125 C 523.230469 194.847656 525.902344 197.019531 529.074219 197.300781 C 529.480469 197.332031 569.613281 201.191406 583.972656 223.835938 C 590.304688 233.820312 590.710938 246.011719 585.191406 261.109375 C 583.707031 265.15625 585.785156 269.640625 589.851562 271.125 C 590.742188 271.453125 591.648438 271.609375 592.539062 271.609375 C 595.726562 271.609375 598.710938 269.640625 599.882812 266.484375 C 607.085938 246.777344 606.179688 229.601562 597.164062 215.429688 C 582.050781 191.65625 548.515625 184.359375 535.605469 182.390625 C 529.636719 166.558594 519.632812 155.683594 505.789062 149.992188 C 472.15625 136.179688 428.445312 159.308594 426.601562 160.308594 C 422.804688 162.355469 421.382812 167.074219 423.414062 170.886719 C 425.429688 174.6875 430.148438 176.125 433.960938 174.078125 Z M 433.960938 174.078125 " fill-opacity="1" fill-rule="nonzero"/><path fill="#000000" d="M 268.855469 397.429688 C 269.792969 397.804688 270.777344 397.976562 271.730469 397.976562 C 274.839844 397.976562 277.777344 396.117188 278.996094 393.054688 C 279.121094 392.757812 291.078125 363.425781 317.191406 354.921875 C 333.914062 349.46875 353.292969 353.5625 374.8125 367.082031 C 377.34375 368.675781 380.5625 368.675781 383.09375 367.097656 C 383.21875 367.019531 395.347656 359.578125 411.660156 355.984375 C 432.523438 351.375 450.246094 354.921875 464.390625 366.503906 C 467.71875 369.238281 472.640625 368.753906 475.390625 365.410156 C 478.125 362.0625 477.640625 357.140625 474.296875 354.40625 C 456.386719 339.730469 433.398438 335.027344 407.785156 340.824219 C 395.019531 343.71875 384.640625 348.515625 379.125 351.40625 C 354.964844 337.246094 332.476562 333.449219 312.222656 340.105469 C 279.105469 350.984375 265.054688 385.835938 264.460938 387.320312 C 262.867188 391.320312 264.835938 395.835938 268.855469 397.429688 Z M 268.855469 397.429688 " fill-opacity="1" fill-rule="nonzero"/></svg>
