<svg xmlns="http://www.w3.org/2000/svg" xmlns:xlink="http://www.w3.org/1999/xlink" width="1024" zoomAndPan="magnify" viewBox="0 0 768 767.999994" height="1024" preserveAspectRatio="xMidYMid meet" version="1.0"><defs><clipPath id="c449dbadc6"><path d="M 28 27.839844 L 729 27.839844 L 729 729 L 28 729 Z M 28 27.839844 " clip-rule="nonzero"/></clipPath></defs><path fill="#e34263" d="M 426.21875 438.128906 C 466.132812 363.53125 498.8125 186.359375 554.25 163.785156 C 609.691406 141.210938 662.0625 164.574219 686.507812 192.234375 C 710.949219 219.890625 768 339.429688 645.9375 504.5 C 523.878906 669.574219 204.636719 740.144531 118.40625 717.375 C 32.164062 694.609375 -0.0429688 628.777344 88.117188 625.46875 C 193.027344 621.523438 362.210938 557.761719 426.21875 438.128906 Z M 426.21875 438.128906 " fill-opacity="1" fill-rule="nonzero"/><path fill="#3eb57b" d="M 596.929688 53.097656 C 591.886719 44.941406 621.082031 34.925781 640.96875 34.925781 C 660.855469 34.925781 645.453125 124.027344 645.453125 141.65625 C 645.453125 141.65625 696.003906 159.296875 706.835938 227.449219 C 706.835938 227.449219 661.648438 201.695312 648.355469 201.695312 C 648.355469 201.695312 632.730469 195.082031 600.234375 218.835938 C 600.234375 218.835938 592.636719 194.25 597.527344 174.148438 C 597.527344 174.148438 568.902344 182.414062 528.199219 186.984375 C 528.199219 186.984375 547.003906 129.554688 607.066406 136 C 607.027344 135.988281 611.054688 75.933594 596.929688 53.097656 Z M 596.929688 53.097656 " fill-opacity="1" fill-rule="nonzero"/><g clip-path="url(#c449dbadc6)"><path fill="#000000" d="M 713.421875 224.894531 C 703.574219 166.464844 666.160156 143.628906 652.589844 137.167969 C 652.910156 132.902344 653.523438 126.945312 654.214844 120.371094 C 658.535156 79.15625 661.273438 44.109375 650.800781 32.496094 C 648.160156 29.535156 644.757812 27.980469 640.96875 27.980469 C 632.289062 27.980469 621.496094 29.757812 612.066406 32.746094 C 600.832031 36.300781 593.707031 40.675781 590.875 45.746094 C 588.875 49.34375 588.929688 53.347656 591.027344 56.75 C 600.375 71.863281 601.136719 108.941406 600.457031 128.582031 C 570.722656 127.722656 551.238281 141.847656 539.917969 154.421875 C 528.335938 167.285156 523.019531 180.757812 521.835938 184.066406 C 498.367188 217.113281 479.519531 273.277344 461.148438 328.121094 C 447.257812 369.546875 434.148438 408.664062 420.121094 434.863281 C 384.320312 501.792969 318.421875 544.730469 269.453125 568.972656 C 210.941406 597.9375 143.058594 616.46875 87.867188 618.539062 C 39.621094 620.355469 30.304688 639.695312 29.054688 651.070312 C 26 678.714844 63.648438 710.109375 116.65625 724.113281 C 127.824219 727.058594 142.28125 728.476562 159.167969 728.476562 C 214.039062 728.476562 294.5625 713.570312 370.988281 687.996094 C 429.136719 668.53125 481.894531 644.5 527.808594 616.566406 C 580.859375 584.292969 622.496094 547.980469 651.578125 508.65625 C 744.570312 382.824219 735.960938 280.738281 713.421875 224.894531 Z M 550.222656 163.699219 C 564.847656 147.460938 583.695312 140.460938 606.289062 142.890625 C 608.164062 143.085938 610.054688 142.515625 611.496094 141.308594 C 612.941406 140.085938 613.832031 138.335938 613.957031 136.445312 C 614.121094 133.972656 617.746094 77.101562 604.011719 51.5 C 608.734375 47.816406 625.609375 41.96875 640.578125 41.871094 C 641.382812 42.832031 644.523438 48 644.148438 69.960938 C 643.871094 85.796875 641.953125 104.148438 640.398438 118.902344 C 639.328125 129.097656 638.480469 137.152344 638.480469 141.640625 C 638.480469 144.570312 640.355469 147.199219 643.121094 148.183594 C 644.871094 148.808594 682.921875 162.976562 696.851562 214.03125 C 682.171875 206.25 660.3125 195.566406 649.550781 194.761719 C 644.800781 193.429688 629.84375 191.414062 604.621094 207.375 C 603.039062 199.027344 601.609375 186.511719 604.21875 175.746094 C 604.804688 173.339844 604.066406 170.800781 602.277344 169.089844 C 600.484375 167.382812 597.914062 166.742188 595.554688 167.4375 C 595.304688 167.507812 572.679688 173.964844 539.65625 178.507812 C 542.128906 174.132812 545.585938 168.867188 550.222656 163.699219 Z M 640.371094 500.390625 C 609.996094 541.46875 534.03125 618.746094 366.542969 674.796875 C 282.785156 702.832031 171.265625 724.15625 120.171875 710.667969 C 96.578125 704.429688 75.5625 694.359375 61.023438 682.300781 C 48.703125 672.089844 41.898438 660.976562 42.832031 652.585938 C 44.109375 640.972656 61.132812 633.441406 88.367188 632.414062 C 145.421875 630.277344 215.402344 611.203125 275.589844 581.417969 C 326.378906 556.277344 394.804688 511.585938 432.359375 441.421875 C 446.925781 414.191406 460.230469 374.519531 474.300781 332.539062 C 491.464844 281.320312 510.324219 225.113281 532.015625 193.527344 C 557.347656 190.523438 577.640625 186.234375 589.109375 183.480469 C 587.847656 202.027344 593.304688 219.988281 593.582031 220.890625 C 594.25 223.03125 595.902344 224.726562 598.039062 225.433594 C 600.164062 226.144531 602.511719 225.78125 604.316406 224.449219 C 630.871094 205.027344 644.355469 207.777344 645.757812 208.152344 C 646.675781 208.597656 647.273438 208.640625 648.34375 208.640625 C 655.9375 208.640625 683.074219 222.074219 701.242188 232.269531 C 707.824219 249.246094 713.238281 271.109375 714.238281 297.128906 C 716.726562 362.351562 691.867188 430.738281 640.371094 500.390625 Z M 640.371094 500.390625 " fill-opacity="1" fill-rule="nonzero"/></g></svg>
