<svg xmlns="http://www.w3.org/2000/svg" xmlns:xlink="http://www.w3.org/1999/xlink" width="1024" zoomAndPan="magnify" viewBox="0 0 768 767.999994" height="1024" preserveAspectRatio="xMidYMid meet" version="1.0"><defs><clipPath id="b68c373fb8"><path d="M 121 44 L 646.710938 44 L 646.710938 767 L 121 767 Z M 121 44 " clip-rule="nonzero"/></clipPath></defs><path fill="#f8d940" d="M 249.605469 446.632812 C 254.960938 416.542969 240.820312 247.128906 304.949219 112.199219 C 322.546875 75.175781 371.734375 0.507812 417.234375 104.992188 C 462.144531 208.109375 480.574219 345.367188 477 426.511719 L 368.691406 700.308594 Z M 249.605469 446.632812 " fill-opacity="1" fill-rule="nonzero"/><path fill="#a5cd39" d="M 438.074219 465.949219 C 504.917969 368.949219 627.734375 360.878906 639.289062 458.511719 C 639.289062 458.511719 595.855469 428.234375 548.292969 420.179688 " fill-opacity="1" fill-rule="nonzero"/><path fill="#3eb57b" d="M 548.304688 420.179688 C 521.292969 416.542969 491.710938 420.222656 464.714844 440.167969 C 387.839844 496.984375 422.644531 579.222656 366.726562 673.320312 C 366.726562 673.320312 338.636719 604.15625 319.074219 551.976562 C 302.210938 507.011719 238.597656 399.925781 129.097656 360.863281 C 129.097656 360.863281 217.628906 407.667969 215.300781 506.765625 C 212.976562 605.863281 268.882812 680.417969 322.460938 701.730469 C 322.460938 701.730469 299.167969 739.328125 322.460938 751.59375 C 345.757812 763.859375 418.710938 767.421875 400.871094 712.386719 C 400.871094 712.386719 494.597656 707.070312 491.222656 605.863281 C 488.023438 510.113281 502.105469 457.015625 548.304688 420.179688 Z M 548.304688 420.179688 " fill-opacity="1" fill-rule="nonzero"/><path fill="#000000" d="M 307.003906 338.847656 C 307.347656 338.761719 326.324219 334.308594 351.640625 332.726562 C 352.730469 358.304688 352.746094 402.988281 352.460938 443.054688 C 333.3125 443.011719 316.089844 442.667969 315.773438 442.667969 C 311.8125 442.640625 308.539062 445.742188 308.453125 449.707031 C 308.367188 453.667969 311.523438 456.945312 315.484375 457.03125 C 316.734375 457.058594 333.554688 457.390625 352.34375 457.433594 C 352 495.507812 351.453125 526.269531 351.441406 526.929688 C 351.367188 530.894531 354.527344 534.167969 358.488281 534.242188 C 358.53125 534.242188 358.574219 534.242188 358.617188 534.242188 C 362.519531 534.242188 365.722656 531.109375 365.792969 527.1875 C 365.808594 526.511719 366.351562 495.636719 366.699219 457.390625 C 377.347656 457.316406 387.539062 457.101562 394.84375 456.644531 C 398.804688 456.398438 401.804688 452.980469 401.5625 449.03125 C 401.316406 445.066406 397.929688 442.050781 393.953125 442.308594 C 387.007812 442.742188 377.175781 442.941406 366.8125 443.027344 C 367.097656 402.855469 367.070312 358.035156 365.980469 332.195312 C 383.492188 332.011719 402.695312 333.546875 420.347656 338.746094 C 421.023438 338.945312 421.710938 339.046875 422.386719 339.046875 C 425.488281 339.046875 428.34375 337.023438 429.261719 333.890625 C 430.382812 330.085938 428.214844 326.09375 424.410156 324.972656 C 404.992188 319.242188 384.195312 317.546875 365.421875 317.761719 C 364.859375 295.070312 365.492188 262.039062 366.496094 229.882812 C 377.003906 229.894531 388.011719 231.5625 398.789062 236.488281 C 402.394531 238.140625 406.65625 236.546875 408.308594 232.941406 C 409.957031 229.335938 408.363281 225.070312 404.761719 223.417969 C 391.972656 217.574219 379.054688 215.59375 366.96875 215.535156 C 368.550781 169.546875 370.644531 128.945312 370.6875 128.183594 C 370.886719 124.222656 367.847656 120.847656 363.898438 120.644531 C 359.953125 120.429688 356.5625 123.488281 356.363281 127.4375 C 356.207031 130.582031 354.125 170.910156 352.574219 216.308594 C 343.589844 217.273438 335.394531 218.953125 328.476562 220.375 C 321.371094 221.839844 314.667969 223.21875 311.339844 222.832031 C 307.40625 222.386719 303.847656 225.199219 303.386719 229.136719 C 302.925781 233.070312 305.753906 236.632812 309.6875 237.089844 C 310.621094 237.207031 311.582031 237.25 312.601562 237.25 C 317.710938 237.25 323.882812 235.984375 331.375 234.433594 C 337.605469 233.15625 344.621094 231.707031 352.113281 230.800781 C 351.140625 262.714844 350.535156 295.414062 351.109375 318.28125 C 324.828125 319.886719 305.167969 324.511719 303.6875 324.871094 C 299.839844 325.804688 297.457031 329.667969 298.390625 333.53125 C 299.265625 337.394531 303.140625 339.765625 307.003906 338.847656 Z M 307.003906 338.847656 " fill-opacity="1" fill-rule="nonzero"/><g clip-path="url(#b68c373fb8)"><path fill="#000000" d="M 646.421875 457.664062 C 641.902344 419.488281 620.242188 392.863281 586.988281 384.617188 C 554.820312 376.648438 517.675781 386.296875 484.578125 409.03125 C 485.09375 324.238281 465.300781 197.425781 423.808594 102.117188 C 407.289062 64.171875 388.027344 44.769531 366.539062 44.410156 C 333.140625 43.808594 307.808594 89.480469 298.464844 109.113281 C 247.667969 216.007812 245.386719 341.375 244.167969 408.71875 C 244.035156 415.582031 243.921875 421.84375 243.765625 427.285156 C 209.964844 393.480469 171.613281 368.402344 131.507812 354.097656 C 127.964844 352.835938 124.046875 354.527344 122.523438 357.976562 C 121.003906 361.421875 122.410156 365.457031 125.738281 367.210938 C 126.585938 367.65625 210.320312 413.027344 208.113281 506.59375 C 207.007812 553.773438 218.632812 598.914062 241.769531 637.128906 C 260.429688 667.964844 285.847656 692.335938 312.441406 705.148438 C 308.179688 713.9375 302.539062 728.988281 306.011719 741.785156 C 307.9375 748.851562 312.472656 754.4375 319.117188 757.941406 C 328.503906 762.882812 343.648438 766.273438 358.917969 766.273438 C 373.929688 766.273438 389.074219 762.996094 398.933594 754.683594 C 406.238281 748.519531 413.515625 737.417969 409.855469 718.445312 C 419.300781 716.808594 435.203125 712.816406 451.035156 703.195312 C 473.671875 689.449219 500.253906 661.359375 498.402344 605.605469 C 495.242188 510.601562 509.351562 461.914062 550.300781 427.832031 C 594.421875 436.292969 634.796875 464.109375 635.199219 464.398438 C 637.507812 466.007812 640.566406 466.121094 642.992188 464.671875 C 645.402344 463.21875 646.753906 460.476562 646.421875 457.664062 Z M 258.503906 408.988281 C 259.710938 342.722656 261.949219 219.382812 311.425781 115.289062 C 324.515625 87.742188 345.785156 58.488281 366.296875 58.773438 C 381.4375 59.019531 396.765625 75.992188 410.644531 107.863281 C 453.230469 205.667969 472.492188 337.308594 470.023438 420.121094 C 456.117188 431.78125 443.242188 445.8125 432.175781 461.871094 C 432.117188 461.957031 432.089844 462.042969 432.03125 462.128906 C 410.300781 490.710938 404.101562 523.570312 397.644531 557.851562 C 391.6875 589.460938 385.558594 622.035156 367.746094 656.675781 C 358.53125 633.769531 339.859375 586.976562 325.792969 549.464844 C 316.847656 525.625 295.996094 486.847656 264.289062 449.5625 C 262.019531 446.90625 259.726562 444.277344 257.414062 441.707031 C 258.046875 434.066406 258.261719 423.007812 258.503906 408.988281 Z M 494.367188 488.871094 C 485.640625 518.15625 482.367188 555.410156 484.046875 606.09375 C 487.132812 698.886719 403.988281 704.988281 400.457031 705.203125 C 398.230469 705.335938 396.191406 706.484375 394.945312 708.320312 C 393.695312 710.160156 393.351562 712.472656 394.039062 714.597656 C 398.402344 728.039062 396.96875 737.5625 389.675781 743.710938 C 374.578125 756.433594 339.210938 752.3125 325.804688 745.246094 C 322.648438 743.582031 320.753906 741.296875 319.863281 738.050781 C 317.007812 727.582031 325.175781 711.023438 328.5625 705.519531 C 329.679688 703.710938 329.941406 701.5 329.28125 699.488281 C 328.617188 697.464844 327.082031 695.855469 325.117188 695.066406 C 256.222656 667.675781 220.8125 577.699219 222.480469 506.953125 C 223.453125 465.691406 209.042969 426.898438 180.769531 394.511719 C 206.820312 411.289062 231.347656 432.988281 253.378906 458.882812 C 283.894531 494.757812 303.859375 531.8125 312.371094 554.519531 C 331.746094 606.195312 359.808594 675.347656 360.09375 676.035156 C 361.113281 678.5625 363.484375 680.285156 366.210938 680.488281 C 368.9375 680.703125 371.519531 679.339844 372.914062 677 C 397.699219 635.292969 405.179688 595.550781 411.78125 560.507812 C 420.261719 515.46875 427.582031 476.5625 469.003906 445.957031 C 487.003906 432.660156 507.714844 426.023438 530.882812 426.125 C 513.644531 443.285156 501.902344 463.578125 494.367188 488.871094 Z M 549.496094 413.097656 C 549.46875 413.097656 549.441406 413.097656 549.398438 413.097656 C 549.355469 413.082031 549.296875 413.070312 549.253906 413.070312 C 532.546875 410.828125 516.773438 411.460938 502.03125 414.964844 C 505.761719 412.765625 509.554688 410.726562 513.414062 408.875 C 537.914062 397.097656 562.816406 393.449219 583.527344 398.578125 C 606.320312 404.222656 622.082031 420.003906 629.011719 443.632812 C 611.976562 433.734375 581.878906 418.582031 549.496094 413.097656 Z M 549.496094 413.097656 " fill-opacity="1" fill-rule="nonzero"/></g></svg>