<svg xmlns="http://www.w3.org/2000/svg" xmlns:xlink="http://www.w3.org/1999/xlink" width="1024" zoomAndPan="magnify" viewBox="0 0 768 767.999994" height="1024" preserveAspectRatio="xMidYMid meet" version="1.0"><path fill="#ffa800" d="M 496.585938 253.664062 C 496.585938 253.664062 503.507812 115.496094 516.339844 73.472656 C 534.285156 14.707031 357.785156 -0.03125 328.894531 110.429688 C 316.609375 157.402344 279.96875 343.015625 314.175781 475.285156 C 314.175781 475.285156 234.367188 366.277344 225.8125 288.792969 C 217.257812 211.3125 46.238281 236.964844 66.1875 328.191406 C 86.136719 419.414062 140.304688 527.75 217.257812 561.945312 C 294.210938 596.144531 334.121094 574.394531 359.773438 637.453125 C 383.0625 694.691406 366.207031 753.796875 497.9375 737.84375 C 580.179688 727.890625 564.433594 636.074219 566.144531 544.847656 C 567.851562 453.625 692.425781 445.914062 627.753906 383.820312 C 588.570312 346.210938 554.289062 397.992188 555.285156 380.582031 C 559.191406 312.679688 630.472656 266.289062 676.085938 195.683594 C 721.699219 125.078125 592.863281 85.519531 543.253906 133.796875 C 520.722656 155.738281 510.207031 177.339844 500.121094 198.609375 " fill-opacity="1" fill-rule="nonzero"/><path fill="#000000" d="M 691.3125 220.476562 C 708.183594 194.347656 704.78125 168.632812 681.953125 149.945312 C 649.632812 123.460938 583.269531 118.082031 549.34375 151.121094 C 535.574219 164.519531 526.128906 177.871094 518.746094 190.679688 C 522.015625 154.089844 526.558594 115.453125 532.25 96.792969 C 535.871094 84.957031 533.15625 73.859375 524.390625 64.722656 C 505.617188 45.144531 460.863281 38.324219 420.285156 48.859375 C 375.59375 60.472656 343.910156 90.230469 333.378906 130.5 C 329.933594 143.691406 324.765625 173.460938 319.730469 208.011719 C 318.125 209.8125 317.785156 212.367188 318.792969 214.492188 C 316.015625 233.90625 313.328125 254.554688 311.011719 274.445312 C 310.640625 277.699219 312.972656 280.652344 316.226562 281.039062 C 319.460938 281.425781 322.433594 279.078125 322.820312 275.828125 C 325.179688 255.535156 327.988281 234.160156 330.871094 214.117188 C 337.71875 208.683594 356.757812 194.628906 384.191406 182.910156 C 387.207031 181.617188 388.605469 178.125 387.328125 175.109375 C 386.035156 172.09375 382.542969 170.699219 379.527344 171.976562 C 359.269531 180.636719 343.511719 190.378906 333.335938 197.480469 C 337.703125 168.722656 341.980469 144.597656 344.875 133.515625 C 357.769531 84.242188 399.535156 66.535156 423.269531 60.371094 C 459.410156 50.980469 500.0625 56.507812 515.820312 72.953125 C 521.585938 78.96875 523.246094 85.640625 520.902344 93.332031 C 516.710938 107.03125 513.175781 130.335938 510.28125 155.796875 C 485.476562 151.386719 460.167969 151.3125 434.960938 155.5625 C 431.722656 156.109375 429.539062 159.171875 430.089844 162.410156 C 430.636719 165.648438 433.714844 167.832031 436.9375 167.28125 C 461.074219 163.210938 485.28125 163.328125 509.003906 167.652344 C 503.820312 217.699219 501.070312 271.414062 500.894531 274.964844 C 500.730469 278.246094 503.253906 281.027344 506.523438 281.203125 C 506.628906 281.203125 506.730469 281.203125 506.820312 281.203125 C 509.96875 281.203125 512.582031 278.738281 512.746094 275.558594 C 512.777344 274.996094 513.964844 251.761719 516.207031 221.726562 C 525.296875 202.5625 535.738281 180.960938 557.632812 159.660156 C 586.523438 131.539062 645.992188 135.894531 674.421875 159.171875 C 697.3125 177.917969 690.804688 199.367188 681.316406 214.058594 C 668.570312 233.800781 653.761719 251.613281 638.910156 268.695312 C 608.117188 205.234375 569.902344 198.121094 568.222656 197.839844 C 565 197.289062 561.96875 199.457031 561.421875 202.679688 C 560.855469 205.890625 563.007812 208.964844 566.21875 209.558594 C 566.574219 209.632812 602.089844 216.867188 630.367188 278.46875 C 629.625 279.316406 628.867188 280.179688 628.125 281.027344 C 594.246094 319.5 562.238281 355.851562 559.59375 401.855469 C 559.355469 406.058594 560.617188 409.046875 563.351562 410.722656 C 567.882812 413.515625 572.484375 410.84375 578.859375 407.144531 C 591.839844 399.597656 611.460938 388.203125 633.875 409.730469 C 645.3125 420.707031 650.792969 430.09375 650.644531 438.414062 C 650.421875 450.667969 637.691406 462.0625 622.925781 475.269531 C 606.144531 490.273438 586.386719 507.980469 576.585938 533.855469 C 539.542969 524.199219 502.023438 521.378906 464.980469 525.492188 C 461.710938 525.851562 459.363281 528.789062 459.734375 532.058594 C 460.09375 535.328125 463.046875 537.660156 466.300781 537.304688 C 501.726562 533.367188 537.625 536.039062 573.09375 545.21875 C 571.535156 551.773438 570.585938 558.78125 570.4375 566.375 C 570.167969 580.351562 570.316406 594.375 570.464844 607.953125 C 570.851562 645.386719 571.222656 680.742188 563.054688 707.214844 C 554.394531 735.304688 536.71875 750.027344 507.457031 753.574219 C 406.398438 765.816406 397.917969 734.234375 386.152344 690.515625 C 383.210938 679.597656 380.183594 668.292969 375.519531 656.855469 C 359.832031 618.292969 338.253906 609.171875 309.304688 602.070312 C 325.242188 589.445312 362.0625 563.609375 413.289062 548.191406 C 416.4375 547.242188 418.207031 543.929688 417.269531 540.792969 C 416.320312 537.644531 413.007812 535.875 409.875 536.8125 C 346.214844 555.976562 304.875 589.769531 294.730469 598.683594 C 276.210938 594.449219 255.28125 589.457031 229.898438 578.167969 C 185.589844 558.472656 148.785156 513.042969 122.050781 460.457031 C 124.8125 451.992188 137.929688 418.167969 176.398438 398.277344 C 179.308594 396.773438 180.453125 393.179688 178.953125 390.269531 C 177.453125 387.355469 173.859375 386.214844 170.945312 387.714844 C 138.152344 404.664062 122.140625 430.257812 114.996094 445.886719 C 100.273438 414.007812 89.164062 380.285156 82.214844 348.480469 C 76.273438 321.34375 89.359375 303.484375 101.375 293.28125 C 126.578125 271.875 171.453125 264.152344 201.378906 276.0625 C 213.261719 280.789062 227.894531 290.695312 230.136719 311.019531 C 238.765625 389.183594 316.3125 495.871094 319.609375 500.375 C 321.289062 502.675781 324.378906 503.449219 326.949219 502.230469 C 329.519531 501.011719 330.871094 498.128906 330.15625 495.367188 C 323.605469 470.039062 319.34375 441.222656 317.382812 409.328125 C 331.136719 400.3125 428.632812 338.738281 495.144531 358.0625 C 498.292969 358.96875 501.589844 357.171875 502.511719 354.007812 C 503.433594 350.859375 501.621094 347.5625 498.472656 346.640625 C 466.035156 337.222656 424.191406 343.492188 374.136719 365.3125 C 348.382812 376.542969 327.378906 388.933594 316.683594 395.644531 C 316.179688 382.914062 316.015625 369.722656 316.210938 356.101562 C 316.253906 352.820312 313.640625 350.128906 310.359375 350.070312 C 310.328125 350.070312 310.296875 350.070312 310.269531 350.070312 C 307.03125 350.070312 304.371094 352.671875 304.328125 355.925781 C 303.734375 397.519531 306.390625 435.191406 312.214844 468.332031 C 288.523438 431.863281 247.8125 362.652344 241.960938 309.695312 C 239.703125 289.253906 226.851562 273.390625 205.777344 265.011719 C 171.613281 251.417969 122.390625 259.855469 93.695312 284.21875 C 73.199219 301.613281 65 325.339844 70.613281 351.023438 C 78.605469 387.578125 92.015625 426.664062 110.078125 462.761719 C 110.257812 463.28125 110.507812 463.769531 110.820312 464.230469 C 138.820312 519.683594 177.824219 567.933594 225.070312 588.9375 C 252.5625 601.164062 275.765625 606.453125 294.40625 610.699219 C 328.449219 618.46875 349.003906 623.164062 364.496094 661.253906 C 368.878906 672.023438 371.820312 682.957031 374.671875 693.53125 C 380.792969 716.273438 386.570312 737.769531 405.386719 751.914062 C 419.734375 762.695312 440.410156 767.984375 469.152344 767.984375 C 480.992188 767.984375 494.195312 767.09375 508.882812 765.3125 C 583.894531 756.234375 583.136719 684.113281 582.347656 607.761719 C 582.214844 594.273438 582.066406 580.324219 582.320312 566.523438 C 582.480469 557.832031 583.820312 549.960938 586.0625 542.738281 C 586.078125 542.664062 586.121094 542.605469 586.136719 542.546875 C 586.136719 542.53125 586.136719 542.515625 586.152344 542.503906 C 594.171875 516.890625 613.421875 499.660156 630.875 484.0625 C 647.703125 469.015625 662.226562 456 662.539062 438.5625 C 662.75 426.753906 656.0625 414.496094 642.117188 401.097656 C 613.242188 373.378906 586.003906 389.199219 572.902344 396.804688 C 572.574219 397 572.234375 397.191406 571.890625 397.382812 C 576.273438 357.839844 604.539062 325.738281 637.050781 288.824219 C 655.707031 267.640625 674.988281 245.746094 691.3125 220.476562 Z M 691.3125 220.476562 " fill-opacity="1" fill-rule="nonzero"/></svg>