<svg xmlns="http://www.w3.org/2000/svg" xmlns:xlink="http://www.w3.org/1999/xlink" width="1024" zoomAndPan="magnify" viewBox="0 0 768 767.999994" height="1024" preserveAspectRatio="xMidYMid meet" version="1.0"><path fill="#0be881" d="M 677.605469 204.054688 C 662.777344 190.539062 643.363281 170.519531 632.082031 158.675781 C 626.164062 152.476562 621.988281 144.839844 619.863281 136.53125 C 595.734375 42.160156 569.203125 73.949219 478.058594 40.691406 C 383.734375 6.28125 346.289062 87.695312 251.746094 66.328125 C 157.203125 44.957031 135.976562 111.261719 75.261719 147.523438 C 5.714844 189.074219 37.742188 280.046875 57.066406 321.214844 C 63.011719 333.894531 63.394531 348.550781 57.898438 361.433594 C 28.714844 429.863281 72.757812 488.328125 97.574219 514.0625 C 106.511719 523.339844 111.683594 535.667969 111.726562 548.566406 C 112.136719 689.867188 253.019531 730.539062 327.742188 730.566406 C 567.632812 761.082031 767.984375 563.617188 699.640625 414.738281 C 693.457031 401.285156 693.25 385.820312 699.566406 372.425781 C 716.648438 336.238281 740.148438 261.066406 677.605469 204.054688 Z M 677.605469 204.054688 " fill-opacity="1" fill-rule="nonzero"/><path fill="#000000" d="M 238.882812 193.03125 C 261.578125 194.671875 289.839844 196.738281 307.523438 168.773438 C 324.238281 142.378906 343.84375 148.34375 370.988281 156.59375 C 398.285156 164.890625 432.246094 175.222656 470.292969 150.425781 C 530.15625 111.425781 563.472656 142.585938 629.84375 204.652344 C 638.777344 213.007812 648.007812 221.640625 658.03125 230.769531 C 671.496094 243.054688 681.605469 257.007812 688.078125 272.234375 C 692.136719 281.804688 694.847656 292.078125 696.109375 302.75 C 696.460938 305.722656 698.996094 307.921875 701.925781 307.921875 C 702.160156 307.921875 702.394531 307.90625 702.628906 307.878906 C 705.835938 307.496094 708.136719 304.582031 707.753906 301.371094 C 706.363281 289.585938 703.375 278.242188 698.878906 267.648438 C 691.742188 250.851562 680.664062 235.519531 665.941406 222.09375 C 655.980469 213.007812 646.765625 204.40625 637.871094 196.078125 C 629.109375 187.886719 620.816406 180.132812 612.847656 172.921875 C 613.125 171.984375 613.199219 170.988281 612.964844 169.976562 C 594.09375 87.519531 573.523438 83.460938 528.488281 74.59375 C 511.636719 71.265625 490.660156 67.132812 464.449219 57.578125 C 412.847656 38.757812 376.996094 53.398438 342.316406 67.558594 C 310.570312 80.515625 280.59375 92.765625 237.433594 83.007812 C 168.222656 67.367188 136.386719 96.855469 102.671875 128.074219 C 88.726562 140.972656 74.324219 154.324219 56.640625 164.875 C 34.707031 177.980469 20.527344 196.828125 14.488281 220.90625 C -0.03125 278.84375 36.746094 348.917969 45.535156 364.511719 C 20.480469 406.957031 20.613281 453.136719 45.988281 498.292969 C 62.191406 527.136719 83.65625 546.835938 90.894531 553.019531 C 86.207031 615.5 106.074219 665.976562 149.964844 703.058594 C 199.648438 745.03125 266.953125 758.632812 311.359375 758.75 C 311.359375 758.75 311.375 758.75 311.375 758.75 C 328.210938 760.890625 345.058594 761.960938 361.847656 761.960938 C 418.984375 761.960938 475.40625 749.648438 527.328125 725.613281 C 588.804688 697.152344 639.863281 653.839844 671.097656 603.6875 C 710.949219 539.699219 713.921875 471.691406 679.464844 416.410156 C 684.402344 409.652344 694.613281 393.265625 701.222656 365.933594 C 701.984375 362.78125 700.050781 359.613281 696.898438 358.851562 C 693.765625 358.089844 690.585938 360.027344 689.824219 363.175781 C 681.78125 396.375 668.050781 411.96875 667.933594 412.097656 C 666.132812 414.078125 665.898438 417.039062 667.378906 419.28125 C 685.003906 446.027344 693.121094 475.621094 691.464844 507.234375 C 689.925781 536.882812 679.433594 568.101562 661.136719 597.472656 C 631.085938 645.722656 581.816406 687.433594 522.390625 714.957031 C 472.449219 738.085938 418.238281 750 363.285156 750.207031 C 426.546875 730.832031 446.355469 707.382812 472.917969 675.929688 C 492.695312 652.507812 517.324219 623.355469 568.351562 586.933594 C 605.84375 560.171875 624.332031 545.5 631.21875 533.441406 C 632.070312 533.027344 632.84375 532.398438 633.429688 531.5625 C 658.234375 496.503906 636.625 436.53125 627.394531 410.925781 C 626.441406 408.273438 625.636719 406.03125 625.050781 404.300781 C 619.746094 388.386719 624.347656 370.871094 628.785156 353.929688 C 635.863281 326.945312 643.890625 296.359375 605.785156 276 C 580.21875 262.355469 562.550781 264.511719 546.960938 266.414062 C 527.726562 268.773438 512.519531 270.636719 485.164062 238.746094 C 461.472656 211.132812 433.828125 207.203125 414.796875 208.757812 C 384.96875 211.207031 354.257812 229.613281 336.707031 255.144531 C 298.71875 236.5625 264.625 244.546875 231.335938 252.359375 C 223.835938 254.117188 216.277344 255.890625 208.597656 257.386719 C 209.007812 256.300781 209.097656 255.101562 208.789062 253.898438 C 201.1875 224.089844 200.527344 205.152344 206.839844 197.617188 C 212.378906 191.097656 224.65625 191.992188 238.882812 193.03125 Z M 415.820312 220.46875 C 432.128906 219.121094 455.863281 222.535156 476.328125 246.394531 C 507.769531 283.050781 527.535156 280.632812 548.441406 278.066406 C 562.976562 276.292969 578.023438 274.445312 600.320312 286.347656 C 630.265625 302.339844 624.625 323.796875 617.507812 350.953125 C 612.628906 369.550781 607.574219 388.78125 613.988281 408.011719 C 614.589844 409.8125 615.425781 412.144531 616.421875 414.914062 C 623.761719 435.269531 639.46875 478.886719 630.792969 509.945312 C 628.023438 505.371094 623.9375 500.726562 619.191406 495.347656 C 604.640625 478.84375 582.652344 453.914062 569.230469 399.699219 C 549.761719 320.953125 522.15625 325.730469 490.191406 331.253906 C 461.914062 336.136719 429.855469 341.675781 387.265625 295.011719 C 373.335938 279.753906 359.988281 268.6875 347.109375 260.832031 C 362.816406 238.597656 389.714844 222.621094 415.820312 220.46875 Z M 234.078125 263.808594 C 268.785156 255.65625 300.078125 248.328125 335.433594 267.457031 C 335.5625 267.542969 335.667969 267.660156 335.8125 267.734375 C 336.148438 267.941406 336.5 268.101562 336.851562 268.234375 C 350.070312 275.632812 363.855469 286.742188 378.625 302.910156 C 425.535156 354.324219 464.066406 347.671875 492.195312 342.804688 C 522.640625 337.542969 541.011719 334.363281 557.863281 402.515625 C 571.957031 459.511719 595.089844 485.746094 610.398438 503.101562 C 618.925781 512.773438 623.351562 518.050781 622.792969 523.003906 C 621.667969 532.867188 601.300781 549.0625 561.597656 577.410156 C 509.382812 614.679688 484.226562 644.460938 464.023438 668.378906 C 435.410156 702.25 416.511719 724.632812 342.054688 744.050781 C 334.566406 746 324.386719 747.101562 312.429688 747.113281 C 312.167969 747.101562 311.886719 747.085938 311.640625 747.113281 C 306.101562 747.101562 300.183594 746.835938 294 746.335938 C 290.25 733.21875 277.839844 686.40625 271.964844 623.914062 C 271.40625 617.976562 270.910156 611.792969 270.46875 605.386719 C 325.265625 598.675781 392.394531 571.664062 470.761719 524.703125 C 473.546875 523.035156 474.441406 519.441406 472.785156 516.65625 C 471.113281 513.886719 467.523438 512.980469 464.742188 514.636719 C 375.605469 568.042969 312.519531 587.992188 269.765625 593.53125 C 267.847656 555.9375 268.59375 511.761719 275.6875 465.667969 C 315.300781 457.5625 354.417969 432.722656 392.367188 391.417969 C 394.5625 389.03125 394.402344 385.324219 392.015625 383.140625 C 389.640625 380.953125 385.917969 381.101562 383.734375 383.492188 C 348.953125 421.332031 313.457031 444.652344 277.765625 453.179688 C 283.1875 422.695312 291.480469 391.59375 303.699219 361.183594 C 304.898438 358.179688 303.449219 354.765625 300.445312 353.5625 C 297.441406 352.359375 294.027344 353.8125 292.828125 356.816406 C 279.699219 389.5 270.996094 422.929688 265.460938 455.542969 C 257.136719 456.742188 248.816406 457.152344 240.480469 456.726562 C 169.277344 453.167969 121.691406 390.773438 121.222656 390.144531 C 119.289062 387.550781 115.609375 387.023438 113.015625 388.957031 C 110.421875 390.890625 109.894531 394.570312 111.832031 397.164062 C 113.882812 399.921875 163.035156 464.527344 239.777344 468.425781 C 242.164062 468.542969 244.554688 468.601562 246.957031 468.601562 C 252.492188 468.601562 258.015625 468.261719 263.539062 467.601562 C 256.800781 513.492188 256.15625 557.34375 258.089844 594.71875 C 249.167969 595.40625 241.269531 595.421875 234.355469 595.011719 C 212.128906 593.691406 197.582031 587.859375 189.289062 583.199219 C 180.46875 578.242188 176.675781 573.539062 176.558594 573.394531 C 174.59375 570.84375 170.945312 570.34375 168.382812 572.292969 C 165.804688 574.242188 165.292969 577.921875 167.238281 580.5 C 167.941406 581.425781 184.980469 603.304688 231.878906 606.605469 C 235.953125 606.898438 240.097656 607.027344 244.347656 607.027344 C 249.050781 607.027344 253.886719 606.839844 258.792969 606.488281 C 259.234375 612.875 259.730469 619.0625 260.289062 624.984375 C 265.695312 682.480469 276.59375 727.09375 281.457031 744.988281 C 241.695312 739.816406 193.65625 724.585938 157.554688 694.085938 C 116.035156 659 97.617188 610.839844 102.847656 550.953125 C 103.023438 548.988281 102.191406 547.070312 100.636719 545.839844 C 100.375 545.632812 74.25 524.75 56.054688 492.226562 C 32.128906 449.429688 32.554688 407.511719 57.328125 367.632812 C 57.402344 367.515625 57.460938 367.382812 57.519531 367.25 C 57.578125 367.132812 57.652344 367.015625 57.695312 366.898438 C 57.796875 366.664062 57.886719 366.414062 57.957031 366.167969 C 57.988281 366.078125 58.015625 365.992188 58.046875 365.902344 C 58.132812 365.550781 58.179688 365.214844 58.207031 364.847656 C 58.207031 364.804688 58.207031 364.746094 58.207031 364.699219 C 58.222656 364.4375 58.222656 364.171875 58.191406 363.910156 C 58.121094 363.234375 51.203125 295.433594 81.121094 271.019531 C 88.140625 265.285156 96.828125 262.429688 107.128906 262.429688 C 114.261719 262.429688 122.171875 263.808594 130.816406 266.5625 C 169.496094 278.960938 202.328125 271.265625 234.078125 263.808594 Z M 197.902344 190.128906 C 188.660156 201.179688 188.542969 221.742188 197.492188 256.832031 C 197.726562 257.722656 198.167969 258.515625 198.726562 259.175781 C 178.492188 262.328125 157.335938 262.765625 134.347656 255.4375 C 109.222656 247.421875 88.8125 249.621094 73.664062 261.976562 C 51.863281 279.78125 46.605469 314.664062 45.796875 338.949219 C 33.140625 311.367188 15.894531 263.511719 25.875 223.75 C 31.132812 202.808594 43.5 186.390625 62.648438 174.960938 C 81.371094 163.777344 96.242188 150 110.613281 136.691406 C 143.359375 106.367188 171.636719 80.175781 234.824219 94.453125 C 281.574219 105.019531 314.703125 91.492188 346.726562 78.417969 C 380.851562 64.496094 413.082031 51.332031 460.417969 68.597656 C 487.492188 78.476562 508.957031 82.714844 526.214844 86.113281 C 547.738281 90.363281 561.964844 93.164062 572.953125 103.773438 C 583.148438 113.625 591.015625 130.875 598.5625 160.40625 C 553.21875 121.832031 517.074219 105.972656 463.90625 140.636719 C 430.429688 162.445312 400.65625 153.402344 374.402344 145.414062 C 347.226562 137.148438 319.125 128.601562 297.632812 162.546875 C 283.683594 184.574219 261.34375 182.949219 239.734375 181.378906 C 223.015625 180.117188 207.238281 178.976562 197.902344 190.128906 Z M 197.902344 190.128906 " fill-opacity="1" fill-rule="nonzero"/></svg>