<svg xmlns="http://www.w3.org/2000/svg" xmlns:xlink="http://www.w3.org/1999/xlink" width="1024" zoomAndPan="magnify" viewBox="0 0 768 767.999994" height="1024" preserveAspectRatio="xMidYMid meet" version="1.0"><defs><clipPath id="4abe9272ea"><path d="M 0 49 L 768 49 L 768 690.960938 L 0 690.960938 Z M 0 49 " clip-rule="nonzero"/></clipPath></defs><path fill="#6fceae" d="M 573.992188 331.265625 C 640.578125 262.96875 654.320312 175.179688 624.367188 71.296875 C 569.226562 77.867188 523.050781 95.929688 488.316406 128.671875 C 476.171875 104.207031 459.976562 79.96875 440.4375 55.929688 C 352.371094 100.21875 302.878906 154.441406 287.476562 217.460938 C 231.085938 164.226562 127.332031 181.097656 6.390625 223.394531 C 21.035156 332.222656 65.140625 408.722656 136.84375 454.941406 C 95.445312 496.707031 71.230469 551.738281 74.53125 627.976562 C 74.546875 628.449219 74.578125 628.933594 74.59375 629.40625 C 120.4375 636.785156 161.300781 634.777344 195.804688 620.796875 C 203.21875 641.378906 212.515625 662.652344 223.65625 684.589844 C 300.457031 650.691406 359.785156 608.335938 397.910156 555.722656 C 504.160156 639.023438 626.910156 622.011719 761.304688 534.332031 C 725.277344 423.34375 663.863281 353.964844 573.992188 331.265625 Z M 288.023438 313.007812 C 288.023438 312.976562 288.023438 312.945312 288.023438 312.902344 C 288.039062 312.945312 288.039062 312.992188 288.054688 313.039062 C 288.039062 313.023438 288.039062 313.023438 288.023438 313.007812 Z M 288.023438 313.007812 " fill-opacity="1" fill-rule="nonzero"/><path fill="#349370" d="M 624.367188 71.296875 C 654.320312 175.179688 640.578125 262.96875 573.992188 331.265625 C 565.558594 339.90625 556.273438 348.230469 546.136719 356.246094 C 525.757812 345.15625 504.90625 337.5625 483.523438 333.867188 C 493.582031 316.507812 500.980469 299.285156 505.925781 282.214844 C 535.605469 199.886719 574.738281 129.15625 624.367188 71.296875 Z M 624.367188 71.296875 " fill-opacity="1" fill-rule="nonzero"/><path fill="#3fa07f" d="M 175.53125 532.644531 L 175.515625 532.644531 C 138.363281 554.839844 105.03125 587.523438 74.53125 627.976562 C 71.230469 551.738281 95.445312 496.707031 136.84375 454.941406 C 147.160156 444.507812 158.5625 434.921875 170.875 426.019531 C 175.914062 431.117188 181.316406 435.804688 187.082031 440.078125 C 176.476562 468.46875 172.746094 499.371094 175.53125 532.644531 Z M 175.53125 532.644531 " fill-opacity="1" fill-rule="nonzero"/><path fill="#3fa07f" d="M 571.039062 464.496094 C 640.152344 469.152344 703.101562 493.953125 761.304688 534.332031 C 626.910156 622.011719 504.160156 639.023438 397.910156 555.722656 C 406.402344 544.007812 413.863281 531.777344 420.207031 519.011719 L 420.207031 518.996094 C 434.5625 521.171875 448.609375 521.324219 462.382812 519.605469 C 500.628906 514.8125 536.71875 495.535156 571.039062 464.496094 Z M 571.039062 464.496094 " fill-opacity="1" fill-rule="nonzero"/><path fill="#3fa07f" d="M 488.316406 128.671875 C 513.203125 178.769531 521.101562 229.832031 505.925781 282.214844 C 500.980469 299.285156 493.582031 316.507812 483.523438 333.867188 C 477.253906 332.769531 470.9375 332.027344 464.574219 331.613281 C 433.464844 329.636719 401.214844 335.90625 367.683594 351.652344 C 389.601562 302.632812 396.570312 245.347656 388.597656 179.867188 C 396.753906 129.855469 414.578125 89.066406 440.4375 55.929688 C 459.976562 79.96875 476.171875 104.207031 488.316406 128.671875 Z M 488.316406 128.671875 " fill-opacity="1" fill-rule="nonzero"/><path fill="#3fa07f" d="M 288.023438 312.902344 C 288.023438 312.945312 288.023438 312.976562 288.023438 313.007812 C 261.964844 281.695312 225.683594 275.109375 182.625 284.953125 C 135.898438 246.902344 77.148438 226.375 6.390625 223.394531 C 127.332031 181.097656 231.085938 164.226562 287.476562 217.460938 C 280.152344 247.34375 280.503906 279.1875 288.023438 312.886719 Z M 288.023438 312.902344 " fill-opacity="1" fill-rule="nonzero"/><path fill="#3fa07f" d="M 329.984375 382.113281 C 341.917969 382.371094 349.953125 384.546875 349.953125 384.546875 C 299.179688 418.855469 267.203125 472.972656 254.007812 546.898438 C 254.007812 546.898438 235.058594 506.460938 238.816406 464.496094 C 240.171875 449.191406 244.570312 433.6875 254.007812 419.859375 C 261.769531 408.492188 270.75 400.429688 280.03125 394.738281 C 288.433594 389.613281 297.078125 386.433594 305.3125 384.546875 C 314.339844 382.460938 322.847656 381.945312 329.984375 382.113281 Z M 329.984375 382.113281 " fill-opacity="1" fill-rule="nonzero"/><path fill="#4aaf8f" d="M 573.992188 331.265625 C 663.863281 353.964844 725.277344 423.34375 761.304688 534.332031 C 703.101562 493.953125 640.152344 469.152344 571.039062 464.496094 C 587.476562 449.632812 603.519531 432.074219 619.195312 412.128906 C 595.496094 388.746094 571.175781 369.863281 546.136719 356.246094 C 556.273438 348.230469 565.558594 339.90625 573.992188 331.265625 Z M 573.992188 331.265625 " fill-opacity="1" fill-rule="nonzero"/><path fill="#4aaf8f" d="M 624.367188 71.296875 C 574.738281 129.15625 535.605469 199.886719 505.925781 282.214844 C 521.101562 229.832031 513.203125 178.769531 488.316406 128.671875 C 523.050781 95.929688 569.226562 77.867188 624.367188 71.296875 Z M 624.367188 71.296875 " fill-opacity="1" fill-rule="nonzero"/><path fill="#4aaf8f" d="M 440.4375 55.929688 C 414.578125 89.066406 396.753906 129.855469 388.597656 179.867188 C 388.597656 179.867188 312.800781 209.046875 294.125 267.882812 C 289.242188 283.292969 287.671875 298.628906 288.023438 312.886719 C 280.503906 279.1875 280.152344 247.34375 287.476562 217.460938 C 302.878906 154.441406 352.371094 100.21875 440.4375 55.929688 Z M 440.4375 55.929688 " fill-opacity="1" fill-rule="nonzero"/><path fill="#4aaf8f" d="M 118.335938 308.582031 C 126.433594 358.53125 143.402344 398.300781 170.875 426.019531 C 158.5625 434.921875 147.160156 444.507812 136.84375 454.941406 C 65.140625 408.722656 21.035156 332.222656 6.390625 223.394531 C 77.148438 226.375 135.898438 246.902344 182.625 284.953125 C 162.550781 289.546875 141.011719 297.703125 118.335938 308.582031 Z M 118.335938 308.582031 " fill-opacity="1" fill-rule="nonzero"/><path fill="#4aaf8f" d="M 175.53125 532.644531 C 177.832031 560.410156 184.664062 589.820312 195.804688 620.796875 C 161.300781 634.777344 120.4375 636.785156 74.59375 629.40625 C 74.578125 628.933594 74.546875 628.449219 74.53125 627.976562 C 105.03125 587.523438 138.363281 554.839844 175.515625 532.644531 Z M 175.53125 532.644531 " fill-opacity="1" fill-rule="nonzero"/><path fill="#4aaf8f" d="M 324.445312 476.804688 C 308.539062 503.308594 285.132812 527.242188 254.007812 546.898438 C 267.203125 472.972656 299.179688 418.855469 349.953125 384.546875 C 349.953125 393.828125 349.253906 403.046875 347.851562 412.128906 C 344.398438 434.691406 336.621094 456.511719 324.445312 476.804688 Z M 324.445312 476.804688 " fill-opacity="1" fill-rule="nonzero"/><path fill="#53b79a" d="M 238.800781 464.496094 L 238.816406 464.496094 C 235.058594 506.460938 254.007812 546.898438 254.007812 546.898438 C 234.097656 584.25 223.992188 630.152344 223.65625 684.589844 C 212.515625 662.652344 203.21875 641.378906 195.804688 620.796875 C 184.664062 589.820312 177.832031 560.410156 175.53125 532.644531 C 172.746094 499.371094 176.476562 468.46875 187.082031 440.078125 C 201.863281 451.019531 219.046875 459.234375 238.800781 464.496094 Z M 238.800781 464.496094 " fill-opacity="1" fill-rule="nonzero"/><path fill="#53b79a" d="M 619.195312 412.128906 C 603.519531 432.074219 587.476562 449.632812 571.039062 464.496094 C 536.71875 495.535156 500.628906 514.8125 462.382812 519.605469 C 448.609375 521.324219 434.5625 521.171875 420.207031 518.996094 C 389.707031 514.417969 357.851562 500.753906 324.445312 476.804688 C 336.621094 456.511719 344.398438 434.691406 347.851562 412.128906 C 430.328125 387.332031 521.816406 390.570312 619.195312 412.128906 Z M 619.195312 412.128906 " fill-opacity="1" fill-rule="nonzero"/><path fill="#53b79a" d="M 388.597656 179.867188 C 396.570312 245.347656 389.601562 302.632812 367.683594 351.652344 C 362.585938 363.0625 356.679688 374.03125 349.953125 384.546875 C 349.953125 384.546875 341.917969 382.371094 329.984375 382.113281 C 321.949219 306.296875 342.496094 241.636719 388.597656 179.867188 Z M 388.597656 179.867188 " fill-opacity="1" fill-rule="nonzero"/><path fill="#53b79a" d="M 288.023438 313.007812 C 289.074219 353.113281 305.3125 384.546875 305.3125 384.546875 C 297.078125 386.433594 288.433594 389.613281 280.03125 394.738281 C 237.933594 353.554688 182.046875 326.929688 118.335938 308.582031 C 141.011719 297.703125 162.550781 289.546875 182.625 284.953125 C 225.683594 275.109375 261.964844 281.695312 288.023438 313.007812 Z M 288.023438 313.007812 " fill-opacity="1" fill-rule="nonzero"/><path fill="#6fceae" d="M 546.136719 356.246094 C 571.175781 369.863281 595.496094 388.746094 619.195312 412.128906 C 521.816406 390.570312 430.328125 387.332031 347.851562 412.128906 C 349.253906 403.046875 349.953125 393.828125 349.953125 384.546875 C 356.679688 374.03125 362.585938 363.0625 367.683594 351.652344 C 401.214844 335.90625 433.464844 329.636719 464.574219 331.613281 C 470.9375 332.027344 477.253906 332.769531 483.523438 333.867188 C 504.90625 337.5625 525.757812 345.15625 546.136719 356.246094 Z M 546.136719 356.246094 " fill-opacity="1" fill-rule="nonzero"/><path fill="#6fceae" d="M 420.207031 518.996094 L 420.207031 519.011719 C 413.863281 531.777344 406.402344 544.007812 397.910156 555.722656 C 359.785156 608.335938 300.457031 650.691406 223.65625 684.589844 C 223.992188 630.152344 234.097656 584.25 254.007812 546.898438 C 285.132812 527.242188 308.539062 503.308594 324.445312 476.804688 C 357.851562 500.753906 389.707031 514.417969 420.207031 518.996094 Z M 420.207031 518.996094 " fill-opacity="1" fill-rule="nonzero"/><path fill="#6fceae" d="M 294.125 267.882812 C 312.800781 209.046875 388.597656 179.867188 388.597656 179.867188 C 342.496094 241.636719 321.949219 306.296875 329.984375 382.113281 C 322.847656 381.945312 314.339844 382.460938 305.3125 384.546875 C 305.3125 384.546875 289.074219 353.113281 288.023438 313.007812 C 288.039062 313.023438 288.039062 313.023438 288.054688 313.039062 C 288.039062 312.992188 288.039062 312.945312 288.023438 312.902344 L 288.023438 312.886719 C 287.671875 298.628906 289.242188 283.292969 294.125 267.882812 Z M 294.125 267.882812 " fill-opacity="1" fill-rule="nonzero"/><path fill="#6fceae" d="M 280.03125 394.738281 C 270.75 400.429688 261.769531 408.492188 254.007812 419.859375 C 244.570312 433.6875 240.171875 449.191406 238.816406 464.496094 L 238.800781 464.496094 C 219.046875 459.234375 201.863281 451.019531 187.082031 440.078125 C 181.316406 435.804688 175.914062 431.117188 170.875 426.019531 C 143.402344 398.300781 126.433594 358.53125 118.335938 308.582031 C 182.046875 326.929688 237.933594 353.554688 280.03125 394.738281 Z M 280.03125 394.738281 " fill-opacity="1" fill-rule="nonzero"/><g clip-path="url(#4abe9272ea)"><path fill="#3a322b" d="M 767.09375 532.445312 C 748.714844 475.835938 723.5625 429.789062 692.332031 395.582031 C 662.605469 363.019531 626.621094 340.351562 585.265625 328.066406 C 610.863281 299.664062 628.425781 267.652344 637.644531 232.449219 C 650.128906 184.789062 647.628906 130 630.21875 69.609375 C 629.394531 66.742188 626.617188 64.890625 623.648438 65.253906 C 568.53125 71.828125 523.660156 89.867188 490.105469 118.882812 C 478.523438 96.964844 463.550781 74.726562 445.160156 52.097656 C 443.355469 49.878906 440.25 49.210938 437.699219 50.496094 C 372.949219 83.054688 327.117188 122.125 301.460938 166.621094 C 294.089844 179.40625 288.335938 192.734375 284.179688 206.570312 C 256.800781 184.820312 219.582031 175.628906 170.777344 178.527344 C 126.59375 181.148438 72.167969 193.945312 4.382812 217.648438 C 1.65625 218.605469 -0.0273438 221.34375 0.359375 224.207031 C 14.609375 330.160156 57.363281 408.097656 127.453125 455.996094 C 84.527344 502.117188 65.167969 559.375 68.507812 629.691406 C 68.644531 632.566406 70.777344 634.949219 73.617188 635.410156 C 91.171875 638.242188 107.851562 639.652344 123.605469 639.652344 C 148.988281 639.652344 171.949219 635.96875 192.28125 628.648438 C 199.351562 647.609375 207.984375 667.171875 218.230469 687.339844 C 219.300781 689.445312 221.433594 690.671875 223.660156 690.671875 C 224.484375 690.671875 225.316406 690.503906 226.117188 690.152344 C 303.300781 656.085938 361.238281 613.875 399.054688 564.277344 C 444.804688 598.660156 495.1875 616.023438 549.164062 616.023438 C 555.898438 616.023438 562.691406 615.75 569.535156 615.210938 C 629.132812 610.5 694.773438 585.003906 764.632812 539.421875 C 766.933594 537.917969 767.945312 535.0625 767.09375 532.445312 Z M 749.675781 519.296875 C 697.035156 485.734375 641.828125 465.707031 585.15625 459.628906 C 598.132812 446.898438 611.0625 432.335938 623.988281 415.890625 C 625.902344 413.457031 625.683594 409.972656 623.480469 407.800781 C 601.242188 385.863281 579.140625 368.40625 556.957031 355.285156 C 563.601562 349.710938 569.875 343.96875 575.785156 338.050781 C 655.214844 359.351562 713.644531 420.265625 749.675781 519.296875 Z M 259.03125 423.285156 C 280.765625 395.089844 307.132812 386.925781 334.488281 388.320312 C 294.101562 420.023438 266.554688 465.824219 252.378906 524.882812 C 244.761719 499.984375 236.589844 456.136719 259.03125 423.285156 Z M 233.550781 456.628906 C 175.714844 438.605469 140.460938 392.878906 126.058594 317.222656 C 187.46875 335.976562 234.839844 361.171875 270.386719 393.996094 C 262.242188 400.039062 255.046875 407.53125 248.972656 416.421875 C 240.363281 429.027344 235.671875 442.832031 233.550781 456.628906 Z M 347.042969 377.703125 C 344.269531 377.195312 340.332031 376.609375 335.542969 376.273438 C 329.722656 311.128906 345.273438 253.503906 384.195312 196.503906 C 390.195312 266.933594 377.71875 327.800781 347.042969 377.703125 Z M 372.222656 356.28125 C 403.25 342.046875 434.179688 335.773438 464.183594 337.6875 C 509.878906 340.589844 554.234375 361.613281 599.257812 401.765625 C 506.183594 383.570312 426.011719 384.226562 355.078125 403.734375 C 355.65625 398.003906 355.957031 392.199219 356.007812 386.335938 C 362.070312 376.703125 367.476562 366.679688 372.222656 356.28125 Z M 323.296875 376.078125 L 308.816406 377.632812 C 302.726562 363.683594 285.042969 316.621094 299.933594 269.714844 C 311.527344 233.179688 347.136719 208.304688 370.179688 195.546875 C 332.71875 252.691406 317.703125 310.738281 323.296875 376.078125 Z M 343.429688 396.78125 C 339.742188 450.828125 311.578125 498.652344 262.878906 533.585938 C 276.128906 473.730469 303.164062 427.8125 343.429688 396.78125 Z M 353.269531 416.894531 C 426.417969 395.695312 509.96875 395.386719 608.289062 416.003906 C 559.882812 475.316406 511.832031 507.273438 461.621094 513.5625 C 420.386719 518.71875 376.988281 505.78125 332.558594 475.082031 C 342.738281 456.929688 349.710938 437.421875 353.269531 416.894531 Z M 545.554688 348.917969 C 528.128906 339.792969 510.628906 333.335938 492.941406 329.480469 C 501.113281 314.304688 507.414062 299.058594 511.855469 283.71875 C 540.089844 205.570312 576.980469 138.503906 621.582031 84.132812 C 651.007812 196.832031 626.078125 283.574219 545.554688 348.917969 Z M 609.621094 79.53125 C 574.8125 122.617188 544.71875 173.3125 519.753906 230.839844 C 520.128906 197.902344 512.152344 164.414062 495.777344 130.144531 C 524.921875 103.964844 562.300781 87.308594 609.621094 79.53125 Z M 440.574219 65.867188 C 513.589844 158.621094 526.609375 244.207031 480.332031 327.160156 C 475.226562 326.410156 470.101562 325.867188 464.957031 325.539062 C 436.753906 323.742188 407.878906 328.671875 378.9375 340.167969 C 396.589844 293.523438 401.914062 239.898438 394.742188 180.050781 C 402.03125 136.054688 417.429688 97.683594 440.574219 65.867188 Z M 420.964844 73.207031 C 402.5 102.824219 389.839844 137.121094 383.183594 175.503906 C 368.058594 181.949219 305.648438 211.46875 288.328125 266.035156 C 288.296875 266.125 288.277344 266.21875 288.246094 266.3125 C 286.460938 188.058594 330.238281 124.460938 420.964844 73.207031 Z M 296.789062 380.585938 C 291.257812 382.324219 285.980469 384.53125 280.988281 387.226562 C 244.945312 353.148438 197.191406 326.941406 135.507812 307.414062 C 166.59375 293.867188 192.945312 287.097656 215.6875 286.820312 C 243.324219 286.445312 265.03125 295.832031 281.96875 315.320312 C 283.082031 344.742188 291.9375 369.21875 296.789062 380.585938 Z M 171.496094 190.679688 C 219.746094 187.832031 255.511719 197.324219 280.765625 219.644531 C 275.457031 243.449219 274.710938 268.65625 278.554688 295.097656 C 254.585938 275.730469 223.359375 270.207031 184.257812 278.480469 C 143.84375 246.292969 94.242188 226.585938 36.464844 219.707031 C 90.296875 202.386719 134.671875 192.859375 171.496094 190.679688 Z M 13.476562 229.859375 C 74.625 233.578125 126.910156 251.179688 169.171875 282.25 C 152.644531 286.972656 134.847656 293.898438 115.703125 303.089844 C 113.273438 304.253906 111.898438 306.882812 112.328125 309.546875 C 120.3125 358.820312 136.902344 397.421875 161.871094 425.121094 C 152.589844 432.144531 144.007812 439.480469 136.121094 447.144531 C 69.550781 402.453125 28.320312 329.410156 13.476562 229.859375 Z M 170.460938 433.90625 C 173.503906 436.777344 176.65625 439.507812 179.917969 442.09375 C 170.65625 468.75 167.117188 497.871094 169.304688 529.332031 C 138.078125 548.558594 108.839844 575.261719 80.363281 610.605469 C 81.375 536.421875 110.976562 478.4375 170.460938 433.90625 Z M 84.699219 624.71875 C 112.363281 589.226562 140.589844 562.34375 170.582031 542.910156 C 173.378906 566.449219 179.238281 591.230469 188.160156 617.199219 C 159.363281 627.574219 124.621094 630.089844 84.699219 624.71875 Z M 218.457031 659.863281 C 180.90625 578.121094 171.433594 507.519531 190.238281 449.582031 C 202.855469 457.917969 216.890625 464.378906 232.3125 468.964844 C 230.507812 504.238281 243.140625 537.050781 247.265625 546.726562 C 230.929688 578.441406 221.273438 616.398438 218.457031 659.863281 Z M 229.914062 675.082031 C 231.289062 626.636719 240.964844 584.988281 258.6875 551.121094 C 287.253906 532.828125 309.976562 510.625 326.257812 485.515625 C 354.875 505.191406 383.214844 517.878906 411.007812 523.496094 C 378.289062 584.03125 317.433594 634.96875 229.914062 675.082031 Z M 406.210938 554.433594 C 412.730469 545.0625 418.550781 535.441406 423.675781 525.570312 C 430.410156 526.410156 437.113281 526.84375 443.773438 526.84375 C 450.265625 526.84375 456.71875 526.441406 463.136719 525.640625 C 500.9375 520.902344 537.328125 502.816406 573.253906 470.765625 C 635.148438 475.398438 693.167969 496.175781 750.253906 534.1875 C 614.828125 620.101562 502.152344 626.738281 406.210938 554.433594 Z M 406.210938 554.433594 " fill-opacity="1" fill-rule="nonzero"/></g></svg>