<svg xmlns="http://www.w3.org/2000/svg" xmlns:xlink="http://www.w3.org/1999/xlink" width="1024" zoomAndPan="magnify" viewBox="0 0 768 767.999994" height="1024" preserveAspectRatio="xMidYMid meet" version="1.0"><defs><clipPath id="d3729fea75"><path d="M 4 10 L 762 10 L 762 767.640625 L 4 767.640625 Z M 4 10 " clip-rule="nonzero"/></clipPath></defs><path fill="#00844f" d="M 351.78125 657.707031 C 360.515625 670.035156 333.3125 718.003906 294.945312 736.636719 C 256.574219 755.269531 203.953125 766.890625 205.058594 747.378906 C 206.160156 727.871094 235.75 708.148438 224.792969 707.589844 C 213.835938 707.03125 165.597656 737.738281 154.628906 707.589844 C 143.671875 677.441406 208.335938 680.734375 205.058594 657.707031 C 201.777344 634.675781 105.390625 675.386719 72.507812 649.074219 C 39.625 622.765625 77.902344 598.511719 93.242188 588.644531 C 108.582031 578.773438 11.03125 596.925781 5.546875 556.605469 C 0.0585938 516.285156 59.253906 548.082031 92.152344 538.214844 C 125.054688 528.34375 82.285156 511.902344 74.609375 497.652344 C 66.933594 483.402344 93.242188 448.328125 126.125 491.078125 C 159.011719 533.832031 184.851562 559.402344 224.792969 568.90625 C 247.808594 574.390625 230.277344 530.535156 228.085938 509.710938 C 225.898438 488.886719 263.132812 461.472656 268.632812 491.078125 C 274.132812 520.683594 293.871094 557.949219 308.121094 523.960938 C 322.371094 489.976562 353.429688 495.460938 358.734375 527.257812 C 364.007812 559.054688 317.628906 609.46875 351.78125 657.707031 Z M 351.78125 657.707031 " fill-opacity="1" fill-rule="nonzero"/><path fill="#00844f" d="M 465.679688 606.730469 C 462.191406 621.4375 505.320312 655.769531 547.875 658.71875 C 590.433594 661.664062 643.582031 652.792969 635.269531 635.113281 C 626.972656 617.429688 592.140625 610.175781 602.113281 605.566406 C 612.074219 600.960938 668.289062 611.433594 667.203125 579.363281 C 666.113281 547.296875 607.34375 574.511719 601.796875 551.921875 C 596.25 529.34375 691.488281 513.445312 712.160156 476.765625 C 732.847656 440.074219 697.652344 449.519531 679.730469 446.105469 C 661.808594 442.6875 759.082031 423.074219 749.125 383.632812 C 739.167969 344.1875 696.113281 395.78125 661.929688 398.910156 C 627.730469 402.039062 661.246094 370.816406 663.046875 354.738281 C 664.84375 338.65625 627.335938 315.929688 612.796875 367.882812 C 598.261719 419.824219 583.828125 453.207031 550.339844 476.933594 C 531.027344 490.609375 530.921875 443.382812 525.179688 423.253906 C 519.433594 403.109375 474.65625 391.59375 480.613281 421.109375 C 486.566406 450.625 482.183594 492.558594 456.265625 466.371094 C 430.347656 440.164062 403.585938 456.847656 410.550781 488.328125 C 417.488281 519.777344 479.359375 549.230469 465.679688 606.730469 Z M 465.679688 606.730469 " fill-opacity="1" fill-rule="nonzero"/><path fill="#00844f" d="M 339.765625 400.902344 C 330.050781 412.480469 276.765625 398.320312 249.019531 365.917969 C 221.273438 333.519531 196.699219 285.566406 215.863281 281.683594 C 235.023438 277.800781 261.589844 301.4375 259.355469 290.691406 C 257.117188 279.945312 215.195312 241.0625 241.582031 222.824219 C 267.96875 204.582031 281.175781 267.976562 302.605469 258.972656 C 324.050781 249.964844 270.507812 163.976562 287.628906 125.484375 C 304.75 86.996094 327.660156 120.953125 341.097656 133.296875 C 354.53125 145.644531 312.261719 55.863281 349.875 40.34375 C 387.492188 24.824219 371.714844 90.152344 389.589844 119.46875 C 407.46875 148.789062 412.546875 103.253906 424.378906 92.222656 C 436.210938 81.191406 476.820312 97.753906 443.796875 140.402344 C 410.777344 183.046875 392.582031 214.527344 393.503906 255.554688 C 394.035156 279.222656 432.011719 251.144531 451.613281 243.738281 C 471.210938 236.347656 507.148438 265.410156 479.917969 278.238281 C 452.683594 291.054688 421.613281 319.585938 458.109375 324.769531 C 494.589844 329.953125 497.160156 361.386719 467.75 374.5625 C 438.3125 387.742188 377.773438 355.644531 339.765625 400.902344 Z M 339.765625 400.902344 " fill-opacity="1" fill-rule="nonzero"/><g clip-path="url(#d3729fea75)"><path fill="#000000" d="M 760.445312 360.296875 C 758.117188 351.109375 753.792969 345.109375 747.582031 342.464844 C 735.691406 337.386719 721.199219 345.625 704.421875 355.175781 C 691.609375 362.457031 678.355469 370 666.824219 371.058594 C 660.886719 371.601562 658.695312 370.859375 658.089844 370.574219 C 657.816406 367.761719 662.699219 359.285156 665.359375 354.660156 C 669.5 347.484375 673.777344 340.046875 674.484375 333.578125 C 675.710938 322.636719 665.386719 310.835938 652.390625 308.296875 C 644.351562 306.742188 636.238281 308.886719 629.542969 314.371094 C 622.03125 320.507812 616.273438 330.617188 612.40625 344.414062 C 598.109375 395.492188 584.28125 427.472656 552.273438 450.15625 C 550.597656 451.347656 549.570312 451.546875 549.34375 451.46875 C 545.050781 449.65625 541.832031 429.480469 540.289062 419.78125 C 539.097656 412.3125 537.976562 405.257812 536.40625 399.742188 C 531.707031 383.285156 508.160156 372.417969 493.351562 376.03125 C 480.582031 379.128906 478.132812 390.671875 480.097656 400.449219 C 485.3125 426.308594 480.550781 444.441406 476.652344 446.527344 C 475.1875 447.296875 471.316406 445.667969 465.96875 440.257812 C 449.480469 423.585938 433.191406 423.316406 423.441406 428.636719 C 411.488281 435.148438 406.230469 450.503906 410.054688 467.777344 C 412.910156 480.667969 423.308594 492.589844 434.324219 505.222656 C 448.46875 521.4375 464.0625 539.332031 466.617188 562.273438 C 462.28125 564.597656 457.929688 566.851562 453.578125 568.980469 C 443.632812 573.847656 433.628906 578.199219 423.609375 582.039062 C 418.09375 561.363281 409.960938 541.929688 402.332031 523.707031 C 387.882812 489.203125 374.238281 456.609375 381.296875 424.613281 C 387.1875 397.851562 388.683594 377.949219 387.671875 361.417969 C 401.984375 358.816406 417.003906 359.980469 431.089844 361.097656 C 447.804688 362.414062 463.582031 363.652344 475.625 358.257812 C 491.765625 351.035156 500.953125 337.644531 499.050781 324.164062 C 497.492188 313.179688 487.5625 300.257812 464.351562 296.960938 C 456.824219 295.890625 453.199219 293.757812 452.957031 292.125 C 452.292969 287.757812 464.035156 273.117188 487.894531 261.886719 C 496.917969 257.640625 504.730469 248.800781 499.609375 236.695312 C 493.652344 222.65625 470.910156 210.21875 454.890625 216.265625 C 449.527344 218.289062 443.195312 221.597656 436.5 225.105469 C 427.796875 229.652344 409.675781 239.113281 405.671875 236.742188 C 405.472656 236.621094 405.019531 235.667969 404.976562 233.613281 C 404.886719 229.714844 406.09375 223.289062 407.046875 218.121094 C 407.558594 215.328125 408.058594 212.699219 408.359375 210.507812 C 408.8125 207.195312 406.488281 204.160156 403.175781 203.707031 C 399.867188 203.253906 396.832031 205.578125 396.375 208.890625 C 396.121094 210.777344 395.652344 213.273438 395.167969 215.902344 C 394.050781 221.914062 392.78125 228.714844 392.886719 233.871094 C 393.066406 241.710938 396.589844 245.414062 399.519531 247.136719 C 409.3125 252.925781 425.242188 244.613281 442.089844 235.804688 C 448.46875 232.480469 454.484375 229.335938 459.167969 227.566406 C 468.734375 223.957031 484.796875 232.722656 488.46875 241.394531 C 489.257812 243.253906 490.886719 247.109375 482.757812 250.929688 C 472.359375 255.828125 462.007812 262.582031 454.347656 269.457031 C 444.402344 278.40625 439.914062 286.625 441.003906 293.910156 C 442.226562 301.996094 449.511719 307.042969 462.660156 308.917969 C 476.53125 310.882812 485.886719 317.363281 487.082031 325.84375 C 488.214844 333.851562 481.777344 342.238281 470.683594 347.210938 C 461.449219 351.351562 447.167969 350.21875 432.042969 349.039062 C 417.867188 347.921875 402.015625 346.695312 386.433594 349.339844 C 385.027344 339.59375 382.761719 330.875 380.148438 322.246094 C 412.378906 306.46875 413.421875 286.488281 413.453125 285.597656 C 413.558594 282.257812 410.945312 279.402344 407.605469 279.296875 C 404.324219 279.128906 401.484375 281.746094 401.378906 285.070312 C 401.363281 285.21875 400.003906 298.488281 376.472656 310.5625 C 376.460938 310.535156 376.445312 310.488281 376.445312 310.457031 C 374.433594 304.203125 372.347656 297.75 370.398438 290.738281 C 355.363281 236.800781 372.105469 183.5625 380.160156 157.976562 C 383.683594 146.761719 384.753906 143.394531 383.246094 140.097656 C 381.855469 137.0625 378.273438 135.714844 375.234375 137.105469 C 372.710938 138.253906 371.367188 140.929688 371.773438 143.527344 C 371.503906 145.238281 370.035156 149.859375 368.632812 154.347656 C 366.742188 160.347656 364.234375 168.34375 361.753906 177.789062 C 347.171875 166.921875 341.972656 150.058594 339.949219 143.5 C 339.296875 141.351562 338.964844 140.28125 338.269531 139.253906 C 336.425781 136.472656 332.664062 135.714844 329.882812 137.574219 C 327.300781 139.296875 326.46875 142.667969 327.859375 145.359375 C 327.996094 145.734375 328.160156 146.308594 328.386719 147.050781 C 330.867188 155.136719 337.46875 176.625 357.691406 189.710938 C 358.023438 189.921875 358.371094 190.089844 358.734375 190.242188 C 352.429688 218.695312 348.261719 256.402344 358.746094 293.984375 C 360.773438 301.222656 362.886719 307.796875 364.929688 314.160156 C 365.050781 314.523438 365.15625 314.886719 365.277344 315.25 C 339.207031 322.230469 324.609375 288.863281 323.960938 287.367188 C 322.660156 284.296875 319.109375 282.863281 316.039062 284.164062 C 312.957031 285.460938 311.523438 289.015625 312.820312 292.082031 C 313.261719 293.109375 323.71875 317.363281 344.148438 325.644531 C 348.683594 327.472656 353.324219 328.394531 358.050781 328.394531 C 361.617188 328.394531 365.230469 327.867188 368.886719 326.808594 C 371.335938 334.984375 373.390625 343.128906 374.628906 352.167969 C 362.449219 356.050781 350.753906 363.03125 340.566406 375.183594 C 340.007812 375.847656 337.652344 376.996094 332.378906 377.011719 C 332.316406 377.011719 332.257812 377.011719 332.195312 377.011719 C 314.695312 377.011719 279.664062 364.257812 259.023438 340.152344 C 233.605469 310.472656 217.644531 276.5 220.878906 267.085938 C 221.152344 266.300781 221.4375 265.96875 222.464844 265.769531 C 230.761719 264.09375 242.035156 269.382812 250.273438 273.25 C 258.371094 277.058594 263.738281 279.570312 268.105469 276.109375 C 269.496094 275.003906 271.671875 272.449219 270.660156 267.628906 C 269.84375 263.699219 266.746094 259.183594 261.335938 251.519531 C 253.882812 240.972656 242.640625 225.027344 244.53125 214.359375 C 245.121094 211.035156 247.039062 208.285156 250.410156 205.972656 C 257.4375 201.121094 262.484375 202.890625 276.886719 222.460938 C 285.921875 234.746094 296.167969 248.679688 310.34375 242.726562 C 325.636719 236.289062 318.324219 212.953125 309.074219 183.425781 C 300.808594 157.023438 290.515625 124.171875 298.539062 106.125 C 301.183594 100.1875 305.445312 92.902344 310.707031 91.996094 C 318.082031 90.726562 328.144531 101.277344 335.488281 108.996094 C 337.921875 111.550781 340.21875 113.96875 342.382812 115.949219 C 346.628906 119.847656 350.089844 118.773438 351.78125 117.792969 C 356.980469 114.742188 355.679688 109.300781 352.203125 94.761719 C 347.003906 73 337.320312 32.484375 357.554688 24.144531 C 362.648438 22.042969 366.425781 21.695312 368.828125 23.085938 C 374.8125 26.589844 376.671875 41.703125 378.46875 56.332031 C 380.417969 72.246094 382.429688 88.6875 389.816406 100.808594 C 393.265625 106.457031 398.71875 113.925781 406.546875 113.363281 C 415.707031 112.730469 420.34375 102.03125 425.257812 90.710938 C 427.929688 84.546875 430.96875 77.550781 433.886719 74.84375 C 436.695312 72.230469 445.097656 72.230469 450.960938 77.59375 C 459.273438 85.179688 456.886719 98.78125 444.402344 114.90625 L 442.332031 117.582031 C 429.035156 134.75 421.011719 145.101562 412.757812 160.863281 C 411.21875 163.824219 412.351562 167.464844 415.3125 169.023438 C 418.273438 170.578125 421.917969 169.429688 423.472656 166.46875 C 431.210938 151.660156 438.992188 141.625 451.882812 125 L 453.953125 122.328125 C 478.511719 90.605469 464.109375 73.257812 459.109375 68.695312 C 449.328125 59.777344 433.703125 58.523438 425.648438 66.035156 C 420.890625 70.476562 417.472656 78.335938 414.164062 85.9375 C 412.03125 90.832031 408.132812 99.808594 405.730469 101.261719 C 405.140625 100.941406 403.238281 99.628906 400.125 94.550781 C 394.09375 84.652344 392.234375 69.523438 390.453125 54.894531 C 388.109375 35.75 386.085938 19.203125 374.917969 12.671875 C 369.085938 9.273438 361.695312 9.378906 352.929688 12.988281 C 323.582031 25.09375 334.054688 70.929688 340.144531 96.453125 C 331.167969 87.3125 320.46875 78.0625 308.621094 80.117188 C 300.050781 81.597656 293.128906 88.519531 287.464844 101.246094 C 277.582031 123.460938 288.160156 157.25 297.5 187.066406 C 301.425781 199.609375 305.128906 211.457031 306.503906 220.222656 C 307.699219 227.855469 306.777344 231.117188 305.613281 231.617188 C 300.597656 233.71875 294.566406 226.191406 286.585938 215.34375 C 276.492188 201.621094 262.664062 182.804688 243.503906 196.074219 C 237.441406 200.261719 233.769531 205.730469 232.605469 212.304688 C 229.824219 227.929688 242.324219 245.625 251.4375 258.546875 C 252.085938 259.46875 252.796875 260.46875 253.507812 261.480469 C 243.941406 257.019531 231.488281 251.65625 220.03125 253.984375 C 214.878906 255.027344 211.101562 258.304688 209.425781 263.21875 C 203.046875 281.773438 229.191406 324.011719 249.804688 348.070312 C 271.597656 373.503906 309.421875 389.160156 332.148438 389.160156 C 332.226562 389.160156 332.316406 389.160156 332.390625 389.160156 C 340.539062 389.117188 346.386719 387.046875 349.769531 383.011719 C 357.492188 373.808594 366.320312 368.109375 375.703125 364.664062 C 376.382812 379.746094 374.78125 397.804688 369.433594 422.0625 C 361.558594 457.785156 375.914062 492.105469 391.132812 528.421875 C 398.992188 547.191406 406.96875 566.261719 412.214844 586.210938 C 391.8125 593.238281 371.304688 598.164062 350.769531 600.945312 C 349.527344 582.824219 355.753906 564.855469 361.511719 548.292969 C 367.015625 532.457031 372.210938 517.507812 370.050781 504.496094 C 367.148438 487.058594 356.527344 474.773438 343.015625 473.199219 C 331.96875 471.929688 316.976562 478.25 307.910156 499.875 C 304.964844 506.886719 301.957031 509.847656 300.339844 509.679688 C 295.941406 509.214844 284.757812 494.144531 279.9375 468.230469 C 278.109375 458.4375 271.550781 448.644531 258.523438 450.53125 C 243.425781 452.722656 225.640625 471.582031 227.4375 488.613281 C 228.042969 494.3125 229.628906 501.277344 231.320312 508.652344 C 233.511719 518.21875 238.078125 538.152344 234.769531 541.433594 C 234.601562 541.597656 233.574219 541.78125 231.5625 541.3125 C 193.390625 532.230469 168.636719 507.71875 136.296875 465.675781 C 111.84375 433.878906 91.398438 443.414062 85.714844 447.101562 C 74.609375 454.296875 69.441406 469.105469 74.652344 478.808594 C 77.738281 484.535156 84.476562 489.839844 91.003906 494.945312 C 95.207031 498.242188 102.898438 504.285156 103.699219 506.992188 C 103.246094 507.492188 101.492188 509 95.78125 510.710938 C 84.6875 514.035156 69.578125 511.992188 54.964844 510.027344 C 35.847656 507.445312 19.328125 505.207031 10.1875 514.367188 C 5.410156 519.140625 3.640625 526.320312 4.910156 535.703125 C 9.25 567.636719 57.609375 568.679688 83.585938 569.238281 C 83.8125 569.238281 84.039062 569.253906 84.265625 569.253906 C 72.644531 577.625 59.648438 589.5625 58.890625 604.34375 C 58.378906 614.273438 63.488281 623.613281 74.078125 632.089844 C 93.695312 647.792969 129.964844 642.625 161.957031 638.074219 C 174.5625 636.277344 186.453125 634.570312 194.886719 634.6875 C 201.65625 634.765625 204.300781 636.035156 204.421875 636.867188 C 205.191406 642.246094 196.382812 646.175781 183.855469 651.148438 C 168.015625 657.433594 146.332031 666.046875 154.296875 687.960938 C 156.820312 694.894531 161.171875 699.824219 167.230469 702.617188 C 181.648438 709.269531 201.929688 701.667969 216.738281 696.121094 C 217.796875 695.726562 218.945312 695.289062 220.109375 694.867188 C 213.382812 702.980469 205.027344 713.679688 204.378906 725.347656 C 204.074219 730.605469 206.296875 735.078125 210.617188 737.949219 C 214.609375 740.609375 220.441406 741.742188 227.421875 741.742188 C 249.003906 741.742188 281.402344 730.847656 302.9375 720.375 C 333.164062 705.703125 357.960938 672.878906 363.613281 650.890625 C 365.640625 643 365.125 636.820312 362.074219 632.511719 C 357.492188 626.046875 354.515625 619.5 352.734375 612.941406 C 373.542969 610.101562 394.308594 605.175781 414.933594 598.148438 C 418.136719 614.167969 419.285156 630.789062 416.945312 648.289062 C 405.113281 736.726562 417.519531 761.691406 418.96875 764.261719 C 420.089844 766.226562 422.171875 767.359375 424.289062 767.359375 C 425.285156 767.359375 426.300781 767.101562 427.234375 766.574219 C 430.136719 764.925781 431.179688 761.285156 429.53125 758.382812 C 425.378906 750.386719 419.890625 717.429688 428.929688 649.890625 C 431.542969 630.367188 430.078125 611.75 426.359375 594.023438 C 437.074219 589.957031 447.742188 585.378906 458.367188 580.179688 C 461.070312 578.863281 463.761719 577.488281 466.46875 576.097656 C 466.179688 578.5625 465.757812 581.054688 465.136719 583.640625 C 463.914062 588.777344 465.742188 594.703125 470.5625 601.261719 C 484.011719 619.546875 519.269531 640.734375 552.789062 643.0625 C 557.867188 643.410156 563.410156 643.605469 569.183594 643.605469 C 599.316406 643.605469 635.691406 638.46875 645.003906 624.882812 C 647.933594 620.589844 648.328125 615.617188 646.089844 610.855469 C 641.132812 600.277344 629.390625 593.476562 620.113281 588.460938 C 621.351562 588.429688 622.574219 588.402344 623.710938 588.371094 C 639.515625 587.992188 661.171875 587.464844 672.066406 575.917969 C 676.648438 571.066406 678.839844 564.855469 678.597656 557.496094 C 677.8125 534.195312 654.476562 534.328125 637.429688 534.390625 C 623.949219 534.464844 614.308594 534.085938 613.011719 528.8125 C 612.527344 526.832031 615.789062 523.402344 621.761719 519.625 C 629.480469 514.742188 640.953125 509.667969 653.101562 504.300781 C 680.335938 492.257812 711.195312 478.597656 722.769531 458.058594 C 730.070312 445.105469 731.699219 435.933594 727.878906 429.179688 C 723.390625 421.261719 713.15625 419.945312 703.152344 419.539062 C 727.726562 408.839844 768 390.144531 760.445312 360.296875 Z M 352.324219 639.34375 C 352.824219 640.054688 353.335938 642.625 352.023438 647.730469 C 347.683594 664.625 326.421875 695.441406 297.785156 709.34375 C 262.632812 726.421875 225.746094 733.25 217.449219 727.71875 C 216.753906 727.25 216.511719 726.902344 216.574219 725.847656 C 217.039062 717.398438 225.019531 707.816406 230.851562 700.835938 C 236.582031 693.960938 240.375 689.425781 238.121094 684.300781 C 237.410156 682.6875 235.492188 679.933594 230.566406 679.679688 C 230.371094 679.664062 230.171875 679.664062 229.960938 679.664062 C 226.03125 679.664062 220.953125 681.492188 212.628906 684.621094 C 200.539062 689.152344 182.269531 695.984375 172.414062 691.464844 C 169.347656 690.046875 167.1875 687.507812 165.78125 683.652344 C 162.863281 675.628906 165.839844 671.183594 188.433594 662.207031 C 202.609375 656.570312 218.6875 650.195312 216.511719 634.976562 C 215.347656 626.800781 208.15625 622.570312 195.160156 622.417969 C 185.773438 622.34375 173.457031 624.066406 160.386719 625.925781 C 132.277344 629.929688 97.292969 634.902344 81.757812 622.480469 C 74.382812 616.570312 70.785156 610.628906 71.085938 604.796875 C 71.78125 591.257812 91.957031 578.289062 101.644531 572.066406 L 101.976562 571.851562 C 106.828125 568.726562 106.675781 565.113281 106.132812 563.222656 C 104.5 557.421875 98.910156 557.300781 83.949219 556.984375 C 61.582031 556.5 19.933594 555.605469 16.984375 533.90625 C 16.246094 528.449219 16.863281 524.703125 18.828125 522.738281 C 23.742188 517.828125 38.839844 519.867188 53.4375 521.847656 C 69.320312 523.992188 85.746094 526.214844 99.347656 522.132812 C 105.679688 520.230469 114.277344 516.816406 115.730469 509.121094 C 117.4375 500.117188 108.261719 492.90625 98.5625 485.289062 C 93.273438 481.132812 87.289062 476.433594 85.398438 472.914062 C 83.585938 469.542969 85.714844 461.414062 92.378906 457.089844 C 101.839844 450.972656 114.382812 456.730469 126.804688 472.882812 C 160.839844 517.132812 187.195312 542.988281 228.859375 552.917969 C 236.488281 554.730469 240.964844 552.269531 243.382812 549.863281 C 251.464844 541.855469 247.460938 524.339844 243.199219 505.796875 C 241.597656 498.785156 240.070312 492.167969 239.558594 487.195312 C 238.484375 477.023438 251.042969 463.710938 260.367188 462.351562 C 262.363281 462.0625 266.503906 461.457031 268.148438 470.300781 C 270.25 481.589844 274.164062 493.316406 278.878906 502.472656 C 285.015625 514.367188 291.832031 520.789062 299.160156 521.574219 C 307.277344 522.453125 314.03125 516.679688 319.167969 504.421875 C 324.578125 491.5 333.191406 484.113281 341.730469 485.09375 C 349.769531 486.03125 356.253906 494.386719 358.25 506.371094 C 359.910156 516.347656 355.210938 529.886719 350.222656 544.210938 C 344.210938 561.515625 337.273438 581.496094 338.816406 602.226562 C 326.40625 603.390625 313.984375 603.800781 301.59375 603.40625 C 301.546875 603.40625 301.503906 603.40625 301.457031 603.40625 C 301.851562 601.519531 302.136719 599.644531 302.257812 597.785156 C 303.738281 573.726562 288.507812 555.441406 287.855469 554.671875 C 285.695312 552.132812 281.902344 551.8125 279.347656 553.960938 C 276.792969 556.105469 276.476562 559.914062 278.621094 562.46875 C 278.742188 562.621094 291.378906 577.929688 290.199219 597.03125 C 290.078125 598.917969 289.746094 600.808594 289.214844 602.710938 C 209.710938 596.710938 158.40625 559.839844 157.636719 559.28125 C 154.945312 557.300781 151.167969 557.875 149.1875 560.5625 C 147.207031 563.253906 147.78125 567.03125 150.472656 569.011719 C 151.273438 569.601562 158.238281 574.648438 170.480469 581.191406 C 158.648438 583.429688 148.175781 586.421875 140.316406 588.671875 C 136.128906 589.867188 131.386719 591.226562 129.917969 591.363281 C 126.789062 591.0625 123.933594 593.191406 123.375 596.320312 C 122.785156 599.613281 124.992188 602.742188 128.273438 603.332031 C 128.753906 603.421875 129.253906 603.46875 129.8125 603.46875 C 132.414062 603.46875 136.007812 602.484375 143.640625 600.292969 C 154.960938 597.058594 171.914062 592.222656 190.050781 590.652344 C 212.898438 600.613281 244.800781 610.964844 283.777344 614.4375 C 275.601562 627.238281 261.457031 638.84375 251.875 645.8125 C 249.167969 647.777344 248.578125 651.554688 250.542969 654.257812 C 251.722656 655.890625 253.566406 656.753906 255.441406 656.753906 C 256.679688 656.753906 257.917969 656.375 258.992188 655.605469 C 277.925781 641.835938 290.726562 628.359375 297.257812 615.332031 C 298.34375 615.375 299.417969 615.453125 300.519531 615.480469 C 304.042969 615.601562 307.5625 615.664062 311.082031 615.664062 C 320.953125 615.664062 330.835938 615.164062 340.71875 614.210938 C 342.730469 622.570312 346.402344 630.988281 352.324219 639.34375 Z M 695.234375 409.667969 C 681.484375 415.546875 676.34375 417.753906 676.996094 423.738281 C 677.207031 425.671875 678.398438 429.101562 684.082031 430.175781 C 688.480469 431.023438 693.585938 431.160156 698.515625 431.292969 C 705.769531 431.492188 715.710938 431.777344 717.496094 434.953125 C 718.023438 435.875 719.203125 439.832031 712.371094 451.9375 C 702.777344 468.96875 673.851562 481.769531 648.34375 493.058594 C 619.929688 505.632812 597.472656 515.558594 601.402344 531.503906 C 605.074219 546.433594 622.347656 546.359375 637.613281 546.285156 C 661.925781 546.191406 666.339844 549.167969 666.644531 557.707031 C 666.777344 561.789062 665.722656 564.976562 663.410156 567.425781 C 655.972656 575.296875 636.464844 575.78125 623.558594 576.097656 C 614.1875 576.324219 608.71875 576.539062 605.074219 578.230469 C 600.601562 580.300781 599.847656 583.566406 599.800781 585.332031 C 599.636719 590.910156 604.832031 593.707031 612.722656 597.953125 C 620.730469 602.257812 631.71875 608.167969 635.316406 615.828125 C 635.769531 616.78125 635.679688 617.1875 635.195312 617.882812 C 629.574219 626.089844 592.789062 633.539062 553.800781 630.835938 C 522.035156 628.628906 490.796875 607.984375 480.476562 593.933594 C 477.363281 589.683594 476.863281 587.117188 477.0625 586.269531 C 478.480469 580.300781 479.132812 574.617188 479.175781 569.179688 C 494.921875 560.351562 510.535156 550.273438 526.023438 538.953125 C 534.289062 548.140625 545.320312 557.011719 560.042969 564.054688 C 560.886719 564.464844 561.765625 564.644531 562.640625 564.644531 C 564.890625 564.644531 567.054688 563.375 568.097656 561.199219 C 569.53125 558.191406 568.261719 554.578125 565.253906 553.144531 C 552.574219 547.085938 543.011719 539.511719 535.757812 531.667969 C 558.320312 514.351562 580.5625 494.402344 602.414062 471.917969 C 627.246094 471.234375 654.992188 461.019531 656.199219 460.566406 C 659.328125 459.402344 660.914062 455.925781 659.75 452.800781 C 658.589844 449.671875 655.113281 448.070312 651.984375 449.234375 C 651.757812 449.324219 633.910156 455.882812 614.972656 458.648438 C 625.144531 447.644531 635.222656 436.085938 645.199219 423.980469 C 647.3125 421.394531 646.953125 417.589844 644.367188 415.472656 C 641.796875 413.339844 637.976562 413.71875 635.859375 416.304688 C 601.011719 458.632812 564.984375 494.054688 528.15625 522.269531 C 515.746094 504.527344 513.753906 487.933594 513.632812 486.785156 C 513.285156 483.476562 510.324219 481.058594 507.011719 481.390625 C 503.6875 481.722656 501.269531 484.6875 501.601562 488.011719 C 501.738281 489.296875 503.945312 508.867188 518.46875 529.507812 C 505.078125 539.269531 491.597656 548.082031 478.027344 555.925781 C 473.613281 531.789062 457.339844 513.128906 443.496094 497.257812 C 433.523438 485.820312 424.109375 475.03125 421.917969 465.144531 C 419.285156 453.269531 422.1875 443.113281 429.292969 439.242188 C 436.800781 435.148438 447.59375 438.789062 457.445312 448.75 C 466.785156 458.195312 475.1875 461.035156 482.394531 457.183594 C 496.660156 449.582031 495.964844 417.648438 492.007812 398.046875 C 490.222656 389.238281 494.304688 388.238281 496.253906 387.773438 C 505.410156 385.535156 522.019531 393.210938 524.832031 403.050781 C 526.207031 407.855469 527.261719 414.566406 528.398438 421.667969 C 531.375 440.453125 534.199219 458.195312 544.6875 462.605469 C 547.816406 463.921875 552.894531 464.542969 559.300781 460.007812 C 594.253906 435.238281 609.035156 401.417969 624.085938 347.664062 C 629.585938 328.035156 639.078125 318.027344 650.125 320.160156 C 657.921875 321.671875 662.941406 328.425781 662.515625 332.234375 C 662.078125 336.195312 658.269531 342.796875 654.914062 348.632812 C 648.765625 359.332031 642.945312 369.441406 647.886719 377.164062 C 652.105469 383.75 661.355469 383.707031 667.941406 383.101562 C 682.085938 381.800781 696.488281 373.613281 710.421875 365.691406 C 723.238281 358.410156 736.492188 350.882812 742.851562 353.601562 C 745.40625 354.691406 747.386719 357.957031 748.730469 363.273438 C 754.097656 384.492188 715.800781 400.875 695.234375 409.667969 Z M 695.234375 409.667969 " fill-opacity="1" fill-rule="nonzero"/></g></svg>