<svg xmlns="http://www.w3.org/2000/svg" xmlns:xlink="http://www.w3.org/1999/xlink" width="1024" zoomAndPan="magnify" viewBox="0 0 768 767.999994" height="1024" preserveAspectRatio="xMidYMid meet" version="1.0"><defs><clipPath id="3a70a3d18f"><path d="M 0 6 L 764 6 L 764 767.671875 L 0 767.671875 Z M 0 6 " clip-rule="nonzero"/></clipPath></defs><path fill="#71d171" d="M 631.441406 85.644531 C 614.597656 87.078125 548.628906 110.539062 537.675781 160.660156 C 526.722656 210.785156 484.09375 182.945312 445.738281 245.953125 C 407.382812 308.960938 414.9375 315.710938 363.9375 334.65625 C 329 347.632812 319.40625 393.855469 308.453125 426.726562 C 297.5 459.597656 275.808594 439.6875 244.3125 482.152344 C 212.816406 524.617188 214.902344 560.628906 188.886719 588.03125 C 162.875 615.433594 154.566406 595.359375 108.554688 645.949219 C 62.539062 696.539062 85.5 721.933594 8.007812 759.746094 C 8.007812 759.746094 106.679688 764.910156 142.800781 734.394531 C 172.679688 709.152344 224.023438 752.402344 313.0625 678.441406 C 402.097656 604.484375 476.859375 475.71875 552.480469 420.941406 C 628.101562 366.167969 685.792969 241.042969 697.96875 163.636719 L 704.371094 59.992188 " fill-opacity="1" fill-rule="nonzero"/><path fill="#3eb57b" d="M 725.914062 19.617188 C 746.671875 3.195312 767.804688 23.542969 747.621094 41.324219 C 724.054688 62.09375 715.023438 101.566406 703.738281 203.15625 C 703.738281 203.15625 668.390625 150.964844 672.089844 91.113281 C 672.089844 91.113281 618.449219 104.828125 567.027344 95.296875 C 567.027344 95.296875 636.816406 48.621094 669.144531 44.285156 C 700.746094 40.054688 718.027344 25.871094 725.914062 19.617188 Z M 725.914062 19.617188 " fill-opacity="1" fill-rule="nonzero"/><g clip-path="url(#3a70a3d18f)"><path fill="#000000" d="M 758.753906 13.707031 C 749.042969 2.09375 732.167969 5.023438 721.230469 13.695312 L 720.65625 14.148438 C 712.953125 20.25 696.941406 32.9375 668.148438 36.804688 C 634.460938 41.324219 565.726562 87.078125 562.828125 89.027344 C 560.273438 90.734375 559.003906 93.816406 559.625 96.839844 C 560.246094 99.84375 562.632812 102.1875 565.652344 102.746094 C 567.296875 103.046875 568.945312 103.320312 570.578125 103.574219 C 552.164062 116.550781 535.605469 134.785156 530.304688 159.046875 C 530.289062 159.089844 530.273438 159.136719 530.273438 159.195312 C 529.351562 162.082031 528.519531 164.9375 527.765625 167.730469 C 522.449219 181.523438 513.21875 185.464844 499.351562 191.386719 C 481.753906 198.894531 459.863281 208.246094 439.304688 242.023438 C 430.84375 255.9375 424.546875 267.207031 419.484375 276.269531 C 401.75 308.039062 398.546875 313.75 361.324219 327.585938 C 327.578125 340.125 315.417969 379.25 305.644531 410.699219 C 304.585938 414.128906 303.558594 417.40625 302.53125 420.578125 C 302.53125 420.59375 302.515625 420.625 302.515625 420.640625 C 302.109375 421.894531 301.714844 423.132812 301.308594 424.339844 C 296.972656 437.347656 291.488281 439.628906 281.519531 443.738281 C 270.492188 448.300781 255.402344 454.539062 238.253906 477.652344 C 221.925781 499.675781 214.28125 519.992188 207.542969 537.925781 C 201.035156 555.238281 195.414062 570.191406 183.417969 582.820312 C 173.601562 593.152344 166.953125 595.8125 158.523438 599.179688 C 146.167969 604.121094 130.789062 610.269531 102.964844 640.859375 C 84.972656 660.632812 77.101562 676.707031 70.152344 690.90625 C 59.335938 713.003906 50.789062 730.453125 4.699219 752.945312 C 1.601562 754.457031 -0.0742188 757.871094 0.605469 761.238281 C 1.285156 764.609375 4.167969 767.101562 7.613281 767.28125 C 8.128906 767.3125 14.472656 767.628906 24.335938 767.628906 C 34.277344 767.628906 47.78125 767.3125 62.507812 766.027344 C 102.828125 762.539062 131.484375 753.835938 147.679688 740.152344 C 156.589844 732.628906 168.707031 732.613281 185.429688 732.644531 C 216.730469 732.644531 259.585938 732.675781 317.894531 684.242188 C 362.171875 647.460938 402.503906 597.867188 441.523438 549.890625 C 481.480469 500.761719 519.230469 454.355469 556.921875 427.046875 C 620.335938 381.09375 673.480469 284.851562 696.230469 205.46875 C 696.910156 206.523438 697.347656 207.203125 697.5 207.402344 C 698.917969 209.5 701.289062 210.722656 703.753906 210.722656 C 704.359375 210.722656 704.960938 210.648438 705.566406 210.496094 C 708.632812 209.742188 710.914062 207.144531 711.261719 204 C 722.773438 100.359375 732.0625 65.144531 752.636719 47.003906 C 762.03125 38.695312 767.96875 24.734375 758.753906 13.707031 Z M 642.347656 297.207031 C 614.898438 348.871094 581.40625 390.640625 548.054688 414.808594 C 508.761719 443.285156 470.40625 490.429688 429.800781 540.355469 C 391.25 587.761719 351.371094 636.78125 308.242188 672.613281 C 254.148438 717.550781 214.417969 717.523438 185.445312 717.523438 C 167 717.492188 151.0625 717.507812 137.933594 728.59375 C 124.382812 740.046875 97.917969 747.765625 61.390625 750.953125 C 52.644531 751.707031 44.292969 752.117188 36.890625 752.328125 C 66.089844 733.550781 74.398438 716.585938 83.71875 697.535156 C 90.53125 683.609375 97.585938 669.199219 114.128906 651.023438 C 139.613281 623.003906 152.632812 617.804688 164.113281 613.214844 C 173.449219 609.484375 182.257812 605.949219 194.355469 593.226562 C 199.476562 587.835938 203.585938 582.140625 207.0625 576.21875 C 208.675781 592.308594 214.28125 606.25 223.933594 618.289062 C 225.429688 620.148438 227.621094 621.113281 229.824219 621.113281 C 231.488281 621.113281 233.148438 620.570312 234.554688 619.453125 C 237.800781 616.839844 238.332031 612.082031 235.71875 608.832031 C 219.582031 588.726562 217.421875 561.082031 229.117188 524.359375 C 229.132812 524.296875 229.132812 524.253906 229.144531 524.191406 C 234.238281 512.242188 240.582031 499.84375 250.371094 486.652344 C 265.023438 466.894531 276.851562 462.015625 287.273438 457.695312 C 289.933594 456.59375 292.546875 455.503906 295.085938 454.234375 C 292.261719 480.292969 297.789062 501.683594 311.730469 519.070312 C 313.226562 520.929688 315.417969 521.898438 317.625 521.898438 C 319.285156 521.898438 320.945312 521.351562 322.351562 520.234375 C 325.597656 517.621094 326.128906 512.863281 323.515625 509.617188 C 307.382812 489.507812 305.222656 461.894531 316.898438 425.1875 C 317.941406 421.9375 318.984375 418.617188 320.054688 415.15625 C 329.300781 385.398438 339.785156 351.679688 366.566406 341.726562 C 385.691406 334.625 397.203125 328.898438 405.796875 321.695312 C 402.988281 347.722656 408.503906 369.097656 422.445312 386.484375 C 423.941406 388.34375 426.132812 389.308594 428.335938 389.308594 C 430 389.308594 431.660156 388.765625 433.066406 387.648438 C 436.3125 385.035156 436.839844 380.277344 434.226562 377.027344 C 418.09375 356.921875 415.933594 329.292969 427.625 292.570312 C 429.210938 289.789062 430.875 286.8125 432.65625 283.613281 C 437.65625 274.667969 443.867188 263.519531 452.1875 249.863281 C 470.226562 220.226562 488.851562 212.28125 505.273438 205.269531 C 511.285156 202.703125 517.175781 200.179688 522.570312 196.78125 C 520.785156 220.890625 526.4375 240.875 539.609375 257.28125 C 541.105469 259.140625 543.296875 260.105469 545.5 260.105469 C 547.164062 260.105469 548.824219 259.5625 550.230469 258.445312 C 553.476562 255.832031 554.003906 251.074219 551.390625 247.824219 C 536.542969 229.320312 533.566406 204.441406 542.28125 171.976562 C 543.355469 169.046875 544.292969 165.8125 545.0625 162.261719 C 550.910156 135.554688 574.460938 117.109375 595.925781 106.023438 C 624.808594 107.199219 650.777344 103.199219 664.265625 100.554688 C 664.371094 135.464844 676.125 166.660156 685.625 186.222656 C 677.152344 220.890625 661.710938 260.742188 642.347656 297.207031 Z M 742.636719 35.671875 C 729.523438 47.230469 720.625 63.996094 713.785156 90.023438 C 708.480469 110.191406 704.011719 136.792969 698.949219 178.863281 C 689.417969 158.941406 677.484375 126.429688 679.644531 91.597656 C 679.792969 89.179688 678.78125 86.851562 676.925781 85.3125 C 675.550781 84.179688 673.84375 83.574219 672.105469 83.574219 C 671.484375 83.574219 670.851562 83.652344 670.234375 83.816406 C 669.78125 83.9375 630.957031 93.664062 588.6875 90.476562 C 611.078125 76.671875 649.476562 54.570312 670.171875 51.792969 C 703.089844 47.378906 721.304688 32.9375 730.066406 26.003906 L 730.628906 25.566406 C 737.800781 19.886719 744.507812 20.21875 747.199219 23.421875 C 749.585938 26.292969 747.804688 31.109375 742.636719 35.671875 Z M 742.636719 35.671875 " fill-opacity="1" fill-rule="nonzero"/></g></svg>