<svg xmlns="http://www.w3.org/2000/svg" xmlns:xlink="http://www.w3.org/1999/xlink" width="1024" zoomAndPan="magnify" viewBox="0 0 768 767.999994" height="1024" preserveAspectRatio="xMidYMid meet" version="1.0"><defs><clipPath id="df14401824"><path d="M 33.601562 91 L 422 91 L 422 652 L 33.601562 652 Z M 33.601562 91 " clip-rule="nonzero"/></clipPath><clipPath id="500cf3771a"><path d="M 448 210 L 734.101562 210 L 734.101562 624 L 448 624 Z M 448 210 " clip-rule="nonzero"/></clipPath></defs><g clip-path="url(#df14401824)"><path fill="#00844f" d="M 421.277344 632.804688 C 417.027344 326.835938 192.1875 259.230469 45.769531 93.882812 C 41.519531 89.25 33.792969 92.339844 33.792969 98.519531 C 38.042969 424.578125 269.449219 469.390625 395.007812 643.238281 C 407.753906 657.144531 421.664062 652.894531 421.277344 632.804688 Z M 421.277344 632.804688 " fill-opacity="1" fill-rule="nonzero"/></g><path fill="#74a441" d="M 53.882812 148.355469 C 49.632812 139.46875 57.359375 135.992188 61.609375 144.878906 C 168.621094 373.195312 399.640625 466.6875 450.636719 758.75 C 451.410156 762.613281 448.707031 766.476562 444.457031 767.25 C 440.207031 768.019531 436.34375 765.316406 435.957031 761.066406 C 386.121094 475.574219 160.121094 375.128906 53.882812 148.355469 Z M 53.882812 148.355469 " fill-opacity="1" fill-rule="nonzero"/><g clip-path="url(#500cf3771a)"><path fill="#00844f" d="M 448.320312 609.628906 C 451.410156 384.398438 617.144531 334.566406 725.3125 212.484375 C 728.40625 209.007812 734.199219 211.328125 734.199219 215.960938 C 730.722656 456.257812 560.355469 489.09375 468.023438 617.355469 C 458.75 627.785156 448.320312 624.308594 448.320312 609.628906 Z M 448.320312 609.628906 " fill-opacity="1" fill-rule="nonzero"/></g><path fill="#74a441" d="M 719.519531 252.664062 C 722.609375 246.097656 716.816406 243.777344 713.722656 250.347656 C 634.914062 418.398438 464.542969 487.164062 427.070312 702.347656 C 426.300781 705.4375 428.617188 708.140625 431.320312 708.914062 C 434.414062 709.300781 437.503906 707.367188 437.886719 704.277344 C 474.589844 494.117188 641.09375 419.941406 719.519531 252.664062 Z M 719.519531 252.664062 " fill-opacity="1" fill-rule="nonzero"/><path fill="#00844f" d="M 422.050781 475.574219 C 360.625 255.753906 494.679688 156.082031 556.492188 4.257812 C 558.421875 0.0078125 564.214844 0.394531 565.375 5.03125 C 631.4375 239.144531 488.109375 323.75 441.75 476.734375 C 436.34375 489.867188 425.910156 489.867188 422.050781 475.574219 Z M 422.050781 475.574219 " fill-opacity="1" fill-rule="nonzero"/><path fill="#74a441" d="M 562.671875 45.207031 C 563.445312 37.867188 557.648438 37.09375 556.875 44.433594 C 534.46875 232.1875 401.574219 351.5625 429.390625 572.15625 C 429.773438 575.246094 432.480469 577.175781 435.183594 576.789062 C 438.273438 576.402344 440.207031 573.3125 439.820312 570.222656 C 412.390625 355.039062 540.265625 231.414062 562.671875 45.207031 Z M 562.671875 45.207031 " fill-opacity="1" fill-rule="nonzero"/></svg>