<svg xmlns="http://www.w3.org/2000/svg" xmlns:xlink="http://www.w3.org/1999/xlink" width="1024" zoomAndPan="magnify" viewBox="0 0 768 767.999994" height="1024" preserveAspectRatio="xMidYMid meet" version="1.0"><defs><clipPath id="570dca5d22"><path d="M 246.265625 0 L 518 0 L 518 762 L 246.265625 762 Z M 246.265625 0 " clip-rule="nonzero"/></clipPath></defs><path fill="#0e6631" d="M 447.804688 31.671875 C 437.886719 21.078125 412.65625 7.671875 406.707031 7.671875 C 406.707031 7.671875 386.082031 80.867188 384.089844 111.925781 C 382.09375 142.984375 379.589844 166.804688 379.589844 166.804688 L 408.714844 360.710938 L 422.96875 261.429688 C 425.867188 239.679688 424.117188 188.28125 430.183594 147.230469 C 436.253906 106.183594 457.726562 42.269531 447.804688 31.671875 Z M 447.804688 31.671875 " fill-opacity="1" fill-rule="nonzero"/><path fill="#21894b" d="M 385.117188 181.417969 C 369.910156 143.03125 350.070312 44.382812 344.769531 39.757812 C 339.488281 35.121094 320.960938 45.050781 313.035156 49.023438 C 305.105469 53 305.09375 102.648438 316.339844 136.410156 C 327.589844 170.175781 348.789062 232.140625 353.875 297.398438 L 393.222656 413.09375 L 413.605469 303.898438 C 412.066406 287.453125 400.320312 219.808594 385.117188 181.417969 Z M 385.117188 181.417969 " fill-opacity="1" fill-rule="nonzero"/><path fill="#3fa869" d="M 379.800781 451.996094 C 386.972656 445.226562 391.683594 441.914062 397.253906 451.074219 C 401 457.238281 405.679688 501.386719 427.136719 492.773438 C 446.914062 381.066406 518.453125 204.34375 509.210938 193.78125 C 497.964844 180.917969 465.847656 160.019531 465.847656 160.019531 C 465.847656 160.019531 443.367188 171.277344 422.921875 261.292969 C 413.984375 300.679688 402.960938 349.042969 391.820312 393.671875 Z M 379.800781 451.996094 " fill-opacity="1" fill-rule="nonzero"/><path fill="#3eb57b" d="M 390.371094 389.910156 C 369.488281 320.78125 306.859375 187.359375 289.191406 185.742188 C 271.527344 184.125 253.863281 209.847656 253.863281 209.847656 C 253.863281 209.847656 257.078125 251.652344 303.640625 325.585938 C 327.316406 363.1875 344.394531 421.238281 350.253906 478.550781 C 356.050781 491.261719 368.082031 506.691406 372.371094 502.640625 C 379.542969 495.871094 390.582031 480.5 396.152344 489.671875 C 399.898438 495.839844 408.214844 504.425781 427.136719 492.757812 C 418.195312 451 404.140625 420.785156 390.371094 389.910156 Z M 390.371094 389.910156 " fill-opacity="1" fill-rule="nonzero"/><path fill="#f9f2e4" d="M 331.546875 623.625 C 294.507812 689.820312 307.734375 767.882812 390.914062 752.042969 C 487.726562 733.621094 433.734375 642.289062 422.9375 553.875 C 421.003906 538.128906 422.863281 516.984375 427.148438 492.773438 C 405.695312 501.386719 402.480469 489.808594 398.734375 483.644531 C 393.164062 474.484375 380.828125 489.613281 373.65625 496.398438 C 369.367188 500.449219 358.390625 488.691406 350.265625 478.566406 C 355.914062 533.988281 351.066406 588.710938 331.546875 623.625 Z M 331.546875 623.625 " fill-opacity="1" fill-rule="nonzero"/><g clip-path="url(#570dca5d22)"><path fill="#000000" d="M 489.871094 296.433594 C 516.761719 213.277344 521.457031 196.320312 514.890625 188.808594 C 503.097656 175.3125 471.300781 154.5625 469.953125 153.683594 C 467.707031 152.21875 464.851562 152.066406 462.464844 153.261719 C 460.667969 154.152344 454.160156 158.234375 445.523438 173.105469 C 441.328125 180.332031 437.28125 188.929688 433.429688 198.828125 C 434.140625 182.023438 435.304688 164.25 437.660156 148.335938 C 439.710938 134.414062 443.652344 117.503906 447.457031 101.164062 C 457.378906 58.589844 462.132812 35.921875 453.300781 26.503906 C 442.914062 15.410156 415.917969 0.117188 406.707031 0.117188 C 403.324219 0.117188 400.363281 2.367188 399.445312 5.617188 C 398.597656 8.640625 378.578125 79.945312 376.570312 111.425781 C 376.28125 115.824219 375.996094 120.074219 375.707031 124.136719 C 372.628906 112.335938 369.625 100.320312 366.859375 89.269531 C 355.550781 44.007812 353.46875 37.296875 349.753906 34.046875 C 341.660156 26.957031 327.632812 33.15625 311.480469 41.316406 L 309.652344 42.238281 C 306.769531 43.671875 299.113281 47.511719 299.941406 81.699219 C 300.425781 101.511719 303.867188 122.851562 309.167969 138.769531 L 310.242188 141.988281 C 318.652344 167.179688 331.105469 204.601562 339.261719 246.816406 C 305.542969 179.636719 294.660156 178.636719 289.871094 178.199219 C 268.371094 176.234375 249.695312 202.546875 247.640625 205.554688 C 246.660156 206.976562 246.207031 208.699219 246.328125 210.421875 C 246.464844 212.203125 250.222656 254.945312 297.253906 329.621094 C 319.828125 365.457031 336.828125 421.40625 342.734375 479.320312 C 342.734375 479.320312 342.734375 479.335938 342.734375 479.335938 C 348.695312 537.808594 342.21875 589.058594 324.945312 619.9375 C 300.5 663.644531 297.511719 709.679688 317.320312 737.234375 C 325.867188 749.113281 341.644531 761.703125 370.152344 761.703125 C 376.8125 761.703125 384.179688 761.007812 392.300781 759.464844 C 417.742188 754.628906 434.972656 744.730469 444.996094 729.222656 C 463.25 700.992188 453.363281 659.519531 442.898438 615.613281 C 438.007812 595.089844 432.949219 573.886719 430.394531 552.953125 C 428.707031 539.066406 430.09375 519.265625 434.546875 494.085938 C 444.996094 435.191406 469.878906 358.246094 489.871094 296.433594 Z M 466.480469 169.507812 C 476.792969 176.492188 494.550781 189.15625 502.539062 197.648438 C 502.765625 207.566406 488.316406 252.226562 475.527344 291.777344 C 458.796875 343.496094 438.699219 405.6875 426.289062 459.644531 C 418.542969 434.539062 409.105469 413.304688 399.882812 392.628906 C 411.234375 346.957031 422.679688 296.554688 430.304688 262.972656 C 444.738281 199.296875 460.082031 176.628906 466.480469 169.507812 Z M 391.621094 112.394531 C 393.164062 88.199219 406.707031 36.402344 411.929688 17.132812 C 420.386719 20.867188 435.167969 29.332031 442.160156 36.691406 C 445.496094 43.007812 437.839844 75.925781 432.75 97.734375 C 428.871094 114.375 424.871094 131.574219 422.726562 146.128906 C 419.058594 170.976562 418.195312 199.722656 417.503906 222.828125 C 417.050781 237.835938 416.65625 250.878906 415.644531 259.296875 C 415.613281 259.417969 415.585938 259.523438 415.570312 259.628906 C 415.296875 260.839844 415.011719 262.078125 414.722656 263.320312 C 409.53125 236.386719 401.589844 202.5 392.136719 178.636719 C 390.597656 174.753906 388.996094 170.1875 387.363281 165.140625 C 388.042969 158.25 390.023438 137.574219 391.621094 112.394531 Z M 323.496094 134.007812 C 313.125 102.84375 313.910156 62.550781 317.441406 55.25 L 318.289062 54.828125 C 328.933594 49.445312 336.089844 46.515625 339.621094 46.121094 C 342.21875 53.015625 347.503906 74.113281 352.199219 92.957031 C 360.007812 124.199219 369.730469 163.085938 378.09375 184.214844 C 392.484375 220.53125 403.625 283.433594 405.832031 302.234375 C 401.164062 322.503906 395.972656 344.734375 390.671875 366.679688 C 382.957031 344.703125 372.539062 318.816406 361.078125 293.03125 C 355.597656 230.3125 336.242188 172.214844 324.570312 137.242188 Z M 268.734375 238.425781 C 264.191406 225.066406 262.394531 216.027344 261.742188 211.886719 C 266.953125 205.160156 278.578125 192.84375 288.015625 193.238281 C 292.394531 195.683594 307.101562 214.367188 333.566406 269.46875 C 354.117188 312.257812 373.578125 360.394531 383.152344 392.085938 C 383.242188 392.386719 383.347656 392.691406 383.484375 392.976562 L 385.734375 397.996094 C 398.207031 425.925781 410.027344 452.402344 418.289062 487.785156 C 410.675781 489.671875 409.015625 486.636719 406.554688 482.148438 C 406.085938 481.285156 405.632812 480.46875 405.179688 479.730469 C 402.945312 476.054688 399.566406 473.773438 395.652344 473.320312 C 386.910156 472.308594 378.925781 480.394531 371.875 487.542969 C 371.4375 487.996094 370.996094 488.433594 370.574219 488.859375 C 368.566406 487.46875 364.492188 484.019531 357.53125 475.558594 C 351.171875 416.238281 333.492188 358.820312 310.042969 321.582031 C 286.65625 284.445312 274.667969 255.867188 268.734375 238.425781 Z M 432.34375 721.015625 C 424.675781 732.867188 410.664062 740.589844 389.492188 744.625 C 361.742188 749.914062 341.027344 744.292969 329.597656 728.40625 C 313.441406 705.949219 316.867188 665.324219 338.144531 627.328125 C 354.933594 597.296875 362.347656 552.410156 359.460938 499.375 C 364.609375 503.59375 367.992188 504.574219 370.710938 504.757812 C 373.804688 504.96875 376.675781 503.957031 378.835938 501.902344 C 379.980469 500.8125 381.25 499.527344 382.609375 498.167969 C 384.964844 495.78125 390.039062 490.65625 393.042969 488.902344 C 393.132812 489.070312 393.222656 489.234375 393.3125 489.417969 C 397.738281 497.503906 404.140625 504.953125 417.789062 503.183594 C 414.589844 524.585938 413.816406 541.542969 415.433594 554.796875 C 418.089844 576.578125 423.253906 598.203125 428.238281 619.136719 C 437.929688 659.808594 447.082031 698.226562 432.34375 721.015625 Z M 432.34375 721.015625 " fill-opacity="1" fill-rule="nonzero"/></g></svg>