<svg xmlns="http://www.w3.org/2000/svg" xmlns:xlink="http://www.w3.org/1999/xlink" width="1024" zoomAndPan="magnify" viewBox="0 0 768 767.999994" height="1024" preserveAspectRatio="xMidYMid meet" version="1.0"><defs><clipPath id="4ecec33617"><path d="M 178.035156 140 L 589.785156 140 L 589.785156 767.859375 L 178.035156 767.859375 Z M 178.035156 140 " clip-rule="nonzero"/></clipPath></defs><path fill="#0be881" d="M 496.03125 0.953125 C 457.1875 -0.046875 472.375 163.289062 472.375 163.289062 L 509.207031 161.226562 C 517.992188 128.734375 534.878906 1.957031 496.03125 0.953125 " fill-opacity="1" fill-rule="nonzero"/><g clip-path="url(#4ecec33617)"><path fill="#00844f" d="M 294.453125 427.414062 C 400.574219 313.0625 370.917969 128.5 454.367188 140.660156 C 537.8125 152.820312 625.445312 150.933594 575.351562 397.101562 C 525.269531 643.269531 391.816406 805.511719 284.945312 760.304688 C 153.058594 704.511719 128.753906 605.976562 294.453125 427.414062 " fill-opacity="1" fill-rule="nonzero"/></g><path fill="#262626" d="M 207.160156 671.863281 C 206.972656 671.863281 206.789062 671.851562 206.59375 671.808594 C 205.113281 671.5 204.152344 670.039062 204.46875 668.558594 C 204.804688 666.9375 239.492188 505.957031 353.523438 405.023438 C 433.0625 334.628906 428.78125 269.609375 425.953125 226.578125 C 424.863281 210.101562 424.011719 197.089844 428.320312 188.171875 C 428.988281 186.804688 430.628906 186.230469 431.996094 186.890625 C 433.363281 187.550781 433.9375 189.195312 433.277344 190.566406 C 429.589844 198.175781 430.40625 210.550781 431.4375 226.21875 C 434.335938 270.316406 438.71875 336.957031 357.167969 409.140625 C 244.535156 508.84375 210.183594 668.085938 209.851562 669.679688 C 209.582031 670.976562 208.433594 671.863281 207.160156 671.863281 " fill-opacity="1" fill-rule="nonzero"/><path fill="#262626" d="M 266.941406 730.277344 C 266.5625 730.277344 266.175781 730.199219 265.808594 730.035156 C 264.425781 729.410156 263.8125 727.777344 264.433594 726.394531 C 265.15625 724.792969 337.863281 564.605469 414.15625 472.902344 C 500.183594 369.511719 517.21875 268.640625 464.800781 173.113281 C 464.070312 171.78125 464.554688 170.105469 465.886719 169.382812 C 467.214844 168.644531 468.890625 169.132812 469.621094 170.464844 C 523.242188 268.175781 505.996094 371.117188 418.382812 476.417969 C 342.566406 567.542969 270.171875 727.0625 269.445312 728.660156 C 268.988281 729.675781 267.984375 730.277344 266.941406 730.277344 " fill-opacity="1" fill-rule="nonzero"/><path fill="#262626" d="M 356.460938 717 C 355.75 717 355.042969 716.730469 354.503906 716.183594 C 353.4375 715.109375 353.445312 713.363281 354.527344 712.296875 C 355.566406 711.265625 459.164062 607.625 488.589844 497.242188 C 497.054688 465.476562 506.40625 436.605469 515.449219 408.683594 C 542.109375 326.335938 563.179688 261.300781 535.628906 196.878906 C 535.035156 195.484375 535.679688 193.867188 537.078125 193.273438 C 538.480469 192.675781 540.089844 193.320312 540.6875 194.71875 C 569.042969 261.035156 547.703125 326.9375 520.675781 410.378906 C 511.660156 438.230469 502.332031 467.039062 493.902344 498.660156 C 464.082031 610.503906 359.445312 715.160156 358.394531 716.207031 C 357.855469 716.734375 357.164062 717 356.460938 717 " fill-opacity="1" fill-rule="nonzero"/></svg>