<svg xmlns="http://www.w3.org/2000/svg" xmlns:xlink="http://www.w3.org/1999/xlink" width="1024" zoomAndPan="magnify" viewBox="0 0 768 767.999994" height="1024" preserveAspectRatio="xMidYMid meet" version="1.0"><path fill="#349370" d="M 666.523438 18.675781 C 674.21875 39.046875 673.089844 59.414062 663.140625 79.769531 C 651.53125 105.355469 635.117188 112.140625 615.636719 104.222656 L 615.574219 104.144531 C 602.839844 91.105469 601.664062 77.304688 612.070312 62.691406 C 619.917969 38.574219 640.203125 25.851562 666.523438 18.675781 Z M 666.523438 18.675781 " fill-opacity="1" fill-rule="nonzero"/><path fill="#3fa07f" d="M 288.015625 526.84375 C 303.554688 546.890625 302.191406 571.746094 299.292969 598.980469 C 302.261719 618.40625 293.882812 616.21875 283.59375 610.359375 C 236.519531 578 221.203125 531.0625 234.324219 471.019531 C 261.757812 480.285156 281.035156 497.53125 288.015625 526.84375 Z M 288.015625 526.84375 " fill-opacity="1" fill-rule="nonzero"/><path fill="#3fa07f" d="M 494.96875 370.210938 C 497.605469 365.640625 500.179688 361.117188 502.695312 356.621094 C 530.433594 340.578125 560.042969 344.339844 590.597656 358.175781 C 583.144531 365.351562 575.480469 371.503906 567.617188 376.65625 C 554.597656 385.179688 549.777344 405.617188 535.636719 408.59375 C 520.847656 411.710938 496.683594 397.105469 480.675781 394.144531 C 483.507812 389.550781 479.804688 379.964844 482.503906 375.421875 C 484.539062 371.996094 493.003906 373.605469 494.96875 370.210938 Z M 494.96875 370.210938 " fill-opacity="1" fill-rule="nonzero"/><path fill="#3fa07f" d="M 621.109375 264.722656 C 642.472656 270.664062 658.324219 283.355469 669.464844 301.804688 C 615.636719 322.800781 566.289062 315.515625 540.824219 281.679688 L 540.824219 281.664062 C 566.527344 270.078125 591.667969 257.808594 621.109375 264.722656 Z M 621.109375 264.722656 " fill-opacity="1" fill-rule="nonzero"/><path fill="#3fa07f" d="M 663.140625 79.769531 C 664.328125 100.152344 661.628906 118.039062 655.046875 133.410156 C 649.386719 146.65625 649.722656 170.265625 638.304688 179.789062 C 624.726562 191.113281 598.203125 187.585938 576.488281 193.652344 C 577.261719 185.195312 577.570312 177.105469 577.414062 169.367188 C 581.316406 151.699219 577.132812 128.125 585.777344 115.90625 C 591.320312 108.074219 608.421875 110.132812 615.636719 104.222656 C 629.015625 93.222656 645.082031 85.34375 663.140625 79.769531 Z M 663.140625 79.769531 " fill-opacity="1" fill-rule="nonzero"/><path fill="#4aaf8f" d="M 577.414062 169.367188 C 577.570312 177.105469 577.261719 185.195312 576.488281 193.652344 C 507.238281 169.625 481.664062 107.453125 488.949219 46.863281 C 518.515625 57.601562 541.191406 73.660156 556.1875 95.691406 C 562.257812 104.597656 573.953125 109.355469 577.453125 120.257812 C 581.679688 133.414062 577.109375 153.179688 577.414062 169.367188 Z M 577.414062 169.367188 " fill-opacity="1" fill-rule="nonzero"/><path fill="#4aaf8f" d="M 649.46875 239.328125 C 640.492188 249.503906 631.042969 257.988281 621.109375 264.722656 C 597.273438 280.886719 570.617188 286.921875 540.824219 281.664062 C 545.488281 271.5625 549.695312 262.058594 553.414062 253.328125 C 579.488281 230.582031 612.238281 228.1875 649.46875 239.328125 Z M 649.46875 239.328125 " fill-opacity="1" fill-rule="nonzero"/><path fill="#4aaf8f" d="M 429.820312 276.636719 C 470.691406 290.882812 495.546875 319.296875 494.96875 370.210938 C 490.398438 378.101562 485.640625 386.085938 480.675781 394.144531 C 479.578125 395.925781 478.480469 397.695312 477.367188 399.492188 L 477.351562 399.492188 C 434.605469 372.039062 423.664062 328.617188 429.820312 276.636719 Z M 429.820312 276.636719 " fill-opacity="1" fill-rule="nonzero"/><path fill="#4aaf8f" d="M 475.113281 458.726562 C 493.597656 457.339844 512.371094 462.292969 531.453125 473.597656 C 521.820312 481.410156 512.191406 487.519531 502.574219 491.894531 L 502.558594 491.894531 C 487.886719 498.5625 477.914062 515.238281 463.246094 513.910156 C 449.265625 512.644531 430.585938 493.746094 416.605469 485.21875 C 428.0625 475.546875 437.132812 462.921875 448.847656 458.5 C 456.707031 455.535156 467.140625 459.328125 475.113281 458.726562 Z M 475.113281 458.726562 " fill-opacity="1" fill-rule="nonzero"/><path fill="#4aaf8f" d="M 177.9375 525.667969 C 210.167969 555.773438 225.972656 596.207031 219.847656 650.445312 C 216.902344 668.046875 206.492188 668.65625 194.105469 664.292969 C 189.957031 655.804688 181.113281 648.734375 178.167969 640.25 C 173.871094 627.890625 176.128906 614.144531 174.25 602.011719 C 170.105469 575.257812 171.613281 549.375 177.9375 525.667969 Z M 177.9375 525.667969 " fill-opacity="1" fill-rule="nonzero"/><path fill="#4aaf8f" d="M 386.433594 572.640625 C 404.140625 578.246094 419.488281 589.65625 432.472656 606.855469 C 397.9375 615.984375 367.609375 618.753906 342.464844 613.683594 C 335.917969 612.363281 324.070312 615.691406 318.242188 613.28125 C 310.746094 610.183594 309.515625 600.984375 303.285156 595.980469 C 308.664062 591.910156 314.027344 587.707031 319.363281 583.394531 L 319.363281 583.378906 C 324.222656 579.480469 329.054688 575.457031 333.839844 571.328125 L 333.855469 571.328125 C 343.539062 569.28125 354.355469 560.421875 363.117188 560.640625 C 371.878906 560.859375 378.589844 570.148438 386.433594 572.640625 Z M 386.433594 572.640625 " fill-opacity="1" fill-rule="nonzero"/><path fill="#53b79a" d="M 612.070312 62.691406 C 614.9375 75.167969 616.109375 88.972656 615.574219 104.144531 L 615.636719 104.222656 C 597.167969 119.351562 583.816406 140.375 577.414062 169.367188 C 576.851562 139.765625 569.582031 115.34375 556.1875 95.691406 C 554.144531 58.347656 561.519531 28.519531 578.300781 6.246094 C 595.351562 20.460938 606.691406 39.199219 612.070312 62.691406 Z M 612.070312 62.691406 " fill-opacity="1" fill-rule="nonzero"/><path fill="#53b79a" d="M 655.046875 133.410156 C 679.21875 128.003906 702.441406 131.933594 724.800781 144.5625 C 681.121094 188.335938 632.765625 209.769531 576.484375 193.652344 C 616.460938 182.484375 642.65625 162.40625 655.046875 133.410156 Z M 655.046875 133.410156 " fill-opacity="1" fill-rule="nonzero"/><path fill="#53b79a" d="M 449.066406 179.789062 C 506.976562 194.230469 541.511719 225.371094 540.808594 281.664062 C 484.421875 272.691406 455.453125 237.164062 449.066406 179.789062 Z M 449.066406 179.789062 " fill-opacity="1" fill-rule="nonzero"/><path fill="#53b79a" d="M 567.617188 376.65625 C 593.507812 376.882812 614.507812 388.050781 630.9375 409.425781 C 584.015625 432.355469 531.894531 432.902344 500.425781 413.265625 C 492.316406 408.222656 485.597656 401.839844 480.675781 394.144531 C 511.992188 399.933594 540.976562 394.097656 567.617188 376.65625 Z M 567.617188 376.65625 " fill-opacity="1" fill-rule="nonzero"/><path fill="#53b79a" d="M 502.574219 491.894531 C 523.941406 500.773438 539.164062 517.398438 548.398438 541.636719 C 494.359375 545.535156 455.40625 537.628906 434.164062 517.992188 C 430.085938 514.234375 419.363281 512.425781 416.605469 507.804688 C 413.03125 501.800781 417.878906 492.683594 416.605469 485.21875 C 445.257812 502.695312 473.90625 504.917969 502.558594 491.894531 Z M 502.574219 491.894531 " fill-opacity="1" fill-rule="nonzero"/><path fill="#53b79a" d="M 429.894531 468.277344 C 427.066406 476.628906 421.980469 481.089844 416.605469 485.21875 L 416.589844 485.21875 C 363.542969 472.878906 341.765625 433.101562 340.378906 375.421875 C 387.910156 390.59375 421.679688 418.035156 429.894531 468.277344 Z M 429.894531 468.277344 " fill-opacity="1" fill-rule="nonzero"/><path fill="#53b79a" d="M 308.054688 482.613281 C 329.878906 511.410156 335.898438 544.394531 319.363281 583.378906 L 319.363281 583.394531 C 314.027344 587.707031 308.664062 591.910156 303.285156 595.980469 C 302.648438 596.464844 302.789062 599 302.15625 599.472656 C 301.460938 599.996094 299.988281 598.460938 299.292969 598.980469 C 285.910156 574.589844 282.621094 550.546875 288.015625 526.84375 C 291.382812 511.972656 298.179688 497.242188 308.054688 482.613281 Z M 308.054688 482.613281 " fill-opacity="1" fill-rule="nonzero"/><path fill="#6fceae" d="M 480.675781 394.144531 C 485.597656 401.839844 492.316406 408.222656 500.425781 413.265625 C 492.546875 428.851562 484.101562 443.996094 475.113281 458.726562 C 455.253906 460.21875 435.746094 469.054688 416.605469 485.21875 C 421.148438 479.597656 425.566406 473.945312 429.894531 468.277344 C 447.34375 445.425781 463.148438 422.222656 477.367188 399.492188 C 478.480469 397.695312 479.578125 395.925781 480.675781 394.144531 Z M 480.675781 394.144531 " fill-opacity="1" fill-rule="nonzero"/><path fill="#6fceae" d="M 416.605469 485.21875 C 418.863281 498.429688 424.789062 509.351562 434.164062 517.992188 C 419.304688 537.082031 403.394531 555.300781 386.433594 572.640625 C 370.75 567.65625 353.226562 567.230469 333.855469 571.328125 C 346.855469 560.160156 359.609375 548.277344 371.9375 535.648438 C 387.804688 519.40625 402.675781 502.480469 416.589844 485.21875 Z M 416.605469 485.21875 " fill-opacity="1" fill-rule="nonzero"/><path fill="#53b79a" d="M 419.335938 680.457031 C 361.332031 685.53125 321.558594 674.410156 299.992188 647.09375 C 292.050781 637.039062 286.597656 624.804688 283.59375 610.359375 C 288.835938 606.675781 294.0625 602.894531 299.292969 598.980469 C 300.617188 597.992188 301.941406 597 303.285156 595.980469 C 314.363281 604.875 327.5 610.664062 342.464844 613.683594 C 379.179688 624.347656 404.675781 646.726562 419.335938 680.457031 Z M 419.335938 680.457031 " fill-opacity="1" fill-rule="nonzero"/><path fill="#53b79a" d="M 333.886719 743.683594 C 268.261719 756.496094 215.367188 747.308594 171.933594 721.820312 C 183.765625 696.839844 202.324219 695.863281 221.15625 696.941406 C 266.023438 692.644531 303.132812 709.511719 333.886719 743.683594 Z M 333.886719 743.683594 " fill-opacity="1" fill-rule="nonzero"/><path fill="#53b79a" d="M 174.25 602.011719 C 177.417969 622.472656 183.910156 643.4375 194.105469 664.292969 C 186.78125 677.667969 174.246094 682.667969 158.308594 681.644531 C 139.078125 652.027344 136 617.917969 143.90625 580.773438 C 155.351562 585.773438 165.472656 592.839844 174.25 602.011719 Z M 174.25 602.011719 " fill-opacity="1" fill-rule="nonzero"/><path fill="#6fceae" d="M 283.59375 610.359375 C 286.597656 624.804688 292.050781 637.039062 299.992188 647.09375 C 275.183594 665.085938 248.894531 681.707031 221.15625 696.941406 C 205.21875 705.703125 188.804688 713.988281 171.933594 721.820312 C 140.449219 736.429688 107.363281 749.441406 72.738281 760.808594 C 70.46875 761.554688 68.167969 761.90625 65.878906 761.90625 C 56.980469 761.90625 48.660156 756.464844 45.398438 747.675781 C 41.054688 735.914062 47.515625 722.933594 59.511719 719.277344 C 81.042969 712.742188 116.460938 700.71875 158.308594 681.644531 C 169.816406 676.421875 181.792969 670.632812 194.105469 664.292969 C 202.550781 659.953125 211.144531 655.335938 219.847656 650.445312 C 240.710938 638.730469 262.199219 625.414062 283.59375 610.359375 Z M 283.59375 610.359375 " fill-opacity="1" fill-rule="nonzero"/><path fill="#3a322b" d="M 613.5 205.144531 C 653.425781 205.144531 691.542969 186.523438 729.109375 148.871094 C 730.453125 147.523438 731.089844 145.625 730.832031 143.738281 C 730.578125 141.855469 729.453125 140.199219 727.796875 139.261719 C 707.292969 127.675781 686.007812 123.128906 664.375 125.667969 C 668.449219 112.320312 670.085938 97.421875 669.285156 80.992188 C 679.308594 59.621094 680.316406 37.941406 672.226562 16.523438 C 671.117188 13.582031 667.945312 11.96875 664.921875 12.796875 C 640.386719 19.488281 623.394531 30.394531 613.371094 45.886719 C 606.796875 28.222656 596.402344 13.402344 582.210938 1.566406 C 580.929688 0.496094 579.269531 0.00390625 577.609375 0.191406 C 575.949219 0.382812 574.441406 1.246094 573.4375 2.578125 C 558.632812 22.234375 550.753906 47.632812 549.875 78.21875 C 535.089844 62.410156 515.480469 50.015625 491.03125 41.132812 C 489.285156 40.496094 487.339844 40.695312 485.757812 41.671875 C 484.171875 42.644531 483.121094 44.289062 482.898438 46.136719 C 476.285156 101.117188 495.636719 168.902344 568.796875 197.285156 C 565.421875 206.90625 557.503906 228.515625 544.867188 257.472656 C 536.828125 215.589844 505.210938 187.515625 450.546875 173.871094 C 448.609375 173.386719 446.558594 173.882812 445.058594 175.195312 C 443.554688 176.507812 442.792969 178.472656 443.011719 180.457031 C 449.582031 239.515625 479.46875 275.03125 531.84375 286.175781 C 522.769531 305.449219 512.078125 326.734375 499.722656 349.121094 C 494.160156 310.945312 471.398438 284.675781 431.824219 270.882812 C 430.078125 270.277344 428.152344 270.492188 426.585938 271.472656 C 425.019531 272.449219 423.980469 274.089844 423.761719 275.921875 C 416.929688 333.632812 431.734375 374.667969 468.96875 401.15625 C 457.917969 418.632812 445.941406 436.328125 433.015625 453.875 C 421.929688 413.171875 392.101562 385.53125 342.226562 369.613281 C 340.347656 369.011719 338.292969 369.359375 336.714844 370.542969 C 335.136719 371.722656 334.226562 373.597656 334.277344 375.566406 C 335.746094 436.191406 359.835938 474.171875 405.910156 488.621094 C 393.824219 503.25 381.054688 517.585938 367.574219 531.390625 C 355.992188 543.25 344.042969 554.429688 331.871094 564.980469 C 339.222656 534.164062 332.890625 505.296875 312.921875 478.929688 C 311.734375 477.363281 309.871094 476.445312 307.894531 476.519531 C 305.929688 476.570312 304.109375 477.570312 303.007812 479.199219 C 296.574219 488.738281 291.472656 498.265625 287.679688 507.777344 C 278.015625 487.820312 260.816406 473.535156 236.277344 465.253906 C 234.636719 464.695312 232.835938 464.867188 231.324219 465.722656 C 229.816406 466.578125 228.742188 468.035156 228.371094 469.726562 C 215.1875 530.03125 230.253906 577.25 273.113281 610.246094 C 257.628906 620.867188 242.136719 630.585938 226.894531 639.449219 C 229.636719 591.300781 214.605469 551.5625 182.09375 521.214844 C 180.527344 519.75 178.308594 519.214844 176.25 519.808594 C 174.191406 520.402344 172.59375 522.03125 172.042969 524.097656 C 166.660156 544.292969 164.84375 565.527344 166.46875 586.984375 C 160.238281 582.277344 153.519531 578.320312 146.347656 575.195312 C 144.671875 574.464844 142.753906 574.527344 141.125 575.363281 C 139.5 576.199219 138.332031 577.722656 137.953125 579.511719 C 129.699219 618.25 133.5 650.859375 149.550781 678.957031 C 111.160156 696.0625 78.554688 707.132812 57.746094 713.453125 C 50.316406 715.707031 44.324219 720.777344 40.871094 727.722656 C 37.417969 734.667969 36.996094 742.5 39.683594 749.78125 C 43.84375 761.039062 54.414062 768.011719 65.804688 768.011719 C 68.726562 768.011719 71.703125 767.554688 74.636719 766.589844 C 108.402344 755.503906 140.746094 742.8125 171.59375 728.625 C 203.363281 746.632812 238.257812 755.597656 277.230469 755.597656 C 295.570312 755.597656 314.820312 753.617188 335.054688 749.667969 C 337.210938 749.25 338.972656 747.703125 339.667969 745.621094 C 340.363281 743.539062 339.886719 741.242188 338.417969 739.613281 C 311.386719 709.582031 279.902344 693.148438 244.566406 690.5625 C 263.421875 679.457031 281.554688 667.703125 298.921875 655.316406 C 318.613281 676.878906 350.246094 687.738281 393.589844 687.734375 C 401.914062 687.734375 410.683594 687.335938 419.871094 686.53125 C 421.824219 686.363281 423.574219 685.261719 424.578125 683.578125 C 425.582031 681.894531 425.710938 679.828125 424.929688 678.03125 C 414.394531 653.800781 398.382812 635.117188 377.15625 622.167969 C 394.21875 621.40625 413.140625 618.273438 434.035156 612.753906 C 436 612.234375 437.574219 610.769531 438.238281 608.851562 C 438.902344 606.929688 438.566406 604.808594 437.339844 603.1875 C 425.792969 587.898438 412.394531 576.910156 397.234375 570.222656 C 410.480469 556.28125 423.140625 541.699219 435.027344 526.726562 C 451.886719 539.601562 479.160156 548.703125 522.636719 548.703125 C 530.785156 548.703125 539.511719 548.382812 548.832031 547.707031 C 550.753906 547.566406 552.5 546.527344 553.535156 544.90625 C 554.570312 543.28125 554.777344 541.261719 554.089844 539.464844 C 545.917969 517.984375 533.097656 502.019531 515.921875 491.808594 C 522.394531 488.039062 528.859375 483.5625 535.300781 478.328125 C 536.851562 477.074219 537.683594 475.136719 537.539062 473.152344 C 537.390625 471.164062 536.28125 469.371094 534.566406 468.359375 C 518.1875 458.664062 501.945312 453.40625 485.90625 452.539062 C 491.832031 442.453125 497.515625 432.136719 502.917969 421.707031 C 514.042969 427.476562 527.257812 431.257812 542.085938 432.746094 C 546.8125 433.21875 551.613281 433.453125 556.472656 433.453125 C 581.878906 433.453125 608.773438 427.039062 633.617188 414.898438 C 635.257812 414.09375 636.457031 412.597656 636.875 410.816406 C 637.292969 409.035156 636.886719 407.160156 635.773438 405.710938 C 621.675781 387.363281 604.289062 376.152344 583.957031 372.191406 C 587.628906 369.199219 591.257812 365.996094 594.828125 362.558594 C 596.285156 361.15625 596.953125 359.125 596.605469 357.132812 C 596.261719 355.140625 594.957031 353.449219 593.113281 352.617188 C 564.410156 339.621094 539.207031 336.707031 516.621094 343.828125 L 542.332031 292.8125 C 559.339844 310.503906 583.664062 319.648438 611.8125 319.648438 C 630.433594 319.648438 650.734375 315.648438 671.675781 307.484375 C 673.351562 306.832031 674.65625 305.472656 675.230469 303.773438 C 675.8125 302.070312 675.609375 300.199219 674.679688 298.660156 C 664.589844 281.957031 650.90625 269.925781 633.917969 262.757812 C 640.84375 257.160156 647.550781 250.699219 654.03125 243.355469 C 655.40625 241.800781 655.890625 239.648438 655.320312 237.648438 C 654.75 235.652344 653.195312 234.082031 651.203125 233.488281 C 617.820312 223.507812 590.03125 224.53125 566.898438 236.6875 C 573.601562 220.074219 578.097656 207.640625 580.417969 200.992188 C 591.597656 203.75 602.617188 205.144531 613.5 205.144531 Z M 435.070312 285.160156 C 471.179688 300.167969 488.808594 327.460938 488.867188 368.304688 C 484.5625 375.730469 480.089844 383.238281 475.433594 390.804688 C 443.8125 368.035156 430.867188 334.171875 435.070312 285.160156 Z M 346.851562 384.066406 C 391.589844 400.34375 416.054688 426.789062 423.414062 466.632812 C 420.410156 470.550781 417.355469 474.457031 414.25 478.347656 C 372.347656 467.191406 350.230469 436.273438 346.851562 384.066406 Z M 308.300781 493.578125 C 325.28125 520.003906 327.226562 548.265625 314.296875 579.664062 C 310.019531 583.105469 305.71875 586.46875 301.410156 589.761719 C 286.339844 558.109375 288.601562 526.507812 308.300781 493.578125 Z M 238.890625 479.226562 C 261.980469 488.703125 276.035156 504.4375 281.78125 527.097656 C 276.785156 550.730469 280.015625 574.171875 291.492188 597.203125 C 288.867188 599.132812 286.242188 601.027344 283.613281 602.902344 C 243.585938 573.765625 228.910156 533.222656 238.890625 479.226562 Z M 181.378906 537.765625 C 207.777344 566.371094 218.5 602.15625 214.109375 646.730469 C 208.339844 649.9375 202.625 653.023438 196.96875 655.988281 C 179.296875 617.167969 173.847656 575.792969 181.378906 537.765625 Z M 148.390625 589.753906 C 155.792969 593.792969 162.570312 598.910156 168.644531 605.015625 C 171.792969 624.070312 177.632812 643.117188 186.101562 661.589844 C 177.441406 665.96875 168.957031 670.066406 160.699219 673.890625 C 146.804688 650.101562 142.753906 622.460938 148.390625 589.753906 Z M 321.625 739.683594 C 269.613281 748.046875 224.804688 742.289062 185.304688 722.179688 C 198.09375 716.019531 210.613281 709.597656 222.847656 702.910156 C 260.621094 699.585938 293.050781 711.628906 321.625 739.683594 Z M 70.835938 755.011719 C 62.71875 757.679688 54.0625 753.523438 51.121094 745.5625 C 49.609375 741.464844 49.84375 737.054688 51.789062 733.148438 C 53.730469 729.238281 57.105469 726.386719 61.285156 725.117188 C 103.03125 712.441406 191.492188 680.949219 279.820312 620.417969 C 282.570312 629.832031 286.441406 638.257812 291.410156 645.703125 C 227.703125 691.074219 153.546875 727.851562 70.835938 755.011719 Z M 410.027344 675.042969 C 340.996094 679.230469 301.8125 658.882812 290.449219 612.984375 C 294.734375 609.933594 299.011719 606.8125 303.28125 603.621094 C 314.257812 611.507812 326.992188 616.886719 341.574219 619.792969 C 373.222656 629.175781 395.710938 647.289062 410.027344 675.042969 Z M 421.675781 603.28125 C 391.207031 610.476562 365.667969 612.050781 344.644531 607.988281 C 344.484375 607.941406 344.328125 607.882812 344.164062 607.835938 L 344.144531 607.898438 C 332.566406 605.605469 322.375 601.574219 313.492188 595.828125 C 321.25 589.792969 328.957031 583.519531 336.585938 577 C 371.722656 569.957031 399.667969 578.554688 421.675781 603.28125 Z M 384.613281 565.753906 C 374.671875 563.0625 364.066406 562.019531 352.816406 562.632812 C 360.773438 555.339844 368.617188 547.769531 376.300781 539.902344 C 389.480469 526.40625 401.964844 512.425781 413.777344 498.226562 C 416.332031 505.203125 420.234375 512.113281 426.007812 518.480469 C 413.066406 534.820312 399.175781 550.6875 384.613281 565.753906 Z M 539.421875 536.074219 C 493.953125 538.339844 442.597656 532.347656 426.679688 497.472656 C 439.71875 503.398438 452.792969 506.359375 465.863281 506.359375 C 478.101562 506.359375 490.335938 503.734375 502.542969 498.546875 C 518.894531 505.945312 531.035156 518.273438 539.421875 536.074219 Z M 520.3125 474.464844 C 489.074219 496.945312 458.566406 500.191406 427.5 484.34375 C 457.765625 461.785156 488.273438 458.53125 520.3125 474.464844 Z M 471.457031 452.949219 C 461.847656 454.03125 452.320312 456.71875 442.886719 461.015625 C 456.808594 442.132812 469.550781 423.226562 481.113281 404.84375 C 484.441406 408.679688 488.269531 412.148438 492.527344 415.265625 C 485.914062 428.074219 478.855469 440.710938 471.457031 452.949219 Z M 621.1875 407.214844 C 573.496094 427.972656 521.921875 425.375 495.507812 402.09375 C 498.203125 402.265625 500.886719 402.382812 503.550781 402.382812 C 526.746094 402.382812 548.710938 395.816406 569.253906 382.796875 C 589.882812 383.394531 606.957031 391.394531 621.1875 407.214844 Z M 579.460938 360.085938 C 552.296875 383.523438 523.078125 393.175781 490.601562 389.457031 C 496.433594 379.804688 501.929688 370.347656 507.085938 361.171875 C 528.09375 349.550781 551.300781 349.148438 579.460938 360.085938 Z M 456.339844 188.066406 C 506.855469 202.886719 532.542969 231.203125 534.597656 274.328125 C 489.84375 264.910156 464.152344 236.59375 456.339844 188.066406 Z M 660.136719 298.746094 C 618.519531 313.085938 580.742188 309.503906 556.660156 289.5 C 558.203125 289.5625 559.738281 289.605469 561.265625 289.605469 C 582.902344 289.605469 603.21875 283.503906 622.054688 271.371094 C 637.871094 276.300781 650.410156 285.296875 660.136719 298.746094 Z M 638.097656 242.574219 C 611.808594 269.152344 582.757812 280.390625 549.742188 276.78125 C 552.851562 269.90625 555.734375 263.335938 558.394531 257.132812 C 579.105469 239.597656 605.253906 234.78125 638.097656 242.574219 Z M 714.5 146.082031 C 677.078125 181.40625 639.285156 196.582031 599.707031 192.101562 C 628.449219 180.164062 648.367188 162.328125 659.359375 138.75 C 678.289062 135.132812 696.425781 137.527344 714.5 146.082031 Z M 662.628906 26.171875 C 667.464844 42.445312 666.167969 58.429688 658.730469 74.796875 C 644.757812 79.332031 632.4375 85.109375 621.730469 92.171875 C 621.457031 81.894531 620.335938 72.226562 618.378906 63.160156 C 624.617188 45.589844 638.765625 33.714844 662.628906 26.171875 Z M 657.308594 88.148438 C 657.605469 136.945312 633.261719 168.800781 583.1875 185.230469 C 583.46875 180.085938 583.5625 175.066406 583.484375 170.164062 C 592.578125 129.703125 616.765625 102.800781 657.308594 88.148438 Z M 579.367188 15.375 C 600.234375 35.488281 610.347656 64.386719 609.527344 101.375 C 597.121094 112.066406 587.492188 125.015625 580.558594 140.320312 C 577.234375 122.902344 571.113281 107.402344 562.207031 93.851562 C 560.6875 61.839844 566.445312 35.480469 579.367188 15.375 Z M 571.011719 185.078125 C 509.515625 160.035156 490.921875 103.683594 494.257812 55.449219 C 549.535156 78.195312 574.710938 120.71875 571.011719 185.078125 Z M 571.011719 185.078125 " fill-opacity="1" fill-rule="nonzero"/></svg>