<svg xmlns="http://www.w3.org/2000/svg" xmlns:xlink="http://www.w3.org/1999/xlink" width="1024" zoomAndPan="magnify" viewBox="0 0 768 767.999994" height="1024" preserveAspectRatio="xMidYMid meet" version="1.0"><path fill="#719b56" d="M 208.753906 180.65625 C 208.753906 180.65625 202.613281 152.785156 227.550781 124.816406 C 228.507812 123.75 229.371094 122.613281 230.136719 121.402344 C 230.90625 120.191406 231.5625 118.925781 232.117188 117.605469 C 232.671875 116.28125 233.109375 114.925781 233.4375 113.527344 C 233.761719 112.132812 233.96875 110.71875 234.054688 109.289062 C 234.140625 107.859375 234.109375 106.433594 233.957031 105.007812 C 233.804688 103.582031 233.535156 102.179688 233.144531 100.800781 C 232.757812 99.421875 232.253906 98.085938 231.640625 96.789062 C 231.027344 95.496094 230.3125 94.261719 229.492188 93.085938 C 228.941406 92.3125 228.355469 91.550781 227.738281 90.8125 C 227.378906 90.386719 227.003906 89.972656 226.617188 89.570312 C 226.226562 89.167969 225.828125 88.777344 225.414062 88.402344 C 225 88.027344 224.574219 87.664062 224.140625 87.316406 C 223.703125 86.96875 223.253906 86.632812 222.796875 86.316406 C 222.335938 85.996094 221.867188 85.691406 221.390625 85.402344 C 220.910156 85.113281 220.421875 84.84375 219.925781 84.585938 C 219.429688 84.328125 218.925781 84.085938 218.414062 83.863281 C 217.902344 83.640625 217.382812 83.433594 216.859375 83.242188 C 216.332031 83.050781 215.804688 82.878906 215.265625 82.722656 C 214.730469 82.566406 214.1875 82.429688 213.644531 82.308594 C 213.097656 82.1875 212.546875 82.085938 211.996094 82.003906 C 211.445312 81.917969 210.890625 81.851562 210.332031 81.800781 C 209.777344 81.753906 209.21875 81.722656 208.660156 81.710938 C 208.101562 81.699219 207.542969 81.707031 206.984375 81.730469 C 206.425781 81.753906 205.871094 81.796875 205.3125 81.855469 C 204.757812 81.917969 204.207031 81.996094 203.65625 82.09375 C 203.105469 82.1875 202.558594 82.304688 202.015625 82.4375 C 201.472656 82.566406 200.933594 82.71875 200.402344 82.882812 C 199.867188 83.050781 199.339844 83.238281 198.820312 83.4375 C 198.296875 83.640625 197.785156 83.859375 197.277344 84.09375 C 196.769531 84.328125 196.273438 84.578125 195.78125 84.847656 C 195.289062 85.113281 194.808594 85.398438 194.335938 85.695312 C 193.867188 85.996094 193.402344 86.308594 192.953125 86.636719 C 192.5 86.96875 192.058594 87.3125 191.628906 87.667969 C 191.199219 88.027344 190.785156 88.398438 190.378906 88.78125 C 189.972656 89.167969 189.582031 89.566406 189.203125 89.976562 C 188.824219 90.386719 188.457031 90.808594 188.105469 91.242188 C 187.753906 91.675781 187.417969 92.121094 187.09375 92.578125 C 186.769531 93.035156 186.464844 93.5 186.171875 93.976562 C 185.878906 94.453125 185.601562 94.9375 185.339844 95.433594 C 185.082031 95.925781 184.835938 96.429688 184.609375 96.9375 C 184.378906 97.449219 184.167969 97.964844 183.972656 98.492188 C 177.054688 116.683594 160.371094 144.78125 123.574219 143.347656 C 69.367188 141.234375 80.375 79.882812 80.375 79.882812 L 94.015625 79.882812 C 94.8125 79.878906 95.597656 79.953125 96.375 80.105469 C 97.152344 80.257812 97.910156 80.488281 98.640625 80.792969 C 99.375 81.09375 100.070312 81.46875 100.730469 81.910156 C 101.390625 82.351562 102 82.851562 102.558594 83.417969 C 103.117188 83.980469 103.613281 84.59375 104.050781 85.253906 C 104.488281 85.917969 104.855469 86.613281 105.15625 87.351562 C 105.453125 88.085938 105.679688 88.84375 105.824219 89.621094 C 105.972656 90.402344 106.042969 91.1875 106.035156 91.980469 C 105.917969 98.964844 107.816406 107.253906 116.09375 111.890625 C 117.757812 112.792969 119.515625 113.464844 121.355469 113.90625 C 123.199219 114.347656 125.066406 114.546875 126.960938 114.496094 C 128.855469 114.445312 130.710938 114.152344 132.53125 113.613281 C 134.347656 113.078125 136.0625 112.316406 137.679688 111.324219 C 143.820312 107.628906 151.105469 100.433594 155.085938 86.460938 C 163.210938 57.925781 194.761719 40.023438 223.40625 47.71875 C 241.507812 52.585938 259.898438 68.3125 265.707031 87.261719 C 271.636719 106.59375 270.28125 126.4375 257.378906 142.007812 C 248.777344 152.382812 245.742188 161.890625 250.363281 180.667969 Z M 208.753906 180.65625 " fill-opacity="1" fill-rule="nonzero"/><path fill="#a9db89" d="M 408.507812 631.519531 C 401.140625 638.578125 393.359375 645.144531 385.15625 651.214844 C 376.953125 657.28125 368.402344 662.804688 359.492188 667.78125 C 350.585938 672.757812 341.402344 677.148438 331.933594 680.949219 C 322.46875 684.753906 312.796875 687.941406 302.921875 690.507812 C 294.972656 689.679688 287.046875 689.851562 279.140625 691.027344 C 271.238281 692.207031 263.601562 694.347656 256.238281 697.453125 C 252.753906 697.605469 249.253906 697.683594 245.746094 697.683594 C 240.644531 697.683594 235.578125 697.515625 230.546875 697.1875 C 218.59375 691.527344 204.519531 689.484375 188.640625 690.519531 C 177.144531 687.511719 165.933594 683.679688 155.003906 679.015625 C 144.074219 674.355469 133.546875 668.921875 123.414062 662.707031 C 113.285156 656.496094 103.667969 649.574219 94.558594 641.945312 C 85.449219 634.316406 76.945312 626.0625 69.050781 617.179688 C 69.050781 617.179688 2.773438 529.878906 25.78125 391.210938 C 48.785156 252.546875 143.882812 193.601562 143.882812 193.601562 C 161.851562 184.785156 180.644531 178.398438 200.265625 174.445312 L 281.261719 172.671875 C 297.535156 175.203125 313.359375 179.433594 328.726562 185.359375 C 328.726562 185.359375 427.703125 229.304688 459.59375 395.65625 C 491.488281 562.007812 408.507812 631.519531 408.507812 631.519531 Z M 408.507812 631.519531 " fill-opacity="1" fill-rule="nonzero"/><path fill="#3e6a51" d="M 0 433.816406 C 0 505.074219 26.3125 569.707031 69.050781 617.191406 C 66.25 604.976562 65.09375 592.613281 65.585938 580.09375 C 66.765625 551.304688 60.6875 533.410156 53.222656 522.328125 C 52.070312 520.601562 51.015625 518.816406 50.058594 516.976562 C 49.101562 515.132812 48.246094 513.246094 47.496094 511.308594 C 46.746094 509.375 46.105469 507.402344 45.570312 505.398438 C 45.035156 503.390625 44.613281 501.363281 44.300781 499.308594 C 43.988281 497.257812 43.792969 495.195312 43.707031 493.121094 C 43.621094 491.046875 43.648438 488.972656 43.789062 486.902344 C 43.929688 484.832031 44.183594 482.773438 44.550781 480.730469 C 44.917969 478.6875 45.398438 476.667969 45.984375 474.679688 C 52.125 453.644531 48.6875 433.109375 43.4375 417.402344 C 42.707031 415.128906 42.121094 412.824219 41.671875 410.480469 C 41.226562 408.136719 40.921875 405.777344 40.765625 403.394531 C 40.605469 401.015625 40.59375 398.632812 40.726562 396.253906 C 40.863281 393.871094 41.140625 391.507812 41.5625 389.160156 C 41.988281 386.8125 42.554688 384.5 43.261719 382.21875 C 43.96875 379.941406 44.8125 377.714844 45.789062 375.542969 C 46.769531 373.367188 47.878906 371.257812 49.117188 369.222656 C 50.355469 367.183594 51.714844 365.226562 53.191406 363.355469 C 74.484375 335.761719 82.671875 309.59375 85.71875 291.5625 C 86.742188 285.351562 88.164062 279.230469 89.980469 273.199219 C 91.796875 267.171875 93.992188 261.285156 96.566406 255.539062 C 99.140625 249.792969 102.074219 244.238281 105.363281 238.871094 C 108.65625 233.503906 112.277344 228.371094 116.230469 223.472656 C 124.828125 212.941406 134.046875 202.988281 143.886719 193.613281 C 59.007812 235.183594 0 327.097656 0 433.816406 Z M 0 433.816406 " fill-opacity="1" fill-rule="nonzero"/><path fill="#3e6a51" d="M 328.722656 185.371094 C 341.925781 197.101562 354.121094 209.800781 365.304688 223.472656 C 369.257812 228.371094 372.878906 233.503906 376.171875 238.871094 C 379.460938 244.238281 382.394531 249.792969 384.96875 255.539062 C 387.542969 261.285156 389.738281 267.171875 391.554688 273.199219 C 393.367188 279.230469 394.789062 285.347656 395.816406 291.5625 C 398.863281 309.59375 407.050781 335.761719 428.34375 363.355469 C 429.820312 365.226562 431.179688 367.183594 432.417969 369.222656 C 433.65625 371.257812 434.765625 373.367188 435.742188 375.542969 C 436.722656 377.714844 437.566406 379.941406 438.273438 382.21875 C 438.980469 384.5 439.546875 386.8125 439.96875 389.160156 C 440.394531 391.507812 440.671875 393.871094 440.808594 396.253906 C 440.941406 398.632812 440.929688 401.015625 440.769531 403.394531 C 440.613281 405.777344 440.308594 408.136719 439.863281 410.480469 C 439.414062 412.824219 438.828125 415.128906 438.097656 417.402344 C 436.519531 421.992188 435.277344 426.667969 434.371094 431.433594 C 433.464844 436.203125 432.90625 441.007812 432.691406 445.855469 C 432.476562 450.703125 432.605469 455.542969 433.085938 460.371094 C 433.566406 465.199219 434.386719 469.96875 435.550781 474.679688 C 458.988281 565.03125 408.496094 631.511719 408.496094 631.511719 C 459.386719 583.164062 491.480469 512.519531 491.480469 433.816406 C 491.488281 319.347656 423.609375 221.921875 328.722656 185.371094 Z M 328.722656 185.371094 " fill-opacity="1" fill-rule="nonzero"/><path fill="#3e6a51" d="M 213.257812 242.945312 C 214.847656 219.441406 227.808594 187.761719 281.257812 172.6875 C 267.8125 170.59375 254.289062 169.691406 240.6875 169.992188 C 227.082031 170.289062 213.609375 171.777344 200.269531 174.464844 C 197.9375 176.59375 195.707031 178.824219 193.578125 181.160156 C 191.449219 183.492188 189.429688 185.917969 187.519531 188.4375 C 185.613281 190.957031 183.824219 193.554688 182.152344 196.238281 C 180.484375 198.917969 178.9375 201.671875 177.519531 204.492188 C 176.097656 207.316406 174.8125 210.199219 173.65625 213.140625 C 172.5 216.078125 171.480469 219.066406 170.59375 222.101562 C 169.710938 225.132812 168.96875 228.203125 168.363281 231.300781 C 167.761719 234.402344 167.300781 237.527344 166.980469 240.671875 C 166.210938 247.425781 164.511719 253.9375 161.878906 260.207031 C 159.246094 266.476562 155.789062 272.25 151.503906 277.53125 C 148.492188 281.132812 145.703125 284.902344 143.136719 288.832031 C 140.566406 292.765625 138.238281 296.835938 136.148438 301.042969 C 134.0625 305.246094 132.226562 309.5625 130.644531 313.984375 C 129.066406 318.40625 127.75 322.90625 126.699219 327.484375 C 125.644531 332.0625 124.867188 336.683594 124.359375 341.355469 C 123.851562 346.023438 123.621094 350.707031 123.667969 355.402344 C 123.710938 360.101562 124.03125 364.777344 124.625 369.4375 C 125.222656 374.09375 126.085938 378.703125 127.226562 383.261719 C 129.136719 391.414062 130.003906 399.675781 129.828125 408.046875 C 129.652344 416.421875 128.4375 424.640625 126.1875 432.703125 C 125.097656 436.46875 124.183594 440.277344 123.445312 444.125 C 122.707031 447.976562 122.140625 451.851562 121.753906 455.75 C 121.367188 459.648438 121.160156 463.558594 121.128906 467.480469 C 121.097656 471.398438 121.246094 475.3125 121.574219 479.214844 C 121.898438 483.121094 122.402344 487.003906 123.082031 490.863281 C 123.761719 494.726562 124.617188 498.546875 125.644531 502.328125 C 126.671875 506.109375 127.871094 509.835938 129.238281 513.511719 C 130.609375 517.183594 132.140625 520.785156 133.835938 524.320312 C 136.023438 528.960938 137.894531 533.726562 139.445312 538.617188 C 140.996094 543.511719 142.210938 548.484375 143.09375 553.539062 C 143.976562 558.59375 144.519531 563.683594 144.722656 568.8125 C 144.921875 573.941406 144.78125 579.058594 144.292969 584.167969 C 141.792969 613.746094 146.960938 657.480469 188.648438 690.519531 C 202.410156 694.035156 216.378906 696.253906 230.550781 697.179688 C 210.207031 679.847656 177.5625 640.492188 185.789062 570.449219 C 186.390625 565.570312 186.578125 560.671875 186.347656 555.761719 C 186.117188 550.847656 185.472656 545.992188 184.417969 541.1875 C 183.359375 536.386719 181.90625 531.707031 180.054688 527.152344 C 178.203125 522.59375 175.980469 518.230469 173.390625 514.050781 C 162.585938 496.84375 154.449219 470.410156 171.925781 438.140625 C 173.207031 435.75 174.367188 433.304688 175.410156 430.804688 C 176.453125 428.300781 177.371094 425.753906 178.167969 423.164062 C 178.964844 420.570312 179.628906 417.945312 180.171875 415.289062 C 180.710938 412.632812 181.121094 409.957031 181.402344 407.261719 C 181.679688 404.566406 181.828125 401.863281 181.847656 399.152344 C 181.863281 396.441406 181.75 393.734375 181.503906 391.035156 C 181.257812 388.335938 180.882812 385.65625 180.375 382.992188 C 179.867188 380.328125 179.234375 377.695312 178.472656 375.097656 C 172.0625 352.996094 170.898438 322.746094 194.363281 293.304688 C 197.164062 289.707031 199.675781 285.917969 201.902344 281.9375 C 204.128906 277.957031 206.042969 273.835938 207.644531 269.566406 C 209.246094 265.296875 210.519531 260.929688 211.460938 256.46875 C 212.402344 252.007812 213 247.5 213.257812 242.945312 Z M 213.257812 242.945312 " fill-opacity="1" fill-rule="nonzero"/><path fill="#3e6a51" d="M 352.03125 371.777344 C 362.066406 332.601562 348.363281 303.941406 335.304688 286.925781 C 332.949219 283.886719 330.824219 280.691406 328.9375 277.34375 C 327.046875 273.992188 325.410156 270.523438 324.027344 266.933594 C 322.644531 263.34375 321.527344 259.671875 320.683594 255.921875 C 319.835938 252.167969 319.265625 248.375 318.976562 244.539062 C 318.746094 241.402344 318.386719 238.445312 317.957031 235.75 C 317.757812 234.5 317.464844 233.265625 317.085938 232.054688 C 316.703125 230.847656 316.238281 229.667969 315.683594 228.527344 C 315.132812 227.386719 314.5 226.289062 313.785156 225.238281 C 313.070312 224.191406 312.285156 223.199219 311.429688 222.261719 C 310.570312 221.328125 309.648438 220.460938 308.664062 219.660156 C 307.679688 218.859375 306.644531 218.136719 305.550781 217.484375 C 304.460938 216.835938 303.332031 216.273438 302.15625 215.789062 C 300.984375 215.304688 299.78125 214.910156 298.550781 214.601562 C 298.246094 214.523438 297.945312 214.449219 297.640625 214.375 C 297.152344 214.261719 296.660156 214.179688 296.160156 214.128906 C 295.660156 214.078125 295.160156 214.058594 294.660156 214.074219 C 294.15625 214.089844 293.65625 214.136719 293.164062 214.214844 C 292.667969 214.296875 292.179688 214.40625 291.699219 214.550781 C 291.214844 214.691406 290.746094 214.867188 290.289062 215.070312 C 289.828125 215.273438 289.386719 215.507812 288.957031 215.769531 C 288.53125 216.03125 288.121094 216.320312 287.730469 216.632812 C 287.339844 216.949219 286.96875 217.289062 286.621094 217.652344 C 286.273438 218.011719 285.953125 218.398438 285.65625 218.800781 C 285.359375 219.207031 285.089844 219.628906 284.847656 220.066406 C 284.605469 220.507812 284.390625 220.960938 284.207031 221.429688 C 284.023438 221.894531 283.871094 222.375 283.75 222.859375 C 283.628906 223.347656 283.539062 223.839844 283.484375 224.339844 C 283.425781 224.835938 283.398438 225.339844 283.40625 225.839844 C 283.414062 226.34375 283.453125 226.839844 283.527344 227.339844 C 283.597656 227.835938 283.703125 228.324219 283.839844 228.808594 C 285.902344 235.816406 286.613281 242.960938 285.972656 250.238281 C 285.570312 254.632812 285.503906 259.03125 285.773438 263.4375 C 286.042969 267.84375 286.648438 272.203125 287.585938 276.515625 C 288.523438 280.828125 289.785156 285.042969 291.367188 289.160156 C 292.953125 293.28125 294.839844 297.253906 297.03125 301.085938 C 299.582031 305.347656 301.703125 309.816406 303.402344 314.484375 C 305.097656 319.152344 306.339844 323.941406 307.125 328.84375 C 307.914062 333.75 308.230469 338.683594 308.074219 343.652344 C 307.921875 348.617188 307.300781 353.523438 306.210938 358.371094 C 304.855469 364.535156 304.007812 370.773438 303.664062 377.078125 C 303.320312 383.382812 303.484375 389.671875 304.164062 395.953125 C 304.839844 402.230469 306.015625 408.410156 307.695312 414.5 C 309.375 420.585938 311.53125 426.496094 314.167969 432.234375 C 327.71875 461.96875 323.460938 485.535156 314.890625 502.328125 C 311.847656 508.199219 309.21875 514.25 307.007812 520.484375 C 304.792969 526.714844 303.019531 533.066406 301.675781 539.542969 C 300.335938 546.019531 299.445312 552.554688 299 559.152344 C 298.558594 565.75 298.566406 572.347656 299.027344 578.945312 C 303.441406 637.675781 272.984375 679.265625 256.246094 697.425781 C 272.046875 696.71875 287.605469 694.40625 302.929688 690.488281 C 338.167969 661.148438 342.941406 609.414062 341.671875 575.269531 C 341.457031 570.554688 341.613281 565.855469 342.136719 561.164062 C 342.660156 556.476562 343.550781 551.859375 344.804688 547.308594 C 346.054688 542.757812 347.65625 538.335938 349.605469 534.039062 C 351.554688 529.742188 353.828125 525.625 356.425781 521.6875 C 380.925781 485.285156 367.964844 441.277344 356.234375 415.433594 C 354.664062 412.046875 353.390625 408.550781 352.414062 404.945312 C 351.433594 401.34375 350.765625 397.683594 350.410156 393.964844 C 350.050781 390.246094 350.007812 386.527344 350.28125 382.800781 C 350.554688 379.078125 351.136719 375.402344 352.03125 371.777344 Z M 352.03125 371.777344 " fill-opacity="1" fill-rule="nonzero"/><path fill="#eff4b0" d="M 617.773438 265.257812 L 604.996094 285.722656 C 557.25 417.460938 488.785156 533.464844 391.5625 627.640625 L 378.273438 648.929688 C 378.023438 649.328125 377.792969 649.738281 377.585938 650.164062 C 377.378906 650.585938 377.191406 651.015625 377.027344 651.460938 C 376.863281 651.902344 376.71875 652.351562 376.601562 652.808594 C 376.484375 653.261719 376.386719 653.722656 376.316406 654.191406 C 376.246094 654.65625 376.195312 655.125 376.171875 655.597656 C 376.148438 656.066406 376.148438 656.539062 376.171875 657.007812 C 376.199219 657.480469 376.246094 657.949219 376.316406 658.414062 C 376.390625 658.878906 376.484375 659.34375 376.605469 659.796875 C 376.722656 660.253906 376.867188 660.703125 377.03125 661.144531 C 377.195312 661.585938 377.382812 662.019531 377.59375 662.441406 C 377.800781 662.863281 378.03125 663.273438 378.28125 663.675781 C 378.535156 664.074219 378.804688 664.460938 379.09375 664.832031 C 379.386719 665.203125 379.695312 665.558594 380.019531 665.898438 C 380.347656 666.238281 380.691406 666.558594 381.050781 666.863281 C 381.410156 667.171875 381.785156 667.457031 382.171875 667.722656 C 382.5625 667.988281 382.964844 668.234375 383.378906 668.460938 C 386.699219 670.242188 390.0625 671.945312 393.464844 673.566406 C 396.867188 675.1875 400.304688 676.730469 403.777344 678.191406 C 407.253906 679.652344 410.761719 681.03125 414.300781 682.328125 C 417.839844 683.621094 421.40625 684.835938 425.003906 685.964844 C 428.597656 687.089844 432.21875 688.132812 435.867188 689.09375 C 439.511719 690.050781 443.175781 690.921875 446.863281 691.707031 C 450.550781 692.492188 454.25 693.191406 457.972656 693.800781 C 461.691406 694.414062 465.421875 694.9375 469.164062 695.375 C 472.910156 695.808594 476.660156 696.15625 480.421875 696.414062 C 484.179688 696.675781 487.945312 696.847656 491.714844 696.929688 C 495.480469 697.011719 499.25 697.003906 503.015625 696.910156 C 506.785156 696.816406 510.550781 696.632812 514.308594 696.359375 C 518.066406 696.089844 521.816406 695.726562 525.558594 695.28125 C 529.304688 694.832031 533.03125 694.296875 536.75 693.671875 C 540.464844 693.046875 544.167969 692.339844 547.851562 691.539062 C 551.535156 690.742188 555.199219 689.859375 558.839844 688.890625 C 562.480469 687.917969 566.097656 686.863281 569.691406 685.722656 C 573.285156 684.585938 576.847656 683.359375 580.382812 682.050781 C 583.917969 680.746094 587.421875 679.355469 590.890625 677.882812 C 594.359375 676.410156 597.792969 674.855469 601.191406 673.222656 C 604.585938 671.589844 607.945312 669.875 611.257812 668.085938 C 614.574219 666.292969 617.847656 664.425781 621.078125 662.480469 C 624.304688 660.535156 627.484375 658.511719 630.621094 656.417969 C 633.753906 654.324219 636.835938 652.15625 639.867188 649.914062 C 642.898438 647.675781 645.875 645.367188 648.796875 642.984375 C 651.722656 640.605469 654.585938 638.15625 657.394531 635.644531 C 660.203125 633.128906 662.949219 630.546875 665.636719 627.902344 C 668.324219 625.261719 670.945312 622.554688 673.507812 619.785156 C 676.066406 617.019531 678.558594 614.195312 680.984375 611.308594 C 683.410156 608.425781 685.769531 605.484375 688.058594 602.488281 C 690.347656 599.492188 692.5625 596.445312 694.707031 593.34375 C 696.855469 590.246094 698.925781 587.097656 700.921875 583.898438 C 702.917969 580.703125 704.839844 577.460938 706.683594 574.171875 C 708.53125 570.882812 710.296875 567.554688 711.984375 564.183594 C 713.671875 560.8125 715.28125 557.40625 716.808594 553.960938 C 718.335938 550.511719 719.785156 547.03125 721.148438 543.519531 C 722.511719 540.003906 723.792969 536.460938 724.992188 532.886719 C 726.191406 529.3125 727.304688 525.710938 728.332031 522.082031 C 729.359375 518.457031 730.304688 514.808594 731.160156 511.136719 C 732.019531 507.464844 732.789062 503.773438 733.472656 500.066406 C 734.15625 496.359375 734.753906 492.636719 735.261719 488.902344 C 735.769531 485.167969 736.191406 481.421875 736.523438 477.667969 C 736.855469 473.910156 737.101562 470.148438 737.257812 466.382812 C 737.414062 462.617188 737.480469 458.847656 737.460938 455.078125 C 737.4375 451.308594 737.328125 447.539062 737.128906 443.777344 C 736.933594 440.011719 736.644531 436.253906 736.269531 432.5 C 735.894531 428.75 735.433594 425.007812 734.882812 421.28125 C 734.332031 417.550781 733.695312 413.835938 732.96875 410.136719 C 732.242188 406.4375 731.433594 402.757812 730.535156 399.09375 C 729.636719 395.433594 728.652344 391.796875 727.582031 388.179688 C 726.511719 384.566406 725.359375 380.976562 724.121094 377.414062 C 722.882812 373.855469 721.5625 370.324219 720.160156 366.824219 C 718.753906 363.328125 717.269531 359.863281 715.703125 356.433594 C 714.136719 353.003906 712.492188 349.617188 710.765625 346.265625 C 709.039062 342.914062 707.234375 339.601562 705.351562 336.335938 C 703.472656 333.070312 701.515625 329.847656 699.480469 326.675781 C 697.449219 323.5 695.34375 320.375 693.160156 317.300781 C 690.980469 314.222656 688.730469 311.199219 686.410156 308.230469 C 684.085938 305.261719 681.699219 302.347656 679.238281 299.492188 C 676.78125 296.632812 674.253906 293.835938 671.664062 291.097656 C 669.074219 288.359375 666.421875 285.683594 663.703125 283.066406 C 660.988281 280.453125 658.210938 277.90625 655.378906 275.421875 C 652.542969 272.9375 649.648438 270.523438 646.699219 268.175781 C 643.75 265.828125 640.746094 263.554688 637.691406 261.347656 C 637.304688 261.070312 636.90625 260.8125 636.496094 260.574219 C 636.085938 260.339844 635.664062 260.125 635.230469 259.929688 C 634.796875 259.738281 634.355469 259.566406 633.902344 259.417969 C 633.453125 259.269531 632.996094 259.144531 632.53125 259.042969 C 632.070312 258.941406 631.601562 258.863281 631.128906 258.8125 C 630.660156 258.757812 630.1875 258.730469 629.710938 258.722656 C 629.238281 258.71875 628.765625 258.738281 628.292969 258.78125 C 627.820312 258.824219 627.351562 258.890625 626.882812 258.984375 C 626.417969 259.074219 625.960938 259.1875 625.503906 259.328125 C 625.050781 259.464844 624.605469 259.628906 624.167969 259.8125 C 623.730469 259.996094 623.304688 260.203125 622.890625 260.429688 C 622.472656 260.65625 622.070312 260.90625 621.679688 261.175781 C 621.289062 261.441406 620.910156 261.730469 620.550781 262.039062 C 620.1875 262.347656 619.84375 262.671875 619.515625 263.015625 C 619.1875 263.359375 618.878906 263.714844 618.589844 264.089844 C 618.296875 264.464844 618.027344 264.855469 617.773438 265.257812 Z M 617.773438 265.257812 " fill-opacity="1" fill-rule="nonzero"/><path fill="#f7616c" d="M 604.925781 285.6875 L 391.5625 627.652344 C 399.105469 632.371094 406.933594 636.558594 415.042969 640.214844 C 423.152344 643.875 431.472656 646.96875 440 649.503906 C 448.527344 652.035156 457.1875 653.984375 465.980469 655.34375 C 474.769531 656.703125 483.613281 657.464844 492.507812 657.628906 C 495.242188 657.699219 497.972656 657.710938 500.707031 657.667969 C 503.441406 657.625 506.171875 657.527344 508.898438 657.375 C 511.628906 657.21875 514.351562 657.011719 517.074219 656.746094 C 519.792969 656.480469 522.507812 656.160156 525.214844 655.785156 C 527.921875 655.410156 530.621094 654.980469 533.308594 654.496094 C 536 654.011719 538.679688 653.46875 541.347656 652.875 C 544.015625 652.28125 546.667969 651.632812 549.308594 650.929688 C 551.953125 650.230469 554.578125 649.472656 557.1875 648.664062 C 559.800781 647.855469 562.390625 646.992188 564.96875 646.078125 C 567.542969 645.164062 570.097656 644.195312 572.636719 643.179688 C 575.171875 642.160156 577.6875 641.089844 580.179688 639.96875 C 582.671875 638.847656 585.140625 637.675781 587.585938 636.453125 C 590.03125 635.230469 592.449219 633.960938 594.84375 632.640625 C 597.238281 631.320312 599.601562 629.953125 601.941406 628.535156 C 604.277344 627.117188 606.585938 625.65625 608.863281 624.144531 C 611.140625 622.632812 613.386719 621.078125 615.601562 619.476562 C 617.816406 617.875 620 616.226562 622.148438 614.539062 C 624.292969 612.847656 626.40625 611.113281 628.484375 609.335938 C 630.5625 607.558594 632.601562 605.742188 634.605469 603.882812 C 636.609375 602.019531 638.574219 600.121094 640.5 598.179688 C 642.425781 596.242188 644.3125 594.261719 646.15625 592.246094 C 648 590.230469 649.804688 588.175781 651.566406 586.085938 C 653.328125 583.996094 655.046875 581.871094 656.722656 579.710938 C 658.398438 577.550781 660.03125 575.359375 661.617188 573.132812 C 663.203125 570.90625 664.742188 568.648438 666.238281 566.359375 C 667.730469 564.070312 669.179688 561.75 670.578125 559.402344 C 671.976562 557.054688 673.328125 554.679688 674.632812 552.277344 C 675.9375 549.875 677.191406 547.445312 678.394531 544.992188 C 679.597656 542.535156 680.753906 540.058594 681.855469 537.558594 C 682.960938 535.058594 684.011719 532.535156 685.015625 529.992188 C 686.015625 527.445312 686.964844 524.882812 687.859375 522.300781 C 688.757812 519.71875 689.601562 517.117188 690.390625 514.5 C 691.183594 511.882812 691.921875 509.253906 692.605469 506.605469 C 693.289062 503.957031 693.917969 501.300781 694.492188 498.625 C 695.070312 495.953125 695.589844 493.269531 696.054688 490.578125 C 696.523438 487.882812 696.933594 485.179688 697.289062 482.46875 C 697.648438 479.757812 697.949219 477.042969 698.195312 474.320312 C 698.441406 471.597656 698.628906 468.871094 698.765625 466.140625 C 698.902344 463.410156 698.980469 460.675781 699.003906 457.945312 C 699.027344 455.210938 698.996094 452.476562 698.910156 449.746094 C 698.820312 447.011719 698.679688 444.28125 698.480469 441.554688 C 698.28125 438.828125 698.027344 436.105469 697.71875 433.390625 C 697.410156 430.675781 697.042969 427.964844 696.625 425.265625 C 696.207031 422.5625 695.730469 419.871094 695.203125 417.1875 C 694.671875 414.507812 694.089844 411.835938 693.453125 409.175781 C 692.8125 406.519531 692.121094 403.875 691.378906 401.246094 C 690.632812 398.613281 689.832031 396 688.980469 393.402344 C 688.128906 390.804688 687.226562 388.226562 686.269531 385.664062 C 685.3125 383.101562 684.304688 380.5625 683.246094 378.042969 C 682.183594 375.523438 681.074219 373.023438 679.914062 370.550781 C 678.75 368.074219 677.539062 365.625 676.277344 363.199219 C 675.015625 360.773438 673.707031 358.375 672.347656 356.003906 C 670.988281 353.632812 669.582031 351.289062 668.128906 348.972656 C 666.675781 346.660156 665.171875 344.375 663.625 342.121094 C 662.078125 339.867188 660.488281 337.644531 658.847656 335.457031 C 657.210938 333.269531 655.53125 331.113281 653.804688 328.992188 C 652.078125 326.875 650.3125 324.789062 648.5 322.742188 C 646.691406 320.691406 644.839844 318.679688 642.949219 316.707031 C 641.058594 314.734375 639.125 312.800781 637.15625 310.90625 C 635.183594 309.011719 633.175781 307.160156 631.128906 305.347656 C 629.085938 303.535156 627.003906 301.761719 624.882812 300.035156 C 622.765625 298.308594 620.613281 296.625 618.425781 294.984375 C 616.242188 293.34375 614.023438 291.746094 611.769531 290.199219 C 609.519531 288.648438 607.238281 287.144531 604.925781 285.6875 Z M 604.925781 285.6875 " fill-opacity="1" fill-rule="nonzero"/><path fill="#333333" d="M 478.203125 596.753906 C 477.972656 596.300781 477.699219 595.871094 477.386719 595.464844 C 477.074219 595.0625 476.722656 594.695312 476.335938 594.363281 C 475.949219 594.027344 475.535156 593.734375 475.089844 593.484375 C 474.644531 593.230469 474.183594 593.023438 473.699219 592.863281 C 473.210938 592.703125 472.71875 592.589844 472.210938 592.527344 C 471.703125 592.464844 471.195312 592.453125 470.6875 592.488281 C 470.175781 592.527344 469.675781 592.613281 469.183594 592.75 C 468.691406 592.882812 468.21875 593.066406 467.761719 593.296875 C 467.304688 593.523438 466.875 593.796875 466.472656 594.109375 C 466.070312 594.421875 465.703125 594.773438 465.367188 595.160156 C 465.03125 595.546875 464.738281 595.960938 464.488281 596.402344 C 464.234375 596.847656 464.027344 597.3125 463.867188 597.796875 C 463.707031 598.28125 463.59375 598.777344 463.53125 599.285156 C 463.464844 599.789062 463.453125 600.296875 463.488281 600.808594 C 463.527344 601.316406 463.613281 601.816406 463.746094 602.3125 C 463.882812 602.804688 464.0625 603.277344 464.292969 603.734375 L 468.960938 613.039062 C 469.1875 613.496094 469.460938 613.925781 469.773438 614.332031 C 470.085938 614.734375 470.4375 615.101562 470.824219 615.4375 C 471.210938 615.769531 471.625 616.066406 472.070312 616.316406 C 472.515625 616.570312 472.980469 616.777344 473.464844 616.9375 C 473.949219 617.097656 474.445312 617.210938 474.953125 617.273438 C 475.457031 617.335938 475.964844 617.351562 476.476562 617.3125 C 476.984375 617.277344 477.488281 617.191406 477.980469 617.054688 C 478.472656 616.917969 478.945312 616.738281 479.402344 616.507812 C 479.859375 616.277344 480.289062 616.007812 480.691406 615.691406 C 481.097656 615.378906 481.464844 615.027344 481.800781 614.640625 C 482.132812 614.257812 482.425781 613.839844 482.679688 613.394531 C 482.929688 612.953125 483.136719 612.488281 483.300781 612.003906 C 483.460938 611.515625 483.570312 611.019531 483.636719 610.515625 C 483.699219 610.007812 483.710938 609.5 483.675781 608.988281 C 483.636719 608.480469 483.550781 607.976562 483.417969 607.484375 C 483.28125 606.992188 483.097656 606.519531 482.871094 606.0625 Z M 478.203125 596.753906 " fill-opacity="1" fill-rule="nonzero"/><path fill="#333333" d="M 503.265625 556.941406 C 502.890625 556.597656 502.484375 556.292969 502.050781 556.03125 C 501.613281 555.765625 501.15625 555.546875 500.679688 555.375 C 500.199219 555.199219 499.710938 555.074219 499.207031 554.996094 C 498.703125 554.917969 498.199219 554.890625 497.6875 554.914062 C 497.179688 554.933594 496.679688 555.003906 496.183594 555.125 C 495.6875 555.246094 495.210938 555.414062 494.75 555.625 C 494.285156 555.839844 493.851562 556.097656 493.4375 556.398438 C 493.027344 556.699219 492.648438 557.035156 492.304688 557.410156 C 491.957031 557.785156 491.652344 558.1875 491.386719 558.621094 C 491.121094 559.054688 490.898438 559.511719 490.722656 559.988281 C 490.546875 560.46875 490.417969 560.957031 490.335938 561.460938 C 490.257812 561.964844 490.226562 562.46875 490.246094 562.976562 C 490.265625 563.488281 490.332031 563.988281 490.449219 564.484375 C 490.566406 564.980469 490.734375 565.460938 490.945312 565.921875 C 491.15625 566.386719 491.410156 566.824219 491.707031 567.238281 C 492.007812 567.652344 492.339844 568.03125 492.714844 568.378906 L 499.78125 574.90625 C 500.15625 575.253906 500.5625 575.566406 501 575.835938 C 501.433594 576.105469 501.890625 576.328125 502.371094 576.507812 C 502.851562 576.6875 503.347656 576.816406 503.851562 576.898438 C 504.359375 576.980469 504.867188 577.011719 505.378906 576.992188 C 505.890625 576.972656 506.398438 576.902344 506.894531 576.785156 C 507.394531 576.664062 507.875 576.5 508.34375 576.285156 C 508.808594 576.070312 509.246094 575.8125 509.664062 575.511719 C 510.078125 575.207031 510.457031 574.871094 510.804688 574.492188 C 511.152344 574.117188 511.460938 573.710938 511.726562 573.269531 C 511.996094 572.832031 512.21875 572.375 512.394531 571.894531 C 512.570312 571.410156 512.699219 570.917969 512.777344 570.410156 C 512.855469 569.90625 512.882812 569.394531 512.863281 568.882812 C 512.839844 568.371094 512.769531 567.867188 512.648438 567.367188 C 512.523438 566.871094 512.355469 566.386719 512.140625 565.921875 C 511.921875 565.457031 511.664062 565.019531 511.359375 564.605469 C 511.054688 564.195312 510.714844 563.8125 510.335938 563.46875 Z M 503.265625 556.941406 " fill-opacity="1" fill-rule="nonzero"/><path fill="#333333" d="M 539.964844 518.3125 L 532.644531 512.695312 C 532.242188 512.382812 531.808594 512.117188 531.351562 511.890625 C 530.894531 511.664062 530.417969 511.484375 529.921875 511.351562 C 529.429688 511.21875 528.929688 511.136719 528.417969 511.105469 C 527.910156 511.070312 527.402344 511.085938 526.894531 511.15625 C 526.386719 511.222656 525.894531 511.335938 525.410156 511.5 C 524.925781 511.664062 524.460938 511.875 524.019531 512.128906 C 523.578125 512.386719 523.164062 512.683594 522.78125 513.019531 C 522.394531 513.355469 522.046875 513.726562 521.738281 514.132812 C 521.425781 514.539062 521.160156 514.96875 520.933594 515.429688 C 520.707031 515.886719 520.527344 516.363281 520.394531 516.855469 C 520.261719 517.351562 520.179688 517.851562 520.148438 518.363281 C 520.113281 518.871094 520.128906 519.378906 520.195312 519.886719 C 520.261719 520.394531 520.378906 520.886719 520.542969 521.371094 C 520.707031 521.855469 520.917969 522.320312 521.171875 522.761719 C 521.429688 523.203125 521.722656 523.617188 522.0625 524 C 522.398438 524.386719 522.769531 524.734375 523.175781 525.042969 L 530.492188 530.660156 C 530.898438 530.972656 531.328125 531.242188 531.789062 531.46875 C 532.246094 531.699219 532.722656 531.878906 533.214844 532.011719 C 533.710938 532.144531 534.210938 532.226562 534.722656 532.261719 C 535.234375 532.296875 535.742188 532.28125 536.25 532.214844 C 536.757812 532.148438 537.253906 532.03125 537.738281 531.867188 C 538.222656 531.703125 538.683594 531.492188 539.128906 531.238281 C 539.570312 530.980469 539.984375 530.6875 540.371094 530.347656 C 540.753906 530.011719 541.101562 529.640625 541.414062 529.234375 C 541.726562 528.828125 541.992188 528.394531 542.21875 527.9375 C 542.445312 527.476562 542.625 527 542.757812 526.507812 C 542.890625 526.011719 542.972656 525.511719 543.003906 525 C 543.039062 524.488281 543.019531 523.980469 542.953125 523.472656 C 542.886719 522.964844 542.769531 522.46875 542.605469 521.984375 C 542.441406 521.5 542.230469 521.039062 541.972656 520.59375 C 541.714844 520.152344 541.417969 519.738281 541.082031 519.355469 C 540.742188 518.972656 540.371094 518.625 539.964844 518.3125 Z M 539.964844 518.3125 " fill-opacity="1" fill-rule="nonzero"/><path fill="#333333" d="M 625.246094 389.164062 C 625.546875 389.199219 625.851562 389.21875 626.152344 389.21875 C 626.644531 389.21875 627.132812 389.171875 627.617188 389.078125 C 628.097656 388.988281 628.570312 388.847656 629.027344 388.667969 C 629.484375 388.484375 629.917969 388.261719 630.335938 388 C 630.75 387.734375 631.136719 387.433594 631.492188 387.09375 C 631.851562 386.757812 632.171875 386.390625 632.460938 385.988281 C 632.75 385.589844 632.996094 385.167969 633.203125 384.722656 C 633.410156 384.277344 633.574219 383.816406 633.695312 383.339844 C 633.816406 382.859375 633.890625 382.378906 633.917969 381.886719 C 633.945312 381.394531 633.929688 380.90625 633.863281 380.417969 C 633.800781 379.929688 633.691406 379.453125 633.535156 378.984375 C 633.382812 378.519531 633.183594 378.070312 632.945312 377.640625 C 632.703125 377.210938 632.425781 376.808594 632.109375 376.433594 C 631.792969 376.054688 631.445312 375.710938 631.0625 375.402344 C 630.683594 375.089844 630.273438 374.816406 629.839844 374.585938 C 629.410156 374.351562 628.957031 374.160156 628.488281 374.011719 C 628.019531 373.867188 627.539062 373.761719 627.050781 373.707031 L 618.164062 372.660156 C 617.65625 372.601562 617.148438 372.589844 616.636719 372.632812 C 616.128906 372.671875 615.628906 372.761719 615.136719 372.902344 C 614.644531 373.042969 614.171875 373.226562 613.71875 373.460938 C 613.261719 373.691406 612.835938 373.96875 612.433594 374.285156 C 612.035156 374.601562 611.667969 374.953125 611.335938 375.34375 C 611.003906 375.730469 610.714844 376.148438 610.464844 376.59375 C 610.21875 377.042969 610.015625 377.507812 609.855469 377.992188 C 609.699219 378.480469 609.589844 378.976562 609.53125 379.484375 C 609.472656 379.992188 609.460938 380.5 609.5 381.007812 C 609.542969 381.519531 609.632812 382.019531 609.769531 382.507812 C 609.910156 383 610.09375 383.476562 610.328125 383.929688 C 610.558594 384.386719 610.832031 384.8125 611.148438 385.214844 C 611.464844 385.617188 611.816406 385.980469 612.207031 386.3125 C 612.59375 386.644531 613.011719 386.9375 613.457031 387.1875 C 613.902344 387.433594 614.367188 387.640625 614.855469 387.796875 C 615.339844 387.953125 615.835938 388.0625 616.34375 388.125 Z M 625.246094 389.164062 " fill-opacity="1" fill-rule="nonzero"/><path fill="#333333" d="M 599.464844 430.878906 C 599.96875 430.972656 600.476562 431.019531 600.988281 431.015625 C 601.5 431.011719 602.007812 430.957031 602.507812 430.851562 C 603.011719 430.746094 603.496094 430.59375 603.96875 430.390625 C 604.4375 430.191406 604.886719 429.945312 605.308594 429.65625 C 605.730469 429.367188 606.121094 429.039062 606.480469 428.671875 C 606.835938 428.308594 607.15625 427.910156 607.4375 427.480469 C 607.714844 427.050781 607.949219 426.597656 608.140625 426.121094 C 608.332031 425.648438 608.472656 425.15625 608.566406 424.652344 C 608.660156 424.148438 608.703125 423.640625 608.695312 423.128906 C 608.6875 422.617188 608.632812 422.109375 608.523438 421.609375 C 608.417969 421.109375 608.261719 420.621094 608.0625 420.152344 C 607.859375 419.679688 607.609375 419.234375 607.320312 418.8125 C 607.03125 418.390625 606.699219 418.003906 606.332031 417.644531 C 605.964844 417.289062 605.566406 416.972656 605.136719 416.695312 C 604.703125 416.417969 604.25 416.183594 603.773438 415.996094 C 603.300781 415.808594 602.808594 415.667969 602.304688 415.574219 L 593.519531 413.941406 C 593.015625 413.839844 592.503906 413.789062 591.988281 413.789062 C 591.46875 413.785156 590.957031 413.835938 590.453125 413.9375 C 589.945312 414.039062 589.453125 414.1875 588.976562 414.386719 C 588.5 414.585938 588.050781 414.832031 587.621094 415.121094 C 587.195312 415.410156 586.796875 415.738281 586.433594 416.105469 C 586.074219 416.472656 585.75 416.871094 585.464844 417.304688 C 585.183594 417.734375 584.945312 418.191406 584.753906 418.671875 C 584.5625 419.148438 584.417969 419.644531 584.324219 420.152344 C 584.230469 420.660156 584.1875 421.171875 584.191406 421.6875 C 584.199219 422.203125 584.257812 422.714844 584.367188 423.21875 C 584.476562 423.722656 584.636719 424.210938 584.84375 424.6875 C 585.046875 425.160156 585.300781 425.609375 585.59375 426.03125 C 585.890625 426.453125 586.226562 426.84375 586.597656 427.199219 C 586.972656 427.558594 587.378906 427.875 587.8125 428.148438 C 588.25 428.425781 588.707031 428.65625 589.191406 428.839844 C 589.671875 429.027344 590.167969 429.160156 590.679688 429.246094 Z M 599.464844 430.878906 " fill-opacity="1" fill-rule="nonzero"/><path fill="#333333" d="M 572.777344 467.023438 L 564.542969 462.503906 C 564.097656 462.257812 563.628906 462.058594 563.140625 461.902344 C 562.652344 461.75 562.15625 461.644531 561.648438 461.589844 C 561.140625 461.535156 560.632812 461.527344 560.125 461.574219 C 559.613281 461.617188 559.117188 461.710938 558.625 461.855469 C 558.132812 461.996094 557.664062 462.1875 557.210938 462.421875 C 556.757812 462.660156 556.332031 462.9375 555.933594 463.253906 C 555.535156 463.574219 555.171875 463.929688 554.84375 464.324219 C 554.515625 464.714844 554.226562 465.132812 553.980469 465.582031 C 553.734375 466.027344 553.535156 466.496094 553.382812 466.984375 C 553.226562 467.472656 553.121094 467.96875 553.066406 468.476562 C 553.011719 468.984375 553.003906 469.492188 553.050781 470 C 553.09375 470.511719 553.1875 471.011719 553.332031 471.5 C 553.472656 471.992188 553.664062 472.464844 553.898438 472.917969 C 554.132812 473.371094 554.410156 473.796875 554.730469 474.195312 C 555.050781 474.59375 555.40625 474.957031 555.796875 475.285156 C 556.1875 475.613281 556.605469 475.902344 557.054688 476.148438 L 565.289062 480.667969 C 565.738281 480.914062 566.203125 481.113281 566.691406 481.269531 C 567.179688 481.421875 567.675781 481.527344 568.183594 481.582031 C 568.691406 481.636719 569.199219 481.644531 569.710938 481.597656 C 570.21875 481.554688 570.71875 481.460938 571.207031 481.316406 C 571.699219 481.175781 572.171875 480.984375 572.625 480.75 C 573.078125 480.515625 573.503906 480.234375 573.902344 479.917969 C 574.300781 479.597656 574.664062 479.242188 574.992188 478.851562 C 575.320312 478.457031 575.609375 478.039062 575.851562 477.589844 C 576.097656 477.144531 576.300781 476.675781 576.453125 476.1875 C 576.605469 475.699219 576.710938 475.203125 576.765625 474.695312 C 576.824219 474.1875 576.828125 473.679688 576.785156 473.167969 C 576.738281 472.660156 576.644531 472.160156 576.503906 471.667969 C 576.359375 471.179688 576.171875 470.707031 575.933594 470.253906 C 575.699219 469.800781 575.421875 469.375 575.101562 468.976562 C 574.78125 468.578125 574.425781 468.214844 574.035156 467.886719 C 573.644531 467.558594 573.222656 467.269531 572.777344 467.023438 Z M 572.777344 467.023438 " fill-opacity="1" fill-rule="nonzero"/><path fill="#333333" d="M 605.640625 521.269531 L 598.75 517.65625 C 598.296875 517.417969 597.828125 517.226562 597.335938 517.082031 C 596.847656 516.9375 596.347656 516.84375 595.839844 516.796875 C 595.332031 516.753906 594.820312 516.757812 594.3125 516.8125 C 593.804688 516.867188 593.308594 516.96875 592.820312 517.121094 C 592.332031 517.273438 591.863281 517.472656 591.414062 517.71875 C 590.96875 517.960938 590.546875 518.246094 590.15625 518.574219 C 589.761719 518.902344 589.40625 519.265625 589.085938 519.664062 C 588.765625 520.058594 588.484375 520.484375 588.25 520.9375 C 588.011719 521.390625 587.820312 521.863281 587.675781 522.351562 C 587.53125 522.84375 587.4375 523.34375 587.390625 523.851562 C 587.347656 524.359375 587.351562 524.867188 587.40625 525.378906 C 587.457031 525.886719 587.5625 526.382812 587.714844 526.871094 C 587.867188 527.359375 588.066406 527.828125 588.308594 528.277344 C 588.554688 528.722656 588.839844 529.144531 589.167969 529.535156 C 589.496094 529.929688 589.859375 530.285156 590.253906 530.605469 C 590.652344 530.925781 591.078125 531.207031 591.53125 531.445312 L 598.421875 535.054688 C 598.875 535.285156 599.34375 535.46875 599.832031 535.609375 C 600.320312 535.746094 600.816406 535.835938 601.320312 535.878906 C 601.828125 535.921875 602.332031 535.910156 602.835938 535.855469 C 603.339844 535.796875 603.832031 535.691406 604.316406 535.539062 C 604.800781 535.382812 605.265625 535.183594 605.707031 534.941406 C 606.152344 534.695312 606.570312 534.410156 606.957031 534.082031 C 607.347656 533.757812 607.699219 533.394531 608.015625 533 C 608.335938 532.605469 608.613281 532.183594 608.847656 531.734375 C 609.082031 531.285156 609.273438 530.816406 609.417969 530.328125 C 609.558594 529.84375 609.65625 529.347656 609.703125 528.84375 C 609.75 528.335938 609.746094 527.832031 609.695312 527.328125 C 609.644531 526.824219 609.542969 526.328125 609.394531 525.84375 C 609.246094 525.359375 609.050781 524.890625 608.8125 524.445312 C 608.574219 523.996094 608.292969 523.578125 607.96875 523.183594 C 607.648438 522.792969 607.292969 522.4375 606.898438 522.113281 C 606.507812 521.789062 606.089844 521.507812 605.640625 521.269531 Z M 605.640625 521.269531 " fill-opacity="1" fill-rule="nonzero"/><path fill="#333333" d="M 567.457031 572.28125 C 567.136719 571.878906 566.78125 571.511719 566.386719 571.179688 C 565.996094 570.847656 565.574219 570.558594 565.121094 570.3125 C 564.671875 570.066406 564.199219 569.863281 563.710938 569.710938 C 563.21875 569.554688 562.71875 569.449219 562.207031 569.394531 C 561.695312 569.339844 561.183594 569.335938 560.671875 569.382812 C 560.160156 569.429688 559.65625 569.527344 559.164062 569.671875 C 558.671875 569.816406 558.199219 570.011719 557.742188 570.25 C 557.289062 570.492188 556.863281 570.773438 556.464844 571.097656 C 556.066406 571.421875 555.703125 571.785156 555.375 572.179688 C 555.046875 572.578125 554.761719 573.003906 554.519531 573.457031 C 554.277344 573.910156 554.082031 574.382812 553.929688 574.875 C 553.78125 575.367188 553.683594 575.867188 553.632812 576.378906 C 553.582031 576.890625 553.582031 577.402344 553.636719 577.914062 C 553.6875 578.425781 553.789062 578.929688 553.9375 579.417969 C 554.089844 579.910156 554.289062 580.382812 554.53125 580.835938 C 554.777344 581.289062 555.0625 581.710938 555.394531 582.105469 L 558.882812 586.394531 C 559.207031 586.792969 559.5625 587.152344 559.957031 587.476562 C 560.351562 587.800781 560.773438 588.082031 561.222656 588.324219 C 561.671875 588.566406 562.140625 588.761719 562.628906 588.910156 C 563.117188 589.058594 563.613281 589.160156 564.121094 589.210938 C 564.628906 589.261719 565.136719 589.261719 565.644531 589.214844 C 566.152344 589.167969 566.648438 589.070312 567.136719 588.921875 C 567.625 588.777344 568.09375 588.582031 568.546875 588.34375 C 568.996094 588.105469 569.421875 587.824219 569.816406 587.503906 C 570.210938 587.179688 570.570312 586.824219 570.898438 586.429688 C 571.222656 586.039062 571.507812 585.617188 571.75 585.167969 C 571.992188 584.71875 572.1875 584.25 572.335938 583.761719 C 572.488281 583.277344 572.589844 582.777344 572.640625 582.269531 C 572.695312 581.761719 572.699219 581.253906 572.652344 580.746094 C 572.605469 580.238281 572.507812 579.742188 572.363281 579.253906 C 572.21875 578.761719 572.027344 578.292969 571.789062 577.839844 C 571.550781 577.390625 571.269531 576.964844 570.949219 576.570312 Z M 567.457031 572.28125 " fill-opacity="1" fill-rule="nonzero"/><path fill="#333333" d="M 630.507812 462.15625 L 621.414062 461.046875 C 620.90625 460.984375 620.398438 460.972656 619.890625 461.007812 C 619.378906 461.046875 618.878906 461.136719 618.386719 461.273438 C 617.894531 461.410156 617.421875 461.59375 616.964844 461.824219 C 616.507812 462.054688 616.078125 462.328125 615.675781 462.640625 C 615.273438 462.957031 614.90625 463.308594 614.574219 463.695312 C 614.238281 464.082031 613.949219 464.5 613.695312 464.941406 C 613.445312 465.386719 613.238281 465.851562 613.082031 466.339844 C 612.921875 466.824219 612.808594 467.320312 612.75 467.828125 C 612.6875 468.335938 612.675781 468.84375 612.710938 469.351562 C 612.75 469.863281 612.839844 470.363281 612.976562 470.855469 C 613.113281 471.347656 613.296875 471.824219 613.527344 472.277344 C 613.757812 472.734375 614.027344 473.164062 614.34375 473.566406 C 614.660156 473.96875 615.011719 474.335938 615.398438 474.671875 C 615.785156 475.003906 616.199219 475.296875 616.644531 475.546875 C 617.089844 475.796875 617.554688 476.003906 618.039062 476.164062 C 618.527344 476.324219 619.023438 476.433594 619.527344 476.496094 L 628.625 477.605469 C 628.941406 477.644531 629.257812 477.664062 629.574219 477.664062 C 630.066406 477.664062 630.550781 477.617188 631.035156 477.523438 C 631.515625 477.429688 631.984375 477.292969 632.4375 477.109375 C 632.894531 476.925781 633.328125 476.703125 633.742188 476.441406 C 634.152344 476.175781 634.539062 475.875 634.894531 475.539062 C 635.25 475.203125 635.574219 474.835938 635.859375 474.4375 C 636.148438 474.039062 636.394531 473.617188 636.601562 473.175781 C 636.808594 472.730469 636.972656 472.269531 637.09375 471.792969 C 637.214844 471.320312 637.289062 470.835938 637.320312 470.347656 C 637.347656 469.859375 637.332031 469.371094 637.269531 468.882812 C 637.207031 468.398438 637.097656 467.921875 636.945312 467.453125 C 636.792969 466.988281 636.597656 466.542969 636.359375 466.113281 C 636.125 465.683594 635.847656 465.28125 635.535156 464.902344 C 635.222656 464.527344 634.875 464.179688 634.496094 463.871094 C 634.117188 463.558594 633.714844 463.285156 633.285156 463.050781 C 632.851562 462.8125 632.40625 462.621094 631.9375 462.472656 C 631.472656 462.320312 630.996094 462.214844 630.507812 462.15625 Z M 630.507812 462.15625 " fill-opacity="1" fill-rule="nonzero"/><path fill="#eafcde" d="M 77.355469 322.933594 C 78.332031 323.105469 79.292969 323.335938 80.246094 323.617188 C 81.195312 323.894531 82.128906 324.230469 83.046875 324.617188 C 83.964844 325 84.863281 325.4375 85.738281 325.925781 C 86.613281 326.410156 87.464844 326.945312 88.289062 327.527344 C 89.117188 328.113281 89.914062 328.738281 90.679688 329.414062 C 91.445312 330.085938 92.179688 330.800781 92.882812 331.558594 C 93.582031 332.316406 94.25 333.113281 94.875 333.949219 C 95.503906 334.78125 96.09375 335.652344 96.644531 336.554688 C 97.195312 337.457031 97.703125 338.390625 98.171875 339.351562 C 98.636719 340.316406 99.058594 341.304688 99.4375 342.320312 C 99.816406 343.332031 100.148438 344.367188 100.433594 345.421875 C 100.71875 346.476562 100.957031 347.546875 101.148438 348.632812 C 101.339844 349.71875 101.484375 350.816406 101.578125 351.921875 C 101.671875 353.027344 101.71875 354.140625 101.714844 355.253906 C 101.714844 356.371094 101.660156 357.484375 101.5625 358.601562 C 101.460938 359.714844 101.3125 360.824219 101.117188 361.929688 C 100.917969 363.03125 100.675781 364.125 100.382812 365.203125 C 100.09375 366.285156 99.753906 367.351562 99.371094 368.398438 C 98.988281 369.445312 98.5625 370.472656 98.089844 371.476562 C 97.621094 372.484375 97.105469 373.460938 96.550781 374.414062 C 95.996094 375.367188 95.402344 376.289062 94.769531 377.179688 C 94.136719 378.070312 93.46875 378.925781 92.761719 379.746094 C 92.058594 380.570312 91.320312 381.351562 90.550781 382.09375 C 89.777344 382.835938 88.980469 383.535156 88.152344 384.191406 C 87.324219 384.847656 86.46875 385.460938 85.589844 386.027344 C 84.710938 386.589844 83.8125 387.109375 82.894531 387.578125 C 81.972656 388.042969 81.039062 388.460938 80.085938 388.828125 C 79.132812 389.195312 78.167969 389.507812 77.191406 389.769531 C 76.214844 390.03125 75.234375 390.242188 74.242188 390.394531 C 73.253906 390.546875 72.261719 390.648438 71.265625 390.691406 C 70.273438 390.738281 69.28125 390.726562 68.289062 390.660156 C 67.300781 390.597656 66.320312 390.476562 65.34375 390.304688 C 64.367188 390.128906 63.40625 389.902344 62.457031 389.621094 C 61.503906 389.339844 60.570312 389.003906 59.652344 388.621094 C 58.734375 388.234375 57.835938 387.796875 56.960938 387.3125 C 56.085938 386.824219 55.234375 386.289062 54.410156 385.707031 C 53.585938 385.125 52.789062 384.496094 52.019531 383.820312 C 51.253906 383.148438 50.519531 382.433594 49.820312 381.675781 C 49.117188 380.917969 48.453125 380.121094 47.824219 379.289062 C 47.195312 378.453125 46.605469 377.585938 46.054688 376.683594 C 45.503906 375.777344 44.996094 374.84375 44.53125 373.882812 C 44.0625 372.917969 43.640625 371.929688 43.265625 370.917969 C 42.886719 369.902344 42.554688 368.867188 42.269531 367.8125 C 41.980469 366.757812 41.742188 365.6875 41.550781 364.601562 C 41.359375 363.515625 41.21875 362.421875 41.121094 361.3125 C 41.027344 360.207031 40.980469 359.097656 40.984375 357.980469 C 40.988281 356.863281 41.039062 355.75 41.140625 354.632812 C 41.238281 353.519531 41.386719 352.410156 41.585938 351.308594 C 41.78125 350.203125 42.023438 349.113281 42.316406 348.03125 C 42.609375 346.949219 42.945312 345.886719 43.328125 344.835938 C 43.710938 343.789062 44.136719 342.761719 44.609375 341.757812 C 45.082031 340.753906 45.59375 339.773438 46.148438 338.820312 C 46.703125 337.867188 47.296875 336.945312 47.929688 336.054688 C 48.5625 335.164062 49.234375 334.308594 49.9375 333.488281 C 50.644531 332.667969 51.382812 331.886719 52.152344 331.144531 C 52.921875 330.402344 53.722656 329.699219 54.550781 329.042969 C 55.378906 328.386719 56.230469 327.773438 57.109375 327.210938 C 57.988281 326.644531 58.886719 326.128906 59.808594 325.660156 C 60.726562 325.191406 61.664062 324.773438 62.617188 324.40625 C 63.570312 324.039062 64.53125 323.726562 65.507812 323.464844 C 66.484375 323.203125 67.46875 322.996094 68.457031 322.839844 C 69.449219 322.6875 70.441406 322.589844 71.433594 322.542969 C 72.429688 322.5 73.421875 322.507812 74.410156 322.574219 C 75.398438 322.640625 76.382812 322.757812 77.355469 322.933594 Z M 77.355469 322.933594 " fill-opacity="1" fill-rule="nonzero"/></svg>