<svg xmlns="http://www.w3.org/2000/svg" xmlns:xlink="http://www.w3.org/1999/xlink" width="1024" zoomAndPan="magnify" viewBox="0 0 768 767.999994" height="1024" preserveAspectRatio="xMidYMid meet" version="1.0"><path fill="#e6224b" d="M 558.394531 433.675781 C 558.394531 588.152344 532.550781 713.378906 455.460938 713.378906 C 378.371094 713.378906 352.527344 588.152344 352.527344 433.675781 C 352.527344 279.203125 263.140625 144.234375 455.867188 144.234375 C 648.59375 144.234375 558.394531 279.203125 558.394531 433.675781 Z M 558.394531 433.675781 " fill-opacity="1" fill-rule="nonzero"/><path fill="#e6224b" d="M 434.566406 433.675781 C 434.566406 588.152344 408.726562 713.378906 331.636719 713.378906 C 254.542969 713.378906 228.703125 588.152344 228.703125 433.675781 C 228.703125 279.203125 139.316406 144.234375 332.042969 144.234375 C 524.769531 144.234375 434.566406 279.203125 434.566406 433.675781 Z M 434.566406 433.675781 " fill-opacity="1" fill-rule="nonzero"/><path fill="#00844f" d="M 458.574219 40.242188 C 454.597656 47.203125 425.5625 75.425781 418.789062 91.960938 C 397.726562 143.410156 408.972656 158.601562 408.972656 158.601562 C 408.972656 158.601562 487.210938 172.246094 487.21875 199.640625 C 487.222656 231.332031 449.644531 206.671875 449.644531 206.671875 L 412.773438 256.84375 C 412.773438 256.84375 363.378906 226.214844 337.363281 219.933594 C 311.722656 213.746094 285.148438 200.199219 316.976562 179.421875 C 337.578125 165.976562 380.273438 159.523438 380.273438 159.523438 C 380.273438 159.523438 378.792969 109.703125 384.320312 70.390625 C 389.773438 31.613281 398.898438 0.0078125 408.496094 0.457031 C 424.46875 1.207031 466.507812 26.359375 458.574219 40.242188 Z M 458.574219 40.242188 " fill-opacity="1" fill-rule="nonzero"/><path fill="#e6224b" d="M 400.800781 485.574219 C 400.800781 641.527344 370.996094 767.953125 282.074219 767.953125 C 193.15625 767.953125 176.769531 597.242188 171.898438 524.964844 C 164.542969 415.871094 24.992188 187.882812 282.542969 193.359375 C 504.792969 198.085938 400.800781 329.617188 400.800781 485.574219 Z M 400.800781 485.574219 " fill-opacity="1" fill-rule="nonzero"/><path fill="#e6224b" d="M 611.929688 522.976562 C 611.492188 653.363281 586.394531 767.953125 497.472656 767.953125 C 408.554688 767.953125 378.746094 641.527344 378.746094 485.574219 C 378.746094 329.617188 273.6875 231.050781 494.753906 207.660156 C 743.039062 181.390625 612.242188 429.414062 611.929688 522.976562 Z M 611.929688 522.976562 " fill-opacity="1" fill-rule="nonzero"/><path fill="#e6224b" d="M 511.375 485.574219 C 511.375 641.527344 481.566406 767.953125 392.648438 767.953125 C 303.730469 767.953125 273.921875 641.527344 273.921875 485.574219 C 273.921875 329.617188 170.816406 193.359375 393.117188 193.359375 C 615.417969 193.359375 511.375 329.617188 511.375 485.574219 Z M 511.375 485.574219 " fill-opacity="1" fill-rule="nonzero"/><path fill="#1b1464" d="M 450.515625 748.164062 C 450.105469 748.164062 449.703125 748.105469 449.3125 747.984375 C 448.921875 747.867188 448.554688 747.691406 448.214844 747.464844 C 447.871094 747.234375 447.574219 746.960938 447.3125 746.644531 C 447.054688 746.328125 446.847656 745.976562 446.691406 745.597656 C 446.535156 745.21875 446.441406 744.824219 446.402344 744.417969 C 446.363281 744.007812 446.386719 743.601562 446.46875 743.203125 C 446.550781 742.800781 446.691406 742.417969 446.886719 742.058594 C 447.082031 741.699219 447.328125 741.375 447.617188 741.085938 C 468.125 720.921875 483.597656 687.175781 493.605469 640.792969 C 502.65625 598.855469 507.242188 546.632812 507.242188 485.570312 C 507.242188 444.1875 514.589844 403.714844 521.066406 368.007812 C 531.417969 310.957031 540.359375 261.6875 515.46875 231.878906 C 506.074219 220.621094 492.324219 212.394531 473.433594 206.71875 C 452.761719 200.507812 426.488281 197.492188 393.117188 197.492188 C 359.695312 197.492188 333.378906 200.519531 312.652344 206.746094 C 293.710938 212.4375 279.910156 220.691406 270.464844 231.976562 C 245.414062 261.902344 254.257812 311.347656 264.496094 368.601562 C 270.851562 404.136719 278.054688 444.414062 278.054688 485.570312 C 278.054688 545.171875 282.425781 596.390625 291.054688 637.796875 C 300.582031 683.53125 315.316406 717.304688 334.84375 738.179688 C 335.027344 738.378906 335.191406 738.59375 335.335938 738.824219 C 335.480469 739.054688 335.597656 739.296875 335.691406 739.550781 C 335.789062 739.804688 335.855469 740.0625 335.902344 740.332031 C 335.945312 740.597656 335.960938 740.867188 335.953125 741.140625 C 335.945312 741.410156 335.910156 741.675781 335.847656 741.941406 C 335.785156 742.207031 335.699219 742.460938 335.585938 742.707031 C 335.472656 742.953125 335.339844 743.1875 335.179688 743.410156 C 335.023438 743.628906 334.84375 743.832031 334.644531 744.015625 C 334.449219 744.203125 334.234375 744.367188 334.003906 744.507812 C 333.773438 744.652344 333.53125 744.769531 333.277344 744.867188 C 333.023438 744.960938 332.761719 745.03125 332.496094 745.074219 C 332.226562 745.121094 331.960938 745.136719 331.6875 745.128906 C 331.417969 745.121094 331.148438 745.085938 330.886719 745.023438 C 330.621094 744.960938 330.367188 744.875 330.121094 744.761719 C 329.871094 744.652344 329.636719 744.515625 329.417969 744.359375 C 329.199219 744.203125 328.996094 744.023438 328.808594 743.824219 C 308.230469 721.828125 292.808594 686.722656 282.964844 639.484375 C 274.222656 597.523438 269.789062 545.738281 269.789062 485.570312 C 269.789062 445.148438 262.65625 405.253906 256.359375 370.054688 C 245.757812 310.765625 236.601562 259.558594 264.125 226.675781 C 285.511719 201.125 326.5 189.226562 393.117188 189.226562 C 459.644531 189.226562 500.539062 201.097656 521.816406 226.582031 C 549.179688 259.359375 539.921875 310.394531 529.199219 369.484375 C 522.78125 404.847656 515.507812 444.933594 515.507812 485.570312 C 515.507812 547.21875 510.855469 600.027344 501.683594 642.535156 C 491.328125 690.523438 475.089844 725.664062 453.414062 746.980469 C 452.609375 747.769531 451.644531 748.167969 450.515625 748.164062 Z M 450.515625 748.164062 " fill-opacity="1" fill-rule="nonzero"/><path fill="#1b1464" d="M 329.613281 202.542969 C 329.28125 202.542969 328.949219 202.503906 328.625 202.421875 C 310.851562 198.050781 294.660156 197.492188 282.542969 197.492188 C 259.660156 197.492188 239.460938 199.164062 222.5 202.464844 C 222.234375 202.519531 221.96875 202.542969 221.695312 202.539062 C 221.425781 202.539062 221.15625 202.511719 220.894531 202.457031 C 220.628906 202.402344 220.371094 202.320312 220.121094 202.214844 C 219.871094 202.109375 219.632812 201.984375 219.410156 201.832031 C 219.1875 201.679688 218.976562 201.507812 218.789062 201.316406 C 218.597656 201.121094 218.425781 200.914062 218.277344 200.6875 C 218.128906 200.460938 218.003906 200.222656 217.902344 199.972656 C 217.796875 199.722656 217.722656 199.464844 217.667969 199.199219 C 217.617188 198.933594 217.59375 198.664062 217.59375 198.394531 C 217.59375 198.121094 217.621094 197.855469 217.675781 197.589844 C 217.730469 197.324219 217.808594 197.066406 217.914062 196.816406 C 218.015625 196.566406 218.144531 196.328125 218.296875 196.105469 C 218.445312 195.878906 218.617188 195.671875 218.808594 195.480469 C 219 195.289062 219.210938 195.117188 219.433594 194.96875 C 219.660156 194.820312 219.898438 194.691406 220.148438 194.589844 C 220.398438 194.484375 220.65625 194.40625 220.921875 194.355469 C 238.398438 190.953125 259.132812 189.226562 282.542969 189.226562 C 295.128906 189.226562 311.960938 189.816406 330.597656 194.398438 C 331.089844 194.519531 331.542969 194.722656 331.957031 195.007812 C 332.371094 195.296875 332.722656 195.648438 333.011719 196.0625 C 333.296875 196.476562 333.503906 196.929688 333.621094 197.417969 C 333.742188 197.910156 333.773438 198.40625 333.714844 198.90625 C 333.652344 199.40625 333.507812 199.882812 333.273438 200.328125 C 333.039062 200.777344 332.730469 201.167969 332.355469 201.503906 C 331.976562 201.835938 331.550781 202.09375 331.078125 202.273438 C 330.609375 202.453125 330.121094 202.542969 329.613281 202.542969 Z M 329.613281 202.542969 " fill-opacity="1" fill-rule="nonzero"/><path fill="#1b1464" d="M 494.75 211.792969 C 494.246094 211.792969 493.757812 211.703125 493.285156 211.523438 C 492.816406 211.34375 492.390625 211.089844 492.011719 210.753906 C 491.636719 210.417969 491.328125 210.027344 491.09375 209.578125 C 490.859375 209.132812 490.714844 208.660156 490.652344 208.15625 C 490.59375 207.65625 490.621094 207.160156 490.742188 206.671875 C 490.863281 206.179688 491.070312 205.726562 491.355469 205.3125 C 491.644531 204.898438 491.992188 204.546875 492.410156 204.261719 C 492.824219 203.972656 493.277344 203.769531 493.769531 203.648438 C 496.433594 202.992188 499.359375 202.148438 502.457031 201.25 C 518.757812 196.535156 541.082031 190.078125 575.328125 195.726562 C 575.59375 195.769531 575.855469 195.839844 576.109375 195.9375 C 576.363281 196.03125 576.605469 196.152344 576.835938 196.296875 C 577.066406 196.4375 577.277344 196.601562 577.476562 196.789062 C 577.675781 196.972656 577.851562 197.175781 578.011719 197.398438 C 578.167969 197.617188 578.304688 197.851562 578.414062 198.097656 C 578.527344 198.34375 578.613281 198.601562 578.675781 198.863281 C 578.738281 199.128906 578.773438 199.398438 578.78125 199.667969 C 578.789062 199.9375 578.773438 200.207031 578.726562 200.476562 C 578.683594 200.742188 578.613281 201.003906 578.519531 201.257812 C 578.421875 201.511719 578.304688 201.753906 578.160156 201.984375 C 578.015625 202.214844 577.851562 202.429688 577.667969 202.625 C 577.484375 202.824219 577.28125 203.003906 577.058594 203.160156 C 576.839844 203.320312 576.605469 203.453125 576.359375 203.566406 C 576.113281 203.679688 575.855469 203.765625 575.59375 203.828125 C 575.328125 203.886719 575.058594 203.921875 574.789062 203.933594 C 574.519531 203.941406 574.25 203.925781 573.980469 203.878906 C 541.582031 198.535156 520.292969 204.691406 504.75 209.191406 C 501.574219 210.109375 498.570312 210.976562 495.742188 211.675781 C 495.417969 211.753906 495.085938 211.792969 494.75 211.792969 Z M 494.75 211.792969 " fill-opacity="1" fill-rule="nonzero"/><path fill="#1b1464" d="M 444.382812 45.527344 C 439.007812 45.515625 433.761719 44.695312 428.636719 43.078125 C 419.027344 40.011719 406.066406 32.566406 398.898438 14.507812 C 398.796875 14.257812 398.722656 13.996094 398.671875 13.730469 C 398.625 13.464844 398.601562 13.195312 398.605469 12.921875 C 398.609375 12.652344 398.640625 12.382812 398.695312 12.117188 C 398.753906 11.851562 398.835938 11.59375 398.941406 11.34375 C 399.050781 11.097656 399.179688 10.859375 399.335938 10.636719 C 399.488281 10.414062 399.664062 10.207031 399.859375 10.019531 C 400.050781 9.828125 400.261719 9.660156 400.492188 9.511719 C 400.71875 9.367188 400.960938 9.242188 401.210938 9.140625 C 401.464844 9.042969 401.722656 8.96875 401.992188 8.917969 C 402.257812 8.867188 402.527344 8.847656 402.796875 8.851562 C 403.070312 8.855469 403.335938 8.886719 403.601562 8.941406 C 403.867188 9 404.125 9.082031 404.375 9.1875 C 404.625 9.296875 404.859375 9.425781 405.082031 9.582031 C 405.308594 9.734375 405.511719 9.910156 405.703125 10.105469 C 405.890625 10.300781 406.058594 10.511719 406.207031 10.738281 C 406.355469 10.96875 406.476562 11.207031 406.578125 11.460938 C 417.996094 40.222656 446.734375 37.191406 447.023438 37.15625 C 447.292969 37.125 447.5625 37.121094 447.835938 37.140625 C 448.105469 37.164062 448.371094 37.210938 448.632812 37.285156 C 448.894531 37.359375 449.144531 37.457031 449.386719 37.582031 C 449.628906 37.703125 449.855469 37.847656 450.066406 38.015625 C 450.28125 38.183594 450.476562 38.371094 450.652344 38.578125 C 450.828125 38.785156 450.980469 39.007812 451.113281 39.242188 C 451.246094 39.480469 451.355469 39.726562 451.4375 39.984375 C 451.523438 40.246094 451.578125 40.507812 451.613281 40.777344 C 451.644531 41.046875 451.648438 41.316406 451.625 41.585938 C 451.605469 41.859375 451.558594 42.125 451.484375 42.382812 C 451.410156 42.644531 451.3125 42.898438 451.1875 43.140625 C 451.066406 43.378906 450.917969 43.609375 450.75 43.820312 C 450.582031 44.035156 450.394531 44.226562 450.1875 44.402344 C 449.984375 44.582031 449.761719 44.734375 449.523438 44.867188 C 449.289062 45 449.039062 45.105469 448.78125 45.191406 C 448.523438 45.273438 448.261719 45.332031 447.992188 45.363281 C 446.789062 45.484375 445.589844 45.539062 444.382812 45.527344 Z M 444.382812 45.527344 " fill-opacity="1" fill-rule="nonzero"/><path fill="#ffffff" d="M 285.976562 344.746094 C 267.808594 344.503906 264.785156 291.214844 265.253906 282.765625 C 265.796875 272.953125 268.804688 245.875 285.003906 247.042969 C 304.308594 248.4375 284.160156 263.003906 288.648438 300.871094 C 291.390625 323.992188 296.3125 344.878906 285.976562 344.746094 Z M 285.976562 344.746094 " fill-opacity="1" fill-rule="nonzero"/><path fill="#ffffff" d="M 279.371094 352.859375 C 275.898438 357.914062 279.671875 374.339844 284.894531 377.558594 C 285.664062 378.007812 286.484375 378.332031 287.359375 378.527344 C 288.230469 378.71875 289.109375 378.777344 289.996094 378.695312 C 290.886719 378.613281 291.742188 378.398438 292.5625 378.050781 C 293.386719 377.703125 294.132812 377.238281 294.8125 376.65625 C 299.679688 372.320312 298.25 355.855469 293.160156 351.777344 C 289.691406 349 281.886719 349.195312 279.371094 352.859375 Z M 279.371094 352.859375 " fill-opacity="1" fill-rule="nonzero"/><path fill="#ffffff" d="M 429.5625 735.785156 C 441.875 741.792969 453.183594 711.679688 456.359375 704.011719 C 460.050781 695.109375 465.371094 664.660156 458.707031 664.109375 C 454.375 663.753906 454.625 682.671875 438.84375 706.476562 C 426.277344 725.433594 422.558594 732.371094 429.5625 735.785156 Z M 429.5625 735.785156 " fill-opacity="1" fill-rule="nonzero"/></svg>