<svg xmlns="http://www.w3.org/2000/svg" xmlns:xlink="http://www.w3.org/1999/xlink" width="1024" zoomAndPan="magnify" viewBox="0 0 768 767.999994" height="1024" preserveAspectRatio="xMidYMid meet" version="1.0"><path fill="#71d171" d="M 374.695312 438.804688 C 355.367188 373.8125 315.777344 314.996094 262.875 272.589844 C 261.203125 271.253906 262.289062 268.574219 264.417969 268.78125 C 264.457031 268.785156 264.496094 268.789062 264.535156 268.789062 C 266.378906 268.96875 267.574219 266.894531 266.488281 265.394531 L 238.609375 226.90625 C 237.511719 225.394531 238.738281 223.300781 240.59375 223.515625 L 265.179688 226.347656 C 267.222656 226.582031 268.40625 224.078125 266.910156 222.664062 C 256.914062 213.253906 247.996094 202.699219 240.390625 191.269531 C 239.382812 189.757812 240.589844 187.753906 242.398438 187.933594 L 265.554688 190.292969 C 267.410156 190.484375 268.609375 188.371094 267.492188 186.878906 L 247.707031 160.257812 C 247.320312 159.734375 247.027344 159.144531 246.882812 158.511719 C 243.976562 145.613281 255.660156 144.328125 261.386719 149.046875 C 263.074219 150.4375 264.375 152.171875 265.445312 154.074219 C 266.472656 155.910156 269.277344 155.253906 269.4375 153.148438 C 269.863281 147.476562 270.292969 141.796875 270.71875 136.121094 C 270.851562 134.390625 272.875 133.523438 274.21875 134.621094 L 296.179688 152.625 C 297.199219 153.460938 298.722656 153.1875 299.390625 152.054688 L 308.449219 136.664062 C 309.375 135.089844 311.714844 135.3125 312.320312 137.039062 L 319.058594 156.070312 C 319.722656 157.953125 322.351562 157.976562 323.085938 156.117188 C 325.28125 150.527344 329.996094 145.871094 335.703125 144.035156 C 336.910156 143.640625 338.195312 144.359375 338.472656 145.597656 L 343.960938 169.648438 C 344.359375 171.378906 346.570312 171.910156 347.707031 170.539062 L 359.261719 156.644531 C 360.335938 155.355469 362.410156 155.738281 362.945312 157.328125 L 384.277344 220.355469 C 384.996094 222.480469 388.085938 222.210938 388.4375 219.996094 C 396.355469 169.808594 386.613281 117.667969 358.703125 75.320312 C 357.546875 73.5625 359.300781 71.359375 361.261719 72.121094 L 371.777344 76.207031 C 373.746094 76.972656 375.53125 74.722656 374.320312 72.992188 C 367.570312 63.347656 362.546875 52.492188 359.578125 41.101562 C 359.109375 39.304688 361.023438 37.820312 362.660156 38.683594 L 372.601562 43.921875 C 374.402344 44.871094 376.359375 43.035156 375.570312 41.160156 C 373.113281 35.386719 371.710938 29.160156 371.476562 22.890625 C 371.433594 21.75 372.269531 20.753906 373.410156 20.636719 C 379.402344 20.011719 385.578125 21.335938 390.835938 24.277344 C 392.539062 25.226562 394.488281 23.621094 393.921875 21.753906 C 392.023438 15.46875 391.824219 8.652344 393.40625 2.277344 C 393.828125 0.578125 396.03125 0.0664062 397.144531 1.417969 C 402.09375 7.402344 406.183594 14.089844 409.25 21.21875 C 410.054688 23.085938 412.765625 22.90625 413.285156 20.9375 C 415.234375 13.558594 419.144531 6.695312 424.53125 1.28125 C 425.796875 0.0117188 427.984375 0.820312 428.164062 2.605469 L 430.121094 21.972656 C 430.328125 24.015625 432.976562 24.617188 434.078125 22.890625 C 437.609375 17.339844 442.820312 12.847656 448.851562 10.238281 C 450.296875 9.613281 451.894531 10.714844 451.84375 12.285156 L 451.375 26.285156 C 451.324219 27.789062 452.792969 28.875 454.214844 28.386719 L 458.34375 26.976562 C 459.851562 26.460938 461.378906 27.714844 461.164062 29.296875 L 457.800781 54.144531 C 457.460938 56.695312 461.074219 57.582031 461.945312 55.164062 L 475.183594 18.644531 C 475.871094 16.757812 478.53125 16.757812 479.21875 18.640625 L 482.101562 26.523438 C 482.792969 28.421875 485.480469 28.398438 486.144531 26.492188 L 487.976562 21.207031 C 488.65625 19.242188 491.449219 19.292969 492.058594 21.277344 L 496.488281 35.707031 C 497.023438 37.457031 499.363281 37.777344 500.347656 36.234375 L 515.277344 12.886719 C 516.496094 10.980469 519.457031 12.019531 519.222656 14.269531 L 516.71875 38.136719 C 516.550781 39.71875 518.097656 40.875 519.601562 40.351562 C 523.292969 39.054688 527.324219 38.742188 531.175781 39.441406 C 532.867188 39.753906 533.566406 41.785156 532.386719 43.039062 L 521.417969 54.652344 C 520.226562 55.914062 520.949219 58 522.667969 58.25 L 533.019531 59.765625 C 535.066406 60.066406 535.53125 62.777344 533.722656 63.777344 C 522.109375 70.21875 512.179688 79.683594 505.167969 90.964844 C 503.96875 92.894531 506.222656 95.085938 508.152344 93.898438 C 520.976562 85.964844 535.210938 80.3125 549.984375 77.300781 C 551.746094 76.941406 553.148438 78.800781 552.316406 80.402344 L 547.234375 90.214844 C 546.484375 91.660156 547.554688 93.386719 549.179688 93.339844 C 556.433594 93.152344 563.730469 94.753906 570.234375 97.96875 C 571.660156 98.671875 571.886719 100.609375 570.640625 101.59375 L 550.109375 117.796875 C 548.546875 119.035156 549.359375 121.5625 551.351562 121.625 C 556.042969 121.765625 560.707031 122.792969 565.019531 124.640625 C 566.652344 125.339844 566.75 127.628906 565.195312 128.488281 L 529.308594 148.386719 C 509.101562 159.585938 488.558594 171.046875 472.644531 187.789062 C 457.714844 203.496094 447.242188 224.851562 448.917969 246.277344 C 449.058594 248.066406 451.175781 248.917969 452.507812 247.714844 C 477.507812 225.21875 503.671875 206.765625 532.75 189.882812 C 534.328125 188.960938 536.265625 190.328125 535.9375 192.128906 L 532.652344 210.019531 C 532.308594 211.910156 534.429688 213.277344 535.992188 212.160156 C 544.820312 205.890625 554.667969 201.0625 565.03125 197.925781 C 566.992188 197.332031 568.59375 199.5625 567.40625 201.234375 L 545.9375 231.300781 C 544.894531 232.757812 545.992188 234.777344 547.785156 234.691406 L 581.855469 233.085938 C 584.140625 232.976562 584.988281 236.054688 582.960938 237.117188 C 577.902344 239.765625 573.269531 243.226562 569.300781 247.339844 C 567.832031 248.863281 569.226562 251.375 571.296875 250.9375 L 609.054688 242.9375 C 611.023438 242.519531 612.429688 244.804688 611.179688 246.386719 C 604.886719 254.335938 597.285156 261.257812 588.792969 266.792969 C 587.050781 267.925781 587.765625 270.632812 589.84375 270.722656 C 595.394531 270.96875 600.898438 272.359375 605.886719 274.804688 C 607.53125 275.609375 607.425781 278.019531 605.722656 278.703125 C 596.515625 282.40625 586.761719 284.753906 576.878906 285.652344 C 575.101562 285.816406 574.246094 287.925781 575.457031 289.230469 C 578.96875 293.015625 581.710938 297.515625 583.453125 302.371094 C 583.992188 303.871094 582.78125 305.425781 581.191406 305.246094 L 559.167969 302.792969 C 557.523438 302.609375 556.304688 304.269531 556.957031 305.78125 L 563.820312 321.585938 C 564.582031 323.347656 562.820312 325.160156 561.046875 324.425781 C 552.992188 321.085938 544.484375 318.839844 535.832031 317.761719 C 534.113281 317.542969 532.863281 319.363281 533.667969 320.894531 L 538.386719 329.90625 C 539.34375 331.726562 537.449219 333.699219 535.585938 332.84375 C 524.535156 327.753906 511.308594 327.613281 499.449219 330.902344 C 485.277344 334.839844 472.738281 343.164062 461.105469 352.167969 C 427.996094 377.804688 399.25 403.308594 378.601562 439.246094 C 377.664062 440.878906 375.230469 440.605469 374.695312 438.804688 " fill-opacity="1" fill-rule="nonzero"/><path fill="#71d171" d="M 363.210938 525.359375 C 364.582031 525.382812 365.59375 524.070312 365.21875 522.746094 C 360.589844 506.222656 348.230469 492.65625 334.492188 482.203125 C 320.011719 471.191406 303.671875 462.835938 289.03125 452.039062 C 275.566406 442.105469 263.21875 429.445312 257.617188 413.8125 C 257.050781 412.230469 254.902344 411.953125 253.96875 413.355469 C 247.152344 423.550781 238.140625 432.269531 227.71875 438.738281 C 226.582031 439.445312 225.085938 438.902344 224.664062 437.628906 C 222.351562 430.648438 219.859375 424.007812 217.535156 417.054688 C 217.050781 415.59375 215.207031 415.148438 214.121094 416.238281 L 200.628906 429.746094 C 199.386719 430.984375 197.230469 430.203125 197.121094 428.449219 C 196.617188 420.617188 193.71875 412.933594 188.886719 406.738281 C 188.035156 405.652344 186.363281 405.726562 185.570312 406.855469 C 180.75 413.746094 177.011719 421.386719 174.523438 429.421875 C 173.957031 431.253906 171.394531 431.347656 170.667969 429.570312 C 169.214844 426.023438 167.390625 422.625 165.230469 419.457031 C 164.242188 418.007812 162.011719 418.390625 161.542969 420.082031 C 160.410156 424.144531 158.316406 429.738281 157.078125 432.574219 C 156.65625 433.53125 155.578125 434.023438 154.578125 433.710938 C 142.097656 429.84375 130.226562 425.398438 117.445312 422.78125 C 115.46875 422.375 114.136719 424.753906 115.527344 426.21875 C 121.882812 432.9375 128.949219 439.773438 134.175781 447.15625 C 135.128906 448.503906 134.15625 450.371094 132.507812 450.386719 C 126.460938 450.445312 114.578125 449.625 108.292969 449.109375 C 106.59375 448.96875 105.464844 450.847656 106.390625 452.28125 C 112.203125 461.261719 119.410156 469.335938 127.675781 476.132812 C 129.097656 477.300781 128.347656 479.609375 126.511719 479.761719 L 81.238281 483.359375 C 79.351562 483.507812 78.664062 485.894531 80.15625 487.054688 C 86.660156 492.113281 93.839844 496.304688 101.449219 499.476562 C 103.148438 500.183594 103.113281 502.617188 101.394531 503.28125 C 93.238281 506.402344 85.472656 510.539062 78.335938 515.566406 C 76.90625 516.570312 77.320312 518.800781 79.007812 519.246094 L 100.742188 524.949219 C 102.492188 525.410156 102.839844 527.738281 101.300781 528.695312 L 81.230469 541.121094 C 79.554688 542.152344 80.148438 544.726562 82.113281 544.917969 L 100.269531 546.703125 C 102.03125 546.875 102.769531 549.046875 101.46875 550.25 C 93.460938 557.652344 88.972656 568.8125 89.726562 579.699219 C 89.828125 581.175781 91.367188 582.078125 92.695312 581.429688 C 99.78125 577.953125 107.617188 576.019531 115.507812 575.785156 C 116.914062 575.75 117.921875 577.101562 117.527344 578.453125 C 115.503906 585.390625 115.433594 592.894531 117.285156 599.882812 C 117.8125 601.882812 120.613281 601.933594 121.242188 599.96875 C 125.597656 586.34375 137.25 575.109375 151.132812 571.558594 C 152.46875 571.214844 153.757812 572.300781 153.667969 573.675781 C 152.878906 585.488281 153.976562 597.421875 156.90625 608.890625 C 157.351562 610.636719 159.679688 610.984375 160.636719 609.460938 C 165.582031 601.566406 172.242188 594.742188 180.019531 589.609375 C 181.371094 588.71875 183.179688 589.703125 183.199219 591.320312 L 183.597656 624.269531 C 183.601562 624.734375 183.753906 625.1875 184.054688 625.539062 C 188.078125 630.242188 191.371094 626.964844 193.585938 624.136719 C 200.191406 615.710938 206.792969 607.285156 213.398438 598.863281 C 214.265625 597.757812 215.957031 597.820312 216.734375 598.992188 L 234.027344 625.054688 C 234.953125 626.449219 237.058594 626.21875 237.65625 624.664062 C 242.722656 611.523438 249.621094 599.097656 258.085938 587.84375 C 259.296875 586.242188 261.867188 587.140625 261.792969 589.148438 C 261.539062 595.714844 262.773438 602.347656 265.382812 608.378906 C 266.191406 610.253906 268.953125 609.871094 269.28125 607.859375 C 272.804688 586.242188 284.066406 565.925781 300.65625 551.601562 C 318.1875 536.472656 340.164062 525.003906 363.210938 525.359375 " fill-opacity="1" fill-rule="nonzero"/><path fill="#71d171" d="M 467.707031 412.765625 L 468.347656 419.773438 C 468.53125 421.847656 470.957031 422.878906 472.582031 421.582031 L 497.207031 401.964844 C 498.542969 400.902344 500.546875 401.367188 501.226562 402.929688 C 503.125 407.28125 504.355469 411.921875 504.867188 416.640625 C 505.0625 418.484375 507.097656 419.523438 508.726562 418.628906 C 520.21875 412.3125 530.761719 404.273438 539.898438 394.863281 C 541.46875 393.246094 544.21875 394.269531 544.371094 396.519531 L 544.957031 405.015625 C 545.105469 407.15625 547.628906 408.21875 549.265625 406.824219 L 573.351562 386.300781 C 575.113281 384.796875 577.8125 386.152344 577.664062 388.460938 L 576.613281 404.664062 C 576.488281 406.59375 578.421875 407.984375 580.207031 407.261719 L 606.34375 396.683594 C 608.0625 395.988281 609.964844 397.246094 609.941406 399.097656 C 609.839844 407.707031 607.972656 416.292969 604.5 424.171875 C 603.648438 426.105469 605.296875 428.199219 607.367188 427.808594 L 619.714844 425.492188 C 622.265625 425.011719 623.851562 428.117188 622.011719 429.945312 C 620.183594 431.761719 618.484375 433.710938 616.933594 435.769531 C 615.605469 437.527344 616.902344 440.0625 619.101562 439.964844 C 625.046875 439.707031 631.042969 440.550781 636.691406 442.441406 C 638.574219 443.070312 639.097656 445.492188 637.644531 446.84375 L 627.015625 456.746094 C 625.234375 458.402344 626.480469 461.375 628.914062 461.265625 C 639.15625 460.800781 649.453125 461.363281 659.582031 462.953125 C 661.578125 463.265625 662.503906 465.652344 661.210938 467.207031 C 655.746094 473.765625 649.355469 479.558594 642.285156 484.351562 C 641.011719 485.207031 640.769531 486.980469 641.746094 488.164062 L 659.300781 509.441406 C 660.75 511.199219 659.417969 513.851562 657.144531 513.714844 C 651.835938 513.386719 646.449219 514.25 641.523438 516.25 C 640.429688 516.695312 639.75 517.804688 639.878906 518.976562 C 641.328125 532.015625 644.078125 544.90625 648.082031 557.394531 C 648.738281 559.453125 646.792969 561.351562 644.742188 560.667969 C 635.152344 557.476562 624.734375 556.769531 614.804688 558.667969 C 613.261719 558.964844 612.328125 560.550781 612.808594 562.046875 L 622.738281 593.148438 C 623.261719 594.800781 622.070312 596.503906 620.339844 596.570312 C 604.46875 597.152344 588.566406 596.90625 572.722656 595.832031 C 570.898438 595.710938 569.515625 597.425781 570.027344 599.171875 L 576.945312 622.746094 C 577.585938 624.917969 575.34375 626.835938 573.308594 625.84375 C 553.777344 616.296875 529.171875 620.460938 507.820312 614.195312 C 494.773438 610.367188 483.234375 602.703125 471.925781 595.152344 C 449.035156 579.863281 423.683594 567.410156 400.796875 552.121094 C 395.191406 548.378906 379.253906 546.375 373.011719 544.023438 C 366.925781 541.730469 369.628906 540.015625 373.996094 535.554688 C 382.734375 526.632812 404.367188 514.429688 412.179688 504.667969 C 428.042969 484.839844 441.398438 463.003906 451.8125 439.835938 C 455.875 430.796875 459.484375 421.554688 462.625 412.15625 C 463.519531 409.480469 467.449219 409.949219 467.707031 412.765625 " fill-opacity="1" fill-rule="nonzero"/><path fill="#638b5a" d="M 551.066406 524.003906 C 548.910156 521.316406 546.148438 519.175781 543.40625 517.117188 C 540.800781 515.164062 538.027344 513.464844 535.160156 511.929688 C 529.148438 508.707031 522.703125 506.289062 516.113281 504.550781 C 502.742188 501.027344 488.722656 500.371094 475.003906 501.761719 C 459.101562 503.378906 443.605469 507.417969 428.429688 512.335938 C 420.824219 514.804688 413.289062 517.476562 405.753906 520.160156 C 399.96875 522.222656 394.210938 524.425781 388.675781 527.101562 C 383.265625 529.714844 378.097656 532.84375 373.539062 536.777344 C 373.160156 537.101562 372.792969 537.445312 372.421875 537.789062 C 374.183594 521.105469 376.050781 504.433594 377.882812 487.765625 C 381.4375 455.355469 379.597656 420.253906 384.148438 387.964844 C 388.710938 355.566406 396.933594 304.726562 405.566406 271.703125 C 406.578125 267.820312 420.949219 207.441406 421.644531 203.484375 C 422.144531 200.628906 419.40625 199.507812 418.644531 202.414062 C 414.503906 218.183594 390.71875 309.953125 387.78125 325.988281 C 384.808594 342.230469 382.09375 358.515625 379.65625 374.84375 C 374.804688 407.347656 376.296875 442.695312 372.414062 475.324219 C 370.234375 493.683594 368.042969 512.042969 365.984375 530.414062 C 357.957031 514.792969 343.9375 502.175781 328.066406 494.929688 C 315.039062 488.984375 300.875 486.117188 286.601562 485.5625 C 271.972656 484.988281 257.335938 487.070312 243.089844 490.285156 C 234.765625 492.167969 226.546875 494.496094 218.40625 497.050781 C 210.253906 499.613281 202.066406 502.207031 194.15625 505.445312 C 193.066406 505.890625 192.292969 506.898438 192.632812 508.128906 C 192.945312 509.273438 194.171875 509.957031 195.3125 509.652344 C 202.535156 507.71875 209.589844 505.230469 216.734375 503.039062 C 223.875 500.84375 231.0625 498.785156 238.320312 497.027344 C 252.113281 493.683594 266.058594 491.632812 280.265625 491.59375 C 293.867188 491.554688 307.476562 493.558594 320.21875 498.433594 C 331.238281 502.65625 340.992188 509.09375 349.003906 517.550781 C 356.257812 525.195312 361.6875 534.25 364.453125 544.394531 C 364.671875 545.195312 364.238281 546.738281 364.179688 547.617188 C 364.09375 548.792969 364.023438 549.972656 363.9375 551.152344 C 363.695312 554.546875 362.980469 557.894531 362.695312 561.277344 C 362.394531 564.878906 361.976562 568.476562 361.632812 572.074219 C 358.59375 604.035156 356.460938 636.132812 356.792969 668.25 C 357.125 699.96875 359.953125 731.757812 366.578125 762.808594 C 367.425781 766.773438 368.367188 770.71875 369.355469 774.652344 C 370.574219 779.515625 378.050781 777.457031 376.867188 772.578125 C 369.40625 741.890625 365.691406 710.539062 364.722656 678.996094 C 363.746094 647.074219 365.335938 615.140625 368.019531 583.339844 C 368.445312 578.351562 368.886719 573.371094 369.355469 568.390625 C 369.804688 563.546875 370.644531 558.589844 370.726562 553.734375 C 370.796875 549.777344 373.269531 546.804688 375.914062 544.117188 C 376.886719 543.132812 377.914062 542.195312 378.976562 541.304688 C 379.226562 541.101562 379.472656 540.894531 379.726562 540.695312 C 379.804688 540.628906 380.046875 540.441406 380.148438 540.363281 C 380.726562 539.929688 381.308594 539.503906 381.894531 539.09375 C 384.226562 537.46875 386.675781 536.019531 389.1875 534.695312 C 391.726562 533.355469 394.332031 532.148438 396.96875 531.019531 C 397.117188 530.957031 397.378906 530.847656 397.457031 530.8125 C 397.773438 530.683594 398.089844 530.554688 398.402344 530.425781 C 399.136719 530.128906 399.875 529.835938 400.613281 529.550781 C 401.921875 529.042969 403.234375 528.546875 404.554688 528.066406 C 411.523438 525.519531 418.542969 523.082031 425.582031 520.730469 C 440.179688 515.859375 455.085938 511.519531 470.371094 509.460938 C 476.855469 508.585938 483.910156 508.128906 490.65625 508.28125 C 493.902344 508.355469 497.144531 508.554688 500.375 508.902344 C 501.199219 508.988281 502.023438 509.089844 502.84375 509.191406 C 502.871094 509.195312 502.886719 509.199219 502.910156 509.199219 C 503.074219 509.226562 503.238281 509.246094 503.398438 509.269531 C 503.839844 509.332031 504.28125 509.394531 504.722656 509.460938 C 506.355469 509.699219 507.984375 509.976562 509.609375 510.292969 C 512.773438 510.910156 515.910156 511.671875 518.996094 512.597656 C 522.035156 513.511719 525.46875 514.785156 528.03125 515.839844 C 528.125 515.878906 528.691406 516.117188 528.667969 516.105469 C 528.996094 516.246094 529.320312 516.390625 529.648438 516.535156 C 530.453125 516.890625 531.246094 517.261719 532.035156 517.644531 C 533.441406 518.328125 534.824219 519.050781 536.1875 519.816406 C 538.964844 521.375 541.695312 523.019531 544.289062 524.859375 C 545.621094 525.796875 546.914062 526.726562 548.289062 527.601562 C 549.246094 528.207031 550.589844 527.886719 551.246094 527.011719 C 551.980469 526.03125 551.804688 524.917969 551.066406 524.003906 " fill-opacity="1" fill-rule="nonzero"/><path stroke-linecap="round" transform="matrix(0.0380288, 0, 0, -0.0380288, -97.928385, 852.605306)" fill="none" stroke-linejoin="round" d="M 17065.882099 8640.859401 C 17009.181632 8711.529549 16936.559837 8767.819144 16864.451633 8821.951656 C 16795.938568 8873.310775 16723.008618 8917.993209 16647.613431 8958.361477 C 16489.530062 9043.104024 16320.044967 9106.686614 16146.759299 9152.39623 C 15795.154767 9245.048082 15426.499008 9262.304746 15065.752553 9225.737053 C 14647.586603 9183.211702 14240.10335 9077.001043 13841.042992 8947.67878 C 13641.050581 8882.863571 13442.907098 8812.501578 13244.763616 8741.934148 C 13092.637904 8687.698918 12941.23122 8629.765831 12795.679476 8559.403837 C 12653.414715 8490.685336 12517.518485 8408.408026 12397.6463 8304.97076 C 12387.682631 8296.445146 12378.027117 8287.405941 12368.268884 8278.366736 C 12414.59481 8717.076334 12463.694128 9155.477777 12511.868982 9593.776502 C 12605.342579 10446.02973 12556.962289 11369.055824 12676.629037 12218.124786 C 12796.60394 13070.069858 13012.825832 14406.947737 13239.83314 15275.327728 C 13266.437164 15377.429657 13644.337565 16965.145474 13662.621411 17069.19905 C 13675.769346 17144.286083 13603.76386 17173.766217 13583.733804 17097.343848 C 13474.852471 16682.670317 12849.401114 14269.510733 12772.156999 13847.852363 C 12693.988419 13420.749926 12622.599243 12992.517588 12558.503062 12563.15535 C 12430.92701 11708.436885 12470.165377 10778.939542 12368.063447 9920.934093 C 12310.74667 9438.158371 12253.121738 8955.382648 12198.989226 8472.298771 C 11987.903246 8883.069008 11619.247486 9214.848919 11201.903282 9405.391252 C 10859.337956 9561.728412 10486.881622 9637.123599 10111.651895 9651.709589 C 9726.869373 9666.80917 9341.984132 9612.060349 8967.370715 9527.523238 C 8748.478148 9478.013047 8532.358974 9416.792977 8318.294164 9349.615249 C 8103.9212 9282.232084 7888.623771 9214.027173 7680.619337 9128.873753 C 7651.960949 9117.163874 7631.622737 9090.662569 7640.559224 9058.306323 C 7648.776683 9028.209879 7681.03021 9010.234188 7711.023936 9018.24621 C 7900.94996 9069.091738 8086.459099 9134.523257 8274.330758 9192.148189 C 8462.099698 9249.875839 8651.101258 9304.008351 8841.951745 9350.231558 C 9204.649847 9438.158371 9571.353959 9492.085446 9944.940194 9493.112628 C 10302.605101 9494.139811 10660.475445 9441.445354 10995.54234 9313.252992 C 11285.310492 9202.214576 11541.797934 9032.934918 11752.473042 8810.549931 C 11943.220812 8609.530338 12085.999164 8371.42946 12158.723677 8104.670194 C 12164.475898 8083.612955 12153.074174 8043.039251 12151.5334 8019.927647 C 12149.273599 7989.009457 12147.42467 7957.988549 12145.164869 7926.967641 C 12138.796338 7837.705492 12119.998901 7749.675961 12112.500469 7660.721966 C 12104.591165 7566.01575 12093.600313 7471.412252 12084.561108 7376.808754 C 12004.646318 6536.368124 11948.56216 5692.332356 11957.29321 4847.782996 C 11966.024261 4013.710897 12040.392266 3177.78987 12214.602399 2361.282589 C 12236.892256 2257.023577 12261.647352 2153.278156 12287.635066 2049.840889 C 12319.683157 1921.956682 12516.285866 1976.089194 12485.16224 2104.384274 C 12288.970403 2911.338758 12191.285358 3735.755343 12165.811235 4565.205121 C 12140.131675 5404.618569 12181.937999 6244.340171 12252.505429 7080.569353 C 12263.701717 7211.740544 12275.308878 7342.706299 12287.635066 7473.672053 C 12299.447664 7601.042669 12321.532085 7731.392114 12323.689168 7859.070885 C 12325.538097 7963.124461 12390.558742 8041.293041 12460.098989 8111.963189 C 12485.675831 8137.848185 12512.690728 8162.500563 12540.630089 8185.920321 C 12547.204056 8191.26167 12553.675305 8196.705736 12560.35199 8201.944366 C 12562.406355 8203.690576 12568.774886 8208.621052 12571.44556 8210.675417 C 12586.64786 8222.077141 12601.952877 8233.273429 12617.360613 8244.058844 C 12678.683402 8286.789632 12743.087737 8324.898098 12809.135565 8359.719581 C 12875.90242 8394.951937 12944.415485 8426.691873 13013.750297 8456.377444 C 13017.65359 8458.020936 13024.535712 8460.897046 13026.590076 8461.821511 C 13034.910254 8465.211212 13043.230431 8468.600914 13051.44789 8471.990616 C 13070.758919 8479.797202 13090.172666 8487.50107 13109.586413 8494.999502 C 13143.997023 8508.352873 13178.510352 8521.398089 13213.229116 8534.032432 C 13396.478454 8601.004724 13581.06313 8665.100905 13766.161396 8726.937285 C 14150.019454 8855.026929 14541.992254 8969.146892 14943.928722 9023.279404 C 15114.440999 9046.288289 15299.950138 9058.306323 15477.344536 9054.300312 C 15562.703393 9052.348666 15647.959531 9047.110035 15732.907514 9037.968112 C 15754.581063 9035.708311 15776.254611 9033.037637 15797.825441 9030.366962 C 15798.544469 9030.264244 15798.955342 9030.161526 15799.571651 9030.161526 C 15803.885817 9029.442498 15808.199983 9028.928907 15812.411431 9028.312598 C 15824.018592 9026.669106 15835.625753 9025.025614 15847.232914 9023.279404 C 15890.169138 9017.013591 15933.002644 9009.720596 15975.733431 9001.400419 C 16058.935204 8985.170937 16141.41795 8965.140881 16222.668077 8940.796658 C 16302.480149 8916.76059 16392.769481 8883.274444 16460.152645 8855.54052 C 16462.617883 8854.513338 16477.512028 8848.247525 16476.895718 8848.55568 C 16485.52405 8844.857823 16494.152382 8841.057248 16502.677996 8837.256673 C 16523.837953 8827.909314 16544.689756 8818.253799 16565.43884 8808.084694 C 16602.417406 8790.109002 16638.779662 8771.106128 16674.628328 8750.973353 C 16747.660996 8709.988776 16819.461045 8666.744397 16887.665955 8618.364107 C 16922.692875 8593.711729 16956.692612 8569.264788 16992.849432 8546.255903 C 17018.0154 8530.334576 17053.350474 8538.757471 17070.607138 8561.766357 C 17089.918167 8587.548635 17085.295847 8616.823333 17065.882099 8640.859401 Z M 17065.882099 8640.859401 " stroke="#638b5a" stroke-width="98" stroke-opacity="1" stroke-miterlimit="10"/></svg>