<svg xmlns="http://www.w3.org/2000/svg" xmlns:xlink="http://www.w3.org/1999/xlink" width="1024" zoomAndPan="magnify" viewBox="0 0 768 767.999994" height="1024" preserveAspectRatio="xMidYMid meet" version="1.0"><path fill="#1b1464" d="M 647.320312 124.117188 C 646.875 124.117188 646.441406 124.046875 646.019531 123.902344 C 645.601562 123.757812 645.210938 123.550781 644.859375 123.277344 C 644.507812 123.003906 644.210938 122.683594 643.964844 122.3125 C 643.71875 121.941406 643.539062 121.539062 643.425781 121.109375 C 639.242188 105.140625 642.050781 88.769531 650.945312 77.308594 C 656.222656 70.507812 663.945312 64.9375 673.894531 60.761719 C 682.222656 57.265625 690.289062 55.585938 697.710938 55.777344 C 700.207031 51.707031 703.335938 48.195312 707.097656 45.25 C 712.742188 41.050781 719.480469 39.230469 725.324219 38.003906 C 738.140625 35.316406 751.070312 34.527344 764.117188 35.628906 C 764.382812 35.652344 764.640625 35.699219 764.894531 35.773438 C 765.148438 35.847656 765.394531 35.945312 765.628906 36.066406 C 765.863281 36.1875 766.082031 36.332031 766.289062 36.496094 C 766.496094 36.664062 766.683594 36.847656 766.855469 37.046875 C 767.027344 37.25 767.175781 37.46875 767.304688 37.699219 C 767.429688 37.929688 767.535156 38.171875 767.613281 38.425781 C 767.695312 38.675781 767.75 38.933594 767.78125 39.195312 C 767.808594 39.460938 767.8125 39.722656 767.789062 39.988281 C 767.769531 40.25 767.71875 40.507812 767.648438 40.761719 C 767.574219 41.019531 767.476562 41.261719 767.355469 41.496094 C 767.234375 41.734375 767.089844 41.953125 766.925781 42.160156 C 766.761719 42.367188 766.578125 42.554688 766.375 42.726562 C 766.175781 42.898438 765.957031 43.046875 765.726562 43.175781 C 765.496094 43.304688 765.253906 43.40625 765 43.488281 C 764.75 43.570312 764.492188 43.625 764.230469 43.652344 C 763.96875 43.683594 763.703125 43.6875 763.441406 43.664062 C 751.175781 42.625 739.023438 43.367188 726.980469 45.898438 C 721.988281 46.941406 716.296875 48.453125 711.90625 51.71875 C 709.925781 53.242188 708.1875 55.003906 706.691406 57.003906 C 707.089844 57.105469 707.484375 57.214844 707.875 57.332031 C 720.558594 61.074219 729.882812 72.328125 730.046875 84.089844 C 730.136719 90.871094 726.621094 97.84375 720.867188 102.277344 C 715.726562 106.234375 709.550781 107.605469 703.921875 106.035156 C 695.054688 103.5625 688.5625 94.480469 688.132812 83.949219 C 687.832031 76.484375 690.339844 69.503906 693.0625 63.984375 C 687.5 64.574219 682.148438 65.980469 677.011719 68.199219 C 668.359375 71.832031 661.730469 76.5625 657.308594 82.253906 C 649.945312 91.746094 647.667969 105.503906 651.222656 119.0625 C 651.300781 119.363281 651.34375 119.664062 651.351562 119.972656 C 651.359375 120.28125 651.332031 120.585938 651.269531 120.890625 C 651.210938 121.191406 651.113281 121.484375 650.988281 121.761719 C 650.859375 122.042969 650.699219 122.304688 650.511719 122.550781 C 650.324219 122.792969 650.109375 123.011719 649.871094 123.207031 C 649.632812 123.402344 649.375 123.570312 649.097656 123.707031 C 648.820312 123.839844 648.535156 123.945312 648.234375 124.015625 C 647.933594 124.082031 647.628906 124.117188 647.320312 124.117188 Z M 702.035156 64.253906 C 697.820312 71.800781 695.957031 77.976562 696.1875 83.621094 C 696.429688 89.59375 699.910156 96.546875 706.085938 98.269531 C 709.246094 99.152344 712.84375 98.285156 715.949219 95.890625 C 719.730469 92.972656 722.046875 88.492188 721.988281 84.199219 C 721.875 76.015625 714.828125 67.789062 705.59375 65.066406 C 704.425781 64.722656 703.238281 64.449219 702.035156 64.253906 Z M 702.035156 64.253906 " fill-opacity="1" fill-rule="nonzero"/><path fill="#00844f" d="M 42.09375 640.234375 C 0.0703125 565.15625 69.351562 486.261719 141.660156 432.390625 C 186.136719 399.253906 258.222656 339.753906 297.402344 300.496094 C 359.207031 238.570312 453.144531 98.167969 569.949219 81.433594 C 681.972656 65.386719 690.464844 160.742188 675.921875 207.636719 C 656.652344 269.777344 566.335938 392.253906 521.742188 439.605469 C 460.101562 505.0625 342.367188 618.039062 239.101562 661.949219 C 169.472656 691.558594 67.390625 685.421875 42.09375 640.234375 Z M 42.09375 640.234375 " fill-opacity="1" fill-rule="nonzero"/><path fill="#1b1464" d="M 87.894531 559.011719 C 87.570312 559.011719 87.25 558.972656 86.9375 558.894531 C 86.625 558.816406 86.324219 558.707031 86.035156 558.554688 C 85.75 558.40625 85.484375 558.226562 85.242188 558.011719 C 84.996094 557.800781 84.78125 557.5625 84.597656 557.296875 C 84.410156 557.03125 84.257812 556.75 84.140625 556.449219 C 84.023438 556.144531 83.941406 555.835938 83.898438 555.515625 C 83.855469 555.195312 83.851562 554.871094 83.886719 554.550781 C 83.921875 554.230469 83.992188 553.917969 84.101562 553.613281 C 85.335938 550.179688 96.441406 519.867188 105.8125 512.574219 C 110.621094 508.828125 117.933594 507.007812 125.003906 505.242188 C 132.375 503.402344 140 501.5 143.285156 497.804688 C 150.335938 489.867188 151.054688 485.152344 151.882812 479.691406 C 152.707031 474.289062 153.636719 468.167969 160.039062 459.285156 C 165.722656 451.390625 174.542969 451.101562 182.324219 450.84375 C 188.445312 450.640625 194.230469 450.449219 198.398438 446.945312 C 200.441406 445.230469 201.171875 441.207031 202.019531 436.546875 C 203.488281 428.457031 205.316406 418.386719 215.230469 410.804688 C 221.039062 406.355469 229.851562 405.976562 238.367188 405.609375 C 244.574219 405.339844 250.988281 405.0625 254.792969 403.136719 C 259.53125 400.734375 271.242188 384.328125 278.042969 373.445312 C 278.183594 373.222656 278.347656 373.015625 278.527344 372.824219 C 278.710938 372.632812 278.90625 372.457031 279.121094 372.304688 C 279.339844 372.152344 279.566406 372.023438 279.808594 371.914062 C 280.046875 371.804688 280.296875 371.722656 280.554688 371.664062 C 280.8125 371.605469 281.074219 371.570312 281.335938 371.5625 C 281.601562 371.554688 281.863281 371.574219 282.125 371.617188 C 282.386719 371.660156 282.640625 371.730469 282.886719 371.824219 C 283.132812 371.917969 283.367188 372.035156 283.59375 372.175781 C 283.816406 372.3125 284.023438 372.476562 284.21875 372.65625 C 284.410156 372.835938 284.582031 373.035156 284.734375 373.25 C 284.890625 373.464844 285.019531 373.695312 285.128906 373.933594 C 285.238281 374.175781 285.320312 374.425781 285.382812 374.683594 C 285.441406 374.941406 285.476562 375.199219 285.484375 375.464844 C 285.492188 375.730469 285.472656 375.992188 285.429688 376.253906 C 285.386719 376.511719 285.320312 376.765625 285.226562 377.015625 C 285.132812 377.261719 285.015625 377.496094 284.878906 377.722656 C 281.945312 382.414062 266.882812 406.046875 258.433594 410.328125 C 253.074219 413.042969 245.773438 413.359375 238.714844 413.664062 C 231.441406 413.980469 223.921875 414.304688 220.125 417.207031 C 212.6875 422.894531 211.296875 430.570312 209.949219 437.992188 C 208.867188 443.925781 207.851562 449.535156 203.582031 453.121094 C 197.28125 458.417969 189.476562 458.675781 182.589844 458.902344 C 174.75 459.160156 169.785156 459.546875 166.578125 464 C 161.3125 471.304688 160.601562 475.96875 159.851562 480.90625 C 158.914062 487.066406 157.941406 493.441406 149.308594 503.160156 C 144.367188 508.71875 135.515625 510.929688 126.953125 513.066406 C 120.695312 514.628906 114.226562 516.242188 110.761719 518.9375 C 105.085938 523.355469 96.046875 544.226562 91.683594 556.34375 C 91.542969 556.734375 91.347656 557.09375 91.097656 557.425781 C 90.84375 557.753906 90.546875 558.039062 90.210938 558.277344 C 89.871094 558.515625 89.503906 558.699219 89.109375 558.824219 C 88.710938 558.949219 88.308594 559.011719 87.894531 559.011719 Z M 87.894531 559.011719 " fill-opacity="1" fill-rule="nonzero"/><path fill="#1b1464" d="M 341.199219 551.808594 C 340.875 551.808594 340.558594 551.769531 340.242188 551.695312 C 339.929688 551.617188 339.628906 551.503906 339.34375 551.355469 C 339.054688 551.203125 338.789062 551.023438 338.546875 550.8125 C 338.304688 550.597656 338.089844 550.359375 337.902344 550.09375 C 337.71875 549.828125 337.566406 549.546875 337.449219 549.246094 C 337.332031 548.945312 337.25 548.632812 337.207031 548.3125 C 337.164062 547.992188 337.160156 547.671875 337.195312 547.347656 C 337.226562 547.027344 337.300781 546.714844 337.410156 546.410156 C 338.644531 542.976562 349.75 512.664062 359.121094 505.371094 C 363.929688 501.628906 371.242188 499.804688 378.3125 498.039062 C 385.683594 496.199219 393.308594 494.296875 396.589844 490.601562 C 403.640625 482.667969 404.359375 477.949219 405.191406 472.488281 C 406.011719 467.089844 406.945312 460.96875 413.34375 452.082031 C 419.03125 444.191406 427.847656 443.898438 435.628906 443.640625 C 441.753906 443.441406 447.535156 443.25 451.707031 439.746094 C 453.746094 438.03125 454.476562 434.007812 455.324219 429.347656 C 456.792969 421.253906 458.625 411.183594 468.535156 403.601562 C 474.347656 399.15625 483.15625 398.777344 491.671875 398.40625 C 497.878906 398.140625 504.292969 397.863281 508.097656 395.933594 C 512.84375 393.53125 524.550781 377.125 531.351562 366.246094 C 531.492188 366.023438 531.652344 365.8125 531.832031 365.621094 C 532.015625 365.429688 532.214844 365.253906 532.429688 365.101562 C 532.644531 364.949219 532.871094 364.816406 533.113281 364.707031 C 533.355469 364.597656 533.605469 364.515625 533.863281 364.457031 C 534.121094 364.394531 534.382812 364.363281 534.644531 364.355469 C 534.910156 364.347656 535.171875 364.363281 535.433594 364.40625 C 535.695312 364.453125 535.949219 364.519531 536.195312 364.613281 C 536.445312 364.707031 536.679688 364.824219 536.902344 364.964844 C 537.128906 365.105469 537.335938 365.265625 537.527344 365.449219 C 537.722656 365.628906 537.894531 365.828125 538.046875 366.042969 C 538.203125 366.257812 538.332031 366.488281 538.441406 366.730469 C 538.550781 366.96875 538.632812 367.21875 538.695312 367.476562 C 538.753906 367.734375 538.785156 367.996094 538.792969 368.261719 C 538.804688 368.527344 538.785156 368.789062 538.742188 369.050781 C 538.699219 369.3125 538.628906 369.566406 538.535156 369.8125 C 538.441406 370.058594 538.324219 370.296875 538.183594 370.519531 C 535.25 375.214844 520.191406 398.84375 511.738281 403.128906 C 506.382812 405.84375 499.082031 406.160156 492.019531 406.464844 C 484.746094 406.777344 477.226562 407.101562 473.429688 410.007812 C 465.996094 415.695312 464.601562 423.367188 463.253906 430.789062 C 462.175781 436.726562 461.15625 442.332031 456.890625 445.917969 C 450.585938 451.214844 442.78125 451.472656 435.894531 451.703125 C 428.058594 451.960938 423.089844 452.34375 419.882812 456.796875 C 414.621094 464.105469 413.910156 468.765625 413.15625 473.703125 C 412.21875 479.867188 411.25 486.238281 402.613281 495.960938 C 397.675781 501.519531 388.824219 503.726562 380.261719 505.863281 C 374.003906 507.425781 367.53125 509.039062 364.070312 511.734375 C 358.390625 516.152344 349.355469 537.023438 344.992188 549.144531 C 344.851562 549.535156 344.652344 549.894531 344.402344 550.222656 C 344.152344 550.550781 343.855469 550.835938 343.515625 551.074219 C 343.175781 551.3125 342.808594 551.496094 342.414062 551.621094 C 342.019531 551.746094 341.613281 551.808594 341.199219 551.808594 Z M 341.199219 551.808594 " fill-opacity="1" fill-rule="nonzero"/><path fill="#1b1464" d="M 563.152344 339.738281 C 562.890625 339.738281 562.628906 339.710938 562.367188 339.660156 C 562.109375 339.609375 561.855469 339.53125 561.613281 339.429688 C 561.367188 339.332031 561.136719 339.207031 560.914062 339.058594 C 560.695312 338.910156 560.492188 338.746094 560.304688 338.558594 C 560.117188 338.371094 559.949219 338.167969 559.804688 337.945312 C 559.65625 337.726562 559.53125 337.492188 559.429688 337.25 C 559.332031 337.003906 559.253906 336.753906 559.203125 336.492188 C 559.152344 336.234375 559.125 335.972656 559.125 335.707031 C 559.125 334.859375 559.261719 314.832031 571.035156 304.960938 C 575.96875 300.824219 581.125 301.273438 585.265625 301.632812 C 590.46875 302.085938 594.578125 302.445312 600.347656 295.976562 C 604.148438 291.710938 603.671875 288.027344 603.015625 282.929688 C 602.136719 276.113281 601.042969 267.632812 611.851562 258.527344 C 612.054688 258.359375 612.269531 258.210938 612.503906 258.082031 C 612.734375 257.957031 612.976562 257.851562 613.226562 257.773438 C 613.480469 257.691406 613.738281 257.640625 614 257.609375 C 614.261719 257.582031 614.523438 257.578125 614.789062 257.601562 C 615.050781 257.625 615.308594 257.671875 615.5625 257.746094 C 615.816406 257.820312 616.0625 257.917969 616.296875 258.039062 C 616.53125 258.160156 616.75 258.304688 616.957031 258.46875 C 617.164062 258.632812 617.351562 258.816406 617.523438 259.019531 C 617.691406 259.222656 617.839844 259.4375 617.96875 259.671875 C 618.097656 259.902344 618.199219 260.144531 618.28125 260.394531 C 618.359375 260.648438 618.414062 260.90625 618.445312 261.167969 C 618.472656 261.429688 618.476562 261.695312 618.457031 261.957031 C 618.433594 262.21875 618.386719 262.480469 618.3125 262.734375 C 618.238281 262.988281 618.140625 263.230469 618.019531 263.464844 C 617.898438 263.703125 617.757812 263.921875 617.59375 264.128906 C 617.425781 264.335938 617.242188 264.523438 617.042969 264.695312 C 609.597656 270.96875 610.21875 275.789062 611.007812 281.898438 C 611.722656 287.4375 612.613281 294.335938 606.359375 301.34375 C 597.902344 310.824219 590.191406 310.152344 584.566406 309.667969 C 580.636719 309.328125 578.484375 309.234375 576.210938 311.140625 C 568.804688 317.351562 567.183594 330.980469 567.183594 335.707031 C 567.183594 335.972656 567.15625 336.234375 567.105469 336.492188 C 567.054688 336.753906 566.976562 337.003906 566.875 337.25 C 566.777344 337.496094 566.652344 337.726562 566.503906 337.945312 C 566.359375 338.167969 566.191406 338.371094 566.003906 338.558594 C 565.816406 338.746094 565.613281 338.910156 565.394531 339.058594 C 565.171875 339.207031 564.941406 339.332031 564.695312 339.429688 C 564.453125 339.53125 564.199219 339.609375 563.941406 339.660156 C 563.679688 339.710938 563.417969 339.738281 563.152344 339.738281 Z M 563.152344 339.738281 " fill-opacity="1" fill-rule="nonzero"/><path fill="#1b1464" d="M 135.875 667.75 C 122.503906 667.75 107.6875 662.246094 106.867188 661.9375 C 106.621094 661.84375 106.386719 661.730469 106.160156 661.589844 C 105.9375 661.449219 105.726562 661.289062 105.535156 661.109375 C 105.339844 660.925781 105.167969 660.730469 105.011719 660.515625 C 104.859375 660.300781 104.726562 660.070312 104.617188 659.828125 C 104.507812 659.589844 104.425781 659.339844 104.363281 659.082031 C 104.304688 658.824219 104.269531 658.5625 104.261719 658.296875 C 104.253906 658.035156 104.269531 657.769531 104.3125 657.511719 C 104.355469 657.25 104.425781 656.996094 104.515625 656.746094 C 104.609375 656.5 104.726562 656.261719 104.867188 656.039062 C 105.003906 655.8125 105.164062 655.605469 105.347656 655.410156 C 105.527344 655.21875 105.726562 655.042969 105.941406 654.890625 C 106.15625 654.734375 106.382812 654.605469 106.625 654.496094 C 106.863281 654.386719 107.113281 654.300781 107.371094 654.238281 C 107.628906 654.179688 107.890625 654.144531 108.152344 654.136719 C 108.417969 654.128906 108.679688 654.144531 108.941406 654.1875 C 109.203125 654.230469 109.457031 654.296875 109.707031 654.390625 C 116.25 656.851562 135.296875 662.335938 144.691406 658.253906 C 144.933594 658.144531 145.183594 658.0625 145.441406 658.007812 C 145.703125 657.949219 145.964844 657.921875 146.230469 657.914062 C 146.492188 657.910156 146.757812 657.929688 147.015625 657.976562 C 147.277344 658.023438 147.53125 658.097656 147.777344 658.195312 C 148.023438 658.289062 148.261719 658.410156 148.484375 658.554688 C 148.707031 658.695312 148.914062 658.859375 149.101562 659.046875 C 149.292969 659.230469 149.464844 659.429688 149.617188 659.648438 C 149.765625 659.867188 149.894531 660.097656 150 660.339844 C 150.105469 660.582031 150.1875 660.832031 150.242188 661.09375 C 150.300781 661.351562 150.328125 661.613281 150.332031 661.878906 C 150.339844 662.144531 150.316406 662.40625 150.269531 662.667969 C 150.222656 662.929688 150.148438 663.183594 150.050781 663.429688 C 149.953125 663.675781 149.832031 663.910156 149.691406 664.132812 C 149.546875 664.355469 149.382812 664.5625 149.199219 664.753906 C 149.011719 664.941406 148.8125 665.113281 148.59375 665.265625 C 148.375 665.414062 148.144531 665.542969 147.902344 665.648438 C 144.398438 667.171875 140.210938 667.75 135.875 667.75 Z M 135.875 667.75 " fill-opacity="1" fill-rule="nonzero"/><path fill="#1b1464" d="M 153.066406 635.664062 C 148.289062 635.664062 143.53125 635.351562 138.792969 634.71875 C 138.53125 634.679688 138.277344 634.617188 138.027344 634.527344 C 137.777344 634.441406 137.539062 634.328125 137.3125 634.191406 C 137.085938 634.054688 136.875 633.898438 136.675781 633.722656 C 136.480469 633.542969 136.304688 633.351562 136.144531 633.136719 C 135.988281 632.925781 135.851562 632.699219 135.738281 632.460938 C 135.625 632.222656 135.535156 631.972656 135.472656 631.71875 C 135.40625 631.460938 135.367188 631.199219 135.351562 630.933594 C 135.339844 630.671875 135.351562 630.40625 135.390625 630.144531 C 135.429688 629.882812 135.492188 629.628906 135.582031 629.378906 C 135.671875 629.128906 135.78125 628.890625 135.917969 628.664062 C 136.054688 628.4375 136.210938 628.222656 136.386719 628.027344 C 136.5625 627.832031 136.757812 627.652344 136.972656 627.496094 C 137.183594 627.339844 137.410156 627.203125 137.648438 627.089844 C 137.886719 626.976562 138.136719 626.886719 138.390625 626.820312 C 138.648438 626.757812 138.910156 626.71875 139.171875 626.703125 C 139.4375 626.691406 139.699219 626.703125 139.960938 626.742188 C 146.878906 627.746094 166.65625 629.050781 174.964844 623.058594 C 175.179688 622.90625 175.40625 622.773438 175.648438 622.664062 C 175.886719 622.554688 176.136719 622.472656 176.394531 622.410156 C 176.652344 622.351562 176.910156 622.316406 177.175781 622.308594 C 177.4375 622.300781 177.703125 622.316406 177.960938 622.359375 C 178.222656 622.402344 178.476562 622.46875 178.722656 622.5625 C 178.972656 622.65625 179.207031 622.769531 179.433594 622.910156 C 179.65625 623.050781 179.863281 623.207031 180.058594 623.390625 C 180.25 623.570312 180.425781 623.765625 180.578125 623.980469 C 180.734375 624.195312 180.867188 624.421875 180.976562 624.664062 C 181.085938 624.902344 181.171875 625.152344 181.230469 625.410156 C 181.292969 625.667969 181.328125 625.925781 181.335938 626.191406 C 181.347656 626.453125 181.332031 626.71875 181.289062 626.976562 C 181.246094 627.238281 181.179688 627.492188 181.085938 627.742188 C 180.996094 627.988281 180.878906 628.226562 180.742188 628.449219 C 180.605469 628.675781 180.445312 628.882812 180.265625 629.078125 C 180.085938 629.273438 179.890625 629.445312 179.675781 629.601562 C 172.878906 634.5 161.929688 635.664062 153.066406 635.664062 Z M 153.066406 635.664062 " fill-opacity="1" fill-rule="nonzero"/><path fill="#1b1464" d="M 179.519531 657.078125 C 178.355469 657.078125 177.621094 657.054688 177.453125 657.050781 C 177.1875 657.039062 176.925781 657.007812 176.667969 656.945312 C 176.414062 656.886719 176.164062 656.800781 175.921875 656.691406 C 175.679688 656.582031 175.453125 656.449219 175.238281 656.296875 C 175.023438 656.140625 174.824219 655.96875 174.644531 655.773438 C 174.464844 655.582031 174.304688 655.371094 174.164062 655.148438 C 174.023438 654.921875 173.910156 654.6875 173.816406 654.4375 C 173.722656 654.191406 173.65625 653.9375 173.613281 653.675781 C 173.570312 653.414062 173.550781 653.148438 173.558594 652.886719 C 173.570312 652.621094 173.605469 652.359375 173.664062 652.101562 C 173.722656 651.84375 173.808594 651.59375 173.917969 651.355469 C 174.027344 651.113281 174.160156 650.886719 174.3125 650.671875 C 174.46875 650.453125 174.640625 650.257812 174.835938 650.074219 C 175.027344 649.894531 175.238281 649.734375 175.460938 649.59375 C 175.6875 649.457031 175.921875 649.339844 176.171875 649.246094 C 176.417969 649.152344 176.671875 649.085938 176.933594 649.042969 C 177.195312 649 177.457031 648.980469 177.722656 648.992188 C 184.710938 649.214844 204.503906 648.300781 212.09375 641.417969 C 212.289062 641.242188 212.503906 641.085938 212.730469 640.953125 C 212.957031 640.816406 213.195312 640.703125 213.441406 640.617188 C 213.691406 640.527344 213.945312 640.464844 214.207031 640.425781 C 214.46875 640.386719 214.730469 640.375 214.996094 640.390625 C 215.257812 640.402344 215.519531 640.441406 215.773438 640.503906 C 216.03125 640.570312 216.277344 640.660156 216.515625 640.773438 C 216.753906 640.886719 216.980469 641.019531 217.191406 641.179688 C 217.40625 641.335938 217.597656 641.511719 217.777344 641.707031 C 217.953125 641.902344 218.109375 642.113281 218.246094 642.339844 C 218.382812 642.566406 218.496094 642.804688 218.582031 643.054688 C 218.671875 643.304688 218.738281 643.558594 218.777344 643.820312 C 218.816406 644.082031 218.828125 644.34375 218.816406 644.605469 C 218.804688 644.871094 218.765625 645.132812 218.703125 645.386719 C 218.636719 645.644531 218.550781 645.890625 218.4375 646.128906 C 218.324219 646.371094 218.191406 646.597656 218.035156 646.808594 C 217.875 647.019531 217.699219 647.214844 217.503906 647.394531 C 207.640625 656.339844 186.292969 657.078125 179.519531 657.078125 Z M 179.519531 657.078125 " fill-opacity="1" fill-rule="nonzero"/><path fill="#ffffff" d="M 556.082031 99.363281 C 541.273438 90.6875 495.160156 128.851562 482.296875 140.4375 C 469.710938 151.773438 468.386719 162.378906 477.417969 160.96875 C 487.632812 159.378906 501.691406 152.753906 516.953125 142 C 532.652344 130.9375 571.699219 108.507812 556.082031 99.363281 Z M 556.082031 99.363281 " fill-opacity="1" fill-rule="nonzero"/><path fill="#ffffff" d="M 441.886719 169.582031 C 437.023438 176.519531 436.652344 184.652344 441.058594 187.746094 C 445.464844 190.835938 452.980469 187.714844 457.84375 180.773438 C 462.707031 173.835938 465.480469 166.449219 458.671875 162.613281 C 451.863281 158.773438 446.753906 162.640625 441.886719 169.582031 Z M 441.886719 169.582031 " fill-opacity="1" fill-rule="nonzero"/></svg>