<svg xmlns="http://www.w3.org/2000/svg" xmlns:xlink="http://www.w3.org/1999/xlink" width="1024" zoomAndPan="magnify" viewBox="0 0 768 767.999994" height="1024" preserveAspectRatio="xMidYMid meet" version="1.0"><path fill="#8dd470" d="M 741.65625 400.152344 L 566.824219 429.707031 L 540.289062 480.71875 C 536.699219 487.636719 538.003906 496.089844 543.503906 501.609375 L 670.503906 628.574219 C 682.011719 640.035156 681.730469 658.832031 669.757812 669.964844 C 658.339844 680.609375 640.378906 679.792969 629.332031 668.753906 L 502.824219 542.277344 C 497.300781 536.78125 488.84375 535.453125 481.925781 539.0625 L 430.902344 565.570312 L 401.242188 741.050781 C 398.539062 757.054688 383.070312 767.71875 367.019531 764.414062 C 351.757812 761.269531 341.996094 746.152344 344.605469 730.78125 L 366.925781 598.855469 L 322.121094 622.144531 C 296.027344 630.765625 273.707031 596.316406 293.722656 572.066406 L 340.386719 547.820312 L 218.910156 490.035156 C 204.257812 483.070312 198.199219 465.296875 205.746094 450.765625 C 212.96875 436.929688 230.164062 431.6875 244.257812 438.371094 L 404.367188 514.558594 L 431.8125 500.257812 C 441.269531 495.367188 443.226562 482.695312 435.703125 475.175781 L 328.507812 368.007812 C 324.3125 363.816406 318.394531 361.835938 312.523438 362.652344 L 253.089844 370.941406 C 198.339844 378.558594 174.222656 334.933594 209.382812 318.933594 L 246.007812 313.832031 C 256.210938 312.410156 260.40625 299.949219 253.113281 292.636719 L 179.605469 219.148438 C 149.296875 179.996094 153.1875 132.175781 183.195312 141.378906 L 293.816406 251.96875 C 301.105469 259.257812 313.570312 255.066406 314.992188 244.863281 L 324.589844 175.941406 L 256.699219 108.070312 C 251.0625 102.480469 248.265625 95.097656 248.265625 87.734375 C 248.265625 80.375 251.0625 73.015625 256.699219 67.402344 C 267.929688 56.175781 286.148438 56.175781 297.402344 67.402344 L 334.515625 104.53125 L 339.433594 69.195312 C 341.644531 53.472656 356.160156 42.480469 371.910156 44.691406 C 387.636719 46.859375 398.632812 61.417969 396.445312 77.136719 L 391.527344 112.449219 L 437.402344 86.875 C 441.828125 84.40625 446.652344 83.21875 451.382812 83.21875 C 461.46875 83.21875 471.277344 88.550781 476.542969 97.984375 C 484.277344 111.84375 479.316406 129.382812 465.429688 137.113281 L 381.578125 183.886719 L 363.847656 311.363281 C 363.011719 317.230469 365.015625 323.148438 369.207031 327.339844 L 476.378906 434.507812 C 483.90625 442.03125 496.578125 440.050781 501.496094 430.617188 L 515.777344 403.179688 L 439.289062 242.488281 C 437.402344 238.503906 436.492188 234.3125 436.492188 230.167969 C 436.492188 219.40625 442.550781 209.085938 452.917969 204.148438 C 467.246094 197.324219 484.441406 203.425781 491.246094 217.773438 L 549.046875 339.195312 L 591.171875 258.234375 L 549.933594 171.5625 C 543.082031 157.191406 549.1875 140.050781 563.539062 133.203125 C 577.890625 126.402344 595.0625 132.480469 601.886719 146.828125 L 624.464844 194.25 L 640.914062 162.621094 C 648.230469 148.527344 665.609375 143.03125 679.703125 150.367188 C 693.824219 157.683594 699.296875 175.058594 691.960938 189.148438 L 675.511719 220.78125 L 727.304688 212.046875 C 728.933594 211.765625 730.542969 211.625 732.148438 211.625 C 745.917969 211.625 758.082031 221.546875 760.457031 235.59375 C 763.113281 251.269531 752.558594 266.105469 736.878906 268.761719 L 642.242188 284.761719 L 600.09375 365.75 L 732.730469 343.316406 C 748.738281 340.59375 763.90625 351.703125 766.046875 367.914062 C 768.121094 383.378906 757.03125 397.566406 741.65625 400.152344 Z M 741.65625 400.152344 " fill-opacity="1" fill-rule="nonzero"/><path fill="#6dc847" d="M 253.089844 370.941406 L 184.988281 380.398438 L 138.226562 464.226562 C 130.492188 478.085938 112.949219 483.070312 99.085938 475.335938 C 85.203125 467.582031 80.214844 450.066406 87.972656 436.207031 L 113.554688 390.34375 L 78.234375 395.257812 C 76.882812 395.445312 75.554688 395.539062 74.226562 395.539062 C 60.109375 395.539062 47.761719 385.128906 45.78125 370.734375 C 43.566406 354.988281 54.5625 340.453125 70.289062 338.265625 L 105.632812 333.347656 L 68.496094 296.222656 C 57.265625 284.996094 57.265625 266.78125 68.496094 255.53125 C 79.726562 244.304688 97.945312 244.304688 109.175781 255.53125 L 177.066406 323.425781 L 209.382812 318.910156 C 195.144531 335.609375 208.101562 362.511719 253.089844 370.941406 Z M 253.089844 370.941406 " fill-opacity="1" fill-rule="nonzero"/><path fill="#6dc847" d="M 198.082031 34.539062 L 183.195312 141.378906 C 163.996094 151.835938 163.902344 184.46875 179.582031 219.148438 L 142.492188 182.066406 L 35.621094 196.929688 C 34.269531 197.113281 32.941406 197.207031 31.617188 197.207031 C 17.496094 197.207031 5.148438 186.796875 3.144531 172.425781 C 0.953125 156.679688 11.953125 142.144531 27.679688 139.957031 L 91.492188 131.082031 L 48.320312 87.898438 C 42.707031 82.285156 39.886719 74.925781 39.886719 67.566406 C 39.886719 60.203125 42.707031 52.84375 48.320312 47.230469 C 59.550781 35.980469 77.769531 35.980469 89 47.230469 L 132.195312 90.390625 L 141.070312 26.59375 C 143.261719 10.871094 157.800781 -0.121094 173.546875 2.066406 C 189.273438 4.257812 200.25 18.792969 198.082031 34.539062 Z M 198.082031 34.539062 " fill-opacity="1" fill-rule="nonzero"/><path fill="#6dc847" d="M 322.121094 622.144531 L 285.917969 640.964844 L 269.910156 735.601562 C 267.535156 749.667969 255.347656 759.589844 241.578125 759.589844 C 239.972656 759.589844 238.363281 759.453125 236.757812 759.171875 C 221.078125 756.515625 210.523438 741.679688 213.179688 726.003906 L 221.917969 674.25 L 190.277344 690.695312 C 186.035156 692.90625 181.492188 693.953125 177.019531 693.953125 C 166.628906 693.953125 156.585938 688.316406 151.484375 678.441406 C 144.144531 664.351562 149.644531 646.976562 163.738281 639.660156 L 195.378906 623.195312 L 147.945312 600.648438 C 137.597656 595.710938 131.519531 585.390625 131.519531 574.628906 C 131.519531 570.484375 132.425781 566.292969 134.3125 562.308594 C 141.164062 547.960938 158.335938 541.859375 172.6875 548.683594 L 259.378906 589.933594 L 293.722656 572.066406 C 289.132812 593.707031 300.640625 615.878906 322.121094 622.144531 Z M 322.121094 622.144531 " fill-opacity="1" fill-rule="nonzero"/></svg>