<svg xmlns="http://www.w3.org/2000/svg" xmlns:xlink="http://www.w3.org/1999/xlink" width="1024" zoomAndPan="magnify" viewBox="0 0 768 767.999994" height="1024" preserveAspectRatio="xMidYMid meet" version="1.0"><defs><clipPath id="75dc5b3d40"><path d="M 7 8.640625 L 732 8.640625 L 732 756 L 7 756 Z M 7 8.640625 " clip-rule="nonzero"/></clipPath></defs><path fill="#71d171" d="M 767.996094 408.816406 C 767.996094 408.847656 767.996094 408.878906 767.996094 408.890625 C 767.996094 415.238281 764.4375 421.03125 758.8125 423.945312 C 749.402344 428.804688 737.886719 423.929688 734.808594 413.796875 C 731.390625 402.621094 725.59375 390.480469 716.136719 387.921875 C 697.742188 382.941406 668.246094 413.875 642.203125 414.136719 C 572.1875 320.921875 622.722656 275.539062 718.527344 266.023438 C 718.527344 266.023438 746.535156 288.832031 758.136719 326.421875 C 766.644531 353.984375 767.917969 391.003906 767.996094 408.816406 Z M 767.996094 408.816406 " fill-opacity="1" fill-rule="nonzero"/><path fill="#71d171" d="M 224.554688 219.710938 C 135.351562 249.054688 33.0625 340.984375 28.875 392.398438 C 24.707031 443.8125 68.53125 473.382812 100.339844 473.382812 C 132.148438 473.382812 158.347656 452.917969 189.605469 447.355469 C 220.875 441.773438 255.273438 445.359375 255.273438 445.359375 C 460.183594 450.554688 540.105469 367.601562 476.171875 183.199219 C 476.171875 183.199219 313.757812 190.355469 224.554688 219.710938 Z M 224.554688 219.710938 " fill-opacity="1" fill-rule="nonzero"/><g clip-path="url(#75dc5b3d40)"><path fill="#0be881" d="M 712.210938 84.570312 C 712.210938 84.570312 744.328125 149.949219 725.71875 240.945312 C 724.230469 248.179688 721.824219 256.609375 718.527344 266.023438 C 705.421875 303.59375 678.503906 356.988281 642.203125 414.136719 C 573.25 522.710938 470.453125 644.855469 364.175781 697.910156 C 244.453125 757.664062 106.78125 759.105469 30.777344 753.878906 C 9.820312 752.4375 -0.00390625 727.054688 14.664062 712.015625 C 22.375 704.105469 29.6875 695.460938 35.070312 686.707031 C 54.109375 655.710938 52.269531 595.878906 93.855469 557.496094 C 135.445312 519.09375 205.636719 522.851562 227.144531 504.730469 C 238.765625 494.953125 245.449219 470.929688 255.273438 445.359375 C 263.644531 423.609375 274.285156 400.753906 292.203125 384.535156 C 312.761719 365.941406 335.859375 357.492188 357.109375 350.457031 C 376.175781 344.140625 393.777344 338.945312 406.730469 328.535156 C 430.199219 309.695312 441.757812 234.503906 476.171875 183.199219 C 481.949219 174.566406 488.386719 166.613281 495.625 159.714844 C 545.917969 111.777344 619.132812 101.707031 639.78125 84.230469 C 652.824219 73.195312 661.792969 45.984375 666.621094 27.453125 C 669.472656 16.476562 679.359375 8.8125 690.703125 8.8125 C 704.546875 8.8125 715.601562 20.046875 715.601562 33.675781 C 715.601562 34.242188 715.570312 34.808594 715.539062 35.378906 Z M 712.210938 84.570312 " fill-opacity="1" fill-rule="nonzero"/></g><path fill="#7fa84a" d="M 155.839844 689.097656 C 100.882812 689.097656 77.105469 652.410156 76.035156 650.714844 C 74.230469 647.847656 75.09375 644.0625 77.957031 642.257812 C 80.820312 640.457031 84.59375 641.3125 86.402344 644.164062 C 87.410156 645.738281 111.769531 682.703125 169.632812 676.015625 C 228.191406 669.257812 253.589844 613.597656 253.84375 613.039062 C 255.214844 609.941406 258.847656 608.550781 261.9375 609.929688 C 265.03125 611.304688 266.425781 614.929688 265.046875 618.023438 C 263.910156 620.578125 236.476562 680.648438 171.039062 688.199219 C 165.730469 688.8125 160.664062 689.097656 155.839844 689.097656 Z M 155.839844 689.097656 " fill-opacity="1" fill-rule="nonzero"/><path fill="#7fa84a" d="M 335.636719 587.777344 C 320.207031 587.777344 306.648438 584.242188 296.019531 580.078125 C 273.351562 571.199219 259.179688 557.855469 258.589844 557.292969 C 256.136719 554.957031 256.042969 551.074219 258.375 548.621094 C 260.707031 546.167969 264.585938 546.070312 267.039062 548.402344 C 267.238281 548.589844 280.398438 560.882812 300.894531 568.816406 C 327.941406 579.289062 354.496094 577.640625 379.832031 563.90625 C 441.332031 530.570312 445.3125 439.585938 445.34375 438.675781 C 445.464844 435.367188 448.183594 432.761719 451.46875 432.761719 C 451.542969 432.761719 451.617188 432.761719 451.691406 432.765625 C 455.074219 432.886719 457.71875 435.722656 457.601562 439.105469 C 457.460938 443.125 453.390625 537.980469 385.675781 574.691406 C 367.871094 584.339844 350.847656 587.777344 335.636719 587.777344 Z M 335.636719 587.777344 " fill-opacity="1" fill-rule="nonzero"/><path fill="#7fa84a" d="M 511.675781 372.539062 C 488.238281 372.539062 471.738281 365.753906 470.59375 365.273438 C 467.476562 363.957031 466.015625 360.359375 467.332031 357.238281 C 468.648438 354.121094 472.234375 352.660156 475.359375 353.972656 C 475.882812 354.191406 518.222656 371.339844 562.054688 347.464844 C 606.855469 323.074219 637.757812 253.988281 638.066406 253.292969 C 639.433594 250.195312 643.058594 248.792969 646.148438 250.160156 C 649.246094 251.527344 650.652344 255.144531 649.285156 258.242188 C 647.964844 261.230469 616.414062 331.832031 567.921875 358.234375 C 547.707031 369.246094 528.007812 372.539062 511.675781 372.539062 Z M 511.675781 372.539062 " fill-opacity="1" fill-rule="nonzero"/><path fill="#749e38" d="M 155.597656 394.855469 C 112.386719 394.855469 84.410156 364.054688 83.101562 362.582031 C 80.847656 360.054688 81.074219 356.175781 83.601562 353.925781 C 86.125 351.675781 90 351.898438 92.253906 354.421875 C 92.710938 354.925781 124.589844 389.664062 170.28125 381.234375 C 215.839844 372.835938 231.738281 324.402344 231.890625 323.914062 C 232.917969 320.691406 236.359375 318.898438 239.585938 319.921875 C 242.8125 320.941406 244.601562 324.375 243.585938 327.601562 C 242.871094 329.878906 225.421875 383.539062 172.503906 393.292969 C 166.648438 394.375 161 394.855469 155.597656 394.855469 Z M 155.597656 394.855469 " fill-opacity="1" fill-rule="nonzero"/><path fill="#749e38" d="M 326.425781 341.941406 C 325.25 341.941406 324.0625 341.601562 323.011719 340.894531 C 311.375 333.066406 301.175781 323.238281 290.910156 309.96875 C 288.839844 307.289062 289.332031 303.4375 292.011719 301.367188 C 294.691406 299.292969 298.539062 299.785156 300.613281 302.464844 C 310.050781 314.667969 319.34375 323.644531 329.859375 330.722656 C 332.667969 332.613281 333.410156 336.421875 331.523438 339.234375 C 330.335938 340.992188 328.402344 341.941406 326.425781 341.941406 Z M 326.425781 341.941406 " fill-opacity="1" fill-rule="nonzero"/></svg>