<svg xmlns="http://www.w3.org/2000/svg" xmlns:xlink="http://www.w3.org/1999/xlink" width="1024" zoomAndPan="magnify" viewBox="0 0 768 767.999994" height="1024" preserveAspectRatio="xMidYMid meet" version="1.0"><path fill="#7e64ab" d="M 494.398438 101.578125 C 470.921875 208.765625 455.496094 230.324219 306.835938 271.972656 C 74.609375 337.050781 0.0429688 598.921875 137.601562 678.359375 C 275.164062 757.792969 573.109375 733.683594 694.242188 294.605469 C 694.242188 294.605469 693.992188 77.773438 688.953125 76.449219 C 683.914062 75.125 494.398438 101.578125 494.398438 101.578125 Z M 494.398438 101.578125 " fill-opacity="1" fill-rule="nonzero"/><path fill="#3eb57b" d="M 618.113281 103.546875 C 618.113281 103.546875 570.25 111.261719 553.414062 107.703125 C 515.628906 99.695312 485.492188 138.667969 485.492188 138.667969 C 485.492188 138.667969 493.167969 47.191406 564.203125 57.347656 C 635.238281 67.503906 613.394531 34.226562 656.917969 40.03125 C 700.441406 45.835938 706.039062 9.851562 736.773438 28.800781 C 767.511719 47.734375 762.765625 65.398438 744.171875 88.617188 C 725.578125 111.820312 746.378906 110.480469 744.171875 167.003906 C 741.242188 242.042969 712.457031 219.273438 697.898438 298.554688 C 697.898438 298.554688 664.523438 271.792969 667.429688 163.683594 C 667.429688 163.683594 628.371094 199.277344 560.113281 229.738281 C 560.144531 229.738281 543.699219 159.832031 618.113281 103.546875 Z M 618.113281 103.546875 " fill-opacity="1" fill-rule="nonzero"/><path fill="#000000" d="M 749.644531 92.96875 C 758.941406 81.375 768.097656 67.535156 765.558594 52.867188 C 763.660156 41.914062 755.453125 32.09375 740.460938 22.855469 C 720.917969 10.8125 708.648438 17.621094 696.796875 24.207031 C 686.734375 29.804688 676.335938 35.582031 657.867188 33.109375 C 635.964844 30.195312 627.785156 36.390625 619.871094 42.390625 C 611.21875 48.949219 602.269531 55.730469 565.210938 50.441406 C 545.222656 47.582031 527.925781 51.851562 513.773438 63.109375 C 502.328125 72.222656 494.539062 84.710938 489.261719 96.875 C 488.453125 97.769531 487.851562 98.84375 487.585938 100.070312 C 487.433594 100.785156 487.277344 101.453125 487.125 102.152344 C 480.761719 118.878906 478.960938 133.9375 478.625 137.382812 C 469.773438 169.726562 460.15625 189.832031 442.78125 206.269531 C 417.195312 230.464844 372.875 246.214844 304.964844 265.25 C 237.867188 284.042969 179.171875 320.417969 135.230469 370.425781 C 95.617188 415.480469 70.140625 469.453125 63.46875 522.390625 C 59.210938 556.210938 62.925781 588.570312 74.230469 615.960938 C 86.402344 645.457031 106.546875 668.480469 134.113281 684.398438 C 169.847656 705.035156 220.824219 720.875 279.3125 720.875 C 319.105469 720.875 362.363281 713.535156 406.640625 695.410156 C 500.300781 657.039062 626.40625 558.195312 698.429688 305.488281 C 699.085938 305.449219 699.742188 305.335938 700.371094 305.097656 C 702.675781 304.246094 704.363281 302.238281 704.796875 299.824219 C 711.453125 263.589844 720.777344 250.152344 729.78125 237.160156 C 739.957031 222.511719 749.5625 208.65625 751.179688 167.285156 C 752.242188 140.296875 748.164062 125.660156 745.472656 115.964844 C 742.511719 105.289062 741.800781 102.765625 749.644531 92.96875 Z M 401.335938 682.488281 C 296.660156 725.367188 198.265625 705.34375 141.078125 672.316406 C 92.238281 644.101562 68.996094 590.089844 77.300781 524.132812 C 83.625 473.929688 107.914062 422.613281 145.683594 379.636719 C 187.839844 331.664062 244.21875 296.753906 308.707031 278.683594 C 401.15625 252.789062 431.375 236.238281 452.339844 216.414062 C 471.574219 198.21875 482.308594 175.992188 491.746094 142.042969 C 496.367188 136.574219 521.980469 108.179688 551.964844 114.527344 C 561.914062 116.632812 580.523438 115.308594 595.710938 113.605469 C 569.160156 139.644531 558.523438 166.726562 554.378906 186.289062 C 548.921875 212.03125 553.148438 230.535156 553.332031 231.316406 C 553.804688 233.339844 555.160156 235.039062 557.03125 235.976562 C 558.902344 236.894531 561.078125 236.9375 562.976562 236.101562 C 610.4375 214.917969 643.753906 191.507812 660.28125 178.628906 C 660.589844 248.9375 676.890625 282.339844 686.578125 296 C 616.367188 547.507812 492.820312 645.023438 401.335938 682.488281 Z M 732.015625 119.691406 C 734.625 129.066406 738.183594 141.917969 737.222656 166.726562 C 735.769531 204.035156 728.066406 215.128906 718.308594 229.195312 C 710.226562 240.84375 701.207031 253.820312 694.269531 282.160156 C 692.136719 278.421875 689.777344 273.578125 687.460938 267.46875 C 680.71875 249.71875 672.996094 217.320312 674.4375 163.867188 C 674.503906 161.074219 672.914062 158.507812 670.359375 157.335938 C 669.425781 156.902344 668.433594 156.707031 667.457031 156.707031 C 665.753906 156.707031 664.066406 157.335938 662.753906 158.519531 C 662.390625 158.855469 626.90625 190.796875 565.839844 219.453125 C 564.484375 199.851562 567.445312 150.636719 622.328125 109.113281 C 624.882812 107.175781 625.789062 103.753906 624.535156 100.8125 C 623.277344 97.867188 620.179688 96.152344 617.011719 96.667969 C 604.058594 98.761719 567.625 103.589844 554.867188 100.882812 C 530.957031 95.816406 510.214844 107.089844 496.660156 117.917969 C 500.679688 103.558594 508.328125 85.253906 522.496094 74.007812 C 533.511719 65.257812 547.21875 61.980469 563.226562 64.269531 C 606.054688 70.394531 618.390625 61.046875 628.289062 53.523438 C 634.976562 48.460938 639.804688 44.804688 656.011719 46.953125 C 679.070312 50.023438 692.652344 42.472656 703.582031 36.402344 C 714.523438 30.320312 720.554688 26.972656 733.144531 34.730469 C 744.535156 41.746094 750.636719 48.460938 751.820312 55.242188 C 753.078125 62.46875 749.042969 71.414062 738.769531 84.234375 C 727.019531 98.898438 728.457031 106.867188 732.015625 119.691406 Z M 732.015625 119.691406 " fill-opacity="1" fill-rule="nonzero"/></svg>