<svg xmlns="http://www.w3.org/2000/svg" xmlns:xlink="http://www.w3.org/1999/xlink" width="1024" zoomAndPan="magnify" viewBox="0 0 768 767.999994" height="1024" preserveAspectRatio="xMidYMid meet" version="1.0"><path fill="#f7e6b5" d="M 455.734375 190.886719 C 452.726562 185.347656 450.152344 179.792969 448.015625 174.316406 C 448 174.285156 447.984375 174.253906 447.96875 174.226562 C 447.9375 174.136719 447.894531 174.046875 447.863281 173.941406 C 447.609375 173.28125 447.355469 172.625 447.117188 171.949219 C 438.601562 150.652344 423.515625 151.472656 411.410156 171.5625 C 398.898438 192.320312 379.964844 169.421875 367.441406 150.800781 C 359.761719 139.378906 347.96875 155.574219 337.644531 173.941406 C 337.074219 174.960938 336.535156 176.007812 336.058594 177.085938 C 334.128906 181.304688 332.121094 185.585938 330.058594 189.898438 C 327.574219 195.0625 324.625 200.058594 321.273438 204.941406 C 321.273438 204.953125 321.257812 204.96875 321.257812 204.984375 C 258.820312 295.660156 54.976562 339.769531 66.515625 485.992188 C 77.980469 631.296875 170.960938 675.648438 256.324219 693.835938 C 266.15625 695.929688 278.425781 704.699219 283.351562 713.472656 C 311.605469 763.808594 359.824219 751.535156 392.746094 723.125 C 402.054688 715.089844 415.074219 712.976562 426.328125 717.976562 C 539.078125 768.046875 615.175781 744.320312 645.945312 683.777344 C 648.910156 677.953125 653.023438 672.773438 658.203125 668.777344 C 889.3125 490.390625 488.074219 250.308594 455.734375 190.886719 Z M 455.734375 190.886719 " fill-opacity="1" fill-rule="nonzero"/><path fill="#000000" d="M 506.363281 222.78125 C 498.910156 216.300781 491.847656 210.148438 485.277344 204.355469 C 482.792969 202.171875 479.023438 202.410156 476.820312 204.878906 C 474.636719 207.363281 474.875 211.136719 477.347656 213.335938 C 483.929688 219.144531 491.023438 225.324219 498.492188 231.820312 C 540.605469 268.464844 593.027344 314.054688 634.960938 364.675781 C 683.929688 423.769531 706.675781 475.242188 704.535156 522.003906 C 702.710938 561.636719 682.027344 598.054688 642.996094 630.445312 C 649.65625 605.328125 650.929688 576.1875 646.335938 544.394531 C 640.09375 501.226562 608.953125 471.007812 569.53125 432.75 C 520.894531 385.542969 460.359375 326.792969 421.691406 217.617188 C 420.582031 214.503906 417.15625 212.871094 414.042969 213.980469 C 410.929688 215.089844 409.296875 218.5 410.40625 221.628906 C 450.019531 333.453125 511.660156 393.28125 561.195312 441.355469 C 598.984375 478.027344 628.824219 506.992188 634.480469 546.117188 C 643.851562 610.914062 627.824219 663.507812 590.5 690.453125 C 547.652344 721.390625 479.980469 716.976562 399.40625 678.207031 C 406.621094 669.019531 413.863281 658.496094 421.152344 646.566406 C 457.996094 586.289062 437.207031 520.804688 413.128906 444.992188 C 386.789062 362.058594 356.933594 268.058594 384.410156 147.042969 C 385.144531 143.824219 383.125 140.609375 379.890625 139.875 C 376.660156 139.140625 373.457031 141.160156 372.722656 144.394531 C 344.527344 268.582031 376.226562 368.417969 401.710938 448.617188 C 425.851562 524.636719 444.929688 584.703125 410.929688 640.308594 C 380.132812 690.675781 350.09375 715.253906 321.675781 713.324219 C 286.628906 710.957031 250.832031 668.660156 215.257812 587.621094 C 200.949219 555.039062 197.417969 516.839844 204.75 474.105469 C 210.691406 439.53125 223.683594 401.945312 243.40625 362.402344 C 277.140625 294.703125 319.355469 244.183594 319.777344 243.691406 C 321.902344 241.160156 321.570312 237.390625 319.042969 235.25 C 316.511719 233.125 312.742188 233.453125 310.601562 235.984375 C 310.167969 236.492188 267.171875 287.9375 232.796875 356.847656 C 212.535156 397.484375 199.125 436.207031 192.972656 471.964844 C 185.207031 517.109375 189.007812 557.65625 204.289062 592.457031 C 216.066406 619.28125 227.84375 641.941406 239.695312 660.5625 C 190.460938 650.160156 153.78125 634.21875 125.074219 610.851562 C 82.335938 576.082031 58.945312 526.046875 53.570312 457.894531 C 46.507812 368.433594 123.773438 318.410156 198.480469 270.035156 C 248.898438 237.390625 296.519531 206.554688 316.542969 164.886719 C 329.890625 137.074219 340.054688 111.511719 349.003906 88.953125 C 364.328125 50.367188 376.433594 19.878906 391.894531 14.550781 C 397.699219 12.542969 404.628906 13.949219 413.023438 18.859375 C 434.46875 31.371094 445.648438 40.9375 446.21875 47.285156 C 446.652344 52.101562 440.230469 58.046875 432.421875 64.75 C 409.925781 84.058594 409.566406 125.761719 431.566406 166.15625 C 433.152344 169.0625 436.773438 170.140625 439.679688 168.554688 C 442.582031 166.964844 443.660156 163.328125 442.074219 160.425781 C 422.8125 125.027344 422.050781 89.417969 440.21875 73.820312 C 449.105469 66.1875 459.179688 57.550781 458.144531 46.191406 C 457.128906 35.039062 445.8125 24.113281 419.054688 8.515625 C 407.457031 1.75 397.28125 0.015625 387.988281 3.234375 C 367.335938 10.359375 355.617188 39.875 337.867188 84.539062 C 328.980469 106.914062 318.90625 132.269531 305.738281 159.707031 C 287.179688 198.339844 240.9375 228.289062 191.972656 259.992188 C 154.152344 284.480469 115.035156 309.804688 86.089844 340.984375 C 52.75 376.90625 38.203125 415.460938 41.628906 458.855469 C 54.289062 619.25 165.484375 659.09375 249.273438 674.691406 C 272.621094 706.945312 296.324219 723.648438 320.867188 725.3125 C 322.246094 725.402344 323.605469 725.445312 324.96875 725.445312 C 347.34375 725.445312 369.355469 713.007812 391.550781 687.710938 C 439.257812 711.03125 483.003906 722.796875 520.535156 722.796875 C 550.558594 722.796875 576.597656 715.285156 597.503906 700.195312 C 614.308594 688.058594 627.222656 671.367188 635.917969 651.132812 C 687.175781 613.816406 714.292969 570.589844 716.492188 522.585938 C 721.671875 410.089844 592.101562 297.367188 506.363281 222.78125 Z M 506.363281 222.78125 " fill-opacity="1" fill-rule="nonzero"/></svg>