<svg xmlns="http://www.w3.org/2000/svg" xmlns:xlink="http://www.w3.org/1999/xlink" width="1024" zoomAndPan="magnify" viewBox="0 0 768 767.999994" height="1024" preserveAspectRatio="xMidYMid meet" version="1.0"><path fill="#881c4e" d="M 302.421875 398.289062 C 318.402344 464.25 399.550781 705.777344 401.714844 731.167969 C 404.164062 760.0625 365.394531 762.566406 361.617188 745.511719 C 351.410156 699.359375 314.285156 535.589844 241.238281 437.738281 " fill-opacity="1" fill-rule="nonzero"/><path fill="#21894b" d="M 284.179688 446.074219 C 269.648438 453.476562 251.996094 450 241.226562 437.75 C 219.289062 412.8125 191.277344 406.324219 174.488281 408.910156 C 135.992188 414.835938 118.367188 375.210938 132.929688 341.910156 C 61.128906 364.933594 8.402344 196.414062 95.859375 202.355469 C 54.132812 166.027344 137.730469 0.0546875 225.308594 136.765625 C 278.460938 103.777344 355.746094 186.546875 281.578125 259.089844 C 281.578125 259.089844 357.457031 292.566406 317.171875 340.636719 C 305.554688 354.503906 299.683594 383.125 303.378906 408.746094 C 305.566406 423.980469 298.109375 438.96875 284.398438 445.960938 Z M 284.179688 446.074219 " fill-opacity="1" fill-rule="nonzero"/><path fill="#881c4e" d="M 465.496094 398.289062 C 449.511719 464.25 370.609375 705.777344 368.460938 731.167969 C 366.011719 760.0625 404.777344 762.566406 408.554688 745.511719 C 418.761719 699.359375 453.632812 535.589844 526.675781 437.738281 " fill-opacity="1" fill-rule="nonzero"/><path fill="#21894b" d="M 483.722656 446.074219 C 498.253906 453.476562 515.90625 450 526.675781 437.75 C 548.613281 412.8125 576.625 406.324219 593.414062 408.910156 C 631.910156 414.835938 649.535156 375.210938 634.972656 341.910156 C 706.773438 364.933594 759.5 196.414062 672.042969 202.355469 C 713.765625 166.027344 630.171875 0.0546875 542.59375 136.765625 C 489.441406 103.777344 412.152344 186.546875 486.324219 259.089844 C 486.324219 259.089844 410.445312 292.566406 450.730469 340.636719 C 462.347656 354.503906 468.21875 383.125 464.523438 408.746094 C 462.335938 423.980469 469.792969 438.96875 483.503906 445.960938 Z M 483.722656 446.074219 " fill-opacity="1" fill-rule="nonzero"/><path fill="#aa324a" d="M 345.5 437.777344 C 361.222656 503.804688 365.667969 718.398438 362.769531 736.640625 C 358.210938 765.277344 396.117188 766.34375 407.105469 752.78125 C 417.628906 739.777344 397.308594 565.480469 417.929688 445.113281 " fill-opacity="1" fill-rule="nonzero"/><path fill="#3eb57b" d="M 383.445312 472.050781 C 399.757812 472.050781 413.890625 460.921875 417.929688 445.113281 C 426.125 412.921875 448.144531 394.417969 464.277344 389.089844 C 501.253906 376.882812 498.953125 333.5625 470.859375 310.527344 C 545.273438 298.398438 515.675781 124.308594 440.480469 169.355469 C 461.144531 118.027344 311.273438 8.183594 295.375 169.765625 C 233.042969 164.535156 201.785156 273.390625 300.820312 304.3125 C 300.820312 304.3125 248.4375 368.617188 306.171875 393.128906 C 322.824219 400.207031 341.050781 423.023438 349.398438 447.523438 C 354.367188 462.085938 367.816406 472.050781 383.210938 472.050781 Z M 383.445312 472.050781 " fill-opacity="1" fill-rule="nonzero"/><path fill="#000000" d="M 718.214844 219.367188 C 711.632812 206.253906 700.125 198.222656 685.152344 195.988281 C 691.339844 183.070312 691.679688 164.972656 685.703125 144.773438 C 676.75 114.507812 653.242188 81.90625 620.878906 77.304688 C 586.503906 72.421875 558.617188 100.847656 540.320312 127.746094 C 515.113281 115.945312 484.285156 124.378906 464.785156 149.246094 C 463.292969 151.164062 461.867188 153.1875 460.527344 155.3125 C 456.820312 155.640625 453.054688 156.433594 449.253906 157.707031 C 448.894531 143.390625 440.972656 127.113281 426.480469 111.839844 C 404.765625 88.953125 369.007812 70.601562 338.082031 81.207031 C 313.066406 89.789062 300.175781 113.921875 293.664062 139.214844 C 274.53125 122.3125 249.023438 117.699219 227.566406 127.746094 C 209.285156 100.863281 181.398438 72.449219 147.023438 77.320312 C 114.660156 81.917969 91.148438 114.523438 82.199219 144.785156 C 76.234375 164.972656 76.5625 183.082031 82.75 196.003906 C 67.777344 198.222656 56.269531 206.269531 49.6875 219.382812 C 35.675781 247.304688 45.730469 295.113281 72.128906 325.953125 C 87.183594 343.554688 104.808594 352.09375 122.789062 350.835938 C 118.667969 368.355469 121.804688 386.476562 131.722656 399.371094 C 141.945312 412.660156 157.503906 418.453125 175.539062 415.671875 C 187.664062 413.8125 214.019531 417.289062 235.941406 442.089844 C 269.429688 487.039062 317.1875 576.390625 354.925781 746.988281 C 355.652344 750.246094 357.253906 753.121094 359.484375 755.515625 C 362.082031 759.582031 365.929688 762.839844 370.921875 765.058594 C 375.425781 767.070312 380.53125 768.015625 385.660156 768.015625 C 396.171875 768.015625 406.777344 764.042969 412.429688 757.078125 C 414.671875 754.3125 415.972656 749.359375 416.628906 740.640625 C 428.546875 686.710938 462.921875 534.753906 531.972656 442.074219 C 553.894531 417.273438 580.222656 413.796875 592.363281 415.660156 C 610.398438 418.449219 625.957031 412.648438 636.179688 399.355469 C 646.097656 386.449219 649.246094 368.328125 645.113281 350.820312 C 663.09375 352.09375 680.71875 343.539062 695.773438 325.9375 C 722.167969 295.101562 732.242188 247.289062 718.214844 219.367188 Z M 302.160156 170.433594 C 306.320312 128.183594 320.277344 101.820312 342.527344 94.167969 C 367.558594 85.574219 398.457031 102.191406 416.558594 121.269531 C 431.859375 137.394531 438.757812 155.269531 434.117188 166.78125 C 433.023438 169.503906 433.789062 172.625 436.019531 174.542969 C 438.25 176.457031 441.453125 176.71875 443.984375 175.210938 C 457.941406 166.847656 470.476562 166.628906 481.230469 174.542969 C 501.648438 189.542969 512.5 232.027344 504.46875 265.441406 C 497.351562 295.019531 479.671875 302.136719 469.75 303.75 C 467.097656 304.1875 464.949219 306.132812 464.25 308.734375 C 463.550781 311.332031 464.441406 314.097656 466.523438 315.796875 C 480.246094 327.046875 487.335938 343.855469 484.585938 358.625 C 483.09375 366.65625 477.976562 377.335938 462.128906 382.5625 C 452.070312 385.890625 441.753906 392.925781 433.089844 402.367188 C 422.828125 413.566406 415.289062 427.746094 411.304688 443.390625 C 408.625 453.902344 400.441406 461.8125 390.328125 464.316406 C 391.355469 433.289062 390.753906 397.140625 389.328125 360.9375 C 403.699219 359.953125 419.695312 356.707031 436.226562 349.5625 C 439.6875 348.058594 441.289062 344.03125 439.78125 340.570312 C 438.292969 337.105469 434.253906 335.503906 430.792969 336.996094 C 416.054688 343.375 401.699219 346.238281 388.742188 347.140625 C 387.496094 319.148438 385.8125 291.515625 384.085938 266.617188 C 408.570312 262.265625 431.1875 251.367188 448.664062 240.691406 C 451.894531 238.722656 452.90625 234.507812 450.933594 231.289062 C 448.964844 228.074219 444.75 227.046875 441.535156 229.019531 C 421.226562 241.417969 401.5625 249.398438 383.117188 252.886719 C 379.503906 203.492188 375.972656 167.765625 375.890625 166.945312 C 375.507812 163.179688 372.167969 160.429688 368.40625 160.8125 C 364.644531 161.183594 361.90625 164.535156 362.273438 168.300781 C 362.355469 169.121094 365.914062 205.078125 369.527344 254.640625 C 358.003906 255.421875 347.058594 254.3125 336.824219 251.257812 C 314.40625 244.582031 302.925781 230.839844 302.695312 230.550781 C 300.328125 227.621094 296.03125 227.15625 293.089844 229.511719 C 290.144531 231.878906 289.667969 236.175781 292.035156 239.132812 C 292.582031 239.816406 305.785156 256.007812 332.019531 264.097656 C 342.171875 267.234375 352.382812 268.585938 362.46875 268.585938 C 365.164062 268.585938 367.832031 268.476562 370.5 268.300781 C 372.195312 292.816406 373.839844 319.929688 375.070312 347.398438 C 351.054688 346.648438 334.441406 339.898438 334.042969 339.734375 C 330.570312 338.269531 326.558594 339.886719 325.082031 343.375 C 323.605469 346.851562 325.230469 350.875 328.707031 352.339844 C 329.96875 352.875 348.671875 360.59375 375.644531 361.238281 C 377.066406 397.414062 377.671875 433.507812 376.628906 464.386719 C 367.121094 462.113281 359.167969 455.011719 355.855469 445.277344 C 346.8125 418.765625 327.476562 394.71875 308.824219 386.792969 C 296.425781 381.523438 289.214844 374.226562 286.792969 364.453125 C 280.757812 340.199219 305.855469 308.898438 306.101562 308.597656 C 307.539062 306.832031 308.003906 304.476562 307.347656 302.300781 C 306.691406 300.125 305.007812 298.414062 302.832031 297.742188 C 271.054688 287.820312 236.886719 261.210938 245.164062 218.863281 C 249.394531 197.222656 266.347656 176.402344 291.023438 176.402344 C 292.253906 176.402344 293.511719 176.457031 294.785156 176.566406 C 298.546875 176.882812 301.792969 174.160156 302.160156 170.433594 Z M 517.769531 268.65625 C 521.410156 253.53125 521.765625 237.269531 519.425781 221.925781 C 522.75 226.921875 526.976562 232.261719 532.371094 237.488281 C 542.015625 246.867188 553.074219 253.75 564.746094 258.71875 C 555.125 281.332031 544.261719 306.242188 532.890625 331.261719 C 511.816406 319.667969 500.074219 306.089844 499.828125 305.789062 C 499.390625 305.269531 498.882812 304.875 498.351562 304.515625 C 507.4375 296.097656 514.085938 283.984375 517.769531 268.65625 Z M 286.792969 436.175781 C 271.835938 409.144531 255.960938 376.703125 240.800781 343.839844 C 264.527344 331.015625 277.691406 315.644531 278.570312 314.589844 C 281.003906 311.691406 280.621094 307.378906 277.71875 304.957031 C 274.820312 302.519531 270.507812 302.902344 268.085938 305.789062 C 267.894531 306.023438 256.222656 319.65625 235.054688 331.289062 C 223.65625 306.242188 212.789062 281.304688 203.15625 258.679688 C 214.910156 253.65625 224.078125 247.550781 231.152344 241.472656 C 234.765625 266.507812 251.363281 292.910156 289.871094 307.734375 C 281.632812 320.105469 267.894531 345.113281 273.507812 367.738281 C 276.378906 379.332031 283.769531 388.613281 295.496094 395.429688 C 295.59375 400.207031 295.949219 404.984375 296.617188 409.691406 C 298.082031 419.886719 294.238281 429.839844 286.792969 436.175781 Z M 382.84375 478.882812 C 382.855469 478.882812 382.871094 478.882812 382.882812 478.882812 C 382.980469 478.882812 383.0625 478.882812 383.15625 478.882812 C 383.15625 478.882812 383.171875 478.882812 383.171875 478.882812 C 383.171875 478.882812 383.183594 478.882812 383.183594 478.882812 L 383.445312 478.882812 C 392.175781 478.882812 400.386719 476.183594 407.226562 471.53125 C 399.332031 538.257812 401.21875 614.660156 402.65625 672.367188 C 403.503906 706.84375 404.394531 742.488281 401.617188 748.671875 C 397.320312 753.628906 385.074219 756.378906 376.507812 752.5625 C 370.636719 749.945312 368.363281 745.085938 369.542969 737.710938 C 372.332031 720.148438 369.144531 557.214844 358.003906 470.464844 C 365.039062 475.734375 373.6875 478.800781 382.84375 478.882812 Z M 415.808594 543.445312 C 416.929688 510.019531 419.488281 476.664062 424.621094 446.566406 C 431.1875 421.078125 446.351562 406.335938 458.160156 399.425781 C 451.015625 428.003906 433.679688 485.109375 415.808594 543.445312 Z M 339 440.023438 C 343.882812 460.949219 347.621094 496.183594 350.371094 535.203125 C 333.785156 482.289062 318.199219 431.890625 310.835938 403.667969 C 321.359375 411.195312 332.003906 424.925781 339 440.023438 Z M 416.339844 672.039062 C 415.753906 648.113281 415.082031 620.941406 415.054688 592.625 C 417.710938 583.933594 420.390625 575.1875 423.074219 566.453125 C 437.660156 518.835938 452.605469 470.066406 462.691406 434.835938 C 466.632812 441.953125 472.570312 447.949219 480.082031 451.863281 C 480.097656 451.875 480.109375 451.890625 480.125 451.890625 C 480.152344 451.902344 480.179688 451.917969 480.207031 451.929688 C 480.273438 451.972656 480.328125 452.011719 480.398438 452.039062 L 480.617188 452.148438 C 486.71875 455.257812 493.289062 456.761719 499.816406 456.761719 C 501.746094 456.761719 503.675781 456.613281 505.589844 456.351562 C 461.226562 526.183594 432.914062 617.671875 416.574219 681.441406 C 416.492188 678.429688 416.421875 675.296875 416.339844 672.039062 Z M 481.109375 436.175781 C 473.664062 429.824219 469.820312 419.886719 471.285156 409.703125 C 472.0625 404.257812 472.445312 398.714844 472.460938 393.210938 C 486.351562 386.820312 495.339844 375.625 498.035156 361.15625 C 501.003906 345.15625 495.585938 327.582031 483.941406 313.851562 C 485.324219 313.261719 486.652344 312.605469 487.964844 311.894531 C 488.210938 312.851562 488.648438 313.785156 489.332031 314.589844 C 490.207031 315.644531 503.386719 331.015625 527.101562 343.839844 C 511.9375 376.71875 496.066406 409.144531 481.109375 436.175781 Z M 208.328125 406.597656 C 199.378906 403.257812 190.238281 401.535156 181.820312 401.535156 C 178.933594 401.535156 176.128906 401.738281 173.460938 402.148438 C 156.957031 404.683594 147.554688 397.507812 142.574219 391.023438 C 133.421875 379.113281 132.09375 360.921875 139.210938 344.664062 C 140.289062 342.199219 139.824219 339.324219 138.019531 337.339844 C 136.210938 335.339844 133.421875 334.589844 130.847656 335.410156 C 121.28125 338.476562 102.289062 340.171875 82.515625 317.054688 C 60.167969 290.9375 50.535156 248.167969 61.90625 225.511719 C 67.902344 213.578125 79.175781 208.089844 95.390625 209.183594 C 98.335938 209.390625 101.058594 207.691406 102.179688 204.96875 C 103.300781 202.257812 102.5625 199.125 100.347656 197.195312 C 91 189.035156 89.015625 169.996094 95.324219 148.671875 C 102.78125 123.445312 122.746094 94.605469 148.953125 90.882812 C 172.242188 87.570312 196.667969 104.722656 219.5625 140.460938 C 221.574219 143.609375 225.746094 144.550781 228.9375 142.582031 C 250.679688 129.085938 275.695312 138.558594 290.351562 155.3125 C 289.941406 157.828125 289.585938 160.320312 289.269531 162.785156 C 261.449219 163.730469 237.816406 185.257812 231.753906 216.273438 C 231.359375 218.339844 231.042969 220.464844 230.8125 222.613281 C 229.183594 224.488281 227.402344 226.375 225.433594 228.238281 C 217.714844 235.601562 208.4375 241.542969 197.820312 246.070312 C 178.523438 200.300781 165.359375 166.671875 165.058594 165.90625 C 163.691406 162.386719 159.707031 160.648438 156.191406 162.019531 C 152.675781 163.386719 150.9375 167.355469 152.304688 170.886719 C 152.605469 171.652344 165.6875 205.066406 184.902344 250.683594 C 166.878906 255.980469 145.75 257.828125 122.035156 256.023438 C 118.257812 255.75 114.972656 258.554688 114.6875 262.320312 C 114.398438 266.082031 117.21875 269.382812 120.980469 269.667969 C 127.453125 270.160156 133.613281 270.394531 139.496094 270.394531 C 159.652344 270.394531 176.390625 267.65625 190.277344 263.386719 C 200.050781 286.367188 211.121094 311.757812 222.738281 337.285156 C 210.792969 342.363281 196.710938 346.304688 180.660156 347.332031 C 176.882812 347.578125 174.023438 350.820312 174.269531 354.597656 C 174.5 358.226562 177.511719 361.003906 181.097656 361.003906 C 181.246094 361.003906 181.382812 361.003906 181.535156 360.992188 C 199.515625 359.839844 215.226562 355.449219 228.472656 349.796875 C 243.660156 382.699219 259.546875 415.179688 274.558594 442.347656 C 264.417969 444.703125 253.527344 441.390625 246.371094 433.234375 C 235.722656 421.105469 222.558594 411.894531 208.328125 406.597656 Z M 262.339844 456.367188 C 264.253906 456.625 266.171875 456.777344 268.101562 456.777344 C 274.613281 456.777344 281.195312 455.269531 287.300781 452.164062 L 287.53125 452.039062 C 287.601562 452.011719 287.65625 451.972656 287.710938 451.929688 C 287.738281 451.917969 287.765625 451.902344 287.792969 451.890625 C 287.804688 451.875 287.820312 451.863281 287.832031 451.863281 C 295.386719 447.933594 301.367188 441.898438 305.292969 434.710938 C 315.832031 470.914062 331.703125 521.460938 347.207031 570.804688 C 349.328125 577.566406 351.464844 584.355469 353.585938 591.117188 C 355.390625 629.921875 356.351562 667.65625 356.609375 694.964844 C 326.175781 575.773438 291.105469 501.589844 262.339844 456.367188 Z M 685.386719 317.054688 C 665.613281 340.160156 646.621094 338.476562 637.054688 335.410156 C 634.496094 334.589844 631.691406 335.339844 629.882812 337.339844 C 628.078125 339.339844 627.613281 342.199219 628.691406 344.664062 C 635.808594 360.921875 634.480469 379.128906 625.328125 391.023438 C 620.34375 397.496094 610.957031 404.683594 594.441406 402.148438 C 583.972656 400.535156 571.589844 402.109375 559.574219 406.597656 C 545.34375 411.910156 532.191406 421.105469 521.53125 433.234375 C 514.363281 441.378906 503.484375 444.703125 493.34375 442.335938 C 508.355469 415.152344 524.242188 382.671875 539.429688 349.78125 C 552.691406 355.433594 568.386719 359.828125 586.367188 360.976562 C 586.519531 360.992188 586.667969 360.992188 586.804688 360.992188 C 590.390625 360.992188 593.402344 358.214844 593.632812 354.585938 C 593.867188 350.808594 591.007812 347.5625 587.242188 347.316406 C 571.21875 346.292969 557.136719 342.335938 545.179688 337.242188 C 556.78125 311.746094 567.839844 286.355469 577.609375 263.386719 C 594.703125 268.585938 612.476562 270.367188 628.691406 270.367188 C 635.042969 270.367188 641.160156 270.09375 646.90625 269.65625 C 650.667969 269.367188 653.503906 266.082031 653.203125 262.304688 C 652.914062 258.542969 649.65625 255.722656 645.851562 256.007812 C 622.125 257.828125 601.011719 255.96875 582.988281 250.683594 C 602.214844 205.066406 615.28125 171.652344 615.582031 170.875 C 616.953125 167.355469 615.214844 163.386719 611.695312 162.003906 C 608.179688 160.636719 604.210938 162.375 602.828125 165.890625 C 602.527344 166.65625 589.363281 200.289062 570.070312 246.058594 C 559.464844 241.527344 550.1875 235.585938 542.457031 228.222656 C 525.527344 212.085938 521.546875 194.636719 521.464844 194.265625 C 520.683594 190.582031 517.085938 188.203125 513.375 188.96875 C 512.117188 189.226562 511.035156 189.832031 510.160156 190.636719 C 504.878906 179.265625 497.804688 169.75 489.304688 163.507812 C 485.171875 160.472656 480.78125 158.28125 476.195312 156.886719 C 485.980469 144.855469 501.046875 136.136719 516.742188 136.136719 C 524.171875 136.136719 531.742188 138.09375 538.9375 142.554688 C 542.113281 144.523438 546.285156 143.582031 548.3125 140.433594 C 571.207031 104.679688 595.632812 87.542969 618.921875 90.855469 C 645.128906 94.578125 665.09375 123.417969 672.550781 148.644531 C 678.859375 169.96875 676.875 189.023438 667.515625 197.179688 C 665.296875 199.109375 664.558594 202.246094 665.679688 204.957031 C 666.804688 207.679688 669.527344 209.375 672.46875 209.171875 C 688.699219 208.074219 699.960938 213.566406 705.953125 225.5 C 717.351562 248.152344 707.734375 290.925781 685.386719 317.054688 Z M 685.386719 317.054688 " fill-opacity="1" fill-rule="nonzero"/></svg>