<svg xmlns="http://www.w3.org/2000/svg" xmlns:xlink="http://www.w3.org/1999/xlink" width="1024" zoomAndPan="magnify" viewBox="0 0 768 767.999994" height="1024" preserveAspectRatio="xMidYMid meet" version="1.0"><path fill="#fdeecc" d="M 453.972656 327.394531 C 453.972656 327.394531 525.65625 543.953125 438.859375 655.949219 C 352.066406 767.945312 182.710938 670.152344 246.226562 563.195312 C 309.742188 456.238281 353.347656 397.800781 338.386719 326.417969 " fill-opacity="1" fill-rule="nonzero"/><path fill="#875e39" d="M 60.707031 317.242188 C 21.167969 204.214844 118.460938 168.296875 244.835938 86.375 C 378.125 -0.0273438 411.890625 67.960938 552.628906 108.492188 C 700.851562 151.179688 749.042969 322.550781 680.660156 344.765625 C 612.277344 366.976562 416.195312 292.222656 265.324219 341.085938 C 114.449219 389.949219 71.925781 349.3125 60.707031 317.242188 Z M 60.707031 317.242188 " fill-opacity="1" fill-rule="nonzero"/><path fill="#000000" d="M 717.847656 290.242188 C 717.285156 256.90625 701.402344 217.054688 675.339844 183.648438 C 653.878906 156.128906 615.488281 119.632812 554.472656 102.0625 C 516.683594 91.175781 486.679688 78.296875 460.203125 66.917969 C 388.609375 36.1875 341.3125 15.875 241.199219 80.773438 C 222.519531 92.886719 204.640625 103.878906 187.351562 114.511719 C 89.589844 174.648438 18.949219 218.109375 54.398438 319.449219 C 60.066406 335.65625 74.132812 356.894531 108.953125 365.972656 C 120.292969 368.929688 133.117188 370.398438 147.410156 370.398438 C 179.996094 370.398438 220.152344 362.722656 267.382812 347.425781 C 288.457031 340.605469 310.480469 336.257812 332.945312 333.730469 C 342.332031 391.085938 312.164062 440.996094 263.222656 521.914062 C 255.9375 533.976562 248.394531 546.441406 240.464844 559.785156 C 208.398438 613.796875 232.734375 664.308594 271.085938 690.410156 C 291.519531 704.320312 316.601562 712.421875 342.503906 712.421875 C 378.246094 712.421875 415.527344 696.976562 444.144531 660.042969 C 464.640625 633.578125 478.199219 599.367188 484.445312 558.367188 C 489.378906 525.914062 489.78125 489.109375 485.609375 448.976562 C 480.285156 397.667969 468.71875 353.75 463.265625 334.988281 C 492.1875 337.851562 520.226562 341.78125 546.316406 345.445312 C 606.328125 353.871094 653.71875 360.53125 682.707031 351.117188 C 705.574219 343.695312 718.371094 321.507812 717.847656 290.242188 Z M 472.316406 450.355469 C 478.640625 511.308594 477.0625 595.746094 433.578125 651.855469 C 389.292969 709.011719 322.097656 708.960938 278.613281 679.363281 C 229.417969 645.878906 233.511719 597.699219 251.964844 566.617188 C 259.855469 553.328125 267.382812 540.875 274.65625 528.839844 C 323.25 448.484375 355.957031 394.363281 346.25 332.449219 C 380.265625 329.691406 415.046875 330.816406 448.917969 333.679688 C 453.167969 347.558594 466.5 394.390625 472.316406 450.355469 Z M 678.589844 338.398438 C 652.527344 346.863281 604.175781 340.070312 548.1875 332.207031 C 518.917969 328.101562 487.214844 323.648438 454.519531 320.71875 C 454.519531 320.71875 454.503906 320.71875 454.503906 320.71875 C 390.988281 315.035156 323.730469 315.128906 263.277344 334.707031 C 213.171875 350.929688 175.636719 357.121094 147.503906 357.121094 C 92.53125 357.121094 73.503906 333.503906 67.035156 315.035156 C 52.097656 272.324219 56.550781 239.789062 81.488281 209.550781 C 105.25 180.734375 146.554688 155.324219 194.371094 125.90625 C 211.730469 115.234375 229.660156 104.1875 248.472656 91.992188 C 294.164062 62.371094 327.636719 51.417969 358.003906 51.417969 C 390.1875 51.417969 418.898438 63.75 454.933594 79.21875 C 481.769531 90.746094 512.191406 103.8125 550.78125 114.925781 C 608.347656 131.507812 644.558594 165.929688 664.804688 191.886719 C 689.140625 223.085938 703.96875 259.941406 704.476562 290.484375 C 705.050781 324.679688 688.511719 335.175781 678.589844 338.398438 Z M 678.589844 338.398438 " fill-opacity="1" fill-rule="nonzero"/><path fill="#000000" d="M 638.835938 212.855469 C 587.929688 218.644531 552.480469 211.25 533.480469 190.855469 C 514.25 170.234375 519.023438 142.445312 519.132812 141.898438 C 519.8125 138.273438 517.445312 134.785156 513.824219 134.089844 C 510.1875 133.378906 506.695312 135.773438 506 139.398438 C 505.734375 140.800781 499.6875 174.046875 523.570312 199.828125 C 541.007812 218.644531 569.261719 228.113281 607.800781 228.113281 C 617.949219 228.113281 628.804688 227.457031 640.371094 226.132812 C 644.035156 225.71875 646.671875 222.402344 646.257812 218.738281 C 645.816406 215.074219 642.484375 212.425781 638.835938 212.855469 Z M 638.835938 212.855469 " fill-opacity="1" fill-rule="nonzero"/><path fill="#000000" d="M 308.566406 138.15625 C 305.050781 137.058594 301.304688 139.050781 300.210938 142.554688 C 299.554688 144.652344 283.347656 194.144531 216.179688 202.023438 C 212.519531 202.449219 209.882812 205.78125 210.324219 209.445312 C 210.726562 212.839844 213.613281 215.355469 216.957031 215.355469 C 217.210938 215.355469 217.480469 215.34375 217.746094 215.316406 C 293.882812 206.382812 312.257812 148.917969 312.992188 146.484375 C 314.0625 142.96875 312.082031 139.25 308.566406 138.15625 Z M 308.566406 138.15625 " fill-opacity="1" fill-rule="nonzero"/><path fill="#000000" d="M 143.398438 262.253906 C 128.636719 248.199219 111.425781 240.347656 110.691406 240.027344 C 107.324219 238.515625 103.363281 240.015625 101.851562 243.371094 C 100.34375 246.742188 101.839844 250.699219 105.210938 252.210938 C 105.371094 252.277344 121.054688 259.417969 134.1875 271.921875 C 150.632812 287.582031 155.191406 304.003906 147.746094 320.691406 C 146.246094 324.0625 147.757812 328.023438 151.128906 329.519531 C 152.011719 329.90625 152.933594 330.09375 153.84375 330.09375 C 156.398438 330.09375 158.84375 328.625 159.953125 326.136719 C 169.808594 304.058594 164.085938 281.964844 143.398438 262.253906 Z M 143.398438 262.253906 " fill-opacity="1" fill-rule="nonzero"/></svg>