<svg xmlns="http://www.w3.org/2000/svg" xmlns:xlink="http://www.w3.org/1999/xlink" width="1024" zoomAndPan="magnify" viewBox="0 0 768 767.999994" height="1024" preserveAspectRatio="xMidYMid meet" version="1.0"><path fill="#bd906f" d="M 283.261719 77.382812 C 324.839844 37.347656 468.574219 1.96875 515.253906 117.234375 C 561.933594 232.5 515.148438 251.949219 550.402344 375.085938 C 605.449219 567.378906 484.980469 663.671875 463.710938 707.609375 C 439.566406 757.460938 356.949219 768.089844 299.53125 718.921875 C 268.734375 692.554688 214.851562 666.265625 212.960938 550.730469 C 210.320312 389.140625 193.019531 487.285156 176.046875 329.421875 C 161.984375 198.582031 228.066406 130.527344 283.261719 77.382812 Z M 283.261719 77.382812 " fill-opacity="1" fill-rule="nonzero"/><path fill="#000000" d="M 401.570312 732.410156 C 370.472656 732.410156 338.902344 720.648438 313.625 698.996094 C 309.941406 695.835938 305.882812 692.660156 301.589844 689.292969 C 269.972656 664.507812 226.679688 630.570312 224.980469 526.390625 C 223.59375 441.574219 218.34375 429.875 211.082031 413.671875 C 204.429688 398.828125 196.136719 380.378906 188.113281 305.621094 C 181.699219 245.929688 190.960938 194.035156 216.433594 146.984375 C 237.984375 107.1875 268.109375 76.578125 297.117188 48.644531 C 325.109375 21.683594 390.324219 0.03125 446.859375 12.058594 C 489.902344 21.207031 521.695312 48.363281 538.773438 90.554688 C 562.007812 147.9375 562.648438 181.320312 561.066406 219.011719 C 560.933594 222.308594 558.144531 224.886719 554.863281 224.722656 C 551.566406 224.585938 549.015625 221.800781 549.152344 218.523438 C 550.671875 182.289062 550.0625 150.1875 527.722656 95.027344 C 511.972656 56.128906 483.921875 32.132812 444.386719 23.710938 C 388.699219 11.863281 327.898438 35.5625 305.390625 57.214844 C 275.878906 85.636719 247.675781 114.3125 226.933594 152.644531 C 202.652344 197.507812 193.839844 247.121094 199.984375 304.339844 C 207.8125 377.203125 215.671875 394.714844 221.980469 408.785156 C 229.828125 426.28125 235.507812 438.921875 236.925781 526.183594 C 238.535156 624.699219 277.578125 655.3125 308.972656 679.902344 C 313.371094 683.359375 317.53125 686.609375 321.410156 689.933594 C 350.578125 714.914062 388.773438 725.492188 423.550781 718.234375 C 447.980469 713.136719 467.21875 699.398438 476.34375 680.542969 C 480.742188 671.46875 488.648438 660.929688 498.65625 647.589844 C 538.875 593.964844 606.179688 504.230469 562.679688 352.269531 C 561.8125 349.273438 560.875 346.144531 559.875 342.910156 C 554.667969 325.859375 548.195312 304.621094 548.195312 278.03125 C 548.195312 274.738281 550.867188 272.070312 554.164062 272.070312 C 557.457031 272.070312 560.128906 274.738281 560.128906 278.03125 C 560.128906 302.847656 566.046875 322.28125 571.28125 339.4375 C 572.296875 342.746094 573.265625 345.933594 574.144531 348.992188 C 593.683594 417.25 593.339844 481.84375 573.132812 540.953125 C 556.027344 590.984375 528.390625 627.828125 508.199219 654.746094 C 498.96875 667.054688 490.988281 677.695312 487.082031 685.746094 C 476.328125 707.953125 454.0625 724.046875 425.980469 729.90625 C 417.945312 731.605469 409.769531 732.410156 401.570312 732.410156 Z M 401.570312 732.410156 " fill-opacity="1" fill-rule="nonzero"/><path fill="#000000" d="M 547.585938 141.171875 C 547.226562 141.171875 546.855469 141.140625 546.480469 141.066406 C 516.9375 135.550781 483.488281 135.433594 447.054688 140.722656 C 443.789062 141.183594 440.761719 138.933594 440.296875 135.683594 C 439.820312 132.421875 442.089844 129.394531 445.339844 128.933594 C 483.070312 123.464844 517.832031 123.597656 548.675781 129.351562 C 551.910156 129.960938 554.042969 133.0625 553.445312 136.3125 C 552.910156 139.15625 550.402344 141.171875 547.585938 141.171875 Z M 547.585938 141.171875 " fill-opacity="1" fill-rule="nonzero"/><path fill="#000000" d="M 194.855469 237.0625 C 192.871094 237.0625 190.933594 236.078125 189.800781 234.273438 C 188.039062 231.488281 188.875 227.808594 191.664062 226.046875 C 192.558594 225.480469 281.636719 169.785156 385.820312 141.46875 C 388.996094 140.605469 392.277344 142.480469 393.144531 145.65625 C 394.007812 148.832031 392.128906 152.109375 388.953125 152.972656 C 286.542969 180.816406 198.894531 235.585938 198.03125 236.136719 C 197.03125 236.765625 195.929688 237.0625 194.855469 237.0625 Z M 194.855469 237.0625 " fill-opacity="1" fill-rule="nonzero"/><path fill="#000000" d="M 446.191406 256.871094 C 443.324219 256.871094 440.804688 254.8125 440.3125 251.90625 C 439.761719 248.65625 441.953125 245.585938 445.191406 245.035156 C 469.574219 240.890625 491.839844 239.34375 511.390625 240.414062 C 514.6875 240.59375 517.207031 243.410156 517.011719 246.691406 C 516.835938 249.984375 514 252.457031 510.734375 252.308594 C 492.078125 251.28125 470.691406 252.785156 447.1875 256.765625 C 446.859375 256.839844 446.519531 256.871094 446.191406 256.871094 Z M 446.191406 256.871094 " fill-opacity="1" fill-rule="nonzero"/><path fill="#000000" d="M 269.226562 314.683594 C 266.945312 314.683594 264.769531 313.371094 263.769531 311.148438 C 262.425781 308.140625 263.785156 304.621094 266.78125 303.28125 C 308.523438 284.664062 348.195312 269.851562 384.714844 259.210938 C 387.878906 258.285156 391.1875 260.105469 392.113281 263.261719 C 393.039062 266.421875 391.21875 269.730469 388.058594 270.65625 C 352.054688 281.132812 312.894531 295.769531 271.660156 314.160156 C 270.851562 314.503906 270.03125 314.683594 269.226562 314.683594 Z M 269.226562 314.683594 " fill-opacity="1" fill-rule="nonzero"/><path fill="#000000" d="M 198.804688 349.066406 C 196.703125 349.066406 194.660156 347.949219 193.570312 345.980469 C 191.976562 343.105469 193.035156 339.46875 195.914062 337.886719 C 196.046875 337.8125 209.351562 330.496094 230.765625 320.0625 C 233.734375 318.617188 237.296875 319.851562 238.746094 322.804688 C 240.191406 325.769531 238.953125 329.332031 236 330.777344 C 214.898438 341.0625 201.820312 348.246094 201.683594 348.320312 C 200.773438 348.828125 199.789062 349.066406 198.804688 349.066406 Z M 198.804688 349.066406 " fill-opacity="1" fill-rule="nonzero"/><path fill="#000000" d="M 308.269531 436.96875 C 306.0625 436.96875 303.929688 435.730469 302.902344 433.613281 C 301.457031 430.648438 302.691406 427.085938 305.660156 425.640625 C 306.0625 425.449219 346.195312 405.984375 398.214844 386.414062 C 468.304688 360.035156 525.5 345.996094 568.195312 344.683594 C 571.492188 344.640625 574.234375 347.171875 574.339844 350.453125 C 574.445312 353.746094 571.847656 356.488281 568.570312 356.589844 C 469.664062 359.648438 312.460938 435.582031 310.878906 436.359375 C 310.046875 436.773438 309.152344 436.96875 308.269531 436.96875 Z M 308.269531 436.96875 " fill-opacity="1" fill-rule="nonzero"/><path fill="#000000" d="M 451.589844 469.578125 C 449.15625 469.578125 446.890625 468.089844 445.996094 465.6875 C 444.847656 462.601562 446.429688 459.175781 449.515625 458.027344 C 503.726562 437.96875 547.882812 424.734375 580.769531 418.695312 C 584.003906 418.101562 587.121094 420.246094 587.71875 423.480469 C 588.3125 426.714844 586.167969 429.828125 582.929688 430.425781 C 550.730469 436.34375 507.246094 449.398438 453.660156 469.207031 C 452.976562 469.460938 452.273438 469.578125 451.589844 469.578125 Z M 451.589844 469.578125 " fill-opacity="1" fill-rule="nonzero"/><path fill="#000000" d="M 282.066406 540.328125 C 279.832031 540.328125 277.667969 539.0625 276.65625 536.882812 C 275.253906 533.902344 276.550781 530.355469 279.53125 528.957031 C 280.085938 528.703125 335.441406 502.875 402.328125 476.179688 C 405.386719 474.957031 408.863281 476.449219 410.085938 479.503906 C 411.308594 482.558594 409.816406 486.03125 406.757812 487.253906 C 340.199219 513.8125 285.140625 539.492188 284.589844 539.761719 C 283.769531 540.148438 282.917969 540.328125 282.066406 540.328125 Z M 282.066406 540.328125 " fill-opacity="1" fill-rule="nonzero"/><path fill="#000000" d="M 463.144531 573.207031 C 460.609375 573.207031 458.269531 571.582031 457.464844 569.046875 C 456.464844 565.902344 458.210938 562.5625 461.339844 561.566406 C 498.582031 549.746094 533.539062 541.503906 565.242188 537.078125 C 568.507812 536.632812 571.519531 538.898438 571.984375 542.160156 C 572.445312 545.425781 570.164062 548.433594 566.898438 548.898438 C 535.863281 553.234375 501.5625 561.3125 464.964844 572.9375 C 464.355469 573.117188 463.742188 573.207031 463.144531 573.207031 Z M 463.144531 573.207031 " fill-opacity="1" fill-rule="nonzero"/><path fill="#000000" d="M 269.226562 657.308594 C 267.15625 657.308594 265.140625 656.21875 264.039062 654.296875 C 262.410156 651.4375 263.394531 647.800781 266.257812 646.160156 C 266.839844 645.832031 325.511719 612.535156 402.375 582.492188 C 405.445312 581.296875 408.90625 582.804688 410.097656 585.875 C 411.292969 588.945312 409.785156 592.402344 406.714844 593.59375 C 330.640625 623.328125 272.730469 656.175781 272.164062 656.503906 C 271.242188 657.054688 270.226562 657.308594 269.226562 657.308594 Z M 269.226562 657.308594 " fill-opacity="1" fill-rule="nonzero"/></svg>