<svg xmlns="http://www.w3.org/2000/svg" xmlns:xlink="http://www.w3.org/1999/xlink" width="1024" zoomAndPan="magnify" viewBox="0 0 768 767.999994" height="1024" preserveAspectRatio="xMidYMid meet" version="1.0"><defs><clipPath id="414cd0c4b2"><path d="M 16.320312 48 L 727 48 L 727 768 L 16.320312 768 Z M 16.320312 48 " clip-rule="nonzero"/></clipPath></defs><path fill="#21894b" d="M 691.5 277.085938 C 733.875 260.046875 737.785156 120.339844 632.476562 203.28125 C 618.625 158.484375 547.179688 171.371094 578.03125 238.96875 C 578.03125 238.96875 457.675781 202.695312 515.203125 275.53125 L 409.609375 364.121094 L 457.292969 394.203125 L 535.871094 356.34375 C 571.855469 402.421875 637.726562 367.847656 634.816406 330.699219 C 684.582031 368.132812 751.304688 319.054688 691.5 277.085938 Z M 691.5 277.085938 " fill-opacity="1" fill-rule="nonzero"/><path fill="#21894b" d="M 574.652344 145.355469 C 617.027344 128.316406 622.605469 0.355469 517.285156 83.28125 C 472.46875 42.125 416.554688 86.691406 455.378906 150.410156 C 455.378906 150.410156 363.679688 169.957031 421.203125 242.792969 L 380.039062 326.804688 L 409.59375 368.089844 L 492.664062 270.078125 C 528.652344 316.160156 543.628906 244.707031 540.71875 207.5625 C 590.5 244.992188 644.484375 164.40625 574.652344 145.355469 Z M 574.652344 145.355469 " fill-opacity="1" fill-rule="nonzero"/><path fill="#3eb57b" d="M 631.691406 213.371094 C 674.070312 196.332031 669.433594 60.492188 564.109375 143.429688 C 531.574219 103.289062 470.070312 112.378906 508.285156 189.082031 C 508.285156 189.082031 416.753906 196.542969 474.28125 269.378906 L 409.578125 338.105469 L 440.375 368.101562 L 514.671875 300.046875 C 550.660156 346.125 589.085938 314.804688 586.175781 277.65625 C 635.972656 315.089844 701.527344 232.421875 631.691406 213.371094 Z M 631.691406 213.371094 " fill-opacity="1" fill-rule="nonzero"/><path fill="#881c4e" d="M 377.1875 301.347656 C 206.695312 152.09375 69.824219 322.167969 41.710938 435.203125 C 66.714844 424.199219 92.257812 438.882812 113.640625 440.140625 C 247.644531 448.015625 135.378906 567.6875 165.773438 613.722656 C 209.234375 679.554688 316.011719 624.140625 337.890625 670.019531 C 347.734375 690.671875 349.574219 707.09375 343.367188 729.726562 C 366.191406 723.019531 390.980469 711.933594 419.195312 694.136719 C 590.914062 585.898438 518.738281 425.253906 377.1875 301.347656 Z M 377.1875 301.347656 " fill-opacity="1" fill-rule="nonzero"/><path fill="#f9f2e4" d="M 348.347656 665.824219 C 326.464844 619.945312 217.007812 672.519531 173.546875 606.6875 C 143.152344 560.652344 252.125 424.984375 118.117188 417.09375 C 96.722656 415.835938 66.714844 424.199219 41.710938 435.203125 C 36.703125 455.324219 35.148438 473.644531 37.457031 488.015625 C 57.3125 611.527344 23.878906 760.523438 23.878906 760.523438 C 177.753906 700.6875 240.371094 760.007812 343.355469 729.726562 C 349.574219 707.09375 358.1875 686.460938 348.347656 665.824219 Z M 348.347656 665.824219 " fill-opacity="1" fill-rule="nonzero"/><g clip-path="url(#414cd0c4b2)"><path fill="#000000" d="M 726.402344 223.644531 C 727.5 200.054688 719.382812 181.460938 704.691406 173.898438 C 693.324219 168.046875 679.273438 168.761719 662.742188 175.964844 C 663.257812 172.757812 663.597656 169.546875 663.742188 166.417969 C 664.882812 141.816406 655.984375 122.195312 639.921875 113.917969 C 629.921875 108.769531 618.710938 108.710938 607.402344 111.636719 C 608.941406 105.855469 609.882812 99.992188 610.140625 94.398438 C 611.082031 74.234375 604.105469 58.792969 591.011719 52.058594 C 573.554688 43.066406 548.835938 50.488281 517.484375 74.105469 C 493.007812 54.683594 467.503906 57.835938 452.355469 70.292969 C 442.34375 78.527344 436.28125 90.914062 435.3125 105.1875 C 434.425781 118.027344 437.679688 132 444.738281 146.011719 C 430.988281 150.566406 405.800781 161.753906 397.65625 184.34375 C 391.394531 201.710938 396.5 221.644531 412.816406 243.636719 L 385.558594 299.25 C 384.320312 298.148438 383.078125 297.050781 381.835938 295.953125 C 349.628906 267.753906 316.753906 249.230469 284.089844 240.867188 C 254.433594 233.277344 224.882812 233.988281 196.226562 242.980469 C 183.53125 246.960938 171.320312 252.511719 159.683594 259.335938 C 159.269531 259.535156 158.882812 259.761719 158.527344 260.019531 C 96.238281 297.050781 50.453125 370.273438 34.734375 433.445312 C 29.441406 454.738281 27.929688 473.988281 30.355469 489.117188 C 49.769531 609.800781 17.191406 757.441406 16.863281 758.925781 C 16.292969 761.492188 17.175781 764.175781 19.171875 765.890625 C 20.484375 767.015625 22.140625 767.617188 23.824219 767.617188 C 24.691406 767.617188 25.5625 767.457031 26.40625 767.128906 C 113.683594 733.195312 169.640625 738.148438 223.753906 742.929688 C 263.207031 746.425781 300.476562 749.707031 345.308594 736.519531 C 370.382812 729.144531 395.773438 717.242188 422.929688 700.132812 C 486.804688 659.875 521.476562 610.15625 526.011719 552.363281 C 529.863281 503.300781 511.335938 449.359375 472.722656 394.617188 L 533.914062 365.132812 C 555.140625 388.351562 583.464844 388.738281 603.664062 380.890625 C 622.734375 373.46875 636.542969 358.855469 640.675781 342.902344 C 661.789062 354.132812 683.070312 352.40625 697.148438 346.210938 C 711.4375 339.933594 720.738281 328.375 722.035156 315.273438 C 723.621094 299.347656 713.480469 286.347656 703.808594 277.742188 C 718.113281 265.753906 725.515625 242.792969 726.402344 223.644531 Z M 633.417969 126.605469 C 646.3125 133.242188 650.191406 151.179688 649.507812 165.75 C 648.59375 185.414062 640.179688 202.265625 629.039062 206.746094 C 626.199219 207.890625 624.402344 210.730469 624.574219 213.78125 C 624.746094 216.835938 626.855469 219.449219 629.824219 220.246094 C 640.320312 223.117188 653.171875 229.136719 654.8125 241.582031 C 656.296875 252.828125 647.824219 266.554688 634.671875 274.246094 C 627.710938 278.3125 609.484375 286.234375 590.484375 271.949219 C 588.246094 270.265625 585.222656 270.050781 582.769531 271.40625 C 580.3125 272.761719 578.875 275.417969 579.085938 278.214844 C 580.355469 294.425781 572.398438 309.652344 560.144531 314.417969 C 547.878906 319.199219 533.359375 312.347656 520.308594 295.652344 C 519.082031 294.082031 517.253906 293.097656 515.285156 292.941406 C 513.304688 292.769531 511.351562 293.441406 509.882812 294.78125 L 442.628906 356.386719 C 436.308594 349.136719 429.648438 341.886719 422.660156 334.652344 L 479.515625 274.261719 C 481.9375 271.691406 482.109375 267.726562 479.914062 264.941406 C 469.402344 251.628906 458.132812 232.804688 464.210938 218.792969 C 471.167969 202.722656 498.839844 197.015625 508.910156 196.171875 C 511.265625 195.988281 513.375 194.632812 514.546875 192.5625 C 515.714844 190.492188 515.773438 187.996094 514.714844 185.871094 C 501.125 158.585938 499.667969 137.121094 510.921875 129.875 C 521.421875 123.109375 543.101562 128.730469 558.621094 147.898438 C 561.074219 150.921875 565.507812 151.421875 568.574219 149.011719 C 596.175781 127.261719 619.226562 119.300781 633.417969 126.605469 Z M 427.609375 245.960938 C 428.820312 243.492188 428.507812 240.554688 426.796875 238.398438 C 411.578125 219.132812 406.300781 202.582031 411.09375 189.238281 C 419.535156 165.71875 456.507812 157.488281 456.863281 157.414062 C 459.132812 156.929688 461.015625 155.390625 461.925781 153.261719 C 462.839844 151.136719 462.667969 148.695312 461.46875 146.726562 C 448.25 125.035156 443.113281 96.410156 461.441406 81.339844 C 477.175781 68.410156 498.398438 75.644531 512.460938 88.5625 C 515.042969 90.929688 518.953125 91.074219 521.691406 88.917969 C 559.433594 59.191406 577.246094 61.035156 584.507812 64.773438 C 592.308594 68.78125 596.5625 79.628906 595.90625 93.753906 C 595.503906 102.359375 593.367188 110.894531 590.070312 118.230469 C 581.253906 122.539062 572.742188 128.0625 565.050781 133.753906 C 546.125 114.117188 519.964844 107.097656 503.148438 117.929688 C 494.960938 123.210938 478.957031 139.820312 497.800781 183.472656 C 483.921875 186.210938 459.558594 193.703125 451.101562 213.125 C 444.441406 228.4375 449.105469 247.191406 464.949219 268.921875 L 412.589844 324.550781 C 407.425781 319.441406 402.089844 314.347656 396.585938 309.265625 Z M 225.066406 728.757812 C 174.332031 724.277344 117.132812 719.210938 33.421875 749.335938 C 40.894531 710.363281 60.980469 589.394531 44.492188 486.890625 C 42.480469 474.417969 43.632812 458.390625 47.800781 440.339844 C 73.773438 429.335938 100.289062 423.1875 117.691406 424.214844 C 144.691406 425.796875 162.292969 432.648438 171.480469 445.132812 C 186.296875 465.269531 177.984375 498.875 169.9375 531.371094 C 162.265625 562.335938 155.03125 591.589844 167.597656 610.628906 C 193.34375 649.613281 240.484375 650.414062 278.355469 651.054688 C 308.136719 651.554688 333.839844 651.996094 341.898438 668.894531 C 349.203125 684.191406 344.550781 700.03125 339.1875 718.355469 C 338.648438 720.210938 338.105469 722.078125 337.5625 723.949219 C 296.953125 735.109375 262.007812 732.027344 225.066406 728.757812 Z M 511.847656 551.292969 C 509.765625 577.777344 500.636719 602.507812 484.578125 625.324219 C 436.023438 553.804688 399.296875 543.457031 397.699219 543.042969 C 393.917969 542.042969 390.066406 544.300781 389.039062 548.082031 C 388.011719 551.863281 390.253906 555.757812 394.003906 556.828125 C 394.089844 556.855469 403.105469 559.496094 417.894531 571.15625 C 431.105469 581.574219 451.601562 601.410156 475.390625 637.242188 C 460.085938 655.550781 440.074219 672.53125 415.371094 688.101562 C 393.917969 701.628906 373.691406 711.71875 353.921875 718.78125 C 359.214844 700.53125 363.824219 681.738281 354.765625 662.757812 C 342.898438 637.882812 311.660156 637.339844 278.582031 636.785156 C 242.253906 636.171875 201.074219 635.472656 179.480469 602.75 C 170.367188 588.9375 176.871094 562.636719 183.773438 534.792969 C 192.601562 499.105469 201.746094 462.203125 182.960938 436.671875 C 171.109375 420.5625 150.027344 411.828125 118.53125 409.972656 C 101.1875 408.945312 77.253906 413.796875 52.550781 423.085938 C 62.5625 391.335938 79.976562 358.285156 101.574219 330.527344 C 114.609375 313.761719 133.28125 293.667969 157.144531 277.714844 C 160.4375 297.878906 170.59375 341.917969 200.234375 387.839844 C 201.601562 389.949219 203.886719 391.105469 206.238281 391.105469 C 207.566406 391.105469 208.90625 390.734375 210.105469 389.964844 C 213.414062 387.824219 214.371094 383.414062 212.230469 380.105469 C 180.820312 331.457031 172.347656 284.035156 170.410156 269.636719 C 179.78125 264.441406 189.835938 259.976562 200.546875 256.621094 C 256.574219 239.027344 314.429688 255.878906 372.496094 306.710938 C 468.160156 390.464844 517.65625 477.3125 511.847656 551.292969 Z M 687.40625 282.9375 C 701.613281 292.914062 708.898438 303.914062 707.902344 313.917969 C 707.117188 321.808594 700.96875 329.015625 691.46875 333.199219 C 678.804688 338.761719 658.394531 339.535156 639.082031 325.007812 C 636.839844 323.324219 633.816406 323.109375 631.363281 324.464844 C 628.910156 325.820312 627.46875 328.472656 627.683594 331.269531 C 628.78125 345.339844 616.53125 360.640625 598.542969 367.632812 C 590.46875 370.769531 562.511719 378.917969 541.460938 351.964844 C 539.390625 349.324219 535.769531 348.46875 532.746094 349.921875 L 464.195312 382.945312 C 460.257812 377.734375 456.121094 372.511719 451.828125 367.289062 L 514.003906 310.335938 C 536.527344 335.09375 557.109375 330.914062 565.296875 327.730469 C 580.058594 321.996094 590.398438 307.296875 592.894531 289.871094 C 608.5 296.835938 626.085938 295.792969 641.863281 286.578125 C 660.046875 275.945312 671.1875 256.679688 668.949219 239.710938 C 667.964844 232.234375 663.628906 219.847656 646.769531 211.414062 C 651.191406 206.804688 654.726562 201.027344 657.410156 194.730469 C 674.695312 184.671875 688.804688 181.761719 698.175781 186.582031 C 707.757812 191.519531 712.992188 205.121094 712.167969 222.972656 C 711.140625 245.121094 701.113281 265.527344 688.859375 270.464844 C 686.433594 271.433594 684.738281 273.675781 684.4375 276.273438 C 684.140625 278.871094 685.265625 281.425781 687.40625 282.9375 Z M 687.40625 282.9375 " fill-opacity="1" fill-rule="nonzero"/></g></svg>