<svg xmlns="http://www.w3.org/2000/svg" xmlns:xlink="http://www.w3.org/1999/xlink" width="1024" zoomAndPan="magnify" viewBox="0 0 768 767.999994" height="1024" preserveAspectRatio="xMidYMid meet" version="1.0"><defs><clipPath id="b549b81717"><path d="M 8.160156 0 L 749 0 L 749 765 L 8.160156 765 Z M 8.160156 0 " clip-rule="nonzero"/></clipPath></defs><rect x="-76.8" width="921.6" fill="#ffffff" y="-76.799999" height="921.599993" fill-opacity="1"/><rect x="-76.8" width="921.6" fill="#ffffff" y="-76.799999" height="921.599993" fill-opacity="1"/><path fill="#6fceae" d="M 644.59375 270.960938 C 685.964844 242.847656 719.722656 209.65625 713.039062 191.628906 C 708.15625 178.496094 689.707031 177.4375 667.484375 182.304688 L 667.484375 182.289062 C 667.484375 182.289062 759.546875 116.585938 739.265625 89.597656 C 718.964844 62.609375 642.519531 134.464844 642.519531 134.464844 C 666.484375 78.726562 682.355469 19.058594 666.089844 11.371094 C 642.09375 0.046875 610.078125 66.066406 598.011719 112.371094 L 597.996094 112.371094 C 600.949219 90.234375 599.464844 73.144531 588.730469 70.628906 C 584.046875 69.535156 579.46875 70.839844 575.058594 73.902344 C 573.511719 43.152344 567.84375 6.21875 549.605469 6.21875 C 518.347656 6.21875 508.144531 150.429688 508.144531 150.429688 C 508.144531 150.429688 505.097656 40.121094 471.367188 49.097656 C 437.621094 58.074219 434.589844 254.507812 434.589844 254.507812 L 434.574219 254.507812 C 433.695312 209.777344 411.003906 177.816406 393.675781 185.925781 C 384.445312 190.234375 379.878906 203.167969 376.804688 219.679688 C 376.804688 219.679688 375.667969 177.695312 370.074219 151.582031 C 364.492188 125.472656 340.617188 99.921875 325.699219 113.644531 C 310.769531 127.367188 328.566406 203.878906 315.605469 266.277344 C 312.558594 280.953125 308.148438 296.511719 303.175781 311.703125 C 303.175781 311.703125 300.71875 255.8125 291.167969 225.214844 C 282.011719 195.90625 259.242188 156.238281 239.882812 171.445312 C 220.527344 186.65625 241.15625 264.273438 236.835938 321.773438 C 232.515625 379.269531 204.257812 471.398438 204.257812 471.398438 C 203.109375 472.71875 201.96875 474.039062 200.847656 475.324219 C 175.910156 504.121094 160.601562 532.324219 147.398438 557.191406 L 147.382812 557.175781 C 147.382812 557.175781 175.667969 468.289062 169.558594 398.691406 C 163.464844 329.109375 136.984375 280.878906 117.046875 291.007812 C 91.308594 304.089844 125.097656 424.53125 113.984375 494.824219 C 102.949219 564.589844 70.75 651.761719 70.25 653.125 C 70.234375 653.140625 70.234375 653.140625 70.234375 653.140625 C 42.28125 678.949219 14.402344 706.058594 14.402344 724.269531 C 14.402344 755.460938 68.007812 767.984375 91.898438 750.046875 C 95.15625 747.589844 98.25 744.117188 101.191406 739.886719 C 108.179688 729.867188 114.378906 715.519531 120.335938 700.191406 C 120.335938 700.191406 197.226562 641.375 249.039062 622.832031 C 300.855469 604.269531 401.105469 601.800781 422.722656 577.722656 C 426.296875 573.734375 427.769531 568.789062 427.027344 563.574219 C 427.027344 563.574219 451.265625 550.351562 473.882812 546.226562 C 496.515625 542.117188 547.453125 545.652344 553.226562 526.199219 C 557.53125 511.703125 527.5625 490.09375 493.757812 482.253906 C 495.046875 482.042969 573.933594 468.777344 573.933594 443.695312 C 573.933594 439.816406 572.296875 436.25 569.371094 433.023438 C 570.191406 432.613281 626.597656 405.242188 618.59375 380.785156 C 610.605469 356.359375 527.289062 375.902344 525.925781 376.238281 C 529.59375 373.902344 533.324219 371.734375 537.082031 369.808594 C 561.566406 357.269531 609.121094 347.367188 620.15625 330.476562 C 620.15625 330.476562 720.039062 310.246094 720.039062 279.605469 C 720.039062 248.960938 644.59375 270.960938 644.59375 270.960938 Z M 644.59375 270.960938 " fill-opacity="1" fill-rule="nonzero"/><path fill="#4aaf8f" d="M 65.308594 702.070312 C 94.628906 707.425781 100.964844 738.765625 101.191406 739.886719 C 98.25 744.117188 95.15625 747.589844 91.898438 750.046875 C 68.007812 767.984375 14.402344 755.460938 14.402344 724.269531 C 14.402344 724.269531 35.445312 696.628906 65.308594 702.070312 Z M 65.308594 702.070312 " fill-opacity="1" fill-rule="nonzero"/><path fill="#53b79a" d="M 739.261719 89.597656 C 759.546875 116.585938 667.484375 182.289062 667.484375 182.289062 L 667.484375 182.304688 C 647.488281 186.640625 624.445312 195.78125 605.511719 205.199219 C 617.957031 186.488281 631.148438 160.910156 642.515625 134.464844 C 642.515625 134.464844 718.964844 62.609375 739.261719 89.597656 Z M 739.261719 89.597656 " fill-opacity="1" fill-rule="nonzero"/><path fill="#3fa07f" d="M 458.769531 355.3125 C 459.664062 354.054688 484.691406 319.179688 501.640625 285.167969 C 501.640625 285.167969 533.15625 254.449219 564.824219 230.613281 C 564.824219 230.613281 564.824219 230.613281 564.839844 230.597656 C 574.433594 223.378906 584.046875 216.800781 592.792969 211.902344 C 596.734375 209.6875 601.011719 207.445312 605.511719 205.199219 C 624.445312 195.78125 647.488281 186.640625 667.484375 182.304688 C 689.707031 177.4375 708.15625 178.496094 713.039062 191.628906 C 719.722656 209.65625 685.960938 242.847656 644.59375 270.960938 C 622.25 286.140625 597.675781 299.847656 576.089844 308.867188 L 576.074219 308.882812 C 547.738281 312.339844 511.691406 323.710938 483.644531 339.148438 C 475.976562 343.378906 467.5625 348.929688 458.769531 355.3125 Z M 458.769531 355.3125 " fill-opacity="1" fill-rule="nonzero"/><path fill="#6fceae" d="M 644.59375 270.960938 C 644.59375 270.960938 720.039062 248.960938 720.039062 279.605469 C 720.039062 310.246094 620.15625 330.476562 620.15625 330.476562 C 622.308594 327.183594 623.082031 323.636719 622.019531 319.738281 C 619.003906 308.714844 600.386719 305.894531 576.089844 308.867188 C 597.675781 299.847656 622.25 286.140625 644.59375 270.960938 Z M 644.59375 270.960938 " fill-opacity="1" fill-rule="nonzero"/><path fill="#6fceae" d="M 666.089844 11.371094 C 682.355469 19.058594 666.484375 78.726562 642.515625 134.464844 C 631.148438 160.910156 617.957031 186.488281 605.511719 205.199219 C 601.011719 207.445312 596.734375 209.6875 592.792969 211.902344 C 584.046875 216.800781 574.4375 223.378906 564.839844 230.597656 C 565.292969 229.355469 591.703125 159.453125 597.992188 112.371094 L 598.007812 112.371094 C 610.074219 66.066406 642.089844 0.046875 666.089844 11.371094 Z M 666.089844 11.371094 " fill-opacity="1" fill-rule="nonzero"/><path fill="#53b79a" d="M 622.019531 319.738281 C 623.082031 323.636719 622.308594 327.183594 620.15625 330.476562 C 609.121094 347.367188 561.566406 357.269531 537.082031 369.808594 C 533.324219 371.734375 529.59375 373.902344 525.925781 376.238281 C 525.910156 376.238281 525.910156 376.238281 525.910156 376.238281 C 500.472656 392.445312 478.6875 416.191406 478.6875 416.191406 C 471.019531 417.296875 463.546875 418.949219 456.542969 421.226562 C 406.5625 437.386719 284.300781 537.222656 282.390625 538.78125 C 302.734375 516.570312 324.488281 488.078125 344.953125 457.707031 C 344.953125 457.707031 344.953125 457.707031 344.96875 457.691406 C 346.105469 456.507812 408.351562 392.035156 458.738281 355.34375 C 458.753906 355.328125 458.753906 355.328125 458.769531 355.3125 C 467.5625 348.929688 475.976562 343.378906 483.644531 339.148438 C 511.691406 323.710938 547.738281 312.339844 576.074219 308.882812 L 576.089844 308.867188 C 600.386719 305.894531 619.003906 308.714844 622.019531 319.738281 Z M 622.019531 319.738281 " fill-opacity="1" fill-rule="nonzero"/><path fill="#6fceae" d="M 618.59375 380.785156 C 626.597656 405.242188 570.191406 432.613281 569.371094 433.023438 C 555.941406 418.269531 515.269531 410.882812 478.6875 416.191406 C 478.6875 416.191406 500.472656 392.445312 525.910156 376.238281 C 525.910156 376.238281 525.910156 376.238281 525.925781 376.238281 C 527.289062 375.902344 610.605469 356.359375 618.59375 380.785156 Z M 618.59375 380.785156 " fill-opacity="1" fill-rule="nonzero"/><path fill="#53b79a" d="M 575.058594 73.902344 C 579.46875 70.839844 584.046875 69.535156 588.730469 70.628906 C 599.464844 73.144531 600.949219 90.234375 597.992188 112.371094 C 591.703125 159.453125 565.292969 229.355469 564.839844 230.597656 C 564.824219 230.613281 564.824219 230.613281 564.824219 230.613281 C 533.15625 254.449219 501.640625 285.167969 501.640625 285.167969 C 504.519531 279.421875 507.160156 273.691406 509.402344 268.15625 C 519.332031 243.714844 527.789062 205.777344 526.457031 179.589844 C 527.015625 177.285156 547.996094 92.644531 575.058594 73.902344 Z M 575.058594 73.902344 " fill-opacity="1" fill-rule="nonzero"/><path fill="#4aaf8f" d="M 569.371094 433.023438 C 572.296875 436.25 573.933594 439.816406 573.933594 443.695312 C 573.933594 468.777344 495.046875 482.042969 493.757812 482.253906 C 493.742188 482.253906 493.742188 482.253906 493.742188 482.253906 C 482.207031 479.570312 470.214844 478.511719 458.980469 479.875 C 414.867188 485.242188 344.953125 526.199219 344.953125 526.199219 C 323.804688 526.199219 302.21875 531.460938 282.390625 538.78125 C 284.300781 537.222656 406.5625 437.386719 456.542969 421.226562 C 463.546875 418.949219 471.019531 417.296875 478.6875 416.191406 C 515.269531 410.882812 555.941406 418.269531 569.371094 433.023438 Z M 569.371094 433.023438 " fill-opacity="1" fill-rule="nonzero"/><path fill="#4aaf8f" d="M 549.605469 6.21875 C 567.839844 6.21875 573.511719 43.152344 575.058594 73.902344 C 547.996094 92.644531 527.015625 177.285156 526.457031 179.589844 C 525.652344 164.136719 521.4375 152.78125 512.085938 150.703125 C 510.796875 150.414062 509.476562 150.324219 508.144531 150.429688 C 508.144531 150.429688 518.347656 6.21875 549.605469 6.21875 Z M 549.605469 6.21875 " fill-opacity="1" fill-rule="nonzero"/><path fill="#3fa07f" d="M 493.757812 482.253906 C 527.5625 490.09375 557.53125 511.703125 553.226562 526.199219 C 547.453125 545.652344 496.515625 542.117188 473.882812 546.226562 C 451.265625 550.351562 427.027344 563.574219 427.027344 563.574219 C 424.570312 546.425781 398.328125 526.199219 344.953125 526.199219 C 344.953125 526.199219 414.867188 485.242188 458.980469 479.875 C 470.214844 478.511719 482.207031 479.570312 493.742188 482.253906 C 493.742188 482.253906 493.742188 482.253906 493.757812 482.253906 Z M 493.757812 482.253906 " fill-opacity="1" fill-rule="nonzero"/><path fill="#4aaf8f" d="M 526.457031 179.589844 C 527.789062 205.777344 519.332031 243.714844 509.402344 268.15625 C 507.160156 273.691406 504.519531 279.421875 501.640625 285.167969 C 484.691406 319.179688 459.664062 354.054688 458.769531 355.3125 C 458.753906 355.328125 458.753906 355.328125 458.738281 355.34375 C 408.351562 392.035156 346.105469 456.507812 344.96875 457.691406 C 368.691406 422.5 390.703125 384.789062 406.847656 351.414062 C 419.597656 325.046875 428.695312 301.378906 432.058594 283.804688 C 434 273.644531 434.757812 263.804688 434.574219 254.507812 L 434.589844 254.507812 C 447.371094 217.875 482.996094 152.234375 508.144531 150.429688 C 509.476562 150.324219 510.796875 150.414062 512.085938 150.703125 C 521.4375 152.78125 525.652344 164.136719 526.457031 179.589844 Z M 526.457031 179.589844 " fill-opacity="1" fill-rule="nonzero"/><path fill="#6fceae" d="M 471.367188 49.097656 C 505.097656 40.121094 508.144531 150.429688 508.144531 150.429688 C 482.996094 152.234375 447.371094 217.875 434.589844 254.507812 C 434.589844 254.507812 437.621094 58.074219 471.367188 49.097656 Z M 471.367188 49.097656 " fill-opacity="1" fill-rule="nonzero"/><path fill="#3fa07f" d="M 303.191406 460.464844 C 325.429688 420.253906 341.769531 379.117188 328.898438 370.597656 C 328.898438 370.597656 355.59375 329.898438 365.753906 289.65625 C 371.359375 267.441406 372.878906 240.664062 376.804688 219.679688 C 379.878906 203.167969 384.445312 190.234375 393.675781 185.925781 C 411.003906 177.816406 433.695312 209.777344 434.574219 254.507812 C 434.757812 263.804688 434 273.644531 432.058594 283.804688 C 428.695312 301.378906 419.597656 325.046875 406.847656 351.414062 C 390.703125 384.789062 368.691406 422.5 344.96875 457.691406 C 344.953125 457.707031 344.953125 457.707031 344.953125 457.707031 C 324.488281 488.078125 302.734375 516.570312 282.390625 538.78125 C 282.375 538.796875 282.375 538.796875 282.375 538.796875 C 238.429688 555.039062 203.183594 581.421875 200.863281 583.179688 L 200.847656 583.164062 C 221.707031 565.96875 244.1875 547.078125 260.925781 525.742188 C 273.644531 509.503906 289.515625 485.167969 303.175781 460.480469 Z M 303.191406 460.464844 " fill-opacity="1" fill-rule="nonzero"/><path fill="#6fceae" d="M 200.863281 583.179688 C 203.183594 581.421875 238.429688 555.039062 282.375 538.796875 C 282.375 538.796875 282.375 538.796875 282.390625 538.78125 C 302.21875 531.460938 323.804688 526.199219 344.953125 526.199219 C 398.328125 526.199219 424.570312 546.425781 427.027344 563.574219 C 427.769531 568.789062 426.296875 573.734375 422.722656 577.722656 C 401.105469 601.800781 300.855469 604.269531 249.039062 622.832031 C 197.226562 641.375 120.335938 700.191406 120.335938 700.191406 C 130.25 674.613281 139.5 646.257812 150.535156 630.488281 C 160.753906 615.886719 179.988281 600.375 200.847656 583.164062 Z M 200.863281 583.179688 " fill-opacity="1" fill-rule="nonzero"/><path fill="#6fceae" d="M 376.804688 219.679688 C 372.878906 240.664062 371.359375 267.441406 365.753906 289.65625 C 355.59375 329.898438 328.898438 370.597656 328.898438 370.597656 C 317.394531 362.984375 292.351562 380.921875 265.09375 406.757812 C 265.09375 406.757812 287.042969 361.105469 303.175781 311.703125 C 308.148438 296.511719 312.558594 280.953125 315.605469 266.277344 C 328.566406 203.878906 310.769531 127.367188 325.703125 113.644531 C 340.617188 99.921875 364.492188 125.472656 370.074219 151.582031 C 375.667969 177.695312 376.804688 219.679688 376.804688 219.679688 Z M 376.804688 219.679688 " fill-opacity="1" fill-rule="nonzero"/><path fill="#349370" d="M 328.898438 370.597656 C 341.769531 379.117188 325.429688 420.253906 303.191406 460.464844 L 303.175781 460.480469 C 289.515625 485.167969 273.644531 509.503906 260.925781 525.742188 C 244.191406 547.078125 221.707031 565.96875 200.847656 583.164062 C 179.988281 600.375 160.753906 615.886719 150.535156 630.488281 C 139.5 646.257812 130.25 674.613281 120.335938 700.191406 C 114.378906 715.519531 108.179688 729.867188 101.191406 739.886719 C 100.964844 738.765625 94.628906 707.425781 65.308594 702.070312 C 35.445312 696.628906 14.402344 724.269531 14.402344 724.269531 C 14.402344 706.058594 42.28125 678.949219 70.234375 653.140625 C 70.234375 653.140625 70.234375 653.140625 70.25 653.125 C 90.1875 634.734375 110.152344 617.023438 120.050781 603.664062 C 129.871094 590.457031 138.105469 574.644531 147.398438 557.191406 C 160.601562 532.324219 175.910156 504.121094 200.847656 475.324219 C 201.96875 474.039062 203.109375 472.71875 204.257812 471.398438 C 222.542969 450.429688 244.460938 426.320312 265.09375 406.757812 C 292.351562 380.921875 317.394531 362.984375 328.898438 370.597656 Z M 328.898438 370.597656 " fill-opacity="1" fill-rule="nonzero"/><path fill="#53b79a" d="M 291.167969 225.214844 C 300.71875 255.8125 303.175781 311.703125 303.175781 311.703125 C 287.042969 361.105469 265.09375 406.757812 265.09375 406.757812 C 244.460938 426.320312 222.542969 450.429688 204.257812 471.398438 C 204.257812 471.398438 232.515625 379.269531 236.835938 321.773438 C 241.15625 264.273438 220.527344 186.65625 239.882812 171.445312 C 259.242188 156.238281 282.011719 195.90625 291.167969 225.214844 Z M 291.167969 225.214844 " fill-opacity="1" fill-rule="nonzero"/><path fill="#6fceae" d="M 169.558594 398.691406 C 175.667969 468.289062 147.382812 557.175781 147.382812 557.175781 L 147.398438 557.191406 C 138.105469 574.644531 129.871094 590.457031 120.050781 603.664062 C 110.152344 617.023438 90.1875 634.734375 70.25 653.125 C 70.75 651.761719 102.949219 564.589844 113.984375 494.824219 C 125.097656 424.53125 91.308594 304.089844 117.046875 291.007812 C 136.984375 280.878906 163.464844 329.109375 169.558594 398.691406 Z M 169.558594 398.691406 " fill-opacity="1" fill-rule="nonzero"/><g clip-path="url(#b549b81717)"><path fill="#3a322b" d="M 747.917969 102.761719 C 748.917969 96.296875 747.632812 90.640625 744.101562 85.945312 C 740.40625 81.027344 734.996094 78.132812 728.457031 77.570312 C 708.132812 75.832031 677.597656 97.171875 657.683594 113.292969 C 672.777344 73.914062 682.492188 35.601562 677.421875 17.390625 C 675.855469 11.753906 672.910156 7.882812 668.671875 5.882812 C 663.140625 3.269531 656.941406 3.417969 650.757812 6.3125 C 632.132812 15.023438 614.679688 47.410156 603.011719 77.570312 C 602.558594 76.21875 602.039062 74.957031 601.433594 73.820312 C 598.875 69.003906 594.960938 65.859375 590.121094 64.726562 C 586.902344 63.972656 583.71875 63.96875 580.5625 64.699219 C 577.3125 21.300781 567.152344 0.152344 549.597656 0.152344 C 532.8125 0.152344 520.605469 24.652344 511.183594 77.253906 C 510.128906 83.148438 509.175781 89.050781 508.320312 94.808594 C 504.402344 74.539062 497.910156 54.675781 487.167969 46.648438 C 481.980469 42.769531 475.972656 41.589844 469.804688 43.230469 C 459.007812 46.101562 443.582031 60.769531 434.289062 154.566406 C 432.496094 172.640625 431.25 190.640625 430.382812 206.289062 C 425.875 196.578125 420.242188 189 414.199219 184.296875 C 406.609375 178.390625 398.410156 177.019531 391.109375 180.4375 C 387.082031 182.320312 383.828125 185.28125 381.144531 189.105469 C 380.105469 176.394531 378.488281 161.925781 376.007812 150.316406 C 371.550781 129.484375 356.613281 109.519531 342 104.859375 C 334.480469 102.460938 327.230469 103.996094 321.59375 109.183594 C 312.035156 117.96875 312.765625 139.617188 313.863281 172.386719 C 314.796875 200.164062 315.957031 234.730469 309.664062 265.042969 C 308.777344 269.300781 307.769531 273.644531 306.667969 278.035156 C 304.820312 260.21875 301.78125 238.863281 296.953125 223.410156 C 290.863281 203.90625 275.195312 169.226562 255.101562 162.988281 C 248.40625 160.910156 241.851562 162.183594 236.136719 166.679688 C 221.976562 177.804688 224.695312 209.054688 228.136719 248.613281 C 230.179688 272.09375 232.492188 298.707031 230.796875 321.316406 C 226.84375 373.941406 202.148438 457.382812 198.832031 468.414062 L 164.902344 514.015625 C 171.988281 481.742188 179.03125 437.277344 175.605469 398.171875 C 170.835938 343.761719 153.167969 297.796875 132.636719 286.398438 C 126.414062 282.945312 120.074219 282.667969 114.304688 285.597656 C 96.4375 294.679688 100.117188 332.394531 105.207031 384.597656 C 108.796875 421.378906 112.863281 463.066406 107.992188 493.886719 C 97.835938 558.09375 69.152344 638.371094 65.042969 649.683594 C 35.871094 676.644531 8.335938 703.773438 8.335938 724.269531 C 8.335938 737.78125 16.796875 749.761719 31.546875 757.140625 C 41.230469 761.980469 52.339844 764.367188 63.027344 764.367188 C 75.378906 764.367188 87.171875 761.179688 95.542969 754.898438 C 107.542969 745.894531 116.605469 726.429688 125.367188 703.992188 C 135.78125 696.15625 204.425781 645.242188 251.082031 628.535156 C 271.832031 621.105469 301.148438 616.214844 329.5 611.484375 C 372.476562 604.316406 413.066406 597.546875 427.230469 581.765625 C 431.03125 577.535156 433.054688 572.507812 433.265625 567.171875 C 440.519531 563.546875 458.375 555.21875 474.976562 552.199219 C 480.722656 551.15625 488.753906 550.609375 497.253906 550.03125 C 523.671875 548.230469 553.617188 546.195312 559.035156 527.933594 C 560.367188 523.449219 560.339844 516.199219 552.65625 507.105469 C 545.308594 498.410156 532.5 489.886719 517.398438 483.558594 C 543.328125 477.195312 580.003906 464.511719 580.003906 443.695312 C 580.003906 441.332031 579.554688 438.445312 578.132812 435.332031 C 594.09375 426.746094 632.328125 403.242188 624.367188 378.90625 C 620.035156 365.667969 602.285156 360.503906 570.148438 363.121094 C 591.578125 357.441406 609.164062 348.089844 623.789062 335.910156 C 630.710938 334.410156 651.261719 329.675781 672.132812 322.246094 C 708.449219 309.316406 726.105469 295.367188 726.105469 279.601562 C 726.105469 272.976562 723.410156 267.457031 718.3125 263.632812 C 707.871094 255.796875 688.035156 256.480469 671.253906 258.976562 C 672.625 257.894531 673.996094 256.816406 675.332031 255.730469 C 699.15625 236.363281 726.023438 209.15625 718.730469 189.515625 C 716.386719 183.199219 711.488281 178.519531 704.570312 175.976562 C 700.089844 174.332031 694.753906 173.621094 688.839844 173.636719 C 710.644531 156.132812 744.371094 125.746094 747.917969 102.761719 Z M 603.835938 113.890625 L 603.867188 113.902344 C 614.234375 74.152344 637.609375 25.851562 655.894531 17.300781 C 659.742188 15.5 662.078125 16.183594 663.496094 16.855469 C 664.6875 17.417969 665.414062 19.46875 665.738281 20.644531 C 672.988281 46.695312 637.617188 145.230469 601.328125 200.515625 L 577.144531 214.425781 C 585.683594 189.972656 599.40625 147.253906 603.835938 113.890625 Z M 587.351562 76.535156 C 588.304688 76.757812 589.546875 77.300781 590.730469 79.515625 C 601.199219 99.195312 577.550781 179.542969 559.785156 226.808594 C 544.722656 238.226562 529.894531 250.988281 518.464844 261.253906 C 526.820312 237.320312 533.617188 204.796875 532.535156 180.269531 C 543.886719 134.226562 568.246094 72.046875 587.351562 76.535156 Z M 523.136719 79.3125 C 534.574219 15.511719 547.1875 12.28125 549.597656 12.28125 C 557.296875 12.28125 566.257812 27.800781 568.828125 70.96875 C 558.847656 79.378906 549.070312 95.609375 539.308594 119.898438 C 534.242188 132.492188 530.035156 145.167969 526.894531 155.476562 C 523.273438 148.980469 518.46875 146.234375 514.652344 145.105469 C 515.652344 133.550781 518.300781 106.285156 523.136719 79.3125 Z M 446.363281 155.695312 C 455.445312 64.121094 470.082031 55.710938 472.921875 54.953125 C 475.519531 54.261719 477.679688 54.695312 479.910156 56.363281 C 493.691406 66.660156 500.488281 114.496094 501.890625 145.582031 C 490.53125 149.378906 477.800781 161.78125 463.886719 182.667969 C 456.175781 194.242188 448.417969 208.074219 441.742188 221.894531 C 442.570312 203.597656 443.984375 179.703125 446.363281 155.695312 Z M 477.597656 256.230469 C 479.457031 253.441406 478.703125 249.675781 475.917969 247.820312 C 473.128906 245.960938 469.367188 246.714844 467.507812 249.5 L 434.554688 298.933594 C 436.023438 293.949219 437.195312 289.265625 438.019531 284.953125 C 439.980469 274.730469 440.800781 264.816406 440.699219 255.417969 C 455.730469 213.117188 492.6875 152.597656 510.769531 156.617188 C 512.253906 156.949219 514.464844 157.839844 516.519531 161.757812 C 525.902344 179.632812 517.375 232.402344 503.78125 265.871094 C 489.53125 300.957031 458.914062 344.632812 454.398438 350.992188 C 428.929688 369.617188 400.832031 394.878906 378.910156 415.679688 C 391.433594 394.679688 402.761719 373.828125 412.144531 354.410156 Z M 378.835938 247.882812 C 382.039062 222.632812 385.347656 196.523438 396.25 191.421875 C 399.296875 189.992188 402.832031 190.816406 406.753906 193.871094 C 419.519531 203.804688 434.496094 238.894531 426.109375 282.667969 C 415.339844 338.867188 341.335938 464.925781 278.976562 533.519531 C 269.519531 537.058594 260.488281 541.039062 252.105469 545.132812 C 256.910156 540.0625 261.484375 534.847656 265.695312 529.476562 C 277.617188 514.257812 293.894531 489.621094 308.128906 464.019531 C 338.101562 429.15625 365.03125 386.332031 390.445312 333.09375 C 391.886719 330.070312 390.605469 326.449219 387.585938 325.007812 C 384.5625 323.566406 380.941406 324.847656 379.5 327.867188 C 364.679688 358.914062 349.355469 386.296875 333.226562 410.570312 C 338.011719 397.039062 340.453125 385.304688 339.136719 377.207031 C 338.679688 374.378906 337.789062 371.957031 336.507812 369.925781 C 343.519531 358.578125 363.089844 325.027344 371.636719 291.148438 C 375.082031 277.5 376.992188 262.441406 378.835938 247.882812 Z M 321.539062 267.507812 C 328.128906 235.773438 326.941406 200.402344 325.988281 171.980469 C 325.179688 147.964844 324.347656 123.128906 329.800781 118.117188 C 332.230469 115.878906 334.9375 115.339844 338.320312 116.417969 C 348.8125 119.761719 360.640625 136.445312 364.148438 152.851562 C 369.171875 176.347656 370.550781 213.734375 370.726562 219.160156 C 369.195312 227.53125 368.027344 236.738281 366.808594 246.355469 C 365.007812 260.558594 363.144531 275.246094 359.882812 288.179688 C 351.933594 319.671875 333.269531 351.957031 326.417969 363.160156 C 316.207031 361.109375 301.824219 367.738281 282.238281 383.535156 C 294.476562 355.1875 313.050781 308.375 321.539062 267.507812 Z M 242.890625 322.222656 C 244.664062 298.632812 242.304688 271.503906 240.21875 247.5625 C 237.472656 215.964844 234.625 183.289062 243.628906 176.21875 C 246.210938 174.191406 248.640625 173.683594 251.507812 174.574219 C 263.632812 178.339844 278.253906 204.203125 285.378906 227.027344 C 293.863281 254.1875 296.660156 302.925781 297.0625 310.84375 C 282.515625 355.066406 263.3125 396.34375 260.09375 403.160156 C 247.492188 415.160156 233.257812 429.925781 217.53125 447.3125 C 226.285156 415.621094 239.941406 361.453125 242.890625 322.222656 Z M 119.972656 495.777344 C 125.085938 463.429688 120.941406 420.921875 117.28125 383.417969 C 115.066406 360.726562 112.976562 339.292969 113.210938 323.035156 C 113.507812 302.632812 117.46875 297.597656 119.800781 296.414062 C 121.121094 295.742188 123.277344 295.074219 126.753906 297.003906 C 140.929688 304.871094 158.632812 343.375 163.523438 399.230469 C 169.210938 464.15625 143.972656 547.6875 141.765625 554.839844 C 141.375 555.566406 140.984375 556.304688 140.601562 557.03125 C 131.804688 573.582031 124.210938 587.878906 115.179688 600.039062 C 108.5625 608.953125 97.003906 620.152344 83.960938 632.25 C 94.441406 601.175781 112.328125 544.101562 119.972656 495.777344 Z M 88.265625 745.195312 C 76.269531 754.195312 53.738281 754.675781 36.972656 746.289062 C 31.171875 743.390625 21.6875 737.058594 20.578125 726.347656 C 25.367188 720.960938 42.386719 704.058594 64.21875 708.039062 C 85.417969 711.902344 92.710938 731.683594 94.644531 738.636719 C 92.570312 741.328125 90.449219 743.554688 88.265625 745.195312 Z M 120.824219 681.769531 C 115 697.347656 109.054688 713.230469 102.671875 725.582031 C 97.515625 714.472656 86.964844 699.851562 66.390625 696.105469 C 52.296875 693.535156 40.09375 697.363281 30.640625 702.699219 C 42.804688 686.570312 63.789062 667.289062 81.855469 650.6875 C 99.367188 634.601562 115.90625 619.40625 124.914062 607.273438 C 134.492188 594.378906 142.660156 579.003906 151.308594 562.722656 C 164.78125 537.363281 180.050781 508.621094 205.441406 479.296875 C 285.960938 386.296875 313.660156 374.902344 322.390625 374.902344 C 324.921875 375.136719 326.371094 376.734375 327.164062 379.148438 C 331.039062 403.023438 286.964844 482.667969 256.148438 521.996094 C 238.984375 543.898438 215.007812 563.65625 193.851562 581.085938 C 174.261719 597.226562 155.757812 612.472656 145.574219 627.015625 C 136.40625 640.113281 128.835938 660.347656 120.824219 681.769531 Z M 418.207031 573.660156 C 406.878906 586.28125 366.53125 593.011719 327.503906 599.519531 C 298.625 604.335938 268.761719 609.316406 246.992188 617.113281 C 209.042969 630.703125 158.925781 664.71875 133.261719 683.136719 C 140.320312 664.285156 147.628906 645.230469 155.507812 633.972656 C 168.359375 618.878906 185.75 603.496094 204.496094 588.027344 C 207.011719 586.128906 279.0625 532.269531 344.960938 532.269531 C 388.03125 532.269531 413.558594 546.289062 419.757812 560.183594 C 421.355469 563.765625 422.382812 569.011719 418.207031 573.660156 Z M 543.390625 514.933594 C 546.613281 518.75 548.078125 522.226562 547.410156 524.476562 C 544.386719 534.664062 515.527344 536.628906 496.429688 537.925781 C 487.582031 538.53125 479.222656 539.097656 472.804688 540.265625 C 456.476562 543.234375 439.652344 550.585938 430.679688 554.917969 C 424.085938 540.585938 403.957031 525.519531 366.53125 521.304688 C 390.023438 508.984375 430.941406 489.398438 459.710938 485.894531 C 492.933594 481.847656 530.839844 500.082031 543.390625 514.933594 Z M 493.871094 476.078125 C 481.992188 473.449219 469.734375 472.453125 458.246094 473.847656 C 416.347656 478.949219 353.699219 514.175781 343.296875 520.160156 C 332.371094 520.292969 321.394531 521.730469 310.625 524.074219 C 349.101562 493.992188 423.082031 438.410156 458.402344 426.992188 C 495.394531 415.03125 543.238281 420.796875 561.300781 433.945312 C 565.660156 437.121094 567.875 440.398438 567.875 443.691406 C 567.875 457.257812 524.136719 470.90625 493.871094 476.078125 Z M 612.835938 382.679688 C 617.339844 396.445312 588.257812 416.359375 570.421875 425.6875 C 550.195312 413.871094 524.371094 408.980469 494.875 408.625 C 503.257812 400.75 515.3125 390.3125 528.316406 381.910156 C 532.75 380.910156 551.082031 376.949219 569.875 375.3125 C 606.457031 372.121094 612.007812 380.144531 612.835938 382.679688 Z M 566.882812 351.40625 C 554.75 355.726562 543.289062 359.804688 534.3125 364.402344 C 507.296875 378.238281 481.949219 403.933594 475.671875 410.539062 C 468.359375 411.691406 461.269531 413.3125 454.671875 415.449219 C 422.828125 425.742188 363.835938 468.003906 322.90625 499.207031 C 332.070312 487.085938 341.167969 474.3125 350 461.21875 C 358.171875 452.8125 438.253906 371.0625 486.578125 344.457031 C 528.320312 321.472656 589.894531 307.648438 610.894531 316.542969 C 615.378906 318.441406 615.972656 320.621094 616.167969 321.339844 C 619.28125 332.75 590.230469 343.09375 566.882812 351.40625 Z M 711.035156 273.335938 C 713.066406 274.863281 713.972656 276.796875 713.972656 279.601562 C 713.972656 295.90625 666.847656 313.496094 628.574219 322.429688 C 627.910156 312.003906 619.585938 305.386719 603.945312 302.410156 C 618.375 294.875 633.183594 286.011719 647.210938 276.515625 C 666.683594 270.976562 700.429688 265.375 711.035156 273.335938 Z M 700.382812 187.363281 C 704.023438 188.699219 706.238281 190.726562 707.359375 193.738281 C 710.035156 200.941406 701.246094 219.03125 667.679688 246.316406 C 640.175781 268.675781 604.4375 290.375 574.265625 303.058594 C 553.304688 305.777344 529.105469 312.527344 507.363281 321.3125 C 540.101562 295.742188 576.820312 272.417969 617.105469 251.671875 C 620.082031 250.136719 621.253906 246.480469 619.71875 243.503906 C 618.1875 240.523438 614.53125 239.351562 611.554688 240.886719 C 566.035156 264.328125 524.945312 291.019531 488.898438 320.527344 C 494.898438 310.652344 501.136719 299.730469 506.621094 288.796875 C 513.160156 282.5 561.617188 236.328125 595.757812 217.191406 C 631.921875 196.917969 680.941406 180.214844 700.382812 187.363281 Z M 664.835938 176.714844 C 650.621094 179.925781 635.304688 185.308594 621.121094 191.34375 C 630.011719 175.816406 639.195312 157.296875 647.554688 138.0625 C 663.535156 123.222656 706.515625 87.84375 727.417969 89.65625 C 730.554688 89.925781 732.777344 91.066406 734.410156 93.238281 C 735.941406 95.273438 736.425781 97.710938 735.933594 100.910156 C 732.425781 123.664062 684.25 162.71875 664.835938 176.714844 Z M 664.835938 176.714844 " fill-opacity="1" fill-rule="nonzero"/></g></svg>