<svg xmlns="http://www.w3.org/2000/svg" xmlns:xlink="http://www.w3.org/1999/xlink" width="1024" zoomAndPan="magnify" viewBox="0 0 768 767.999994" height="1024" preserveAspectRatio="xMidYMid meet" version="1.0"><path fill="#0be881" d="M 370.125 651.5625 C 330.324219 657.894531 323.554688 608.644531 284.074219 588.0625 C 244.597656 567.460938 198.253906 477.472656 232.578125 460.675781 C 266.898438 443.882812 284.972656 478.996094 305.984375 461.4375 C 326.992188 443.882812 313.257812 411.824219 278.933594 384.089844 C 244.613281 356.355469 239.453125 263.566406 275.496094 263.613281 C 311.535156 263.660156 320.800781 298.773438 339.089844 288 C 348.382812 282.523438 333.488281 238.847656 305.984375 218.125 C 267.859375 189.402344 269.167969 86.859375 299.792969 95.441406 C 330.417969 104.023438 338.023438 135.390625 345.371094 114.566406 C 352.734375 93.722656 325.046875 8.296875 378.371094 8.296875 C 431.695312 8.296875 442.710938 37.539062 436.746094 73.121094 C 427.832031 126.417969 471.90625 55.460938 503.261719 104.023438 C 524.832031 137.445312 511.066406 201.007812 479.753906 229.320312 C 441.828125 263.597656 485.050781 241.28125 506.304688 263.597656 C 569.746094 330.203125 465.300781 384.074219 442.890625 431.847656 C 481.597656 416.632812 502.027344 442.148438 502.027344 442.148438 C 536.488281 484.0625 457.253906 545.128906 448.765625 586.328125 C 440.273438 627.527344 413.269531 644.703125 370.125 651.5625 Z M 370.125 651.5625 " fill-opacity="1" fill-rule="nonzero"/><path fill="#000000" d="M 528.910156 332.195312 C 539.4375 306.167969 533.6875 281.324219 511.808594 258.363281 C 501.101562 247.121094 486.464844 245.3125 476.773438 244.09375 C 476.394531 244.046875 475.980469 244.003906 475.570312 243.941406 C 477.457031 241.902344 480.363281 239.027344 484.851562 234.964844 C 501.207031 220.179688 513.589844 196.535156 518.808594 170.0625 C 524.195312 142.816406 520.847656 117.242188 509.648438 99.898438 C 489.964844 69.410156 464.253906 78.828125 450.4375 83.894531 C 448.125 84.746094 445.203125 85.8125 443.242188 86.28125 C 443.089844 84.503906 443.152344 80.972656 444.246094 74.386719 C 448.125 51.214844 444.6875 33.078125 434.039062 20.5 C 422.917969 7.351562 404.1875 0.691406 378.371094 0.691406 C 366.382812 0.691406 356.78125 4.460938 349.859375 11.886719 C 334.265625 28.605469 336.441406 59.566406 338.191406 84.441406 C 338.980469 95.777344 339.804688 107.476562 338.207031 112.007812 C 338.207031 112.007812 338.207031 112.023438 338.207031 112.023438 C 337.171875 111.082031 336.046875 110 335.074219 109.074219 C 328.226562 102.5 317.878906 92.582031 301.84375 88.09375 C 296.929688 86.722656 284.640625 85.308594 276.46875 101.816406 C 262.425781 130.1875 269.304688 199.988281 301.40625 224.179688 C 324.332031 241.449219 335.816406 274.082031 334.207031 281.945312 C 331.085938 283.300781 328.363281 281.808594 319.675781 274.703125 C 310.046875 266.808594 296.839844 256.007812 275.496094 255.976562 C 275.480469 255.976562 275.464844 255.976562 275.449219 255.976562 C 262.746094 255.976562 252.8125 264.253906 247.488281 279.269531 C 236.425781 310.472656 246.542969 367.691406 274.125 389.980469 C 295.410156 407.1875 308.191406 425.976562 308.3125 440.261719 C 308.355469 446.46875 306 451.472656 301.085938 455.582031 C 294.742188 460.890625 289.539062 459.171875 278.417969 454.789062 C 266.457031 450.074219 250.089844 443.621094 229.214844 453.832031 C 221.929688 457.390625 213.195312 465.425781 212.96875 483.421875 C 212.496094 519.464844 247.867188 577.746094 280.53125 594.785156 C 295.609375 602.652344 305.601562 615.277344 315.265625 627.480469 C 327.832031 643.363281 340.792969 659.71875 363.25 659.71875 C 365.804688 659.71875 368.480469 659.503906 371.28125 659.0625 C 371.84375 658.972656 372.375 658.882812 372.925781 658.789062 C 377.945312 722.78125 387.101562 760.753906 387.300781 761.515625 C 388.152344 764.984375 391.257812 767.296875 394.679688 767.296875 C 395.289062 767.296875 395.898438 767.21875 396.519531 767.066406 C 400.597656 766.0625 403.078125 761.941406 402.074219 757.863281 C 401.890625 757.117188 392.808594 719.324219 387.925781 655.6875 C 427.375 645.675781 448.671875 624.300781 456.171875 587.878906 C 458.925781 574.535156 470.703125 557.800781 483.179688 540.09375 C 506.789062 506.5625 533.535156 468.574219 507.914062 437.414062 C 507.09375 436.394531 490.449219 416.175781 459.476562 419.78125 C 466.167969 411.09375 474.734375 402.027344 483.621094 392.609375 C 501.554688 373.65625 520.070312 354.058594 528.910156 332.195312 Z M 436 428.621094 C 434.675781 431.4375 435.210938 434.785156 437.339844 437.050781 C 439.46875 439.316406 442.769531 440.0625 445.675781 438.921875 C 478.371094 426.066406 495.410156 446.085938 496.140625 446.96875 C 513.148438 467.660156 496.351562 494.96875 470.765625 531.316406 C 457.359375 550.363281 444.6875 568.34375 441.292969 584.789062 C 435.132812 614.703125 418.945312 631.574219 386.875 640.261719 C 386.128906 628.148438 385.566406 615.21875 385.230469 601.570312 C 385.398438 601.207031 385.550781 600.839844 385.65625 600.445312 C 386.222656 598.5 385.945312 596.519531 385.09375 594.863281 C 384.957031 587.226562 384.898438 579.375 384.929688 571.328125 C 388.777344 565.910156 426.507812 513.46875 458.773438 492.976562 C 462.320312 490.722656 463.371094 486.023438 461.117188 482.480469 C 458.867188 478.933594 454.164062 477.882812 450.621094 480.136719 C 426.445312 495.484375 400.523438 525.960938 385.324219 545.402344 C 386.359375 507.230469 389.476562 465.042969 395.804688 419.8125 C 396.429688 419.144531 396.945312 418.367188 397.296875 417.46875 C 406.53125 394.027344 427.054688 373.820312 446.910156 354.289062 C 462.046875 339.394531 476.332031 325.320312 485.902344 309.910156 C 488.121094 306.332031 487.011719 301.648438 483.453125 299.441406 C 479.875 297.222656 475.191406 298.332031 472.984375 301.890625 C 464.375 315.765625 450.710938 329.214844 436.257812 343.457031 C 424.316406 355.214844 412.144531 367.203125 401.953125 380.226562 C 408.050781 339.410156 411.398438 287.300781 410.761719 236.457031 C 411.78125 236.09375 412.738281 235.527344 413.558594 234.722656 C 462.882812 185.949219 476.4375 146.605469 477 144.960938 C 478.339844 140.976562 476.195312 136.671875 472.210938 135.332031 C 468.222656 133.992188 463.917969 136.136719 462.578125 140.125 C 462.457031 140.472656 451 173.65625 410.304688 216.328125 C 408.84375 173.488281 404.386719 132.789062 396.140625 102.058594 C 395.058594 97.996094 390.875 95.59375 386.828125 96.6875 C 382.765625 97.785156 380.363281 101.953125 381.460938 106 C 390.496094 139.726562 394.847656 185.917969 395.59375 233.582031 C 389.75 226.417969 382.859375 219.480469 376.074219 212.648438 C 362.457031 198.941406 348.371094 184.777344 344.671875 170.703125 C 343.605469 166.640625 339.453125 164.207031 335.375 165.289062 C 331.316406 166.351562 328.878906 170.519531 329.945312 174.582031 C 334.691406 192.609375 350.226562 208.25 365.273438 223.386719 C 379.023438 237.21875 393.234375 251.535156 395.484375 264.875 C 395.5 264.96875 395.53125 265.042969 395.546875 265.121094 C 394.800781 309.5 391.164062 353.101562 385.460938 387.164062 C 382.917969 402.363281 380.742188 417.242188 378.902344 431.816406 C 350.027344 393.3125 320.589844 337.917969 320.285156 337.324219 C 318.320312 333.613281 313.710938 332.199219 310 334.160156 C 306.289062 336.121094 304.875 340.730469 306.835938 344.445312 C 308.191406 346.984375 340.230469 407.292969 371.265625 446.847656 C 372.664062 448.628906 374.6875 449.601562 376.773438 449.738281 C 371.191406 500.003906 369.425781 546.027344 369.835938 586.402344 C 347.0625 573.898438 316.722656 543.730469 305.4375 531.421875 C 302.589844 528.316406 297.785156 528.121094 294.695312 530.949219 C 291.589844 533.792969 291.394531 538.601562 294.222656 541.691406 C 296.140625 543.789062 338.84375 590.144531 370.140625 603.441406 C 370.503906 617.621094 371.128906 631.011719 371.921875 643.546875 C 370.945312 643.714844 369.972656 643.882812 368.96875 644.046875 C 351.09375 646.894531 341.917969 636.5625 327.253906 618.046875 C 317.089844 605.222656 305.574219 590.679688 287.621094 581.308594 C 260.023438 566.914062 227.832031 513.972656 228.226562 483.621094 C 228.394531 471.191406 234.082031 468.40625 235.953125 467.492188 C 241.75 464.664062 246.925781 463.566406 251.746094 463.566406 C 259.277344 463.566406 265.957031 466.199219 272.878906 468.9375 C 284.351562 473.457031 297.328125 478.570312 310.882812 467.25 C 319.265625 460.234375 323.660156 450.863281 323.570312 440.125 C 323.417969 421.0625 308.890625 398.46875 283.726562 378.144531 C 261.667969 360.3125 252.707031 310.199219 261.863281 284.351562 C 264.953125 275.617188 269.53125 271.191406 275.480469 271.191406 C 275.480469 271.191406 275.496094 271.191406 275.496094 271.191406 C 291.410156 271.207031 301.328125 279.3125 310.0625 286.464844 C 319.203125 293.949219 329.550781 302.425781 342.953125 294.511719 C 345.675781 292.914062 349.007812 289.445312 349.417969 282.097656 C 349.90625 273.394531 346.179688 260.449219 339.410156 247.441406 C 331.863281 232.925781 321.625 220.347656 310.5625 212.007812 C 299 203.292969 290.207031 184.957031 286.464844 161.695312 C 283.132812 141.035156 284.609375 119.675781 290.117188 108.539062 C 293.570312 101.542969 296.503906 102.378906 297.753906 102.726562 C 310.105469 106.195312 318.460938 114.199219 324.542969 120.042969 C 330.386719 125.640625 335.421875 130.464844 342.207031 128.851562 C 348.960938 127.238281 351.578125 119.84375 352.566406 117.042969 C 355.214844 109.527344 354.410156 97.964844 353.375 83.347656 C 351.839844 61.40625 349.921875 34.113281 360.996094 22.234375 C 364.984375 17.957031 370.671875 15.875 378.386719 15.875 C 399.519531 15.875 414.351562 20.726562 422.460938 30.296875 C 430.082031 39.300781 432.378906 53.269531 429.277344 71.84375 C 427.464844 82.660156 426.691406 93.433594 433.214844 98.847656 C 439.515625 104.082031 447.746094 101.054688 455.6875 98.148438 C 469.515625 93.082031 483.800781 87.847656 496.886719 108.128906 C 515.796875 137.429688 504.371094 196.808594 474.660156 223.664062 C 461.226562 235.804688 455.246094 242.878906 457.574219 250.257812 C 459.792969 257.300781 467.476562 258.257812 474.902344 259.171875 C 483.34375 260.222656 493.84375 261.53125 500.796875 268.832031 C 537.613281 307.488281 513.542969 338.800781 472.605469 382.144531 C 457.480469 398.179688 443.195312 413.300781 436 428.621094 Z M 436 428.621094 " fill-opacity="1" fill-rule="nonzero"/></svg>