<svg xmlns="http://www.w3.org/2000/svg" xmlns:xlink="http://www.w3.org/1999/xlink" width="1024" zoomAndPan="magnify" viewBox="0 0 768 767.999994" height="1024" preserveAspectRatio="xMidYMid meet" version="1.0"><path fill="#ffc13f" d="M 382.296875 114.839844 C 316.886719 114.839844 269.269531 150.742188 267.734375 261.59375 C 265.269531 439.8125 172.816406 421.734375 172.816406 575.714844 C 172.816406 636.074219 194.144531 764.78125 382.296875 764.78125 C 570.449219 764.78125 596.152344 630.898438 596.152344 574.949219 C 596.152344 518.996094 585.386719 496.382812 535.847656 426.4375 C 486.308594 356.492188 495.1875 324.945312 495.1875 248.804688 C 495.1875 172.664062 447.207031 114.839844 382.296875 114.839844 Z M 382.296875 114.839844 " fill-opacity="1" fill-rule="nonzero"/><path fill="#a2bf00" d="M 370.546875 114.839844 L 384.484375 130.785156 L 397.308594 120.796875 C 422.945312 49.464844 384.484375 9.011719 358.839844 -0.113281 C 330.324219 7.328125 318.6875 21.140625 318.707031 39.433594 C 361.152344 47.792969 372.625 117.679688 370.546875 114.839844 Z M 370.546875 114.839844 " fill-opacity="1" fill-rule="nonzero"/><path fill="#dba536" d="M 382.296875 768.113281 C 383.0625 768.113281 383.746094 767.878906 384.351562 767.414062 C 389.203125 763.625 503.292969 673.726562 503.292969 587.757812 C 503.292969 519.054688 471.964844 445.652344 453.257812 401.792969 C 448.59375 390.8125 444.539062 381.347656 442.09375 374.480469 C 430.289062 341.445312 426.4375 258.007812 426.4375 232.972656 C 426.4375 206.765625 413.867188 132.320312 384.175781 112.0625 C 383.988281 111.933594 383.789062 111.828125 383.578125 111.738281 C 383.367188 111.652344 383.152344 111.585938 382.929688 111.542969 C 382.703125 111.5 382.480469 111.480469 382.25 111.484375 C 382.023438 111.488281 381.796875 111.511719 381.574219 111.5625 C 381.351562 111.613281 381.136719 111.683594 380.929688 111.777344 C 380.722656 111.871094 380.527344 111.984375 380.34375 112.117188 C 380.15625 112.25 379.988281 112.402344 379.835938 112.570312 C 379.683594 112.738281 379.546875 112.917969 379.429688 113.113281 C 377.945312 115.632812 342.910156 175.460938 341.691406 239.003906 C 340.53125 299.148438 339.53125 351.082031 326.246094 375.226562 C 314.246094 397.035156 267.273438 511.109375 267.273438 592.605469 C 267.273438 668.933594 304.375 726.210938 380.710938 767.6875 C 381.203125 767.964844 381.730469 768.105469 382.296875 768.113281 Z M 273.941406 592.625 C 273.941406 516.75 318.066406 403.921875 332.085938 378.457031 C 346.167969 352.867188 347.183594 300.171875 348.355469 239.160156 C 349.382812 185.644531 376.011719 133.25 383.332031 119.824219 C 408.53125 141.371094 419.769531 209.492188 419.769531 232.996094 C 419.769531 259.386719 423.570312 342.484375 435.820312 376.746094 C 438.328125 383.773438 442.40625 393.332031 447.152344 404.402344 C 465.671875 447.796875 496.652344 520.414062 496.652344 587.757812 C 496.652344 664.929688 396.363281 749.117188 382.003906 760.792969 C 309.273438 720.707031 273.941406 665.640625 273.941406 592.625 Z M 273.941406 592.625 " fill-opacity="1" fill-rule="nonzero"/></svg>