<svg xmlns="http://www.w3.org/2000/svg" xmlns:xlink="http://www.w3.org/1999/xlink" width="1024" zoomAndPan="magnify" viewBox="0 0 768 767.999994" height="1024" preserveAspectRatio="xMidYMid meet" version="1.0"><path fill="#e34263" d="M 234.148438 162.914062 C 112.707031 199.085938 18.238281 406.601562 35.648438 507.628906 C 53.054688 608.65625 126.195312 767.550781 390.84375 750.800781 C 655.492188 734.066406 749.519531 532.007812 704.246094 340.414062 C 658.972656 148.820312 467.464844 93.414062 234.148438 162.914062 Z M 234.148438 162.914062 " fill-opacity="1" fill-rule="nonzero"/><path fill="#3eb57b" d="M 481.390625 117.460938 C 481.390625 117.460938 561.476562 91.300781 620.675781 90.441406 C 620.675781 90.441406 522.128906 52.660156 410.316406 108.988281 C 413.617188 64.796875 416.027344 8.046875 401.800781 8.046875 C 380.21875 8.046875 348.539062 18.917969 354.007812 27.769531 C 365.101562 45.710938 365.886719 102.59375 365.464844 132.65625 C 349.382812 125.886719 276.46875 99.789062 178.414062 134.148438 C 178.414062 134.148438 230.652344 152.195312 261.984375 183.601562 C 261.984375 183.601562 216.710938 239.265625 227.15625 363 C 270.679688 257.988281 376.902344 193.851562 397.789062 206.171875 C 418.679688 218.488281 453.507812 334.519531 453.507812 419.324219 C 484.886719 357.222656 509.859375 269.777344 509.378906 183.601562 C 509.378906 183.601562 613.699219 180.691406 676.378906 218.746094 C 676.394531 218.746094 638.097656 113.976562 481.390625 117.460938 Z M 481.390625 117.460938 " fill-opacity="1" fill-rule="nonzero"/><path fill="#000000" d="M 711.585938 338.679688 C 699.574219 287.855469 677.539062 245.597656 645.847656 212.308594 C 655.265625 215.941406 664.277344 220.191406 672.492188 225.183594 C 675.21875 226.839844 678.714844 226.601562 681.1875 224.5625 C 683.660156 222.527344 684.578125 219.152344 683.476562 216.152344 C 683.054688 215.003906 672.898438 187.851562 642.652344 161.136719 C 620.632812 141.6875 584.128906 119.523438 527.976562 112.257812 C 555.433594 105.503906 591.03125 98.402344 620.796875 97.964844 C 624.414062 97.921875 627.472656 95.296875 628.105469 91.753906 C 628.738281 88.195312 626.75 84.683594 623.390625 83.402344 C 622.0625 82.890625 590.535156 71.007812 542.730469 70.511719 C 510.628906 70.179688 466.46875 75.214844 418.695312 96.714844 C 421.917969 46.492188 420.96875 15.210938 411.488281 4.914062 C 408.128906 1.265625 404.375 0.496094 401.828125 0.496094 C 392.425781 0.496094 380.699219 2.425781 370.464844 5.667969 C 358.273438 9.527344 350.542969 14.273438 347.46875 19.777344 C 345.296875 23.683594 345.359375 28.023438 347.632812 31.71875 C 356.117188 45.4375 358.09375 88.90625 358.0625 121.742188 C 330.0625 112.136719 262.859375 96.5625 175.960938 127.019531 C 172.929688 128.074219 170.910156 130.9375 170.910156 134.148438 C 170.910156 137.359375 172.945312 140.210938 175.988281 141.265625 C 176.304688 141.371094 196.003906 148.277344 217.992188 160.667969 C 165.90625 181.914062 114.890625 234.46875 76.203125 307.410156 C 38.269531 378.875 19.445312 457.949219 28.230469 508.910156 C 36.507812 556.882812 58.328125 625.316406 115.386719 678.871094 C 172.507812 732.496094 252.339844 759.558594 353.058594 759.558594 C 365.492188 759.558594 378.257812 759.152344 391.339844 758.324219 C 510.265625 750.800781 603.722656 705.539062 661.566406 627.441406 C 718.535156 550.523438 736.769531 445.273438 711.585938 338.679688 Z M 357.882812 137.796875 C 357.777344 143.042969 357.625 147.671875 357.460938 151.398438 C 357.28125 155.558594 360.503906 159.070312 364.664062 159.253906 C 368.839844 159.449219 372.335938 156.207031 372.515625 152.046875 C 372.953125 141.945312 376.328125 54.742188 361.695312 26.050781 C 366.714844 22.101562 384.648438 15.859375 400.746094 15.585938 C 402.054688 17.5625 405.792969 26.230469 405.25 60.304688 C 404.875 84.351562 402.582031 111.941406 400.910156 132.085938 C 399.886719 144.492188 399.132812 153.460938 399.132812 157.851562 C 399.132812 162.011719 402.507812 165.386719 406.667969 165.386719 C 410.828125 165.386719 414.203125 162.011719 414.203125 157.851562 C 414.203125 154.082031 414.957031 144.929688 415.921875 133.335938 C 416.480469 126.625 416.992188 120.160156 417.457031 113.933594 C 465.429688 90.730469 510.011719 85.363281 541.902344 85.574219 C 553.160156 85.664062 563.496094 86.433594 572.691406 87.546875 C 525.667969 95.160156 481.511719 109.46875 479.039062 110.269531 C 475.480469 111.429688 473.328125 115.015625 473.945312 118.695312 C 474.578125 122.375 477.832031 125.058594 481.539062 124.96875 C 543.316406 123.582031 595.34375 139.804688 632.011719 171.855469 C 643.644531 182.03125 652.070312 192.34375 657.949219 200.894531 C 594.964844 174.011719 513.039062 175.925781 509.167969 176.03125 C 505.066406 176.152344 501.8125 179.515625 501.839844 183.617188 C 502.21875 250.058594 486.679688 324.445312 459.640625 388.144531 C 453.054688 309.867188 424.558594 213.167969 401.617188 199.644531 C 398.753906 197.953125 395.199219 197.109375 390.992188 197.109375 C 386.277344 197.109375 380.746094 198.164062 374.414062 200.277344 C 351.582031 207.917969 321.984375 227.609375 295.246094 252.96875 C 276.679688 270.5625 252.488281 297.566406 233.183594 332.949219 C 231.722656 234.558594 267.441406 188.789062 267.816406 188.320312 C 270.257812 185.320312 270.03125 180.960938 267.304688 178.234375 C 247.171875 158.0625 219.289062 143.375 200.660156 135.023438 C 278.546875 113.449219 337.640625 130.320312 357.882812 137.796875 Z M 649.449219 618.472656 C 594.316406 692.890625 504.734375 736.039062 390.375 743.277344 C 377.609375 744.089844 365.191406 744.484375 353.074219 744.484375 C 256.304688 744.484375 179.921875 718.777344 125.695312 667.878906 C 71.695312 617.175781 50.960938 552.058594 43.09375 506.347656 C 34.847656 458.492188 53.054688 383.1875 89.496094 314.496094 C 129.285156 239.488281 181.972656 187.28125 234.34375 170.785156 C 240.539062 174.992188 246.597656 179.605469 252.113281 184.597656 C 240.824219 201.996094 210.863281 259.074219 219.679688 363.648438 C 219.964844 367.113281 222.605469 369.933594 226.023438 370.460938 C 229.460938 371.003906 232.808594 369.105469 234.148438 365.894531 C 267.878906 284.523438 340.65625 227.519531 379.222656 214.628906 C 390.632812 210.8125 393.960938 212.652344 393.992188 212.683594 C 399.585938 215.984375 412.785156 238.644531 426.246094 287.585938 C 438.800781 333.222656 446.003906 381.257812 446.003906 419.355469 C 446.003906 422.835938 448.398438 425.882812 451.789062 426.683594 C 452.378906 426.816406 452.964844 426.894531 453.539062 426.894531 C 456.328125 426.894531 458.964844 425.339844 460.261719 422.746094 C 495.042969 353.890625 516.007812 267.894531 516.914062 191.125 C 532.886719 191.261719 572.675781 192.632812 612.476562 202.113281 C 654.558594 235.886719 682.90625 282.835938 696.9375 342.164062 C 721.082031 444.414062 703.777344 545.125 649.449219 618.472656 Z M 649.449219 618.472656 " fill-opacity="1" fill-rule="nonzero"/></svg>